<svg xmlns="http://www.w3.org/2000/svg" width="220.743" height="25.362" viewBox="0 0 220.743 25.362">
  <g id="グループ_978" data-name="グループ 978" transform="translate(-89.685 -118.388)">
    <g id="グループ_964" data-name="グループ 964" transform="translate(89.685 118.388)">
      <g id="グループ_90" data-name="グループ 90" transform="translate(7.551 6.945)">
        <path id="パス_279" data-name="パス 279" d="M566.343,1530.73l.081.3.057.321.1.312.095.313.037.326.052.322.1.312.091.315.092.316.04.328-.325.12-.343.057-.331.119-.347-.03-.333.092-.341.057-.328.1-.331.083-.335.066-.334.064-.332.076-.344,0-.333.078-.339.02-.337.035-.351.052-.083-.348-.081-.333-.062-.338-.117-.322-.115-.322-.072-.335-.11-.323-.088-.33-.06-.337-.112-.323-.116-.321-.059-.337-.124-.318-.07-.334-.093-.331-.109-.325-.037-.345-.1-.326-.109-.324-.118-.321-.069-.334-.083-.33-.083-.329-.112-.321-.083-.33-.107-.323-.094-.328-.12-.319-.085-.328-.084-.33-.118-.318-.049-.34-.145-.308-.1-.353.358-.059.353-.048.351-.056.345-.083.351-.05.345-.087.347-.084.358-.033.328-.07.117.3.075.332.087.329.041.34.1.327.07.334.083.328.057.334.086.329.133.319.066.334.071.332.069.333.1.326.086.33.084.331.061.337.089.33.084.331.06.336.049.341.106.328.077.335.077.337.344-.058.348,0,.343-.044.334-.106.351.007.346-.029.339-.1Z" transform="translate(-558.541 -1523.131)"/>
      </g>
      <g id="グループ_91" data-name="グループ 91" transform="translate(19.784 7.244)">
        <path id="パス_280" data-name="パス 280" d="M588.886,1530.954l-.064-.343-.092-.325-.07-.327-.083-.325-.1-.321-.047-.337-.1-.322-.084-.326-.086-.326-.087-.327-.06-.333-.079-.328-.1-.325-.091-.326-.058-.334-.094-.325-.057-.335-.115-.322-.081-.331-.05-.324.312-.088.327-.089.334-.057.327-.094.332-.076.324-.111.334-.043.076.312.035.336.053.332.069.329.065.33.07.329.071.329.058.332.071.33.1.323.046.335.063.331.1.323.041.336.095.325.046.335.1.324.066.331.05.337.089.342-.345.083-.346.058-.338.1-.343.079-.338.1Z" transform="translate(-587.287 -1523.834)"/>
      </g>
      <g id="グループ_92" data-name="グループ 92" transform="translate(38.446 9.711)">
        <path id="パス_281" data-name="パス 281" d="M632.658,1529.923l.117.363.134.351.126.354.121.357.126.354.139.35.121.355.138.352.123.357.126.358.11.354-.342.125-.348.143-.353.13-.357.124-.349.152-.138-.369-.077-.377-.086-.374-.083-.375-.068-.377-.1-.371-.064-.378-.082-.374-.07-.377-.081-.376-.1-.37-.1-.373-.1-.384.376.1.378.068.382.051Z" transform="translate(-631.141 -1529.63)"/>
      </g>
      <g id="グループ_93" data-name="グループ 93" transform="translate(56.444 4.829)">
        <path id="パス_282" data-name="パス 282" d="M675.08,1518.159l.218.323.261.273.221.305.247.286.234.3.253.283.226.307-.321.279-.343.253-.323.279-.324.278-.335.256-.233-.3-.215-.322-.174-.348-.177-.344-.22-.322-.193-.341-.227-.318-.22-.309.326-.151.329-.16.334-.152.32-.184Z" transform="translate(-673.434 -1518.159)"/>
      </g>
      <g id="グループ_94" data-name="グループ 94" transform="translate(59.204 4.051)">
        <path id="パス_283" data-name="パス 283" d="M681.921,1516.331l.245.4.209.412.218.279.19.32.172.338-.427.174-.419.189-.423.183-.42.2-.28-.336-.251-.357-.268-.345-.283-.334-.264-.337.4-.14.39-.188.414-.128.4-.169Z" transform="translate(-679.92 -1516.331)"/>
      </g>
      <g id="グループ_95" data-name="グループ 95" transform="translate(27.272 9.287)">
        <path id="パス_284" data-name="パス 284" d="M612.247,1534.993l-.1-.419-.073-.418-.094-.416-.069-.421-.341.113-.358.051-.342.113-.344.11-.357.081-.147-.4-.165-.391-.164-.391-.139-.352-.1-.367-.143-.353-.077-.376-.2-.343-.132-.372-.175-.352-.171-.356-.152-.365-.182-.353-.152-.378-.406.053-.4.009-.395.048-.4,0-.4.016-.4.035-.4.047-.4,0,.168.388.106.4.155.385.12.4.171.384.095.377.128.365.129.365.13.366.13.366.135.364.128.368.125.368.119.37.127.366.1.376.13.368.152.362.119.362.37-.08.388-.052.38-.087.378-.094.38-.083.383-.077.388-.053.382-.091.386-.07v0l.361-.071.36-.082.366-.051Z" transform="translate(-604.883 -1528.636)"/>
      </g>
      <g id="グループ_97" data-name="グループ 97" transform="translate(44.192 6.778)">
        <g id="グループ_96" data-name="グループ 96" transform="translate(0)">
          <path id="パス_285" data-name="パス 285" d="M658.98,1529.468c-.116-.132-.129-.122-.239-.258s-.109-.138-.22-.275-.117-.132-.228-.269-.092-.152-.2-.288-.1-.143-.213-.279-.127-.124-.239-.261-.094-.151-.205-.289-.107-.141-.219-.279-.12-.131-.233-.268c-.081-.089-.168-.172-.248-.26s-.144-.193-.223-.281-.175-.165-.254-.253-.169-.171-.248-.258l-.242-.269c-.082-.091-.166-.177-.245-.264s-.15-.191-.229-.278-.142-.2-.22-.284-.172-.169-.249-.256-.19-.152-.267-.239-.127-.209-.2-.3-.192-.153-.27-.241-.153-.185-.229-.272-.139-.2-.215-.285-.172-.169-.247-.255-.145-.184-.219-.27c-.148.055-.1.118-.225.22s-.131.089-.252.19-.113.112-.234.214-.146.071-.271.17c-.077.048-.158.092-.259.166-.068.05-.143.117-.239.2-.068.057-.142.128-.23.207-.07.063-.123.158-.208.237l-.286.266a2.977,2.977,0,0,1-.293.252c-.059.047-.146.124-.295.249-.08.067-.18.146-.3.247s-.123.113-.243.229-.117.12-.237.236-.123.112-.243.228-.118.117-.238.234-.114.122-.234.238-.121.116-.241.232-.122.116-.242.233-.143.095-.263.212-.1.142-.22.256-.131.128-.267.25l-.273.245c-.136.122-.137.121-.274.242s-.158.1-.294.22-.146.112-.283.235-.1.16-.239.282-.146.111-.283.234-.145.112-.281.234l-.274.245c-.137.123-.12.143-.257.265s-.152.107-.289.23-.242.064-.263.248c-.019.166.1.126.205.254s.1.134.209.262.113.125.222.253.119.118.227.245.081.151.189.28.108.129.216.256.113.125.222.253.125.116.234.244.107.131.217.26.066.187.209.277c.083-.068.194-.156.29-.243.079-.072.144-.173.237-.262.078-.075.174-.144.266-.233s.144-.177.235-.265.19-.131.281-.218.144-.181.234-.266.169-.155.26-.239l.26-.24c.083-.076.173-.154.264-.236s.17-.158.261-.24.165-.165.257-.246.18-.148.272-.229.183-.146.275-.227.169-.163.261-.243c.123-.12.154-.089.275-.212s.112-.132.234-.255.093-.15.214-.271.154-.09.276-.213.1-.144.22-.267.14-.106.262-.228.116-.13.238-.253.137-.109.26-.233.118-.128.24-.251c.151-.151.25-.281.343-.38.132.051.087.109.182.214s.087.113.183.217c.127.138.162.106.289.245s.1.162.227.3.123.142.251.281.122.144.25.282.167.1.295.243.12.147.244.29.079.161.188.3.149.1.259.24.079.16.188.3l.22.273c.11.137.132.119.242.256s.113.135.223.272.115.132.23.266.1.153.222.288.128.128.251.263.114.143.236.277.1.151.225.285.155.1.277.239.1.152.226.286.125.133.248.268.106.151.229.286.168.1.289.233.1.151.22.289.1.151.218.289.113.142.229.279.127.13.244.268.123.134.241.272l.233.278c.117.138.126.131.243.269s.114.142.232.281.088.163.206.3.135.124.252.262.1.153.217.291.119.138.237.278.115.141.233.28.152.111.27.25.041.307.224.309.122-.151.236-.287.115-.136.229-.272.1-.15.212-.287.131-.121.245-.257.1-.148.215-.285.137-.119.251-.256.086-.162.2-.3a1.051,1.051,0,0,0,.214-.28,2.476,2.476,0,0,1-.222-.24c-.064-.08-.111-.194-.19-.3-.066-.086-.152-.169-.228-.27s-.154-.171-.228-.27-.121-.2-.194-.3-.12-.2-.194-.3-.134-.191-.208-.287-.164-.168-.238-.263-.152-.176-.225-.27-.137-.189-.211-.282-.148-.181-.224-.274-.134-.193-.21-.285-.169-.165-.246-.257-.16-.173-.237-.264-.151-.18-.229-.269-.137-.194-.217-.282-.172-.163-.252-.251-.138-.2-.22-.282-.178-.158-.261-.243-.162-.175-.246-.258-.167-.169-.252-.25S659.067,1529.547,658.98,1529.468Z" transform="translate(-644.642 -1522.739)"/>
        </g>
        <path id="パス_286" data-name="パス 286" d="M688.974,1551.353c.09-.317.375-.027.152-.169s-.266-.293-.237-.313,1.511.151-.57-.275Z" transform="translate(-669.733 -1538.741)"/>
        <path id="パス_287" data-name="パス 287" d="M689.444,1548.623l0-.08a.1.1,0,0,1,.14.137.072.072,0,0,1-.09,0,.065.065,0,0,0-.089-.068v-.038l.1-.014" transform="translate(-670.357 -1537.548)"/>
      </g>
      <path id="パス_288" data-name="パス 288" d="M593.171,1539.008c-.023.012-.046.033-.069.034a.415.415,0,0,0-.19.07.864.864,0,0,1-.315.12.118.118,0,0,0-.026.006,3.654,3.654,0,0,1-.523.14c-.1.03-.2.041-.294.068s-.191.065-.286.1c-.02.007-.051.013-.042.044s.056.033.078.018.028-.032.046-.041a.134.134,0,0,1,.051,0c0,.013,0,.027-.007.04s-.01.022-.012.034c-.005.029.027.1.045.1a.066.066,0,0,0,.053-.073c0-.125.082-.151.177-.165.041-.006.083,0,.123-.013.024,0,.046-.025.07-.032a.225.225,0,0,1,.06,0c0,.016-.007.033-.013.049-.013.036-.029.072-.039.11,0,.017,0,.052.006.055.032.013.038-.021.046-.04s.02-.069.031-.1c.02-.065.051-.077.113-.048s.033-.055.046.009a.48.48,0,0,0,.014.079c.023.063.065.07.114.024a.313.313,0,0,1,.07-.055c.063-.03.089-.013.088.056,0,.018-.005.036-.006.053a.117.117,0,0,0,.074.128.108.108,0,0,0,.145-.054,1.007,1.007,0,0,1,.255-.307.237.237,0,0,0,.058-.078.194.194,0,0,1,.073-.1.105.105,0,0,0,.034-.067c.014-.091.05-.038.016-.122Z" transform="translate(-569.88 -1525.307)"/>
      <path id="パス_289" data-name="パス 289" d="M593.29,1540.873c0,.058-.064.139-.083.124a.16.16,0,0,1-.052-.1c-.006-.04.014-.089.062-.084C593.247,1540.821,593.273,1540.859,593.29,1540.873Z" transform="translate(-570.873 -1526.346)"/>
      <g id="グループ_98" data-name="グループ 98" transform="translate(0 0)">
        <path id="パス_290" data-name="パス 290" d="M540.843,1512.281c-.109-.118.005-.15.01-.311s-.022-.161-.018-.322.013-.161.017-.323,0-.161,0-.323.029-.16.033-.322-.026-.163-.022-.324.025-.161.029-.322.017-.161.021-.323-.027-.162-.023-.323,0-.162.008-.324.02-.162.024-.324.018-.162.023-.325.01-.162.012-.325-.021-.158-.021-.315-.014-.158-.014-.315.038-.158.038-.317-.08-.169-.03-.319c.1,0,.217-.01.324-.01s.2.014.312.015.2-.009.315-.009.2.012.317.012c.086,0,.191-.022.312-.022.094,0,.2.005.312.005.1,0,.2.02.311.02s.2.009.312.009.205-.023.312-.022.206.012.312.012.206.01.311.011.207-.005.312,0,.208-.017.312-.017.209.009.314.01.211.018.315.018.21-.025.313-.025.21.02.314.02.212-.017.315-.016.211,0,.313.005.213-.01.314-.009.212.025.311.026.233,0,.329,0c.046.164-.023.176-.023.346s0,.172,0,.343.009.172.009.343-.023.172-.023.345.146.229.027.354-.17-.032-.329-.035-.161.026-.321.023l-.32,0c-.16,0-.16-.031-.32-.034s-.161.035-.322.033-.16-.011-.321-.014l-.32,0c-.16,0-.16-.005-.32-.008s-.161.011-.322.008-.161-.025-.322-.028-.162.016-.323.014-.161-.024-.323-.024-.147.017-.293.018-.147.006-.294.008-.148-.026-.3-.023-.147.025-.294.026c-.058,0-.116-.009-.169-.009a1.272,1.272,0,0,0,0,.32c0,.16,0,.16.005.32s0,.16.009.319.028.159.032.319.015.16.02.321.008.16.012.32-.026.161-.022.32.017.159.021.319.02.16.024.321,0,.161.006.321.011.161.015.322.092.2-.021.313-.148-.006-.305-.012-.159.018-.316.01-.157-.042-.315-.049-.159,0-.317,0-.164-.052-.322-.027S540.951,1512.4,540.843,1512.281Z" transform="translate(-540.796 -1506.811)"/>
      </g>
      <g id="グループ_99" data-name="グループ 99" transform="translate(65.486 19.895)">
        <path id="パス_291" data-name="パス 291" d="M697.658,1557.151c.15,0,.15.011.3.01s.15.006.3,0,.149-.032.3-.034.149.018.3.017.15-.011.3-.012.151.024.3.023.151-.01.3-.011.151,0,.3,0c.06,0,.138,0,.194-.005.023-.158-.029-.163-.034-.323s.015-.161.01-.32-.04-.159-.045-.318.021-.161.015-.321-.031-.159-.036-.319.025-.161.02-.32-.028-.159-.033-.318,0-.16,0-.32-.008-.16-.013-.321.017-.162.012-.323-.138-.211-.029-.329.158,0,.306,0,.147.044.3.05.149-.011.3-.005.149.017.3.024.149.01.3.016.15-.009.3,0,.189-.091.29.02.005.145,0,.3.011.155.007.309-.015.155-.02.309-.02.154-.024.308-.016.154-.02.308.033.156.028.311-.029.154-.034.309-.016.154-.02.309.024.155.02.309-.024.154-.029.31-.013.155-.017.311.01.156.005.312.021.156.019.312-.013.16-.013.32-.007.161-.007.321-.006.161-.006.322.056.17,0,.322c-.11,0-.219.01-.332.01s-.213-.029-.329-.03-.214.02-.333.019c-.1,0-.214-.016-.334-.016-.086,0-.191.027-.312.027-.094,0-.2-.016-.311-.016-.1,0-.2-.005-.311-.006s-.2.016-.312.015l-.312,0c-.1,0-.206.005-.312.005s-.206-.015-.312-.016-.206,0-.311,0-.207-.006-.312-.007-.209-.011-.313-.011-.21.019-.314.019-.209.019-.313.019-.209-.029-.312-.029-.21.023-.313.022-.212,0-.315,0-.211-.026-.312-.026-.212.008-.313.007-.213.012-.311.011-.222-.018-.319-.019c-.053-.148.006-.16,0-.318s-.017-.156-.025-.313.009-.159,0-.317,0-.158-.01-.316-.039-.156-.047-.315-.125-.208-.013-.321.165.022.327.026.163,0,.325.006.162.006.324.01.162-.02.324-.017.162,0,.323.005.163-.01.326-.006.162.019.325.022.163,0,.326.006S697.5,1557.15,697.658,1557.151Z" transform="translate(-694.683 -1553.563)"/>
      </g>
    </g>
    <path id="パス_803" data-name="パス 803" d="M10.332-8.112a.694.694,0,0,1-.7-.684.7.7,0,0,1,.7-.7.694.694,0,0,1,.684.7A.692.692,0,0,1,10.332-8.112ZM2.676-8.52a13.361,13.361,0,0,1-1.428-.1v1.692c.312-.024.876-.048,1.428-.048H8.268A7.706,7.706,0,0,1,6.852-3.588a7.886,7.886,0,0,1-4.7,2.82L3.456.66A9.5,9.5,0,0,0,8.28-2.652a12.114,12.114,0,0,0,1.8-4.368l.1-.36a.684.684,0,0,0,.156.012A1.439,1.439,0,0,0,11.76-8.8a1.442,1.442,0,0,0-1.428-1.44A1.444,1.444,0,0,0,8.892-8.8a1.329,1.329,0,0,0,.024.228,5.312,5.312,0,0,1-.684.048ZM20.94-6.96v4.98h-5.8V-6.96Zm1.608-.384c0-.36,0-.8.024-1.164-.432.024-.888.024-1.188.024h-6.6c-.324,0-.78-.012-1.272-.024.024.336.024.828.024,1.164v5.868c0,.576-.024,1.62-.036,1.68h1.656l-.012-.66h5.784L20.916.2h1.656c0-.048-.024-1.2-.024-1.668Zm10.2-1.872-1,.42a10.839,10.839,0,0,1,1.056,1.884l1.044-.444A18.062,18.062,0,0,0,32.748-9.216ZM34.4-9.792l-1.02.42a11.531,11.531,0,0,1,1.128,1.824L35.532-8A15.431,15.431,0,0,0,34.4-9.792Zm-6.864.348-.864,1.32c.792.444,2.04,1.248,2.712,1.716l.888-1.32C29.652-8.16,28.332-9.012,27.54-9.444ZM25.32-.924l.9,1.572A15.092,15.092,0,0,0,30.228-.828a14.475,14.475,0,0,0,4.764-4.32L34.068-6.78A12.148,12.148,0,0,1,29.4-2.28,12.869,12.869,0,0,1,25.32-.924Zm.372-5.784-.864,1.32c.8.432,2.052,1.236,2.736,1.716l.876-1.344C27.828-5.448,26.508-6.276,25.692-6.708ZM42.756-1.176V-5.04h2.052c.264,0,.636.024.936.048V-6.5a8.169,8.169,0,0,1-.936.06h-5.5a6.288,6.288,0,0,1-.948-.06v1.512c.264-.024.7-.048.948-.048h1.872v3.864H38.736a9.269,9.269,0,0,1-.984-.072V.324a7.088,7.088,0,0,1,.984-.06H45.36a6.118,6.118,0,0,1,.912.06V-1.248a8.815,8.815,0,0,1-.912.072ZM57.564-8.22a3.848,3.848,0,0,1-1.044.144H54.108l.036-.06c.144-.264.444-.8.732-1.224l-1.752-.576a5.773,5.773,0,0,1-.54,1.26A10.566,10.566,0,0,1,48.84-4.812l1.344,1a13.678,13.678,0,0,0,3.024-2.9H56.58a8.53,8.53,0,0,1-1.7,3.276A9.564,9.564,0,0,1,50.04-.48L51.456.792A11.305,11.305,0,0,0,56.3-2.592,12.521,12.521,0,0,0,58.392-6.6a4.8,4.8,0,0,1,.4-.864Zm12.864,3.8a39.193,39.193,0,0,0-5.016-1.86V-8.04a13.051,13.051,0,0,1,.108-1.452H63.648a8.369,8.369,0,0,1,.12,1.452v6.888a12.84,12.84,0,0,1-.12,1.668H65.52c-.048-.48-.108-1.32-.108-1.668v-3.4A34.661,34.661,0,0,1,69.744-2.76ZM75.276-2.16c-.444,0-.924-.588-.924-1.788a3.726,3.726,0,0,1,3.012-3.444,19.074,19.074,0,0,1-.636,2.88C76.248-2.9,75.768-2.16,75.276-2.16ZM78.54.492c3-.456,4.536-2.232,4.536-4.728a4.535,4.535,0,0,0-4.8-4.644A5.3,5.3,0,0,0,72.8-3.792c0,2,1.116,3.456,2.424,3.456S77.556-1.8,78.264-4.2a25.826,25.826,0,0,0,.708-3.228,2.941,2.941,0,0,1,2.484,3.144,3.217,3.217,0,0,1-2.7,3.18c-.312.072-.648.132-1.1.192ZM94.476.264c-.024-.36-.048-1-.048-1.416V-7.368c0-.348.024-.828.036-1.1-.2.012-.708.024-1.056.024H87.372c-.42,0-1.044-.024-1.488-.072v1.668c.336-.024.984-.048,1.488-.048H92.76v4.968H87.228c-.54,0-1.08-.036-1.5-.072V-.288c.4-.036,1.08-.072,1.548-.072h5.472c0,.228,0,.432-.012.624ZM98.892-9.12l-1.128,1.2a24.951,24.951,0,0,1,3,2.592l1.224-1.26A25.2,25.2,0,0,0,98.892-9.12Zm-1.5,7.992L98.4.456a13,13,0,0,0,4.452-1.692,12.76,12.76,0,0,0,4.44-4.44l-.936-1.692A11.379,11.379,0,0,1,101.988-2.7,12.368,12.368,0,0,1,97.392-1.128Zm18.672-1.6a16.873,16.873,0,0,0,2.484-3.492c.108-.216.288-.48.4-.648l-1.152-.9a3.916,3.916,0,0,1-.852.288c-.54.12-2.22.468-3.972.792V-8.1a9.876,9.876,0,0,1,.108-1.368h-1.788a10.06,10.06,0,0,1,.1,1.368v1.716c-1.188.216-2.244.4-2.808.468l.288,1.572c.5-.12,1.452-.312,2.52-.528V-1.6c0,1.416.4,2.076,3.132,2.076a28.207,28.207,0,0,0,3.72-.264l.048-1.62a20.617,20.617,0,0,1-3.792.4c-1.308,0-1.524-.264-1.524-1.008V-5.2c1.7-.336,3.324-.66,3.7-.732a10.424,10.424,0,0,1-1.92,2.424Zm14.268-5.388a.694.694,0,0,1-.7-.684.7.7,0,0,1,.7-.7.694.694,0,0,1,.684.7A.692.692,0,0,1,130.332-8.112Zm-7.656-.408a13.361,13.361,0,0,1-1.428-.1v1.692c.312-.024.876-.048,1.428-.048h5.592a7.706,7.706,0,0,1-1.416,3.384,7.886,7.886,0,0,1-4.7,2.82L123.456.66a9.5,9.5,0,0,0,4.824-3.312,12.114,12.114,0,0,0,1.8-4.368l.1-.36a.684.684,0,0,0,.156.012A1.439,1.439,0,0,0,131.76-8.8a1.442,1.442,0,0,0-1.428-1.44,1.444,1.444,0,0,0-1.44,1.44,1.328,1.328,0,0,0,.024.228,5.312,5.312,0,0,1-.684.048Zm19.752,4.1a39.192,39.192,0,0,0-5.016-1.86V-8.04a13.049,13.049,0,0,1,.108-1.452h-1.872a8.369,8.369,0,0,1,.12,1.452v6.888a12.839,12.839,0,0,1-.12,1.668h1.872c-.048-.48-.108-1.32-.108-1.668v-3.4a34.661,34.661,0,0,1,4.332,1.788Z" transform="translate(168 139.388)"/>
  </g>
</svg>
