<svg id="コンポーネント_3_169" data-name="コンポーネント 3 – 169" xmlns="http://www.w3.org/2000/svg" xmlns:xlink="http://www.w3.org/1999/xlink" width="28" height="28" viewBox="0 0 28 28">
  <defs>
    <clipPath id="clip-path">
      <rect id="長方形_7" data-name="長方形 7" width="28" height="28" transform="translate(635.64 1562.851)" fill="none"/>
    </clipPath>
  </defs>
  <g id="グループ_111" data-name="グループ 111" transform="translate(-635.64 -1562.851)" clip-path="url(#clip-path)">
    <g id="グループ_110" data-name="グループ 110">
      <g id="グループ_109" data-name="グループ 109">
        <path id="パス_293" data-name="パス 293" d="M636.077,1576.946c0-.245-.039-.495-.026-.738s.128-.484.154-.725.206-.463.245-.7.057-.481.109-.718-.032-.51.033-.744.186-.455.263-.686.262-.421.352-.647-.015-.538.087-.758.331-.384.445-.6.226-.432.351-.641.27-.405.407-.606.328-.362.475-.556.23-.438.388-.623.4-.289.571-.466.3-.378.482-.546.364-.318.549-.476.322-.375.516-.522.4-.279.6-.416.407-.267.616-.393.415-.254.631-.368.476-.13.7-.232.37-.372.6-.462.446-.214.677-.292.477-.125.713-.19.522.086.761.033.43-.344.671-.383.5.012.741-.014.483-.124.728-.137.493.057.738.057.492.01.734.023.476.17.717.2.485.03.724.069.5.005.733.057.453.2.687.264.45.181.68.258.516.007.742.1.468.154.689.257.356.38.571.494.535.046.743.171.424.254.626.391.332.379.526.526.412.268.6.426.313.381.49.548.308.377.475.554.477.228.635.413.2.469.345.663.259.41.4.611.252.412.378.621.389.338.5.554.078.5.18.726.275.409.365.636.148.463.226.694.217.443.282.678.034.492.087.731.252.449.292.69-.146.51-.12.754.089.475.1.72.166.483.166.728.016.494,0,.736-.227.472-.253.714.1.505.058.744-.241.451-.293.688.013.505-.052.739-.128.473-.2.7-.209.444-.3.67-.3.4-.4.62-.175.451-.289.666-.2.446-.321.654-.22.436-.357.638-.289.392-.436.586-.37.324-.528.509-.33.35-.5.527-.249.435-.426.6-.287.414-.473.572-.381.313-.575.46-.445.221-.647.358-.373.326-.582.452-.4.29-.617.4-.51.073-.732.176-.411.277-.638.367-.446.206-.678.284-.484.088-.72.154-.482.072-.721.125-.458.2-.7.241-.5-.07-.743-.044-.48.054-.725.067-.482-.006-.728-.006-.483-.031-.725-.044-.49.045-.731.019-.488-.028-.728-.067-.488-.052-.725-.1-.505-.01-.739-.075-.471-.156-.7-.233-.414-.3-.64-.387-.461-.162-.681-.264-.38-.325-.595-.439-.538-.039-.746-.165-.339-.378-.54-.515-.414-.256-.608-.4-.345-.344-.531-.5-.335-.349-.512-.517-.514-.174-.682-.351-.2-.475-.36-.661-.384-.316-.531-.51-.362-.345-.5-.546-.166-.476-.292-.685-.3-.39-.417-.606-.172-.46-.274-.682-.1-.485-.188-.712-.151-.456-.229-.687-.172-.45-.237-.686-.321-.421-.374-.66-.068-.487-.107-.729.093-.5.067-.746-.214-.47-.227-.715S636.077,1577.191,636.077,1576.946Z"/>
        <g id="グループ_108" data-name="グループ 108">
          <path id="パス_294" data-name="パス 294" d="M654.8,1577.107a1.726,1.726,0,0,0,0-.321.739.739,0,0,0-.068-.138.7.7,0,0,0-.056-.159c-.028-.042,0-.118-.035-.157l-.017-.014c-.005-.006-.013-.007-.019-.013l-.528-.5c-.263-.25-.215-.3-.478-.55s-.379-.128-.643-.378-.175-.337-.436-.585-.349-.159-.612-.408-.253-.262-.517-.513-.145-.376-.408-.626-.351-.162-.616-.414-.3-.212-.569-.464-.219-.3-.486-.554-.3-.216-.567-.469a.8.8,0,0,0-.581-.289.909.909,0,0,0-.653.235,1.013,1.013,0,0,0-.3.667.979.979,0,0,0,.376.608c.255.243.268.229.524.471s.2.3.45.548.206.29.459.53.306.188.561.43.31.186.566.43.156.347.412.59.341.156.6.4.316.183.573.427.113.4.371.644.663.056.665.412-.245.332-.5.574-.261.237-.516.479-.245.248-.5.488-.3.2-.55.442-.3.2-.557.439-.286.211-.542.454-.237.265-.494.509-.318.18-.576.425-.227.278-.485.523-.152.357-.41.6c-.18.171-.438.324-.444.555s.239.4.41.582a.807.807,0,0,0,.586.317.836.836,0,0,0,.592-.252c.263-.25.257-.257.521-.507s.366-.142.629-.392.157-.362.42-.612.356-.147.617-.4.219-.295.482-.545.22-.3.484-.548.29-.223.553-.473.284-.232.549-.484.219-.3.485-.553.319-.2.585-.45.277-.241.544-.494c.005-.005.058.034.064.028s-.095-.112-.089-.117c.036-.038.005-.11.033-.152s.26-.006.283-.063S654.787,1577.163,654.8,1577.107Z" fill="#fff"/>
        </g>
      </g>
    </g>
  </g>
</svg>
