<svg xmlns="http://www.w3.org/2000/svg" width="13.696" height="8.304" viewBox="0 0 13.696 8.304">
  <g id="グループ_400" data-name="グループ 400" transform="translate(13.696) rotate(90)">
    <path id="パス_294" data-name="パス 294" d="M655.342,1577.575a1.876,1.876,0,0,0-.005-.344.784.784,0,0,0-.073-.148.745.745,0,0,0-.06-.17c-.03-.045,0-.126-.038-.168l-.018-.015c-.005-.006-.014-.008-.02-.014l-.566-.537c-.282-.268-.23-.321-.512-.589s-.406-.137-.689-.405-.187-.361-.467-.627-.374-.17-.656-.437-.271-.281-.554-.55-.155-.4-.437-.671-.376-.174-.66-.444-.325-.227-.61-.5-.235-.324-.521-.594-.323-.232-.608-.5a.861.861,0,0,0-.623-.31.974.974,0,0,0-.7.252,1.084,1.084,0,0,0-.325.715,1.049,1.049,0,0,0,.4.651c.273.26.287.245.561.5s.209.327.482.587.221.311.492.568.328.2.6.461.332.2.606.461.167.372.441.632.365.167.641.429.339.2.614.458.121.426.4.69.71.06.712.441-.262.356-.537.615-.28.254-.553.513-.262.266-.534.523-.316.214-.589.473-.323.21-.6.471-.306.226-.581.486-.254.284-.529.545-.341.193-.617.455-.243.3-.52.56-.163.382-.439.646c-.193.183-.469.347-.476.595s.256.43.439.624a.864.864,0,0,0,.628.34.9.9,0,0,0,.634-.27c.282-.268.275-.275.558-.543s.392-.152.674-.42.168-.388.45-.656.381-.157.661-.423.235-.316.516-.584.236-.318.518-.587.311-.239.593-.507.3-.249.588-.519.235-.323.52-.593.342-.211.627-.482.3-.258.583-.529c.005-.005.062.036.068.03s-.1-.12-.1-.126c.039-.041.005-.118.035-.163s.279-.007.3-.068S655.33,1577.635,655.342,1577.575Z" transform="translate(-647.183 -1570.554)"/>
  </g>
</svg>
