<svg xmlns="http://www.w3.org/2000/svg" xmlns:xlink="http://www.w3.org/1999/xlink" width="28" height="28" viewBox="0 0 28 28">
  <defs>
    <clipPath id="clip-path">
      <rect id="長方形_32" data-name="長方形 32" width="28" height="28" transform="translate(1608.466 1546.044)" fill="none"/>
    </clipPath>
  </defs>
  <g id="グループ_275" data-name="グループ 275" transform="translate(-1608.466 -1546.044)">
    <g id="グループ_274" data-name="グループ 274" clip-path="url(#clip-path)">
      <g id="グループ_272" data-name="グループ 272">
        <g id="グループ_271" data-name="グループ 271">
          <path id="パス_402" data-name="パス 402" d="M1608.9,1560.14c0-.246-.039-.5-.026-.738s.128-.484.154-.725.206-.463.245-.7.057-.48.109-.717-.032-.51.033-.744.186-.456.263-.686.261-.421.352-.647-.015-.538.087-.759.331-.383.445-.6.226-.432.351-.641.27-.405.407-.607.327-.361.475-.555.23-.438.388-.623.4-.289.571-.466.3-.379.481-.546.364-.318.55-.476.322-.375.516-.523.4-.278.6-.415.407-.268.616-.393.415-.254.631-.369.476-.129.7-.232.369-.371.6-.462.446-.214.678-.292.477-.124.713-.189.522.085.76.033.431-.344.672-.384.5.012.741-.014.483-.124.728-.137.493.058.738.058.492.01.734.023.475.17.717.2.485.03.724.069.5.005.733.057.452.2.687.263.45.181.68.259.516.006.742.1.468.155.689.257.355.38.57.495.536.045.744.171.424.254.626.391.332.378.526.526.412.267.6.425.313.381.49.549.308.376.475.553.476.228.634.414.2.469.346.663.259.409.4.611.252.411.378.62.389.339.5.554.079.505.181.726.275.409.365.636.148.463.226.695.217.442.282.678.034.492.086.731.253.448.292.69-.145.51-.119.753.089.476.1.721.166.482.166.728.016.494,0,.736-.227.472-.253.713.1.505.058.745-.241.45-.293.688.013.5-.052.738-.128.474-.206.7-.208.444-.3.67-.3.4-.4.62-.175.452-.289.667-.195.445-.321.654-.22.436-.357.637-.289.392-.437.586-.369.324-.527.51-.33.35-.5.527-.249.435-.426.6-.287.414-.473.572-.381.312-.575.46-.445.22-.647.357-.373.326-.582.452-.4.29-.617.4-.51.073-.732.176-.411.276-.638.367-.447.2-.678.283-.485.089-.72.154-.483.073-.721.125-.458.2-.7.241-.5-.069-.743-.043-.48.054-.725.067-.483-.006-.728-.006-.483-.031-.725-.044-.49.045-.731.019-.488-.028-.728-.067-.488-.052-.725-.1-.505-.011-.74-.076-.47-.155-.7-.233-.414-.3-.64-.387-.461-.161-.682-.263-.379-.325-.594-.439-.538-.039-.746-.165-.339-.378-.54-.515-.415-.257-.608-.4-.345-.345-.531-.5-.335-.348-.512-.516-.514-.175-.682-.352-.2-.475-.36-.66-.384-.316-.532-.51-.362-.345-.5-.547-.165-.476-.291-.685-.3-.389-.418-.605-.171-.46-.274-.682-.1-.485-.187-.712-.152-.456-.23-.688-.171-.45-.236-.685-.321-.421-.374-.66-.068-.487-.108-.729.094-.5.068-.746-.214-.47-.227-.715S1608.9,1560.385,1608.9,1560.14Z"/>
        </g>
      </g>
      <g id="グループ_273" data-name="グループ 273">
        <path id="パス_403" data-name="パス 403" d="M1624.139,1560.045l.509-.582.511-.48.64-.342.38-.61.592-.4.423-.57.52-.478.525-.474.391-.611.506-.5.424-.6-.322-.7-.7-.175-.625.254-.6.39-.445.546-.414.568-.533.457-.516.478-.569.424-.489.509-.4.6-.546.457-.515.525-.507-.522-.556-.435-.481-.5-.39-.6-.514-.481-.538-.454-.448-.55-.494-.505-.559-.444-.464-.538-.7-.283-.763.219-.146.762.277.632.374.616.586.4.392.59.584.406.566.428.4.59.452.546.594.406.462.54.556.49-.628.407-.357.634-.552.43-.559.431-.406.588-.436.557-.533.465-.556.443-.533.469-.535.467-.237.758.4.6.6.357.672-.28.53-.461.384-.607.488-.494.506-.484.5-.5.566-.427.584-.414.372-.627.455-.547.594-.439.553.469.5.494.343.639.615.374.543.452.415.578.435.563.637.362.52.482.457.545.633.34.7-.275.28-.7-.259-.719-.524-.467-.5-.494-.466-.516-.584-.406-.48-.515-.479-.514-.568-.43-.344-.656-.57-.433Z" fill="#fff"/>
      </g>
    </g>
  </g>
</svg>
