<svg id="グループ_803" data-name="グループ 803" xmlns="http://www.w3.org/2000/svg" width="34.335" height="34.335" viewBox="0 0 34.335 34.335">
  <path id="パス_572" data-name="パス 572" d="M1314.009,223.168a17.168,17.168,0,1,0,17.168,17.168A17.168,17.168,0,0,0,1314.009,223.168Zm8.622,13.913c.008.177.012.356.012.535a11.77,11.77,0,0,1-18.119,9.916,8.432,8.432,0,0,0,.987.057,8.3,8.3,0,0,0,5.14-1.772,4.143,4.143,0,0,1-3.866-2.874,4.132,4.132,0,0,0,1.869-.071,4.14,4.14,0,0,1-3.32-4.057c0-.018,0-.036,0-.053a4.107,4.107,0,0,0,1.875.518,4.142,4.142,0,0,1-1.281-5.525,11.75,11.75,0,0,0,8.53,4.324,4.141,4.141,0,0,1,7.053-3.774,8.294,8.294,0,0,0,2.628-1,4.152,4.152,0,0,1-1.82,2.289,8.259,8.259,0,0,0,2.377-.651A8.415,8.415,0,0,1,1322.631,237.081Z" transform="translate(-1296.842 -223.168)"/>
</svg>
