<svg id="グループ_802" data-name="グループ 802" xmlns="http://www.w3.org/2000/svg" width="34.335" height="34.335" viewBox="0 0 34.335 34.335">
  <path id="パス_573" data-name="パス 573" d="M21.247,7.172c4.584,0,5.127.017,6.937.1a9.5,9.5,0,0,1,3.188.591,5.685,5.685,0,0,1,3.258,3.258,9.5,9.5,0,0,1,.591,3.188c.083,1.81.1,2.353.1,6.937s-.017,5.127-.1,6.937a9.5,9.5,0,0,1-.591,3.188,5.686,5.686,0,0,1-3.258,3.258,9.5,9.5,0,0,1-3.188.591c-1.81.083-2.353.1-6.937.1s-5.127-.017-6.937-.1a9.5,9.5,0,0,1-3.188-.591,5.685,5.685,0,0,1-3.258-3.258,9.5,9.5,0,0,1-.591-3.188c-.083-1.81-.1-2.353-.1-6.937s.017-5.127.1-6.937a9.5,9.5,0,0,1,.591-3.188,5.685,5.685,0,0,1,3.258-3.258,9.5,9.5,0,0,1,3.188-.591c1.81-.083,2.353-.1,6.937-.1m0-3.093c-4.662,0-5.247.02-7.078.1A12.6,12.6,0,0,0,10,4.98,8.779,8.779,0,0,0,4.98,10a12.6,12.6,0,0,0-.8,4.167c-.084,1.831-.1,2.416-.1,7.078s.02,5.247.1,7.078a12.6,12.6,0,0,0,.8,4.167A8.779,8.779,0,0,0,10,37.513a12.6,12.6,0,0,0,4.167.8c1.831.084,2.416.1,7.078.1s5.247-.02,7.078-.1a12.6,12.6,0,0,0,4.167-.8,8.779,8.779,0,0,0,5.021-5.021,12.6,12.6,0,0,0,.8-4.167c.084-1.831.1-2.416.1-7.078s-.02-5.247-.1-7.078a12.6,12.6,0,0,0-.8-4.167A8.779,8.779,0,0,0,32.492,4.98a12.6,12.6,0,0,0-4.167-.8c-1.831-.084-2.416-.1-7.078-.1Z" transform="translate(-4.079 -4.079)"/>
  <path id="パス_574" data-name="パス 574" d="M135.451,126.635a8.816,8.816,0,1,0,8.816,8.816A8.816,8.816,0,0,0,135.451,126.635Zm0,14.538a5.723,5.723,0,1,1,5.723-5.722A5.723,5.723,0,0,1,135.451,141.173Z" transform="translate(-118.283 -118.283)"/>
  <circle id="楕円形_7" data-name="楕円形 7" cx="2.06" cy="2.06" r="2.06" transform="translate(24.272 5.943)"/>
</svg>
