<svg id="グループ_801" data-name="グループ 801" xmlns="http://www.w3.org/2000/svg" width="34.335" height="34.335" viewBox="0 0 34.335 34.335">
  <g id="グループ_799" data-name="グループ 799">
    <path id="パス_570" data-name="パス 570" d="M34.335,17.168a17.168,17.168,0,1,0-19.85,16.959v-12H10.126V17.168h4.359V13.385c0-4.3,2.563-6.679,6.484-6.679a26.4,26.4,0,0,1,3.843.335v4.225H22.648a2.481,2.481,0,0,0-2.8,2.681v3.22h4.761L23.85,22.13h-4v12A17.172,17.172,0,0,0,34.335,17.168Z"/>
    <path id="パス_571" data-name="パス 571" d="M315.724,215.424l.761-4.963h-4.761v-3.22a2.481,2.481,0,0,1,2.8-2.681h2.165v-4.225a26.4,26.4,0,0,0-3.843-.335c-3.921,0-6.484,2.377-6.484,6.679v3.782H302v4.963h4.359v12a17.351,17.351,0,0,0,5.365,0v-12Z" transform="translate(-291.874 -193.294)" fill="#fff"/>
  </g>
</svg>
