<svg xmlns="http://www.w3.org/2000/svg" width="120.12" height="272.105" viewBox="0 0 120.12 272.105">
  <g id="グループ_954" data-name="グループ 954" transform="translate(-623.44 -212.649)">
    <g id="グループ_880" data-name="グループ 880">
      <path id="パス_681" data-name="パス 681" d="M669.045,256.952l.162.907-.069.832.416.719.122.786.095.793.217.766.291.742-.069.827.44.713,0,.817.1.791.489.7.072.8.312.746.113.79.227.764.03.813.089.8.2.77.14.784.326.744.095.8.364.739,0,.807-.772.061-.73.371-.739.363-.795.176-.829.025-.718.468-.812.077-.824-.108-.791.226h-.8l-.811-.04-.744.371-.786.157-.781.188-.832.011-.72.389-.766.218-.778.2-.845-.094-.709.5-.839-.094-.729.418-.831-.087-.749.33-.811-.016-.763.25-.783.13-.772.2-.82-.138-.755.322L649,280.7l-.788.129-.82-.2-.787.071-.781.137-.791.039-.79.049-.752.422-.817-.234-.775.256-.288-.772-.252-.768-.109-.807-.286-.758-.146-.8-.158-.793-.254-.767-.265-.764-.083-.814-.246-.769-.183-.786-.351-.744-.3-.759.032-.85-.167-.794-.34-.747-.138-.8-.138-.8-.532-.693.072-.86-.33-.748-.429-.721.093-.866-.474-.708-.053-.825-.318-.751-.171-.791-.375-.735-.082-.816-.291-.758-.013-.835-.286-.758-.274-.762-.063-.821-.24-.771-.283-.758-.257-.766-.118-.8-.377-.731-.019-.832-.3-.752-.169-.789-.187-.784-.236-.77-.159-.792-.446-.71-.3-.75-.043-.824-.321-.745-.2-.778-.136-.8-.214-.775-.392-.723-.139-.795-.369-.729-.152-.791-.192-.779.048-.854-.245-.77-.394-.727-.2-.782-.107-.807-.51-.691-.255-.763.1-.866-.238-.766-.287-.752-.138-.794-.545-.675-.065-.814-.281-.749-.067-.812-.145-.789-.407-.719-.218-.773-.384-.72.1-.863-.278-.747-.52-.676-.2-.772,0-.831-.338-.729-.132-.791-.293-.657.727-.38.861.173.756-.353.789-.188.787-.2.785-.213.832.048.8-.136.769-.3.775-.253.837.064.77-.281.845.077.73-.487.8-.151.864.168.766-.316.781-.24.841.07.774-.288.811-.11.745-.452.745.183.419.6-.046.844.11.806.242.773.193.784.228.774.225.775.091.807.21.777.506.706-.042.838.118.8.472.715-.093.85.41.731-.053.842.489.714.129.8-.021.839.408.736.144.8-.074.849.292.761.119.8.354.746.043.82.285.763.089.811.358.748.311.761-.022.839.062.818.359.746.288.764.291.763-.015.838.316.76-.014.837.471.721-.072.851.378.745.031.827.249.771.22.78.165.8.2.785.31.758-.064.849.4.74.1.812.2.789.3.766.089.815.128.805.017.831.342.757.335.76.081.824.257.707.729-.1.826.084.787-.225.778-.252.825.094.779-.3.817.03.8-.1.788-.2.847.23.794-.169.79-.2.786-.255.822.044.811-.044.81-.039.792-.216.815-.035.8-.182Z"/>
    </g>
    <g id="グループ_881" data-name="グループ 881">
      <path id="パス_682" data-name="パス 682" d="M704.1,256.118l-.149-.817-.109-.8-.352-.737-.2-.774-.2-.774,0-.825-.229-.77-.282-.758-.279-.76-.15-.793-.038-.819-.313-.75-.183-.781-.207-.776-.2-.776-.12-.8-.336-.744-.13-.8-.039-.82-.312-.753-.119-.8-.311-.751-.143-.793-.133-.795-.341-.745-.141-.795-.193-.784-.165-.789-.312-.752-.187-.783-.127-.8-.242-.771-.141-.791-.074-.811-.3-.758-.222-.773-.024-.822-.4-.731-.115-.805-.288-.759-.085-.811-.278-.765-.178-.788-.142-.8-.288-.759-.112-.807-.194-.788-.112-.811-.152-.713.668-.319.817-.088.754-.352.824-.057.778-.237.788-.2.789-.215.817-.094.8-.163.769-.3.781-.244.784-.233.806-.136.787-.23.807-.156.81-.152.8-.135.214.726.076.805.243.777-.031.822.164.787.134.79.089.8.388.74.055.8.11.793.1.8.3.759.184.782.066.805.064.806.123.794.285.759.037.809.35.745.008.817.262.764.163.785.226.773.183.782.127.795.068.808.234.773.07.808.179.786.282.764.09.805.143.793.166.788.171.781.123.792.289.758.058.81.291.76.125.8.127.8.245.774.2.778.191.781.144.795.113.8.145.792.15.8.356.75.1.882-.825.168-.788.219-.782.239-.826.07-.759.347-.835.044-.753.364-.828.081-.783.253-.814.126-.813.127-.783.262-.8.209-.8.22Z"/>
    </g>
    <g id="グループ_882" data-name="グループ 882">
      <path id="パス_683" data-name="パス 683" d="M709.689,322.8l.341.8.359.821.273.852.3.843.235.868.359.823.236.866.293.846.279.853.432.8.277.852.229.868.381.817.238.865.358.82.243.863.329.837.371.82.275.853.265.861.341.832.286.851.329.834.193.887.38.823.36.831.294.9-.925.257-.831.388-.85.331-.879.252-.828.4-.86.309-.855.319-.886.235-.826.406-.856.332-.89.245-.851.426-.321-.934-.272-.867-.344-.846-.231-.881-.111-.907-.3-.861-.084-.911-.32-.861-.165-.894-.143-.9-.1-.907-.325-.865-.04-.92-.236-.882-.14-.9-.244-.88-.078-.906-.221-.879-.3-.865-.18-.89-.13-.9-.179-.893-.149-.9-.3-.868-.131-.9-.235-.879-.252-.878-.151-.906-.289-.865-.263-.877-.2-.893-.254-.809.866.087.867.225.9.076.883.152.885.14.872.2.877.2.883.173.873.233Z"/>
    </g>
    <g id="グループ_883" data-name="グループ 883">
      <path id="パス_684" data-name="パス 684" d="M709.68,386.645l.5.737.637.649.511.755.6.682.527.736.593.685.682.617.5.764.512.753.721.588.587.694.573.705.38.858.712.6.469.8.716.6.589.787-.831.59-.8.531-.737.61-.61.759-.769.568-.674.688-.83.5-.723.625-.774.56-.779.563-.692.669-.722.638-.739.59-.6-.628-.511-.762-.657-.65-.511-.768-.5-.772-.379-.828-.3-.86-.339-.846-.41-.812-.489-.769-.575-.716-.355-.846-.529-.74-.636-.671-.271-.913-.515-.756-.627-.679-.546-.734-.465-.794-.626-.817.883-.3.776-.443.835-.313.749-.493.853-.284.781-.43.853-.279.771-.446.8-.4.842-.312.714-.586Z"/>
    </g>
    <g id="グループ_884" data-name="グループ 884">
      <path id="パス_685" data-name="パス 685" d="M727.9,381.99l.637.885.481.98.411,1.012.552.931.548.938.744.73.638.827.589.921.412,1.014.442,1,.554.941-1.007.37-.967.463-1,.392-.971.46-.931.552-1.012.359-1.012.374-.916.592-.982.454-1.056.447-.547-1-.786-.731-.565-.9-.785-.727-.655-.837-.588-.887-.59-.885-.658-.828-.8-.725-.625-.864-.734-.781-.557-.9.956-.38,1-.329,1-.325.954-.441.971-.4.985-.364.952-.452,1-.308.939-.488.984-.378.965-.436Z"/>
    </g>
    <g id="グループ_885" data-name="グループ 885">
      <path id="パス_686" data-name="パス 686" d="M678.624,355.652l-.114-.923-.309-.855-.13-.891-.136-.893-.17-.885-.267-.865-.055-.905-.214-.879-.325-.858-.1-.906-.156-.894-.841.221-.826.294-.88.082-.809.352-.858.177-.844.223-.878.093-.781.452-.876.112-.831.288-.883.1-.779.191-.4-.757-.437-.822-.285-.884-.248-.9-.426-.829-.388-.847-.477-.812-.336-.875-.3-.836-.143-.881-.209-.863-.347-.817-.2-.863-.3-.83-.224-.859-.3-.837-.4-.808-.191-.875-.311-.843-.531-.735-.389-.8-.376-.813-.169-.9-.522-.742-.259-.864-.526-.746-.366-.817-.287-.853-.29-.855-.373-.816-.536-.74-.327-.834-.457-.779-.251-.876-.392-.814-.35-.874-.965-.009-.922.127-.924.087-.927.041-.921.139-.932-.019-.916.177-.922.056-.92.119-.929.046-.932-.034-.931-.018-.931.032-.925.1-.919.175-.934-.071-.927.107-.921.216-.951-.193-.97.076.382.982.357.863.263.9.437.835.212.915.371.857.245.9.417.842.213.914.354.868.208.918.37.865.319.883.219.879.483.79.256.868.143.908.36.835.322.85.228.88.386.826.243.874.317.849.3.854.287.861.2.893.447.806.222.882.157.9.453.805.34.844.151.907.3.854.236.88.292.857.373.829.182.9.482.8.179.9.395.825.3.859.175.9.23.882.361.836.4.829.168.908.378.839.339.782.811-.146.871-.182.893-.072.854-.269.895-.074.876-.165.88-.141.829-.382.882-.139.894-.063.845-.3.891-.078.857-.268.892-.086.865-.218.854-.287.883-.136.886-.118.86-.237.882-.153.87-.222.917,0,.856-.3-.022-.1.941-.165.969-.026.918-.286.937-.2.956-.07.917-.3.946-.162.946-.178Z"/>
    </g>
    <g id="グループ_938" data-name="グループ 938">
      <g id="グループ_937" data-name="グループ 937">
        <path id="パス_784" data-name="パス 784" d="M712.141,437.3c-.277-.317-.128-.445-.393-.772s-.281-.311-.544-.636-.2-.373-.467-.7-.2-.375-.464-.7-.332-.269-.6-.594-.292-.3-.555-.629-.246-.342-.511-.669-.346-.263-.612-.59-.184-.393-.448-.72-.385-.229-.65-.555-.261-.33-.526-.657-.326-.28-.592-.608-.251-.34-.517-.667-.169-.406-.435-.734-.185-.394-.452-.722-.237-.352-.5-.681-.3-.3-.569-.625-.383-.232-.648-.559-.132-.439-.4-.768-.315-.29-.583-.62-.427-.2-.7-.532,0-.547-.277-.874c-.19-.209-.391-.416-.579-.623s-.5-.3-.692-.511-.411-.388-.6-.6-.317-.473-.505-.68-.5-.306-.687-.513-.269-.516-.456-.723-.435-.364-.622-.571-.306-.481-.493-.688-.485-.318-.672-.525-.275-.508-.461-.715-.421-.376-.607-.582-.27-.512-.456-.719-.437-.36-.623-.567-.384-.407-.57-.614-.3-.483-.485-.689-.572-.238-.757-.445-.337-.449-.522-.655-.218-.555-.4-.761-.443-.353-.627-.559-.4-.39-.586-.6-.3-.476-.489-.681-.468-.33-.652-.536-.32-.461-.5-.667-.4-.4-.584-.605-.385-.409-.569-.617-.366-.424-.549-.631-.272-.508-.455-.715-.532-.276-.714-.482-.3-.483-.478-.69-.227-.542-.409-.748-.535-.27-.716-.476-.415-.374-.6-.579-.221-.552-.4-.759-.38-.41-.561-.617-.3-.471-.485-.677l-.542-.623c-.182-.209-.447-.342-.624-.546s-.248-.52-.426-.726-.557-.245-.733-.449-.313-.538-.488-.742c-.379.153-.238.382-.551.646s-.3.275-.617.54-.419.138-.732.4-.369.2-.682.46-.25.337-.562.6-.223.372-.537.637-.427.131-.742.4-.241.353-.556.619-.231.373-.555.628c-.219.135-.481.228-.716.382-.2.134-.413.283-.651.454-.2.141-.493.184-.725.365-.193.15-.325.412-.55.6-.193.159-.488.224-.708.412-.191.164-.406.326-.621.516-.19.167-.424.308-.634.5-.19.172-.205.556-.414.748-.191.174-.425.319-.632.511-.222.208-.529.283-.712.455-.227.212-.313.519-.488.684-.241.226-.529.313-.692.466-.283.267-.381.526-.518.652-.235.218-.423.213-.7.439-.148.12-.311.32-.6.558-.174.142-.289.424-.539.63-.185.153-.431.282-.668.479-.191.159-.451.27-.68.461-.2.165-.357.4-.584.593-.2.168-.432.318-.658.507-.3.284-.257.331-.554.621s-.462.121-.76.41-.185.4-.483.7-.216.373-.514.663-.311.278-.609.568-.442.146-.742.437-.2.4-.5.69-.283.308-.582.6-.4.188-.7.479-.182.413-.482.7-.317.277-.618.57-.3.291-.6.584-.427.163-.727.455-.174.424-.476.718-.284.306-.584.6-.415.176-.715.469-.155.442-.455.735-.418.174-.72.468-.325.272-.628.566-.182.419-.485.715-.312.29-.622.579-.463.106-.772.382-.179.421-.488.7-.465.1-.773.377-.132.473-.44.749-.334.246-.642.521-.359.219-.667.494-.41.162-.718.438-.107.5-.415.779-.492.072-.8.349-.225.368-.532.644-.356.22-.663.495-.217.375-.523.649-.444.121-.75.4-.252.335-.559.61-.156.445-.463.72-.32.264-.629.54-.4.182-.705.46-.332.249-.641.525-.379.2-.687.473-.178.423-.487.7-.416.159-.726.437-.282.309-.591.586-.266.325-.575.6-.413.164-.723.442-.226.368-.535.644-.272.32-.582.6-.366.214-.675.491-.4.184-.707.462-.2.4-.514.68-.39.193-.7.473-.443.234-.477.652.273.238.537.55.307.275.572.587.218.348.482.659.216.348.479.658.254.316.517.625.163.394.425.7.333.249.6.559.3.278.564.588.173.389.437.7.268.31.533.622.441.161.706.473.125.428.389.739.411.187.676.5.128.429.394.742.243.33.508.642.2.371.461.683.281.3.547.614.229.343.494.656.464.144.729.456.283.3.548.609.228.345.494.658.329.262.595.576.225.351.492.666.025.606.376.824c.206-.168.443-.532.659-.719.2-.174.431-.326.644-.519.2-.178.43-.329.64-.525.194-.181.285-.484.493-.682.192-.182.593-.161.8-.359s.215-.557.42-.755.419-.345.623-.543.345-.423.549-.621.506-.257.71-.453.348-.422.552-.619.493-.271.7-.467.386-.383.59-.578.269-.509.474-.7.412-.358.617-.552.334-.441.539-.633.522-.241.728-.433.424-.344.629-.536.39-.382.595-.573.437-.331.643-.521.331-.439.536-.627.309-.466.514-.654.436-.329.642-.517.413-.356.62-.543.464-.3.671-.489.485-.28.693-.467.26-.532.469-.719.4-.379.609-.565.4-.373.6-.557.586-.163.795-.347.378-.4.587-.586.332-.457.543-.642.334-.451.543-.634.456-.318.667-.5.558-.2.77-.381.313-.493.529-.68c.295-.287.3-.283.588-.575s.274-.306.562-.6.278-.3.566-.592.36-.22.648-.511.146-.432.434-.724.351-.23.64-.523.443-.142.733-.435.174-.411.464-.7.364-.22.654-.514.172-.408.462-.7.34-.244.63-.538.351-.236.642-.531.143-.44.434-.734.343-.242.633-.536.293-.295.584-.59.319-.265.608-.558.173-.412.464-.707.3-.288.587-.582.36-.23.652-.525.244-.344.537-.64.345-.246.638-.543.411-.181.7-.478c.187-.187.259-.469.428-.639.187-.189.335-.4.5-.566.186-.19.531-.2.7-.373.185-.191.313-.59.474-.759.352.215.224.4.5.706s.376.216.655.52.167.409.447.714.367.226.646.531.261.319.539.622.224.353.5.657.374.214.652.517.192.38.469.683l.554.607c.279.3.192.384.471.688s.219.358.5.662.465.132.744.436.169.4.448.71.44.154.717.457.138.433.416.738.323.262.6.566.29.3.57.6.3.287.58.593.178.4.459.708.256.325.527.64.377.229.639.555.316.284.579.611.306.294.57.622.2.378.463.7.3.3.562.623.221.361.484.689.216.367.48.7.2.38.462.708.392.224.656.552.193.386.458.715.372.242.636.57.076.48.34.808.285.31.549.637.253.339.518.668.2.379.469.709.525.123.791.454.154.419.429.742.237.345.516.653.226.354.5.661.426.171.7.477.3.279.582.585.183.39.46.7.179.394.457.7.24.341.518.647.407.191.686.5.152.425.432.733.473.132.751.44.119.452.4.759.38.216.659.524.279.31.559.619.343.251.623.559.3.293.577.6.239.347.52.656.177.4.456.707.349.246.629.555.179.4.458.709.293.3.574.609.4.2.68.515.2.385.484.7.26.329.537.645.265.321.535.639.272.316.541.634.221.359.49.677.4.21.667.527.15.419.419.737.4.21.667.528.222.359.492.678.224.358.494.677.349.254.619.574.3.3.57.614.291.3.561.619.24.344.51.663.208.371.478.689.242.343.512.662.247.34.517.659.466.155.737.475.223.359.494.678.225.354.494.672.289.3.557.617.311.282.58.6.129.435.4.752.426.186.7.5.1.462.373.781.446.173.717.494.142.428.413.747.326.271.6.59.191.388.461.707.194.387.466.708.336.266.607.586.279.314.55.634.291.306.563.627.225.36.5.681.265.325.537.646.39.219.661.539.23.358.5.679.211.375.484.7.292.308.566.631.17.731.594.736.269-.444.533-.761.172-.394.436-.71.329-.263.594-.58.405-.2.67-.519.252-.33.518-.649.282-.307.549-.627.216-.361.482-.68.242-.338.507-.656.189-.384.454-.7.392-.217.66-.537.273-.314.54-.634.042-.507.308-.827.369-.237.636-.558.249-.335.516-.655.347-.254.614-.574.162-.406.429-.725.4-.213.665-.534.178-.4.446-.72.361-.246.629-.568.188-.37.365-.751c-.163-.163-.364-.211-.573-.452-.163-.189-.251-.478-.44-.711-.162-.2-.185-.532-.367-.762-.161-.2-.561-.241-.738-.469-.161-.209-.218-.513-.391-.74s-.273-.473-.445-.7-.43-.356-.6-.582-.317-.443-.486-.669-.237-.5-.406-.728-.265-.483-.433-.708-.486-.318-.654-.542-.341-.427-.509-.651-.325-.44-.492-.663-.175-.554-.343-.777-.494-.313-.663-.535-.356-.41-.523-.629-.156-.564-.323-.783-.474-.323-.641-.542-.205-.53-.373-.748-.4-.383-.566-.6-.416-.369-.586-.587-.231-.513-.4-.731-.425-.363-.6-.58-.378-.4-.549-.616-.21-.534-.382-.75-.33-.44-.5-.655-.458-.337-.632-.552-.145-.591-.32-.8-.4-.387-.572-.6-.384-.395-.559-.607-.439-.349-.615-.561-.263-.5-.44-.707-.4-.38-.581-.591-.464-.327-.643-.538-.145-.6-.325-.81-.533-.268-.714-.477-.281-.487-.463-.7-.479-.315-.662-.522-.364-.415-.548-.621-.309-.465-.494-.671-.214-.551-.4-.756-.52-.274-.707-.477-.339-.44-.528-.643-.326-.453-.515-.655-.4-.382-.594-.583-.452-.334-.644-.534-.235-.545-.428-.743-.545-.242-.74-.439-.282-.5-.478-.7-.349-.438-.546-.632-.579-.2-.778-.394-.336-.45-.536-.641-.477-.3-.679-.491-.365-.419-.568-.607S712.345,437.488,712.141,437.3Z"/>
      </g>
      <path id="パス_785" data-name="パス 785" d="M740.907,471.526c.525-1.849,2.19-.157.892-.983s-1.553-1.712-1.382-1.83,8.819.886-3.328-1.605Z"/>
      <path id="パス_786" data-name="パス 786" d="M740,462.556l.02-.469a.572.572,0,0,1,.815.8.428.428,0,0,1-.527.008.379.379,0,0,0-.52-.4v-.224l.581-.085"/>
    </g>
  </g>
</svg>
