<svg xmlns="http://www.w3.org/2000/svg" width="250.536" height="354.984" viewBox="0 0 250.536 354.984">
  <g id="グループ_880" data-name="グループ 880" transform="translate(-557.98 -172.281)">
    <g id="グループ_936" data-name="グループ 936">
      <g id="グループ_886" data-name="グループ 886">
        <path id="パス_687" data-name="パス 687" d="M798.222,236.147l.227,1.473-.076.869.075.795.065.789-.943,0-.947.025-.951-.008-.967,0-.034-.99-.042-.974-.073-.976-.044-.965.916-.009.93,0,.933-.013Z"/>
      </g>
      <g id="グループ_887" data-name="グループ 887">
        <path id="パス_688" data-name="パス 688" d="M785.426,269.419c-.228-.4.142-.442.265-.886s.1-.452.219-.9.157-.436.281-.882.09-.454.213-.9.153-.437.277-.881.095-.451.219-.9.139-.442.263-.887.13-.446.254-.892.122-.449.246-.9-.16-.669.261-.867c.478-.225.485.145.991.3s.511.137,1.018.289.572.009,1.01.305c-.107.309-.189.582-.286.864s-.2.552-.309.868c-.087.261-.207.538-.314.866-.085.262-.163.556-.267.882-.085.266-.135.57-.236.891-.086.271-.22.551-.319.869-.086.274-.182.566-.279.879-.086.276-.155.575-.251.885-.087.281-.2.569-.3.879-.088.284-.158.606-.253.915-.468.022-.459-.123-.908-.255s-.427-.234-.895-.269C785.829,269.665,785.658,269.828,785.426,269.419Z"/>
        <path id="パス_689" data-name="パス 689" d="M785.426,269.419c-.228-.4.142-.442.265-.886s.1-.452.219-.9.157-.436.281-.882.09-.454.213-.9.153-.437.277-.881.095-.451.219-.9.139-.442.263-.887.13-.446.254-.892.122-.449.246-.9-.16-.669.261-.867c.478-.225.485.145.991.3s.511.137,1.018.289.572.009,1.01.305c-.107.309-.189.582-.286.864s-.2.552-.309.868c-.087.261-.207.538-.314.866-.085.262-.163.556-.267.882-.085.266-.135.57-.236.891-.086.271-.22.551-.319.869-.086.274-.182.566-.279.879-.086.276-.155.575-.251.885-.087.281-.2.569-.3.879-.088.284-.158.606-.253.915-.468.022-.459-.123-.908-.255s-.427-.234-.895-.269C785.829,269.665,785.658,269.828,785.426,269.419Z" fill="none" stroke="#000" stroke-linecap="round" stroke-linejoin="round" stroke-width="1.064"/>
      </g>
      <g id="グループ_888" data-name="グループ 888">
        <path id="パス_690" data-name="パス 690" d="M800.909,320.97c.01.426.026.424.053.849s-.005.426.021.851.006.425.033.849.011.427.038.853.076.424.1.85-.01.431.016.859.357.533.076.856-.412.012-.822.025-.411-.006-.822.007-.431.17-.817.029c-.006-.327-.046-.636-.051-.95s.02-.649.015-.964.024-.649.019-.962c0-.329-.047-.649-.051-.961,0-.33.022-.65.019-.962,0-.331-.039-.652-.042-.963,0-.331-.019-.651-.021-.96,0-.334.03-.654.03-.962,0-.334-.029-.653-.029-.956,0-.338.02-.641.022-.94a2.929,2.929,0,0,1,1.1-.113c.555-.033.668-.369,1.107-.028.364.284-.034.455-.038.916s.038.463.034.925-.049.463-.048.926S800.9,320.507,800.909,320.97Z"/>
        <path id="パス_691" data-name="パス 691" d="M800.909,320.97c.01.426.026.424.053.849s-.005.426.021.851.006.425.033.849.011.427.038.853.076.424.1.85-.01.431.016.859.357.533.076.856-.412.012-.822.025-.411-.006-.822.007-.431.17-.817.029c-.006-.327-.046-.636-.051-.95s.02-.649.015-.964.024-.649.019-.962c0-.329-.047-.649-.051-.961,0-.33.022-.65.019-.962,0-.331-.039-.652-.042-.963,0-.331-.019-.651-.021-.96,0-.334.03-.654.03-.962,0-.334-.029-.653-.029-.956,0-.338.02-.641.022-.94a2.929,2.929,0,0,1,1.1-.113c.555-.033.668-.369,1.107-.028.364.284-.034.455-.038.916s.038.463.034.925-.049.463-.048.926S800.9,320.507,800.909,320.97Z" fill="none" stroke="#000" stroke-linecap="round" stroke-linejoin="round" stroke-width="1.064"/>
      </g>
      <g id="グループ_889" data-name="グループ 889">
        <path id="パス_692" data-name="パス 692" d="M792.69,304.313c.475,0,.477.067.952.053s.474-.062.95-.076.475.014.949,0,.475-.036.951-.05.479.028.956.015.475-.122.953-.136.48.043.958.027.466.023.93.005.461-.077.924-.1.465.045.928.026.459-.1.921-.119.463-.033.928-.051.467.034.932.015.465-.054.932-.072.56-.289.912.018c.33.287-.007.414.008.851s.055.438.069.877.117.445.014.872c-.243.005-.543-.028-.917-.028-.286,0-.6.045-.941.044-.3,0-.618-.035-.942-.037s-.628.065-.944.063-.638-.067-.949-.069c-.326,0-.644-.023-.945-.025-.341,0-.66.024-.945.023-.388,0-.711.052-.94.056-.306.005-.607-.03-.9-.024s-.607.031-.9.038-.608.044-.905.051-.609-.04-.9-.033-.606.028-.9.035-.606.051-.9.058-.61-.038-.9-.031-.608.033-.9.039c-.309.007-.61-.008-.9,0-.309.006-.608.032-.9.035-.311,0-.623,0-.91,0-.159-.362.03-.4,0-.8s-.067-.392-.1-.787-.39-.554-.106-.83c.307-.3.469.021.9.027s.429.058.859.064.432,0,.863.006S792.259,304.317,792.69,304.313Z"/>
        <path id="パス_693" data-name="パス 693" d="M792.69,304.313c.475,0,.477.067.952.053s.474-.062.95-.076.475.014.949,0,.475-.036.951-.05.479.028.956.015.475-.122.953-.136.48.043.958.027.466.023.93.005.461-.077.924-.1.465.045.928.026.459-.1.921-.119.463-.033.928-.051.467.034.932.015.465-.054.932-.072.56-.289.912.018c.33.287-.007.414.008.851s.055.438.069.877.117.445.014.872c-.243.005-.543-.028-.917-.028-.286,0-.6.045-.941.044-.3,0-.618-.035-.942-.037s-.628.065-.944.063-.638-.067-.949-.069c-.326,0-.644-.023-.945-.025-.341,0-.66.024-.945.023-.388,0-.711.052-.94.056-.306.005-.607-.03-.9-.024s-.607.031-.9.038-.608.044-.905.051-.609-.04-.9-.033-.606.028-.9.035-.606.051-.9.058-.61-.038-.9-.031-.608.033-.9.039c-.309.007-.61-.008-.9,0-.309.006-.608.032-.9.035-.311,0-.623,0-.91,0-.159-.362.03-.4,0-.8s-.067-.392-.1-.787-.39-.554-.106-.83c.307-.3.469.021.9.027s.429.058.859.064.432,0,.863.006S792.259,304.317,792.69,304.313Z" fill="none" stroke="#000" stroke-linecap="round" stroke-linejoin="round" stroke-width="1.064"/>
      </g>
      <g id="グループ_890" data-name="グループ 890">
        <path id="パス_694" data-name="パス 694" d="M792.191,286.606c.476,0,.477.034.952.021s.474-.084.949-.1.475.009.948,0,.475-.058.952-.071.479.079.956.066.476-.1.954-.113.478-.019.956-.036c.444-.015.445.008.888-.012s.444,0,.887-.022.442-.018.884-.038.446-.007.89-.026.446-.014.891-.034.446-.038.892-.058.515-.277.857.011c.313.265.01.368.025.777s.073.409.088.82a1.788,1.788,0,0,1-.039.808c-.254.005-.509.048-.85.048-.281,0-.584-.057-.9-.059-.294,0-.6-.032-.906-.034s-.608.066-.909.063-.617.012-.909.01c-.324,0-.631-.062-.91-.063-.352,0-.661,0-.9,0-.306.005-.606.054-.9.06s-.606.043-.9.049-.609.007-.906.014-.608.018-.9.025-.607-.049-.9-.042-.606.074-.9.081-.611-.086-.9-.079-.606.114-.9.12c-.309.007-.61-.021-.9-.016-.309.005-.608-.024-.9-.021-.311,0-.586.019-.873.019-.178-.527-.06-.547-.105-1.1s-.423-.658-.1-1.114c.246-.351.437.023.866.028s.43.046.86.051.432-.064.864-.056S791.76,286.609,792.191,286.606Z"/>
        <path id="パス_695" data-name="パス 695" d="M792.191,286.606c.476,0,.477.034.952.021s.474-.084.949-.1.475.009.948,0,.475-.058.952-.071.479.079.956.066.476-.1.954-.113.478-.019.956-.036c.444-.015.445.008.888-.012s.444,0,.887-.022.442-.018.884-.038.446-.007.89-.026.446-.014.891-.034.446-.038.892-.058.515-.277.857.011c.313.265.01.368.025.777s.073.409.088.82a1.788,1.788,0,0,1-.039.808c-.254.005-.509.048-.85.048-.281,0-.584-.057-.9-.059-.294,0-.6-.032-.906-.034s-.608.066-.909.063-.617.012-.909.01c-.324,0-.631-.062-.91-.063-.352,0-.661,0-.9,0-.306.005-.606.054-.9.06s-.606.043-.9.049-.609.007-.906.014-.608.018-.9.025-.607-.049-.9-.042-.606.074-.9.081-.611-.086-.9-.079-.606.114-.9.12c-.309.007-.61-.021-.9-.016-.309.005-.608-.024-.9-.021-.311,0-.586.019-.873.019-.178-.527-.06-.547-.105-1.1s-.423-.658-.1-1.114c.246-.351.437.023.866.028s.43.046.86.051.432-.064.864-.056S791.76,286.609,792.191,286.606Z" fill="none" stroke="#000" stroke-linecap="round" stroke-linejoin="round" stroke-width="1.064"/>
      </g>
      <g id="グループ_891" data-name="グループ 891">
        <path id="パス_696" data-name="パス 696" d="M806.343,295.015c.342.44.025.554.082,1.109s.314.569.21,1.116c-.324,0-.694-.061-1-.065s-.626,0-.938-.006-.62.052-.939.043c-.3-.009-.613.013-.939,0-.3-.009-.609-.075-.939-.084-.3-.009-.61.006-.94,0-.3-.008-.608-.023-.936-.03-.3-.007-.613-.1-.944-.1-.3,0-.617.04-.948.035-.187,0-.49.033-.876.033-.259,0-.554-.009-.879-.008-.273,0-.567-.079-.876-.077-.282,0-.576,0-.878,0s-.581.028-.878.03-.587.026-.882.028-.59,0-.881,0-.595.084-.884.086c-.3,0-.6-.128-.885-.127-.309,0-.6.047-.88.048-.323,0-.62.032-.881.031-.374,0-.672-.016-.873-.02-.084-.4.059-.407.075-.817s-.076-.414-.061-.825-.261-.581.058-.84c.368-.3.489.078.963.091s.473.022.945.035.477-.108.95-.1.474.016.949.029.471.109.944.121.476-.022.95-.01.474-.039.946-.027.475.018.95.031.475.041.95.054.477.025.954.038.478-.031.955-.018.483.071.967.083.486-.011.971,0,.483-.027.966-.014.486.016.971.029.486.02.972.033.487.053.975.066.487.065.974.066a1.862,1.862,0,0,0,.721-.1C805.987,294.885,806.118,294.726,806.343,295.015Z"/>
        <path id="パス_697" data-name="パス 697" d="M806.343,295.015c.342.44.025.554.082,1.109s.314.569.21,1.116c-.324,0-.694-.061-1-.065s-.626,0-.938-.006-.62.052-.939.043c-.3-.009-.613.013-.939,0-.3-.009-.609-.075-.939-.084-.3-.009-.61.006-.94,0-.3-.008-.608-.023-.936-.03-.3-.007-.613-.1-.944-.1-.3,0-.617.04-.948.035-.187,0-.49.033-.876.033-.259,0-.554-.009-.879-.008-.273,0-.567-.079-.876-.077-.282,0-.576,0-.878,0s-.581.028-.878.03-.587.026-.882.028-.59,0-.881,0-.595.084-.884.086c-.3,0-.6-.128-.885-.127-.309,0-.6.047-.88.048-.323,0-.62.032-.881.031-.374,0-.672-.016-.873-.02-.084-.4.059-.407.075-.817s-.076-.414-.061-.825-.261-.581.058-.84c.368-.3.489.078.963.091s.473.022.945.035.477-.108.95-.1.474.016.949.029.471.109.944.121.476-.022.95-.01.474-.039.946-.027.475.018.95.031.475.041.95.054.477.025.954.038.478-.031.955-.018.483.071.967.083.486-.011.971,0,.483-.027.966-.014.486.016.971.029.486.02.972.033.487.053.975.066.487.065.974.066a1.862,1.862,0,0,0,.721-.1C805.987,294.885,806.118,294.726,806.343,295.015Z" fill="none" stroke="#000" stroke-linecap="round" stroke-linejoin="round" stroke-width="1.064"/>
      </g>
      <g id="グループ_892" data-name="グループ 892">
        <path id="パス_698" data-name="パス 698" d="M789.367,277.891c.47,0,.469-.011.938-.024s.472.055.942.042.468-.046.936-.058.469-.052.94-.064.473.06.944.047.472-.047.945-.06.474.035.946.022.457-.121.916-.133l.917-.027c.459-.012.46.029.918.016s.459-.066.919-.079.46.028.919.015.461.06.92.048.456-.073.914-.085.462.039.923.027.46-.038.922-.051.463.03.926.017.6-.423.958-.127c.315.263.013.451.028.861s-.016.412,0,.823.159.429.072.831c-.209,0-.573-.005-.973,0-.274,0-.586.013-.925.012-.291,0-.6.052-.928.05-.3,0-.611-.121-.93-.122s-.617.082-.931.08-.622-.063-.932-.065-.628.023-.935.021-.634-.034-.935-.035c-.327,0-.639.086-.93.085-.344,0-.658-.113-.931-.113-.413,0-.734.1-.928.1-.333.005-.653-.049-.961-.044-.333.007-.652.039-.959.046-.333.007-.651.01-.956.018-.333.009-.653-.044-.959-.036l-.958.027c-.329.01-.642.136-.949.144-.327.009-.644,0-.955.01s-.636-.006-.951,0-.653-.006-.974-.006c-.193-.521,0-.564-.041-1.118s-.475-.683-.1-1.089.535-.045,1.088-.039S788.814,277.892,789.367,277.891Z"/>
        <path id="パス_699" data-name="パス 699" d="M789.367,277.891c.47,0,.469-.011.938-.024s.472.055.942.042.468-.046.936-.058.469-.052.94-.064.473.06.944.047.472-.047.945-.06.474.035.946.022.457-.121.916-.133l.917-.027c.459-.012.46.029.918.016s.459-.066.919-.079.46.028.919.015.461.06.92.048.456-.073.914-.085.462.039.923.027.46-.038.922-.051.463.03.926.017.6-.423.958-.127c.315.263.013.451.028.861s-.016.412,0,.823.159.429.072.831c-.209,0-.573-.005-.973,0-.274,0-.586.013-.925.012-.291,0-.6.052-.928.05-.3,0-.611-.121-.93-.122s-.617.082-.931.08-.622-.063-.932-.065-.628.023-.935.021-.634-.034-.935-.035c-.327,0-.639.086-.93.085-.344,0-.658-.113-.931-.113-.413,0-.734.1-.928.1-.333.005-.653-.049-.961-.044-.333.007-.652.039-.959.046-.333.007-.651.01-.956.018-.333.009-.653-.044-.959-.036l-.958.027c-.329.01-.642.136-.949.144-.327.009-.644,0-.955.01s-.636-.006-.951,0-.653-.006-.974-.006c-.193-.521,0-.564-.041-1.118s-.475-.683-.1-1.089.535-.045,1.088-.039S788.814,277.892,789.367,277.891Z" fill="none" stroke="#000" stroke-linecap="round" stroke-linejoin="round" stroke-width="1.064"/>
      </g>
      <g id="グループ_893" data-name="グループ 893">
        <path id="パス_700" data-name="パス 700" d="M794.743,266.378c0-.442.048-.442.036-.884s-.053-.439-.065-.88,0-.441-.014-.881.022-.443.011-.885-.054-.44-.066-.882.08-.443.068-.884-.017-.44-.029-.88-.025-.443-.037-.885-.068-.442-.08-.885.067-.447.055-.891-.006-.446-.026-.89-.094-.435-.123-.873.026-.441,0-.878-.107-.432-.135-.868-.032-.439-.06-.878,0-.442-.033-.881-.073-.438-.1-.879-.294-.552,0-.878.437-.093.885-.11.452.1.9.08.447-.113.9-.13a1.867,1.867,0,0,1,.9.032c.005.3-.025.6-.024.9s.056.606.054.9-.012.605-.016.9,0,.6-.007.9-.022.6-.025.9-.071.6-.071.9.023.6.028.9.116.605.121.9-.121.609-.115.907.088.6.094.9-.025.606-.019.9.09.6.1.9,0,.607,0,.9.045.609.052.907-.1.611-.093.909.083.605.09.9-.009.607,0,.9.043.607.049.9.057.607.063.9-.033.608-.027.9,0,.609,0,.9-.024.607-.022.9c0,.308.043.66.043.951-.37.164-.432-.091-.835-.058s-.4.093-.8.125-.41-.026-.814.006-.531.434-.8.126c-.325-.38.028-.491.034-.99s.009-.5.015-1-.068-.5-.062-1.006.057-.5.047-1.008S794.746,266.882,794.743,266.378Z"/>
        <path id="パス_701" data-name="パス 701" d="M794.743,266.378c0-.442.048-.442.036-.884s-.053-.439-.065-.88,0-.441-.014-.881.022-.443.011-.885-.054-.44-.066-.882.08-.443.068-.884-.017-.44-.029-.88-.025-.443-.037-.885-.068-.442-.08-.885.067-.447.055-.891-.006-.446-.026-.89-.094-.435-.123-.873.026-.441,0-.878-.107-.432-.135-.868-.032-.439-.06-.878,0-.442-.033-.881-.073-.438-.1-.879-.294-.552,0-.878.437-.093.885-.11.452.1.9.08.447-.113.9-.13a1.867,1.867,0,0,1,.9.032c.005.3-.025.6-.024.9s.056.606.054.9-.012.605-.016.9,0,.6-.007.9-.022.6-.025.9-.071.6-.071.9.023.6.028.9.116.605.121.9-.121.609-.115.907.088.6.094.9-.025.606-.019.9.09.6.1.9,0,.607,0,.9.045.609.052.907-.1.611-.093.909.083.605.09.9-.009.607,0,.9.043.607.049.9.057.607.063.9-.033.608-.027.9,0,.609,0,.9-.024.607-.022.9c0,.308.043.66.043.951-.37.164-.432-.091-.835-.058s-.4.093-.8.125-.41-.026-.814.006-.531.434-.8.126c-.325-.38.028-.491.034-.99s.009-.5.015-1-.068-.5-.062-1.006.057-.5.047-1.008S794.746,266.882,794.743,266.378Z" fill="none" stroke="#000" stroke-linecap="round" stroke-linejoin="round" stroke-width="1.064"/>
      </g>
      <g id="グループ_894" data-name="グループ 894">
        <path id="パス_702" data-name="パス 702" d="M795.951,290.372c-.008-.453-.032-.453-.051-.906s-.045-.454-.064-.909.043-.457.024-.911-.086-.451-.1-.906.042-.458.023-.913-.078-.453-.1-.908.025-.456.006-.911-.08-.451-.1-.9-.029-.456-.048-.912-.005-.458-.024-.914.069-.462.05-.921-.464-.647-.121-.951c.41-.363.581.048,1.128.039s.561-.164,1.09-.023c.006.313.041.608.046.922s-.036.628-.031.941l.015.942c.005.315.069.629.073.942s.012.631.016.944-.071.632-.067.944.065.631.069.943-.048.632-.044.942-.009.632-.005.941.073.63.076.939.026.629.029.936-.032.632-.03.938.045.633.048.938c0,.322-.043.634-.041.936,0,.326.013.639.014.938,0,.328-.011.64-.01.933,0,.334.035.7.035.981-.463.148-.5,0-.987.012s-.567.263-.939-.05c-.321-.27-.058-.378-.054-.8s.008-.418.011-.837.073-.42.077-.841-.052-.422-.048-.844-.046-.424-.035-.846S795.958,290.8,795.951,290.372Z"/>
        <path id="パス_703" data-name="パス 703" d="M795.951,290.372c-.008-.453-.032-.453-.051-.906s-.045-.454-.064-.909.043-.457.024-.911-.086-.451-.1-.906.042-.458.023-.913-.078-.453-.1-.908.025-.456.006-.911-.08-.451-.1-.9-.029-.456-.048-.912-.005-.458-.024-.914.069-.462.05-.921-.464-.647-.121-.951c.41-.363.581.048,1.128.039s.561-.164,1.09-.023c.006.313.041.608.046.922s-.036.628-.031.941l.015.942c.005.315.069.629.073.942s.012.631.016.944-.071.632-.067.944.065.631.069.943-.048.632-.044.942-.009.632-.005.941.073.63.076.939.026.629.029.936-.032.632-.03.938.045.633.048.938c0,.322-.043.634-.041.936,0,.326.013.639.014.938,0,.328-.011.64-.01.933,0,.334.035.7.035.981-.463.148-.5,0-.987.012s-.567.263-.939-.05c-.321-.27-.058-.378-.054-.8s.008-.418.011-.837.073-.42.077-.841-.052-.422-.048-.844-.046-.424-.035-.846S795.958,290.8,795.951,290.372Z" fill="none" stroke="#000" stroke-linecap="round" stroke-linejoin="round" stroke-width="1.064"/>
      </g>
      <g id="グループ_895" data-name="グループ 895">
        <path id="パス_704" data-name="パス 704" d="M797.085,308.95c.46-.013.457-.055.916-.084s.459-.014.918-.043.459,0,.917-.032.459,0,.917-.031.456-.076.916-.105.461-.016.921-.045.464,0,.926-.027.557-.365.9-.057.02.425.029.872.18.475.043.9c-.306.006-.625.036-.919.042s-.606-.014-.9-.008-.607.025-.9.031-.607.034-.9.04-.608-.064-.9-.059-.606.066-.9.071c-.308.006-.607.005-.9.01-.308.005-.608-.041-.9-.037-.309.005-.608.057-.9.061-.307,0-.606,0-.9,0l-.9.009c-.307,0-.606-.037-.895-.035-.307,0-.62.042-.91.042-.145-.357.045-.393.034-.779s-.34-.5-.055-.759c.32-.29.422.033.854.037s.434-.022.868-.018.435,0,.869.006.437-.032.873-.027S796.649,308.962,797.085,308.95Z"/>
        <path id="パス_705" data-name="パス 705" d="M797.085,308.95c.46-.013.457-.055.916-.084s.459-.014.918-.043.459,0,.917-.032.459,0,.917-.031.456-.076.916-.105.461-.016.921-.045.464,0,.926-.027.557-.365.9-.057.02.425.029.872.18.475.043.9c-.306.006-.625.036-.919.042s-.606-.014-.9-.008-.607.025-.9.031-.607.034-.9.04-.608-.064-.9-.059-.606.066-.9.071c-.308.006-.607.005-.9.01-.308.005-.608-.041-.9-.037-.309.005-.608.057-.9.061-.307,0-.606,0-.9,0l-.9.009c-.307,0-.606-.037-.895-.035-.307,0-.62.042-.91.042-.145-.357.045-.393.034-.779s-.34-.5-.055-.759c.32-.29.422.033.854.037s.434-.022.868-.018.435,0,.869.006.437-.032.873-.027S796.649,308.962,797.085,308.95Z" fill="none" stroke="#000" stroke-linecap="round" stroke-linejoin="round" stroke-width="1.064"/>
      </g>
      <g id="グループ_896" data-name="グループ 896">
        <path id="パス_706" data-name="パス 706" d="M806.17,281.689c0,.453,0,.452.015.9s.008.453.021.906-.079.456-.066.909.139.447.152.9-.087.453-.074.9.061.451.074.9.058.452.071.906-.039.454-.026.907-.035.454-.022.906.114.452.128.906-.084.456-.071.909-.005.454.008.907.128.449.141.9-.078.458-.064.912,0,.456.013.911.047.456.06.912.35.569.01.873c-.407.365-.512.043-1.058.064s-.555.163-1.087.038c-.005-.3,0-.578,0-.881s.011-.6.007-.9-.009-.6-.013-.9-.052-.6-.056-.9-.033-.6-.036-.9.011-.6.007-.906.062-.606.059-.908-.019-.607-.022-.909-.054-.607-.057-.909-.031-.608-.034-.909.028-.609.025-.909.028-.61.025-.909-.019-.608-.021-.906-.066-.607-.068-.9.047-.61.045-.9c0-.31.039-.612.037-.9,0-.312-.087-.613-.088-.9,0-.314.028-.616.027-.9,0-.32-.016-.621-.017-.9,0-.328-.012-.688-.012-.957.458-.169.5-.047.988-.092s.643-.389,1.011-.068c.349.3-.074.5-.081.964s-.005.464,0,.928S806.167,281.226,806.17,281.689Z"/>
        <path id="パス_707" data-name="パス 707" d="M806.17,281.689c0,.453,0,.452.015.9s.008.453.021.906-.079.456-.066.909.139.447.152.9-.087.453-.074.9.061.451.074.9.058.452.071.906-.039.454-.026.907-.035.454-.022.906.114.452.128.906-.084.456-.071.909-.005.454.008.907.128.449.141.9-.078.458-.064.912,0,.456.013.911.047.456.06.912.35.569.01.873c-.407.365-.512.043-1.058.064s-.555.163-1.087.038c-.005-.3,0-.578,0-.881s.011-.6.007-.9-.009-.6-.013-.9-.052-.6-.056-.9-.033-.6-.036-.9.011-.6.007-.906.062-.606.059-.908-.019-.607-.022-.909-.054-.607-.057-.909-.031-.608-.034-.909.028-.609.025-.909.028-.61.025-.909-.019-.608-.021-.906-.066-.607-.068-.9.047-.61.045-.9c0-.31.039-.612.037-.9,0-.312-.087-.613-.088-.9,0-.314.028-.616.027-.9,0-.32-.016-.621-.017-.9,0-.328-.012-.688-.012-.957.458-.169.5-.047.988-.092s.643-.389,1.011-.068c.349.3-.074.5-.081.964s-.005.464,0,.928S806.167,281.226,806.17,281.689Z" fill="none" stroke="#000" stroke-linecap="round" stroke-linejoin="round" stroke-width="1.064"/>
      </g>
      <g id="グループ_897" data-name="グループ 897">
        <path id="パス_708" data-name="パス 708" d="M802.688,317.322c-.453.007-.452.027-.9.047s-.452,0-.9.024-.449.07-.9.091-.456-.05-.908-.029-.45.06-.9.08-.45.054-.9.075-.452,0-.9.018-.456-.026-.908-.005-.452.065-.906.086-.457-.038-.912-.018-.6.415-.934.111-.027-.474-.045-.92-.119-.462.016-.887c.323-.006.621,0,.931-.007s.636-.052.945-.058.639.048.948.043.638-.08.947-.085c.324-.006.64-.005.948-.01.324-.005.639-.005.947-.01.324-.005.639.016.946.011.324,0,.64.007.947,0,.325,0,.64.011.947.008.324,0,.639-.018.944-.021.325,0,.64-.059.946-.061.323,0,.637-.019.942-.021.322,0,.661.021.966.021.173.346.007.4.046.783s.381.517.113.8-.431-.032-.835-.039-.4-.024-.809-.034S803.093,317.316,802.688,317.322Z"/>
        <path id="パス_709" data-name="パス 709" d="M802.688,317.322c-.453.007-.452.027-.9.047s-.452,0-.9.024-.449.07-.9.091-.456-.05-.908-.029-.45.06-.9.08-.45.054-.9.075-.452,0-.9.018-.456-.026-.908-.005-.452.065-.906.086-.457-.038-.912-.018-.6.415-.934.111-.027-.474-.045-.92-.119-.462.016-.887c.323-.006.621,0,.931-.007s.636-.052.945-.058.639.048.948.043.638-.08.947-.085c.324-.006.64-.005.948-.01.324-.005.639-.005.947-.01.324-.005.639.016.946.011.324,0,.64.007.947,0,.325,0,.64.011.947.008.324,0,.639-.018.944-.021.325,0,.64-.059.946-.061.323,0,.637-.019.942-.021.322,0,.661.021.966.021.173.346.007.4.046.783s.381.517.113.8-.431-.032-.835-.039-.4-.024-.809-.034S803.093,317.316,802.688,317.322Z" fill="none" stroke="#000" stroke-linecap="round" stroke-linejoin="round" stroke-width="1.064"/>
      </g>
      <g id="グループ_898" data-name="グループ 898">
        <path id="パス_710" data-name="パス 710" d="M789.187,282.414c.007.466.031.465.049.931s-.069.467-.052.932.048.463.065.926-.03.467-.012.931.115.463.133.93-.083.47-.066.935.074.464.092.929.015.468.033.935-.027.468-.009.934.112.464.129.931-.033.467-.016.932-.039.47-.021.937.095.466.112.934-.057.472-.039.942.382.56.15.969c-.19.335-.44.043-.8.179s-.332.216-.694.353-.343.229-.73.212c-.005-.3.042-.563.037-.86s-.109-.6-.114-.9.092-.607.087-.9-.084-.6-.089-.9-.009-.609-.014-.906.007-.608,0-.9-.067-.605-.072-.9.009-.606,0-.9-.026-.6-.031-.9.1-.607.094-.9-.117-.6-.122-.9-.011-.606-.016-.9-.028-.607-.033-.9.009-.606.005-.9.051-.6.047-.9-.068-.605-.072-.9,0-.607,0-.9-.021-.6-.024-.9.054-.6.051-.9.009-.6.007-.9-.021-.568-.023-.863c.465-.142.476-.021.962-.022s.615-.344.949.008c.352.372.069.49.067,1s-.047.512-.049,1.025,0,.514.008,1.028S789.178,281.9,789.187,282.414Z"/>
        <path id="パス_711" data-name="パス 711" d="M789.187,282.414c.007.466.031.465.049.931s-.069.467-.052.932.048.463.065.926-.03.467-.012.931.115.463.133.93-.083.47-.066.935.074.464.092.929.015.468.033.935-.027.468-.009.934.112.464.129.931-.033.467-.016.932-.039.47-.021.937.095.466.112.934-.057.472-.039.942.382.56.15.969c-.19.335-.44.043-.8.179s-.332.216-.694.353-.343.229-.73.212c-.005-.3.042-.563.037-.86s-.109-.6-.114-.9.092-.607.087-.9-.084-.6-.089-.9-.009-.609-.014-.906.007-.608,0-.9-.067-.605-.072-.9.009-.606,0-.9-.026-.6-.031-.9.1-.607.094-.9-.117-.6-.122-.9-.011-.606-.016-.9-.028-.607-.033-.9.009-.606.005-.9.051-.6.047-.9-.068-.605-.072-.9,0-.607,0-.9-.021-.6-.024-.9.054-.6.051-.9.009-.6.007-.9-.021-.568-.023-.863c.465-.142.476-.021.962-.022s.615-.344.949.008c.352.372.069.49.067,1s-.047.512-.049,1.025,0,.514.008,1.028S789.178,281.9,789.187,282.414Z" fill="none" stroke="#000" stroke-linecap="round" stroke-linejoin="round" stroke-width="1.064"/>
      </g>
      <g id="グループ_899" data-name="グループ 899">
        <path id="パス_712" data-name="パス 712" d="M792.84,321.308c.267-.462.256-.468.534-.924s.048-.755.565-.89c.474-.123.4.257.8.537s.513.166.812.554c-.169.269-.343.523-.494.763-.169.267-.324.521-.475.759-.169.266-.341.508-.494.746-.166.261-.293.529-.447.769s-.356.48-.515.725c-.182.282-.316.563-.472.8-.189.289-.378.546-.528.768-.411-.153-.338-.285-.685-.554s-.432-.182-.683-.542c.149-.243.275-.459.406-.67.154-.249.3-.475.425-.68.163-.259.31-.479.43-.666.209-.371.175-.39.379-.764S792.627,321.678,792.84,321.308Z"/>
        <path id="パス_713" data-name="パス 713" d="M792.84,321.308c.267-.462.256-.468.534-.924s.048-.755.565-.89c.474-.123.4.257.8.537s.513.166.812.554c-.169.269-.343.523-.494.763-.169.267-.324.521-.475.759-.169.266-.341.508-.494.746-.166.261-.293.529-.447.769s-.356.48-.515.725c-.182.282-.316.563-.472.8-.189.289-.378.546-.528.768-.411-.153-.338-.285-.685-.554s-.432-.182-.683-.542c.149-.243.275-.459.406-.67.154-.249.3-.475.425-.68.163-.259.31-.479.43-.666.209-.371.175-.39.379-.764S792.627,321.678,792.84,321.308Z" fill="none" stroke="#000" stroke-linecap="round" stroke-linejoin="round" stroke-width="1.064"/>
      </g>
      <g id="グループ_900" data-name="グループ 900">
        <path id="パス_714" data-name="パス 714" d="M802.887,311.949c-.016-.515,0-.516-.036-1.03s-.053-.515-.09-1.031-.42-.643-.083-1.035c.292-.341.45.07.9.106s.483-.127.894.055c.026.334.043.65.068.967.026.336.034.663.059.979.025.336.07.659.094.973.025.338.047.664.07.978.024.338.07.66.092.97q.036.511.066.97c.019.273.052.549.076.821s.056.562.08.819c.029.309.03.588.042.815a3.293,3.293,0,0,1-1.041.038c-.52.016-.538.164-1.045.048-.025-.276-.062-.576-.077-.856s.019-.572.01-.844c-.01-.3-.014-.587-.021-.845-.009-.335-.026-.623-.04-.834,0-.516.013-.515.02-1.031S802.9,312.465,802.887,311.949Z"/>
        <path id="パス_715" data-name="パス 715" d="M802.887,311.949c-.016-.515,0-.516-.036-1.03s-.053-.515-.09-1.031-.42-.643-.083-1.035c.292-.341.45.07.9.106s.483-.127.894.055c.026.334.043.65.068.967.026.336.034.663.059.979.025.336.07.659.094.973.025.338.047.664.07.978.024.338.07.66.092.97q.036.511.066.97c.019.273.052.549.076.821s.056.562.08.819c.029.309.03.588.042.815a3.293,3.293,0,0,1-1.041.038c-.52.016-.538.164-1.045.048-.025-.276-.062-.576-.077-.856s.019-.572.01-.844c-.01-.3-.014-.587-.021-.845-.009-.335-.026-.623-.04-.834,0-.516.013-.515.02-1.031S802.9,312.465,802.887,311.949Z" fill="none" stroke="#000" stroke-linecap="round" stroke-linejoin="round" stroke-width="1.064"/>
      </g>
      <g id="グループ_901" data-name="グループ 901">
        <path id="パス_716" data-name="パス 716" d="M794.343,315.932c.041.412.05.712.066.924.088,1.154-.119-.214-.081.486-.324.306-.434.069-.877.119s-.488-.113-.876.107c-.182.1-.032.611-.05.4a7.313,7.313,0,0,1,.007-.863c0-.432.017-.432.014-.864s-.036-.432-.029-.865c.007-.377-.013-.378,0-.754s.056-.375.076-.752c.03-.551-.009-.554.023-1.105s.023-.553.062-1.1c.034-.489.093-.485.134-.974s.049-.49.09-.98-.393-.771.054-.977.38.281.753.58.44.236.739.61c-.005.325.015.6.013.877s-.006.541-.005.874c0,.251.01.536.012.877,0,.258-.036.548-.032.881-.012.416.025.418.007.834s-.019.417-.043.834S794.342,315.514,794.343,315.932Z"/>
        <path id="パス_717" data-name="パス 717" d="M794.343,315.932c.041.412.05.712.066.924.088,1.154-.119-.214-.081.486-.324.306-.434.069-.877.119s-.488-.113-.876.107c-.182.1-.032.611-.05.4a7.313,7.313,0,0,1,.007-.863c0-.432.017-.432.014-.864s-.036-.432-.029-.865c.007-.377-.013-.378,0-.754s.056-.375.076-.752c.03-.551-.009-.554.023-1.105s.023-.553.062-1.1c.034-.489.093-.485.134-.974s.049-.49.09-.98-.393-.771.054-.977.38.281.753.58.44.236.739.61c-.005.325.015.6.013.877s-.006.541-.005.874c0,.251.01.536.012.877,0,.258-.036.548-.032.881-.012.416.025.418.007.834s-.019.417-.043.834S794.342,315.514,794.343,315.932Z" fill="none" stroke="#000" stroke-linecap="round" stroke-linejoin="round" stroke-width="1.064"/>
      </g>
      <g id="グループ_902" data-name="グループ 902">
        <path id="パス_718" data-name="パス 718" d="M803.352,261.464c.156.263.319.5.466.748q.234.4.451.774c.154.265.31.518.452.767.154.269.3.53.438.78.152.272.28.541.416.79.15.275.294.535.424.782.149.282.3.539.421.784.145.292.245.553.353.793-.393.26-.447.133-.9.273s-.439.181-.89.322-.472.447-.9.244-.176-.42-.347-.858-.169-.438-.34-.876-.2-.426-.368-.863-.167-.442-.338-.881-.133-.455-.3-.895-.2-.431-.368-.873-.515-.444-.354-.889.447-.2.841-.474S802.884,261.562,803.352,261.464Z"/>
        <path id="パス_719" data-name="パス 719" d="M803.352,261.464c.156.263.319.5.466.748q.234.4.451.774c.154.265.31.518.452.767.154.269.3.53.438.78.152.272.28.541.416.79.15.275.294.535.424.782.149.282.3.539.421.784.145.292.245.553.353.793-.393.26-.447.133-.9.273s-.439.181-.89.322-.472.447-.9.244-.176-.42-.347-.858-.169-.438-.34-.876-.2-.426-.368-.863-.167-.442-.338-.881-.133-.455-.3-.895-.2-.431-.368-.873-.515-.444-.354-.889.447-.2.841-.474S802.884,261.562,803.352,261.464Z" fill="none" stroke="#000" stroke-linecap="round" stroke-linejoin="round" stroke-width="1.064"/>
      </g>
      <g id="グループ_903" data-name="グループ 903">
        <path id="パス_720" data-name="パス 720" d="M805.6,319.468c.128.288.25.575.366.839.126.288.255.559.368.821.127.292.238.572.349.835.126.294.236.573.344.834.123.3.22.578.322.839.118.3.236.571.333.833.11.3.213.568.3.835-.322.217-.38.074-.757.165s-.375.109-.754.2-.439.413-.752.18c-.394-.293-.126-.469-.26-.942s-.125-.472-.258-.943-.164-.464-.3-.937-.144-.471-.278-.944-.117-.48-.251-.955-.436-.487-.266-.95c.142-.387.4-.128.746-.348S805.189,319.5,805.6,319.468Z"/>
        <path id="パス_721" data-name="パス 721" d="M805.6,319.468c.128.288.25.575.366.839.126.288.255.559.368.821.127.292.238.572.349.835.126.294.236.573.344.834.123.3.22.578.322.839.118.3.236.571.333.833.11.3.213.568.3.835-.322.217-.38.074-.757.165s-.375.109-.754.2-.439.413-.752.18c-.394-.293-.126-.469-.26-.942s-.125-.472-.258-.943-.164-.464-.3-.937-.144-.471-.278-.944-.117-.48-.251-.955-.436-.487-.266-.95c.142-.387.4-.128.746-.348S805.189,319.5,805.6,319.468Z" fill="none" stroke="#000" stroke-linecap="round" stroke-linejoin="round" stroke-width="1.064"/>
      </g>
      <g id="グループ_904" data-name="グループ 904">
        <path id="パス_722" data-name="パス 722" d="M786.331,318.2c.047-.469-.064-.48-.018-.949s.041-.469.087-.936.087-.463.133-.93.076-.465.122-.933-.013-.476.033-.946.052-.468.1-.937.147-.459.193-.928-.058-.481-.012-.952.135-.461.181-.931-.013-.476.033-.946.074-.466.12-.934.014-.474.06-.945.056-.471.1-.942,0-.478.042-.951-.17-.591.2-.889.448-.056.932-.011.484.053.97.1.518-.063.983.084c-.023.206-.028.576-.071.971-.029.267-.056.574-.092.912-.03.284-.136.582-.17.907-.031.292-.112.593-.145.911-.032.3.066.616.033.93-.032.3-.079.6-.112.914s-.183.594-.216.9.029.616,0,.922-.112.606-.144.912-.1.61-.135.915.075.632.043.936-.136.61-.168.912-.1.614-.137.913c-.033.315.033.633,0,.929-.034.32-.121.622-.151.914-.035.326-.038.635-.068.917-.036.342-.125.643-.153.908-.044.42-.13.728-.149.906-.031.3.005.6-.024.877-.031.3-.035.593-.064.875-.03.3-.031.593-.059.873-.031.3-.075.591-.1.87-.03.3-.047.593-.073.868-.029.306-.11.534-.134.8a2.3,2.3,0,0,1-.949-.009c-.48-.04-.485.018-.965-.022s-.542.094-.956-.153c.078-.444.108-.738.132-.871.055-.483.1-.478.151-.96s.005-.488.055-.972.033-.483.083-.964.036-.486.086-.97.074-.482.125-.966.038-.488.1-.973S786.282,318.686,786.331,318.2Z"/>
        <path id="パス_723" data-name="パス 723" d="M786.331,318.2c.047-.469-.064-.48-.018-.949s.041-.469.087-.936.087-.463.133-.93.076-.465.122-.933-.013-.476.033-.946.052-.468.1-.937.147-.459.193-.928-.058-.481-.012-.952.135-.461.181-.931-.013-.476.033-.946.074-.466.12-.934.014-.474.06-.945.056-.471.1-.942,0-.478.042-.951-.17-.591.2-.889.448-.056.932-.011.484.053.97.1.518-.063.983.084c-.023.206-.028.576-.071.971-.029.267-.056.574-.092.912-.03.284-.136.582-.17.907-.031.292-.112.593-.145.911-.032.3.066.616.033.93-.032.3-.079.6-.112.914s-.183.594-.216.9.029.616,0,.922-.112.606-.144.912-.1.61-.135.915.075.632.043.936-.136.61-.168.912-.1.614-.137.913c-.033.315.033.633,0,.929-.034.32-.121.622-.151.914-.035.326-.038.635-.068.917-.036.342-.125.643-.153.908-.044.42-.13.728-.149.906-.031.3.005.6-.024.877-.031.3-.035.593-.064.875-.03.3-.031.593-.059.873-.031.3-.075.591-.1.87-.03.3-.047.593-.073.868-.029.306-.11.534-.134.8a2.3,2.3,0,0,1-.949-.009c-.48-.04-.485.018-.965-.022s-.542.094-.956-.153c.078-.444.108-.738.132-.871.055-.483.1-.478.151-.96s.005-.488.055-.972.033-.483.083-.964.036-.486.086-.97.074-.482.125-.966.038-.488.1-.973S786.282,318.686,786.331,318.2Z" fill="none" stroke="#000" stroke-linecap="round" stroke-linejoin="round" stroke-width="1.064"/>
      </g>
      <g id="グループ_905" data-name="グループ 905">
        <path id="パス_724" data-name="パス 724" d="M795.914,306.133c.229-.311.223-.315.463-.617s.108-.513.485-.6c.355-.077.307.188.623.368s.613-.016.658.346c.06.491-.257.435-.5.867s-.249.43-.491.864-.222.447-.464.882-.254.43-.5.866,0,.76-.485.881c-.509.127-.454-.275-.908-.537s-.791-.01-.9-.524.3-.432.613-.869.309-.44.622-.877C795.522,306.656,795.525,306.658,795.914,306.133Z"/>
        <path id="パス_725" data-name="パス 725" d="M795.914,306.133c.229-.311.223-.315.463-.617s.108-.513.485-.6c.355-.077.307.188.623.368s.613-.016.658.346c.06.491-.257.435-.5.867s-.249.43-.491.864-.222.447-.464.882-.254.43-.5.866,0,.76-.485.881c-.509.127-.454-.275-.908-.537s-.791-.01-.9-.524.3-.432.613-.869.309-.44.622-.877C795.522,306.656,795.525,306.658,795.914,306.133Z" fill="none" stroke="#000" stroke-linecap="round" stroke-linejoin="round" stroke-width="1.064"/>
      </g>
      <g id="グループ_906" data-name="グループ 906">
        <path id="パス_726" data-name="パス 726" d="M799.892,313.884c.418-.015.418-.013.836-.028s.42,0,.841-.018.421,0,.842-.011.42-.068.842-.083.579.328.819-.019c.352-.512.412-.712.048-1.215-.275-.382-.46-.018-.931-.027s-.47.019-.939.01-.47-.011-.94-.02-.47-.057-.941-.066-.471.041-.942.032-.47-.051-.941-.06-.47.02-.939.011-.471-.022-.942-.031-.473.006-.945,0-.474-.014-.947-.023-.576-.32-.926,0c-.331.3-.06.423-.068.87s-.277.555.033.877c.3.307.408-.017.833-.03s.428-.018.856-.03.429-.008.858-.021.43-.016.859-.028.431.023.861.008c.469-.016.47.01.938-.012S799.423,313.9,799.892,313.884Z"/>
        <path id="パス_727" data-name="パス 727" d="M799.892,313.884c.418-.015.418-.013.836-.028s.42,0,.841-.018.421,0,.842-.011.42-.068.842-.083.579.328.819-.019c.352-.512.412-.712.048-1.215-.275-.382-.46-.018-.931-.027s-.47.019-.939.01-.47-.011-.94-.02-.47-.057-.941-.066-.471.041-.942.032-.47-.051-.941-.06-.47.02-.939.011-.471-.022-.942-.031-.473.006-.945,0-.474-.014-.947-.023-.576-.32-.926,0c-.331.3-.06.423-.068.87s-.277.555.033.877c.3.307.408-.017.833-.03s.428-.018.856-.03.429-.008.858-.021.43-.016.859-.028.431.023.861.008c.469-.016.47.01.938-.012S799.423,313.9,799.892,313.884Z" fill="none" stroke="#000" stroke-linecap="round" stroke-linejoin="round" stroke-width="1.064"/>
      </g>
      <g id="グループ_935" data-name="グループ 935">
        <g id="グループ_907" data-name="グループ 907">
          <path id="パス_728" data-name="パス 728" d="M786.976,178.982c-.233-.387.079-.43.2-.865s.164-.423.285-.858.1-.441.216-.875.113-.439.234-.876.155-.428.277-.865.084-.449.206-.887-.161-.705.255-.888c.5-.218.529.169,1.051.325s.589.012,1.043.311c-.106.305-.2.57-.3.859-.085.249-.167.522-.276.858-.08.245-.193.516-.3.847-.081.254-.176.537-.277.859-.082.262-.169.55-.268.867-.082.267-.145.563-.241.874-.084.271-.181.562-.276.871-.482.018-.447-.22-.927-.262C787.379,179.233,787.224,179.4,786.976,178.982Z"/>
          <path id="パス_729" data-name="パス 729" d="M786.976,178.982c-.233-.387.079-.43.2-.865s.164-.423.285-.858.1-.441.216-.875.113-.439.234-.876.155-.428.277-.865.084-.449.206-.887-.161-.705.255-.888c.5-.218.529.169,1.051.325s.589.012,1.043.311c-.106.305-.2.57-.3.859-.085.249-.167.522-.276.858-.08.245-.193.516-.3.847-.081.254-.176.537-.277.859-.082.262-.169.55-.268.867-.082.267-.145.563-.241.874-.084.271-.181.562-.276.871-.482.018-.447-.22-.927-.262C787.379,179.233,787.224,179.4,786.976,178.982Z" fill="none" stroke="#000" stroke-linecap="round" stroke-linejoin="round" stroke-width="1.064"/>
        </g>
        <g id="グループ_908" data-name="グループ 908">
          <path id="パス_730" data-name="パス 730" d="M792.1,185.625c-.426.011-.427-.018-.852.008s-.425.017-.849.043-.423.048-.847.075-.428,0-.854.024-.425.046-.852.073-.429.01-.857.036-.537.368-.861.087-.025-.417-.038-.827.015-.411,0-.822-.179-.437-.038-.824c.327-.005.653-.008.968-.014s.648-.023.962-.027.649-.022.962-.026c.329-.005.65.01.962.006.329,0,.65-.01.962-.013.331,0,.652.028.963.025.331,0,.651-.04.96-.042.333,0,.654.025.962.024.334,0,.653-.009.956-.009.337,0,.67-.018.969-.016.173.528.043.558.076,1.113s.384.672.042,1.111c-.283.364-.461-.028-.922-.032s-.463.014-.925.01-.463-.023-.926-.022S792.568,185.614,792.1,185.625Z"/>
          <path id="パス_731" data-name="パス 731" d="M792.1,185.625c-.426.011-.427-.018-.852.008s-.425.017-.849.043-.423.048-.847.075-.428,0-.854.024-.425.046-.852.073-.429.01-.857.036-.537.368-.861.087-.025-.417-.038-.827.015-.411,0-.822-.179-.437-.038-.824c.327-.005.653-.008.968-.014s.648-.023.962-.027.649-.022.962-.026c.329-.005.65.01.962.006.329,0,.65-.01.962-.013.331,0,.652.028.963.025.331,0,.651-.04.96-.042.333,0,.654.025.962.024.334,0,.653-.009.956-.009.337,0,.67-.018.969-.016.173.528.043.558.076,1.113s.384.672.042,1.111c-.283.364-.461-.028-.922-.032s-.463.014-.925.01-.463-.023-.926-.022S792.568,185.614,792.1,185.625Z" fill="none" stroke="#000" stroke-linecap="round" stroke-linejoin="round" stroke-width="1.064"/>
        </g>
        <g id="グループ_909" data-name="グループ 909">
          <path id="パス_732" data-name="パス 732" d="M791.268,192.482c0-.476,0-.475-.013-.95s.038-.477.026-.953-.028-.473-.04-.947,0-.477-.007-.953-.026-.477-.039-.954-.031-.478-.044-.956-.011-.478-.032-.956c-.019-.42-.013-.42-.041-.839s-.026-.421-.054-.842-.081-.418-.109-.84.045-.427.017-.85-.366-.533-.087-.852.42.034.83.019.41-.03.821-.045.424-.165.816-.04c.005.293,0,.567,0,.853s-.01.581-.013.866-.035.584-.04.87.016.58.014.863.02.579.024.863c.005.3.044.6.049.9s-.017.608-.011.9,0,.61,0,.907-.025.609-.018.9.11.6.117.9-.021.609-.014.9-.017.609-.01.9-.017.609-.01.9c.006.309.046.609.051.9.005.309-.007.608,0,.9,0,.31.028.587.028.873a3.024,3.024,0,0,1-1.1.146c-.555.044-.653.368-1.108.049-.352-.247-.044-.425-.039-.854s.006-.43.011-.861.046-.43.04-.862S791.272,192.913,791.268,192.482Z"/>
          <path id="パス_733" data-name="パス 733" d="M791.268,192.482c0-.476,0-.475-.013-.95s.038-.477.026-.953-.028-.473-.04-.947,0-.477-.007-.953-.026-.477-.039-.954-.031-.478-.044-.956-.011-.478-.032-.956c-.019-.42-.013-.42-.041-.839s-.026-.421-.054-.842-.081-.418-.109-.84.045-.427.017-.85-.366-.533-.087-.852.42.034.83.019.41-.03.821-.045.424-.165.816-.04c.005.293,0,.567,0,.853s-.01.581-.013.866-.035.584-.04.87.016.58.014.863.02.579.024.863c.005.3.044.6.049.9s-.017.608-.011.9,0,.61,0,.907-.025.609-.018.9.11.6.117.9-.021.609-.014.9-.017.609-.01.9-.017.609-.01.9c.006.309.046.609.051.9.005.309-.007.608,0,.9,0,.31.028.587.028.873a3.024,3.024,0,0,1-1.1.146c-.555.044-.653.368-1.108.049-.352-.247-.044-.425-.039-.854s.006-.43.011-.861.046-.43.04-.862S791.272,192.913,791.268,192.482Z" fill="none" stroke="#000" stroke-linecap="round" stroke-linejoin="round" stroke-width="1.064"/>
        </g>
        <g id="グループ_910" data-name="グループ 910">
          <path id="パス_734" data-name="パス 734" d="M797.154,192.379c-.007-.453-.049-.452-.068-.9s-.028-.455-.047-.91.025-.456.006-.91-.017-.454-.036-.909-.009-.456-.028-.911-.065-.453-.084-.908-.017-.455-.036-.91-.013-.454-.033-.907,0-.458-.017-.914-.011-.457-.03-.914-.019-.458-.038-.916-.408-.614-.064-.918c.409-.363.549-.02,1.1-.029a2.691,2.691,0,0,1,1.085.036c.005.3.044.56.049.857s-.059.6-.054.9.076.6.081.9-.008.6,0,.9-.005.6,0,.9.065.6.069.9-.059.605-.055.9.06.606.064.9-.032.606-.029.9.043.6.047.9.008.6.011.9-.011.606-.008.9.042.605.044.9c0,.308-.011.608-.009.9,0,.309-.044.607-.043.894,0,.309.019.607.019.892a2.36,2.36,0,0,1-.971.072c-.486.013-.634.333-1,.015-.325-.281.08-.462.085-.892s-.034-.431-.028-.861,0-.431.011-.862S797.161,192.811,797.154,192.379Z"/>
          <path id="パス_735" data-name="パス 735" d="M797.154,192.379c-.007-.453-.049-.452-.068-.9s-.028-.455-.047-.91.025-.456.006-.91-.017-.454-.036-.909-.009-.456-.028-.911-.065-.453-.084-.908-.017-.455-.036-.91-.013-.454-.033-.907,0-.458-.017-.914-.011-.457-.03-.914-.019-.458-.038-.916-.408-.614-.064-.918c.409-.363.549-.02,1.1-.029a2.691,2.691,0,0,1,1.085.036c.005.3.044.56.049.857s-.059.6-.054.9.076.6.081.9-.008.6,0,.9-.005.6,0,.9.065.6.069.9-.059.605-.055.9.06.606.064.9-.032.606-.029.9.043.6.047.9.008.6.011.9-.011.606-.008.9.042.605.044.9c0,.308-.011.608-.009.9,0,.309-.044.607-.043.894,0,.309.019.607.019.892a2.36,2.36,0,0,1-.971.072c-.486.013-.634.333-1,.015-.325-.281.08-.462.085-.892s-.034-.431-.028-.861,0-.431.011-.862S797.161,192.811,797.154,192.379Z" fill="none" stroke="#000" stroke-linecap="round" stroke-linejoin="round" stroke-width="1.064"/>
        </g>
        <g id="グループ_911" data-name="グループ 911">
          <path id="パス_736" data-name="パス 736" d="M804.97,184.749c.007.448.056.446.075.893s-.032.452-.013.9-.006.449.013.9.069.447.088.9,0,.451.017.9.041.449.06.9-.045.452-.026.9.093.445.111.894-.014.452.005.9-.015.453,0,.9.068.451.087.9.394.633.057.935c-.408.365-.573.012-1.119.032s-.562.144-1.092.009c-.005-.319.012-.627.007-.938s.007-.635,0-.945-.039-.633-.044-.943-.068-.633-.073-.943.032-.635.027-.945-.01-.635-.014-.944.01-.636.006-.945-.069-.636-.073-.945-.009-.635-.013-.942,0-.636-.005-.944-.006-.637-.009-.944.032-.636.029-.942c0-.324.041-.639.039-.943,0-.324-.072-.637-.073-.939,0-.325,0-.684,0-.984.453-.181.5-.009.988-.052s.612-.4.992-.1c.335.269.007.454,0,.883s-.085.43-.09.86.063.432.054.863S804.963,184.317,804.97,184.749Z"/>
          <path id="パス_737" data-name="パス 737" d="M804.97,184.749c.007.448.056.446.075.893s-.032.452-.013.9-.006.449.013.9.069.447.088.9,0,.451.017.9.041.449.06.9-.045.452-.026.9.093.445.111.894-.014.452.005.9-.015.453,0,.9.068.451.087.9.394.633.057.935c-.408.365-.573.012-1.119.032s-.562.144-1.092.009c-.005-.319.012-.627.007-.938s.007-.635,0-.945-.039-.633-.044-.943-.068-.633-.073-.943.032-.635.027-.945-.01-.635-.014-.944.01-.636.006-.945-.069-.636-.073-.945-.009-.635-.013-.942,0-.636-.005-.944-.006-.637-.009-.944.032-.636.029-.942c0-.324.041-.639.039-.943,0-.324-.072-.637-.073-.939,0-.325,0-.684,0-.984.453-.181.5-.009.988-.052s.612-.4.992-.1c.335.269.007.454,0,.883s-.085.43-.09.86.063.432.054.863S804.963,184.317,804.97,184.749Z" fill="none" stroke="#000" stroke-linecap="round" stroke-linejoin="round" stroke-width="1.064"/>
        </g>
        <g id="グループ_912" data-name="グループ 912">
          <path id="パス_738" data-name="パス 738" d="M797.334,209.795c.006.446.035.446.051.892s0,.447.014.894l.032.893c.015.445.1.442.115.887s-.091.449-.075.893.146.441.161.886-.083.451-.067.9.083.444.1.891-.079.449-.064.9.093.445.108.893-.006.448.01.9.036.446.051.893.021.446.036.892.03.447.045.9-.007.45.009.9-.025.451-.009.9.278.5.049.891c-.2.333-.334.18-.7.316s-.393.055-.755.191-.319.306-.706.289c-.005-.307.023-.581.018-.884s-.091-.609-.1-.912-.011-.611-.017-.913-.029-.611-.034-.913-.012-.61-.017-.912.016-.611.011-.912-.034-.61-.039-.911.069-.61.065-.911.041-.61.037-.911-.117-.607-.121-.907,0-.609,0-.908-.031-.609-.035-.909-.021-.61-.025-.909,0-.614,0-.914.109-.614.1-.913-.1-.61-.1-.908.067-.61.064-.907-.065-.611-.068-.908.009-.612.006-.909.013-.612.011-.907c0-.311-.092-.613-.1-.907,0-.311,0-.612,0-.9,0-.312.065-.577.063-.867.466-.14.476-.016.962-.017s.66-.4,1-.054.008.519.007,1.007-.084.49-.086.98.038.491.036.982.079.5.058.988S797.326,209.3,797.334,209.795Z"/>
          <path id="パス_739" data-name="パス 739" d="M797.334,209.795c.006.446.035.446.051.892s0,.447.014.894l.032.893c.015.445.1.442.115.887s-.091.449-.075.893.146.441.161.886-.083.451-.067.9.083.444.1.891-.079.449-.064.9.093.445.108.893-.006.448.01.9.036.446.051.893.021.446.036.892.03.447.045.9-.007.45.009.9-.025.451-.009.9.278.5.049.891c-.2.333-.334.18-.7.316s-.393.055-.755.191-.319.306-.706.289c-.005-.307.023-.581.018-.884s-.091-.609-.1-.912-.011-.611-.017-.913-.029-.611-.034-.913-.012-.61-.017-.912.016-.611.011-.912-.034-.61-.039-.911.069-.61.065-.911.041-.61.037-.911-.117-.607-.121-.907,0-.609,0-.908-.031-.609-.035-.909-.021-.61-.025-.909,0-.614,0-.914.109-.614.1-.913-.1-.61-.1-.908.067-.61.064-.907-.065-.611-.068-.908.009-.612.006-.909.013-.612.011-.907c0-.311-.092-.613-.1-.907,0-.311,0-.612,0-.9,0-.312.065-.577.063-.867.466-.14.476-.016.962-.017s.66-.4,1-.054.008.519.007,1.007-.084.49-.086.98.038.491.036.982.079.5.058.988S797.326,209.3,797.334,209.795Z" fill="none" stroke="#000" stroke-linecap="round" stroke-linejoin="round" stroke-width="1.064"/>
        </g>
        <g id="グループ_913" data-name="グループ 913">
          <path id="パス_740" data-name="パス 740" d="M790.974,177.625a7.5,7.5,0,0,1-.807-.029c-.4-.016-.4-.057-.806-.073s-.522.276-.793-.024c-.295-.327-.019-.426-.026-.867s-.184-.471-.037-.886c.333-.01.671-.008.983-.017.333-.01.653-.043.962-.051.336-.009.658,0,.966-.007.336-.008.656-.021.96-.028.339-.007.658-.028.956-.033.336-.006.646.029.929.026.345,0,.671-.03.939-.03.1.427-.067.441-.1.879s.111.465-.047.874l-.793.031c-.293.011-.56.014-.8.022-.306.009-.569.034-.792.037-.424.035-.427.012-.85.069A5.515,5.515,0,0,1,790.974,177.625Z"/>
          <path id="パス_741" data-name="パス 741" d="M790.974,177.625a7.5,7.5,0,0,1-.807-.029c-.4-.016-.4-.057-.806-.073s-.522.276-.793-.024c-.295-.327-.019-.426-.026-.867s-.184-.471-.037-.886c.333-.01.671-.008.983-.017.333-.01.653-.043.962-.051.336-.009.658,0,.966-.007.336-.008.656-.021.96-.028.339-.007.658-.028.956-.033.336-.006.646.029.929.026.345,0,.671-.03.939-.03.1.427-.067.441-.1.879s.111.465-.047.874l-.793.031c-.293.011-.56.014-.8.022-.306.009-.569.034-.792.037-.424.035-.427.012-.85.069A5.515,5.515,0,0,1,790.974,177.625Z" fill="none" stroke="#000" stroke-linecap="round" stroke-linejoin="round" stroke-width="1.064"/>
        </g>
        <g id="グループ_914" data-name="グループ 914">
          <path id="パス_742" data-name="パス 742" d="M788.9,211.033c-.446.011-.446-.024-.892-.033s-.448.03-.9.021-.447-.054-.895-.063-.6.335-.914.021-.016-.458-.023-.9-.1-.454.036-.873c.3-.008.575.006.867,0s.6-.047.889-.054.6,0,.891,0,.6,0,.891-.011c.3-.007.6-.008.889-.014.306-.007.6-.023.891-.029.306-.006.6-.044.885-.049.308-.006.6-.033.885-.038.452-.008.734.041.957.038.322,0,.519-.023.944-.025.156.412-.071.432-.119.87s.148.493-.053.885c-.359.012-.665.025-.917.034-.377.013-.655.039-.9.047-.3.01-.563,0-.9,0-.418.024-.417.026-.835.056s-.418.041-.836.077S789.319,211.023,788.9,211.033Z"/>
          <path id="パス_743" data-name="パス 743" d="M788.9,211.033c-.446.011-.446-.024-.892-.033s-.448.03-.9.021-.447-.054-.895-.063-.6.335-.914.021-.016-.458-.023-.9-.1-.454.036-.873c.3-.008.575.006.867,0s.6-.047.889-.054.6,0,.891,0,.6,0,.891-.011c.3-.007.6-.008.889-.014.306-.007.6-.023.891-.029.306-.006.6-.044.885-.049.308-.006.6-.033.885-.038.452-.008.734.041.957.038.322,0,.519-.023.944-.025.156.412-.071.432-.119.87s.148.493-.053.885c-.359.012-.665.025-.917.034-.377.013-.655.039-.9.047-.3.01-.563,0-.9,0-.418.024-.417.026-.835.056s-.418.041-.836.077S789.319,211.023,788.9,211.033Z" fill="none" stroke="#000" stroke-linecap="round" stroke-linejoin="round" stroke-width="1.064"/>
        </g>
        <g id="グループ_915" data-name="グループ 915">
          <path id="パス_744" data-name="パス 744" d="M796.976,175.24a7.753,7.753,0,0,1,.23-.772c.112-.388.072-.4.184-.788s-.1-.564.255-.754c.388-.208.416.1.845.2s.492-.061.859.182c-.07.324-.135.633-.2.937-.071.326-.147.638-.213.94-.072.328-.119.647-.186.948-.073.328-.149.639-.215.936-.074.331-.131.645-.2.936-.075.327-.157.626-.222.9-.079.337-.159.629-.223.889-.439,0-.417-.132-.835-.266s-.473-.02-.832-.272c.057-.28.128-.529.178-.772.06-.287.093-.553.144-.789.064-.3.131-.556.18-.773.069-.42.065-.421.122-.844A7.2,7.2,0,0,1,796.976,175.24Z"/>
          <path id="パス_745" data-name="パス 745" d="M796.976,175.24a7.753,7.753,0,0,1,.23-.772c.112-.388.072-.4.184-.788s-.1-.564.255-.754c.388-.208.416.1.845.2s.492-.061.859.182c-.07.324-.135.633-.2.937-.071.326-.147.638-.213.94-.072.328-.119.647-.186.948-.073.328-.149.639-.215.936-.074.331-.131.645-.2.936-.075.327-.157.626-.222.9-.079.337-.159.629-.223.889-.439,0-.417-.132-.835-.266s-.473-.02-.832-.272c.057-.28.128-.529.178-.772.06-.287.093-.553.144-.789.064-.3.131-.556.18-.773.069-.42.065-.421.122-.844A7.2,7.2,0,0,1,796.976,175.24Z" fill="none" stroke="#000" stroke-linecap="round" stroke-linejoin="round" stroke-width="1.064"/>
        </g>
        <g id="グループ_916" data-name="グループ 916">
          <path id="パス_746" data-name="パス 746" d="M787.183,214.676a5.058,5.058,0,0,1,.513-.681c.261-.342.218-.375.48-.716s.275-.332.537-.674.276-.332.539-.675.134-.88.532-.712c.517.218.162.558.344,1.088a4.083,4.083,0,0,1,.352,1.061c-.165.292-.32.563-.477.84s-.31.586-.467.862c-.166.293-.329.575-.485.849-.168.294-.3.594-.459.866-.168.295-.39.542-.545.811-.171.3-.325.58-.479.845-.1.177-.259.436-.44.738-.137.227-.24.508-.4.766s-.323.484-.471.726c-.16.263-.344.5-.479.719-.2.334-.338.609-.419.744a4.624,4.624,0,0,1-.814-.654c-.407-.327-.48-.25-.8-.664.129-.234.308-.5.5-.832.156-.27.325-.563.5-.859s.316-.595.482-.874c.182-.307.346-.606.5-.864.231-.389.411-.7.5-.856.232-.467.248-.459.47-.931A6.729,6.729,0,0,1,787.183,214.676Z"/>
          <path id="パス_747" data-name="パス 747" d="M787.183,214.676a5.058,5.058,0,0,1,.513-.681c.261-.342.218-.375.48-.716s.275-.332.537-.674.276-.332.539-.675.134-.88.532-.712c.517.218.162.558.344,1.088a4.083,4.083,0,0,1,.352,1.061c-.165.292-.32.563-.477.84s-.31.586-.467.862c-.166.293-.329.575-.485.849-.168.294-.3.594-.459.866-.168.295-.39.542-.545.811-.171.3-.325.58-.479.845-.1.177-.259.436-.44.738-.137.227-.24.508-.4.766s-.323.484-.471.726c-.16.263-.344.5-.479.719-.2.334-.338.609-.419.744a4.624,4.624,0,0,1-.814-.654c-.407-.327-.48-.25-.8-.664.129-.234.308-.5.5-.832.156-.27.325-.563.5-.859s.316-.595.482-.874c.182-.307.346-.606.5-.864.231-.389.411-.7.5-.856.232-.467.248-.459.47-.931A6.729,6.729,0,0,1,787.183,214.676Z" fill="none" stroke="#000" stroke-linecap="round" stroke-linejoin="round" stroke-width="1.064"/>
        </g>
        <g id="グループ_917" data-name="グループ 917">
          <path id="パス_748" data-name="パス 748" d="M804.509,219.361c.2.234.373.484.557.716s.375.49.549.727c.187.255.341.519.5.758.182.266.367.506.518.741.183.284.335.547.474.77a8.42,8.42,0,0,0,.534.753c-.335.4-.427.314-.824.658s-.257.734-.782.718c-.448-.013-.272-.373-.534-.736s-.27-.36-.533-.724l-.528-.731c-.264-.365-.265-.364-.529-.729-.253-.349-.221-.372-.474-.721s-.288-.326-.541-.676-.221-.373-.465-.73c-.212-.311-.227-.3-.43-.619s-.2-.32-.4-.639c-.295-.467-.3-.461-.6-.93s-.281-.475-.569-.947c-.255-.419-.248-.423-.5-.846s-.278-.407-.529-.831-.74-.433-.468-.844c.3-.453.525-.035,1.069-.054s.555-.148,1.09-.051c.184.269.336.511.5.739s.294.455.488.726c.145.2.354.4.553.677.152.21.287.472.483.743.231.346.224.351.45.7s.224.353.453.7S804.269,219.019,804.509,219.361Z"/>
          <path id="パス_749" data-name="パス 749" d="M804.509,219.361c.2.234.373.484.557.716s.375.49.549.727c.187.255.341.519.5.758.182.266.367.506.518.741.183.284.335.547.474.77a8.42,8.42,0,0,0,.534.753c-.335.4-.427.314-.824.658s-.257.734-.782.718c-.448-.013-.272-.373-.534-.736s-.27-.36-.533-.724l-.528-.731c-.264-.365-.265-.364-.529-.729-.253-.349-.221-.372-.474-.721s-.288-.326-.541-.676-.221-.373-.465-.73c-.212-.311-.227-.3-.43-.619s-.2-.32-.4-.639c-.295-.467-.3-.461-.6-.93s-.281-.475-.569-.947c-.255-.419-.248-.423-.5-.846s-.278-.407-.529-.831-.74-.433-.468-.844c.3-.453.525-.035,1.069-.054s.555-.148,1.09-.051c.184.269.336.511.5.739s.294.455.488.726c.145.2.354.4.553.677.152.21.287.472.483.743.231.346.224.351.45.7s.224.353.453.7S804.269,219.019,804.509,219.361Z" fill="none" stroke="#000" stroke-linecap="round" stroke-linejoin="round" stroke-width="1.064"/>
        </g>
        <g id="グループ_918" data-name="グループ 918">
          <path id="パス_750" data-name="パス 750" d="M798.121,189.717c.324-.036.634-.065.94-.1.325-.036.641-.055.944-.087.329-.035.645-.071.948-.1.331-.033.643-.1.943-.128.334-.031.65-.05.946-.075.339-.029.655-.048.946-.068.348-.025.661-.037.939-.05.118.37,0,.388-.019.776s.265.548-.038.79c-.373.3-.489.015-.967.022s-.475-.006-.95,0-.478.014-.955.021-.479.01-.957.017-.48,0-.96,0-.494.123-.956-.007C798.29,190.553,798.39,190.311,798.121,189.717Z"/>
          <path id="パス_751" data-name="パス 751" d="M798.121,189.717c.324-.036.634-.065.94-.1.325-.036.641-.055.944-.087.329-.035.645-.071.948-.1.331-.033.643-.1.943-.128.334-.031.65-.05.946-.075.339-.029.655-.048.946-.068.348-.025.661-.037.939-.05.118.37,0,.388-.019.776s.265.548-.038.79c-.373.3-.489.015-.967.022s-.475-.006-.95,0-.478.014-.955.021-.479.01-.957.017-.48,0-.96,0-.494.123-.956-.007C798.29,190.553,798.39,190.311,798.121,189.717Z" fill="none" stroke="#000" stroke-linecap="round" stroke-linejoin="round" stroke-width="1.064"/>
        </g>
        <g id="グループ_919" data-name="グループ 919">
          <path id="パス_752" data-name="パス 752" d="M792.663,184.908c.264.195.519.366.757.531.274.188.519.376.761.532.28.18.55.324.79.473.287.178.548.333.78.487a6.106,6.106,0,0,1,.727.56c-.194.376-.311.29-.615.584s-.182.58-.6.583-.292-.284-.584-.574-.288-.3-.582-.59-.3-.287-.595-.579-.3-.289-.594-.582-.39-.223-.578-.594C792.116,185.327,792.35,185.236,792.663,184.908Z"/>
          <path id="パス_753" data-name="パス 753" d="M792.663,184.908c.264.195.519.366.757.531.274.188.519.376.761.532.28.18.55.324.79.473.287.178.548.333.78.487a6.106,6.106,0,0,1,.727.56c-.194.376-.311.29-.615.584s-.182.58-.6.583-.292-.284-.584-.574-.288-.3-.582-.59-.3-.287-.595-.579-.3-.289-.594-.582-.39-.223-.578-.594C792.116,185.327,792.35,185.236,792.663,184.908Z" fill="none" stroke="#000" stroke-linecap="round" stroke-linejoin="round" stroke-width="1.064"/>
        </g>
        <g id="グループ_920" data-name="グループ 920">
          <path id="パス_754" data-name="パス 754" d="M792.514,175.888c.1.326.216.636.309.935.1.329.183.647.272.944.1.333.206.642.288.933.1.344.172.662.246.949.092.36.163.678.217.947-.455.17-.485.046-.97.082s-.57.34-.96.05c-.361-.269-.064-.434-.129-.88s-.073-.446-.138-.893-.078-.447-.143-.9-.053-.451-.119-.9-.287-.471-.126-.9C791.5,175.639,791.858,175.91,792.514,175.888Z"/>
          <path id="パス_755" data-name="パス 755" d="M792.514,175.888c.1.326.216.636.309.935.1.329.183.647.272.944.1.333.206.642.288.933.1.344.172.662.246.949.092.36.163.678.217.947-.455.17-.485.046-.97.082s-.57.34-.96.05c-.361-.269-.064-.434-.129-.88s-.073-.446-.138-.893-.078-.447-.143-.9-.053-.451-.119-.9-.287-.471-.126-.9C791.5,175.639,791.858,175.91,792.514,175.888Z" fill="none" stroke="#000" stroke-linecap="round" stroke-linejoin="round" stroke-width="1.064"/>
        </g>
        <g id="グループ_921" data-name="グループ 921">
          <path id="パス_756" data-name="パス 756" d="M802.068,223.082c-.288.141-.588.271-.857.4-.292.141-.564.291-.834.418-.3.14-.583.257-.85.379-.3.138-.579.27-.844.386-.308.136-.591.26-.852.368-.321.132-.612.24-.863.33-.247-.495-.123-.541-.245-1.08s-.475-.58-.254-1.087c.17-.392.427-.108.837-.231s.4-.142.813-.264.414-.115.825-.238l.824-.247c.413-.124.41-.134.824-.258s.428-.39.832-.237c.349.132.108.369.31.683S802.057,222.709,802.068,223.082Z"/>
          <path id="パス_757" data-name="パス 757" d="M802.068,223.082c-.288.141-.588.271-.857.4-.292.141-.564.291-.834.418-.3.14-.583.257-.85.379-.3.138-.579.27-.844.386-.308.136-.591.26-.852.368-.321.132-.612.24-.863.33-.247-.495-.123-.541-.245-1.08s-.475-.58-.254-1.087c.17-.392.427-.108.837-.231s.4-.142.813-.264.414-.115.825-.238l.824-.247c.413-.124.41-.134.824-.258s.428-.39.832-.237c.349.132.108.369.31.683S802.057,222.709,802.068,223.082Z" fill="none" stroke="#000" stroke-linecap="round" stroke-linejoin="round" stroke-width="1.064"/>
        </g>
        <g id="グループ_922" data-name="グループ 922">
          <path id="パス_758" data-name="パス 758" d="M797.774,175.386c.333-.053.654-.091.967-.139.333-.051.65-.132.962-.178.337-.05.666-.063.977-.106.339-.048.66-.117.968-.157.342-.045.669-.056.973-.091.349-.041.669-.111.968-.14.359-.034.7-.043.983-.06.128.366-.034.393-.044.781s.016.39.006.78.268.534-.029.786c-.346.295-.461-.022-.916-.016s-.454.019-.908.025-.453,0-.907.005-.455.026-.911.032-.457-.01-.914,0-.457.018-.915.024-.533.268-.907,0c-.327-.23-.052-.39-.187-.766S797.7,175.778,797.774,175.386Z"/>
          <path id="パス_759" data-name="パス 759" d="M797.774,175.386c.333-.053.654-.091.967-.139.333-.051.65-.132.962-.178.337-.05.666-.063.977-.106.339-.048.66-.117.968-.157.342-.045.669-.056.973-.091.349-.041.669-.111.968-.14.359-.034.7-.043.983-.06.128.366-.034.393-.044.781s.016.39.006.78.268.534-.029.786c-.346.295-.461-.022-.916-.016s-.454.019-.908.025-.453,0-.907.005-.455.026-.911.032-.457-.01-.914,0-.457.018-.915.024-.533.268-.907,0c-.327-.23-.052-.39-.187-.766S797.7,175.778,797.774,175.386Z" fill="none" stroke="#000" stroke-linecap="round" stroke-linejoin="round" stroke-width="1.064"/>
        </g>
        <g id="グループ_923" data-name="グループ 923">
          <path id="パス_760" data-name="パス 760" d="M799.874,180.1c-.3-.366,0-.462,0-.932s0-.471.005-.942.02-.473.025-.945-.351-.627,0-.942c.374-.336.5.022,1,.039s.545-.174,1.009.017c-.037.363-.088.683-.121.96-.041.355-.059.658-.1.95-.04.308-.095.6-.135.939-.033.279-.065.574-.1.936-.374.143-.4-.1-.8-.039C800.243,180.216,800.125,180.418,799.874,180.1Z"/>
          <path id="パス_761" data-name="パス 761" d="M799.874,180.1c-.3-.366,0-.462,0-.932s0-.471.005-.942.02-.473.025-.945-.351-.627,0-.942c.374-.336.5.022,1,.039s.545-.174,1.009.017c-.037.363-.088.683-.121.96-.041.355-.059.658-.1.95-.04.308-.095.6-.135.939-.033.279-.065.574-.1.936-.374.143-.4-.1-.8-.039C800.243,180.216,800.125,180.418,799.874,180.1Z" fill="none" stroke="#000" stroke-linecap="round" stroke-linejoin="round" stroke-width="1.064"/>
        </g>
        <g id="グループ_924" data-name="グループ 924">
          <path id="パス_762" data-name="パス 762" d="M802.985,218.509c0-.435.322-.308.637-.609s.331-.288.649-.59.311-.308.629-.611.325-.3.644-.6.192-.588.632-.606c.387-.015.277.265.545.544s.249.3.518.58.417.185.549.55c-.259.206-.489.39-.7.553-.26.2-.488.38-.7.543-.246.185-.472.359-.705.534s-.462.326-.715.522c-.213.163-.436.341-.7.547-.41-.218-.258-.4-.638-.671C803.22,218.908,802.985,218.974,802.985,218.509Z"/>
          <path id="パス_763" data-name="パス 763" d="M802.985,218.509c0-.435.322-.308.637-.609s.331-.288.649-.59.311-.308.629-.611.325-.3.644-.6.192-.588.632-.606c.387-.015.277.265.545.544s.249.3.518.58.417.185.549.55c-.259.206-.489.39-.7.553-.26.2-.488.38-.7.543-.246.185-.472.359-.705.534s-.462.326-.715.522c-.213.163-.436.341-.7.547-.41-.218-.258-.4-.638-.671C803.22,218.908,802.985,218.974,802.985,218.509Z" fill="none" stroke="#000" stroke-linecap="round" stroke-linejoin="round" stroke-width="1.064"/>
        </g>
        <g id="グループ_925" data-name="グループ 925">
          <path id="パス_764" data-name="パス 764" d="M791.128,211.814c.463-.082.405.238.815.468s.421.213.832.443.413.229.825.461.7.017.808.477c.114.488-.255.424-.511.856s-.118.549-.508.864c-.3-.207-.547-.391-.774-.552-.292-.207-.551-.367-.788-.54s-.485-.368-.76-.564c-.228-.163-.486-.343-.787-.549.054-.4.3-.3.433-.68C790.854,212.091,790.733,211.885,791.128,211.814Z"/>
          <path id="パス_765" data-name="パス 765" d="M791.128,211.814c.463-.082.405.238.815.468s.421.213.832.443.413.229.825.461.7.017.808.477c.114.488-.255.424-.511.856s-.118.549-.508.864c-.3-.207-.547-.391-.774-.552-.292-.207-.551-.367-.788-.54s-.485-.368-.76-.564c-.228-.163-.486-.343-.787-.549.054-.4.3-.3.433-.68C790.854,212.091,790.733,211.885,791.128,211.814Z" fill="none" stroke="#000" stroke-linecap="round" stroke-linejoin="round" stroke-width="1.064"/>
        </g>
        <g id="グループ_926" data-name="グループ 926">
          <path id="パス_766" data-name="パス 766" d="M790.1,185.71c.038-.131.2-.414.332-.847a1.311,1.311,0,0,1,1.069.383c-.053.277-.154.583-.214.881-.056.277-.068.574-.134.872-.062.276-.159.554-.234.848-.07.275-.128.562-.213.854-.08.273-.175.552-.271.841-.089.272-.159.561-.265.847s-.236.562-.346.859-.2.577-.308.873-.248.561-.357.858-.2.58-.308.876-.2.581-.311.878-.212.551-.321.847c-.528-.038-.489-.182-.984-.37s-.775.126-.989-.359.192-.481.391-.967.217-.481.416-.968.168-.5.37-.986c.185-.446.223-.43.411-.874s.173-.45.361-.894.2-.44.384-.883.194-.443.382-.888.186-.448.375-.894.187-.447.389-.889S789.914,186.16,790.1,185.71Z"/>
          <path id="パス_767" data-name="パス 767" d="M790.1,185.71c.038-.131.2-.414.332-.847a1.311,1.311,0,0,1,1.069.383c-.053.277-.154.583-.214.881-.056.277-.068.574-.134.872-.062.276-.159.554-.234.848-.07.275-.128.562-.213.854-.08.273-.175.552-.271.841-.089.272-.159.561-.265.847s-.236.562-.346.859-.2.577-.308.873-.248.561-.357.858-.2.58-.308.876-.2.581-.311.878-.212.551-.321.847c-.528-.038-.489-.182-.984-.37s-.775.126-.989-.359.192-.481.391-.967.217-.481.416-.968.168-.5.37-.986c.185-.446.223-.43.411-.874s.173-.45.361-.894.2-.44.384-.883.194-.443.382-.888.186-.448.375-.894.187-.447.389-.889S789.914,186.16,790.1,185.71Z" fill="none" stroke="#000" stroke-linecap="round" stroke-linejoin="round" stroke-width="1.064"/>
        </g>
        <g id="グループ_927" data-name="グループ 927">
          <path id="パス_768" data-name="パス 768" d="M789.365,204.759c-.013-.135.017-.37-.022-.82.477-.211.5-.091,1.018-.088a2.74,2.74,0,0,1,1.034.074c0,.272-.052.529-.051.836,0,.277.123.567.125.872,0,.279-.034.57-.031.873,0,.28.057.57.062.871,0,.284-.017.576-.012.878,0,.284.027.577.032.878,0,.178-.048.494-.041.915.005.266-.025.574-.019.918.006.284.02.591.026.919.005.292-.005.6,0,.921.005.3.067.6.072.919.006.3-.022.609-.016.922s.08.609.086.92-.059.611-.053.919-.039.615-.033.923.065.616.071.923.063.618.069.924-.005.621,0,.925-.058.622-.053.923c.006.317.118.624.124.923.006.322-.019.632-.014.926.006.326-.066.635-.061.921.007.341.089.649.094.919.008.4-.007.72,0,.927-.519.107-.532-.049-1.062-.044s-.685.433-1.084.084c-.355-.309-.011-.5-.015-.972s0-.469-.008-.939.07-.47.065-.94-.076-.469-.081-.939-.013-.472-.018-.945-.008-.471-.013-.942.1-.472.1-.944-.126-.471-.13-.944.1-.473.091-.945-.1-.471-.107-.944.087-.472.082-.942-.073-.473-.078-.946.054-.474.049-.948-.048-.475-.053-.95-.005-.475-.011-.95-.037-.485-.045-.97.086-.488.078-.974-.088-.482-.1-.966-.022-.486-.03-.973-.02-.486-.028-.974.107-.491.091-.979S789.378,205.248,789.365,204.759Z"/>
          <path id="パス_769" data-name="パス 769" d="M789.365,204.759c-.013-.135.017-.37-.022-.82.477-.211.5-.091,1.018-.088a2.74,2.74,0,0,1,1.034.074c0,.272-.052.529-.051.836,0,.277.123.567.125.872,0,.279-.034.57-.031.873,0,.28.057.57.062.871,0,.284-.017.576-.012.878,0,.284.027.577.032.878,0,.178-.048.494-.041.915.005.266-.025.574-.019.918.006.284.02.591.026.919.005.292-.005.6,0,.921.005.3.067.6.072.919.006.3-.022.609-.016.922s.08.609.086.92-.059.611-.053.919-.039.615-.033.923.065.616.071.923.063.618.069.924-.005.621,0,.925-.058.622-.053.923c.006.317.118.624.124.923.006.322-.019.632-.014.926.006.326-.066.635-.061.921.007.341.089.649.094.919.008.4-.007.72,0,.927-.519.107-.532-.049-1.062-.044s-.685.433-1.084.084c-.355-.309-.011-.5-.015-.972s0-.469-.008-.939.07-.47.065-.94-.076-.469-.081-.939-.013-.472-.018-.945-.008-.471-.013-.942.1-.472.1-.944-.126-.471-.13-.944.1-.473.091-.945-.1-.471-.107-.944.087-.472.082-.942-.073-.473-.078-.946.054-.474.049-.948-.048-.475-.053-.95-.005-.475-.011-.95-.037-.485-.045-.97.086-.488.078-.974-.088-.482-.1-.966-.022-.486-.03-.973-.02-.486-.028-.974.107-.491.091-.979S789.378,205.248,789.365,204.759Z" fill="none" stroke="#000" stroke-linecap="round" stroke-linejoin="round" stroke-width="1.064"/>
        </g>
        <g id="グループ_928" data-name="グループ 928">
          <path id="パス_770" data-name="パス 770" d="M797.856,195.806c-.308-.254,0-.394-.005-.794s-.027-.4-.032-.8-.3-.541,0-.8c.346-.3.462-.016.92-.011s.458.013.917.018.457.008.915.013.457.04.914.045.459,0,.919.006.46-.017.92-.013.461.008.923.013.6-.327.91.019c.343.388.034.507.035,1.025s.338.658,0,1.052c-.3.348-.477-.018-.934,0s-.457.018-.914.033-.456.024-.912.04-.456,0-.912.021-.457.057-.915.073-.459-.005-.918.011a3.129,3.129,0,0,0-.918.039C798.3,195.9,798.211,196.1,797.856,195.806Z"/>
          <path id="パス_771" data-name="パス 771" d="M797.856,195.806c-.308-.254,0-.394-.005-.794s-.027-.4-.032-.8-.3-.541,0-.8c.346-.3.462-.016.92-.011s.458.013.917.018.457.008.915.013.457.04.914.045.459,0,.919.006.46-.017.92-.013.461.008.923.013.6-.327.91.019c.343.388.034.507.035,1.025s.338.658,0,1.052c-.3.348-.477-.018-.934,0s-.457.018-.914.033-.456.024-.912.04-.456,0-.912.021-.457.057-.915.073-.459-.005-.918.011a3.129,3.129,0,0,0-.918.039C798.3,195.9,798.211,196.1,797.856,195.806Z" fill="none" stroke="#000" stroke-linecap="round" stroke-linejoin="round" stroke-width="1.064"/>
        </g>
        <g id="グループ_929" data-name="グループ 929">
          <path id="パス_772" data-name="パス 772" d="M797.643,183.834c-.308-.254-.025-.4-.029-.8s.013-.4.009-.8-.313-.543-.015-.81c.345-.308.47.015.932.007s.461-.017.921-.025.461-.015.921-.023.461.012.92,0,.462-.011.925-.019.462-.017.925-.025.464-.013.928-.021.625-.37.917-.009c.358.443.008.56,0,1.129s.314.681-.041,1.126c-.286.358-.442.02-.9.036s-.457.009-.914.025-.456.012-.913.027-.455.018-.911.034-.458.008-.916.024-.458.046-.917.061a3.056,3.056,0,0,0-.917.043C798.092,183.932,798,184.127,797.643,183.834Z"/>
          <path id="パス_773" data-name="パス 773" d="M797.643,183.834c-.308-.254-.025-.4-.029-.8s.013-.4.009-.8-.313-.543-.015-.81c.345-.308.47.015.932.007s.461-.017.921-.025.461-.015.921-.023.461.012.92,0,.462-.011.925-.019.462-.017.925-.025.464-.013.928-.021.625-.37.917-.009c.358.443.008.56,0,1.129s.314.681-.041,1.126c-.286.358-.442.02-.9.036s-.457.009-.914.025-.456.012-.913.027-.455.018-.911.034-.458.008-.916.024-.458.046-.917.061a3.056,3.056,0,0,0-.917.043C798.092,183.932,798,184.127,797.643,183.834Z" fill="none" stroke="#000" stroke-linecap="round" stroke-linejoin="round" stroke-width="1.064"/>
        </g>
        <g id="グループ_930" data-name="グループ 930">
          <path id="パス_774" data-name="パス 774" d="M796.242,207.28c-.31-.252-.015-.4-.018-.8s-.01-.4-.013-.8-.293-.543.011-.8c.355-.3.47-.011.938-.009s.468.014.935.016.47.011.939.013.469,0,.937,0,.469-.006.939,0,.467.023.934.025.47,0,.939,0,.471.008.941.01.472-.021.944-.019.644-.352.96,0c.347.384-.037.533-.039,1.051s.337.63-.005,1.019c-.308.35-.447.026-.913.04s-.467,0-.934.016-.468,0-.936.016-.465.067-.933.081-.469-.033-.937-.019-.465.033-.931.048-.467.049-.935.064-.471-.037-.94-.023a3.188,3.188,0,0,0-.936.071C796.7,207.38,796.608,207.577,796.242,207.28Z"/>
          <path id="パス_775" data-name="パス 775" d="M796.242,207.28c-.31-.252-.015-.4-.018-.8s-.01-.4-.013-.8-.293-.543.011-.8c.355-.3.47-.011.938-.009s.468.014.935.016.47.011.939.013.469,0,.937,0,.469-.006.939,0,.467.023.934.025.47,0,.939,0,.471.008.941.01.472-.021.944-.019.644-.352.96,0c.347.384-.037.533-.039,1.051s.337.63-.005,1.019c-.308.35-.447.026-.913.04s-.467,0-.934.016-.468,0-.936.016-.465.067-.933.081-.469-.033-.937-.019-.465.033-.931.048-.467.049-.935.064-.471-.037-.94-.023a3.188,3.188,0,0,0-.936.071C796.7,207.38,796.608,207.577,796.242,207.28Z" fill="none" stroke="#000" stroke-linecap="round" stroke-linejoin="round" stroke-width="1.064"/>
        </g>
        <g id="グループ_931" data-name="グループ 931">
          <path id="パス_776" data-name="パス 776" d="M800.437,187.642c-.384-.037-.383-.04-.766-.09s-.5.18-.767-.1c-.25-.264-.015-.365-.023-.729s-.287-.494,0-.719c.389-.3.486-.032.981-.049s.5-.019.993-.036.5-.02,1-.036.5.007,1-.01.635-.389.989-.036c.371.371.01.515.019,1.039s.406.687.019,1.04-.527-.05-1.063-.094-.538-.018-1.074-.059C801.087,187.713,801.088,187.7,800.437,187.642Z"/>
          <path id="パス_777" data-name="パス 777" d="M800.437,187.642c-.384-.037-.383-.04-.766-.09s-.5.18-.767-.1c-.25-.264-.015-.365-.023-.729s-.287-.494,0-.719c.389-.3.486-.032.981-.049s.5-.019.993-.036.5-.02,1-.036.5.007,1-.01.635-.389.989-.036c.371.371.01.515.019,1.039s.406.687.019,1.04-.527-.05-1.063-.094-.538-.018-1.074-.059C801.087,187.713,801.088,187.7,800.437,187.642Z" fill="none" stroke="#000" stroke-linecap="round" stroke-linejoin="round" stroke-width="1.064"/>
        </g>
        <g id="グループ_932" data-name="グループ 932">
          <path id="パス_778" data-name="パス 778" d="M799.745,214.73c-.447-.022-.447-.009-.893-.039s-.449-.009-.9-.039-.559.224-.9-.068c-.275-.238.016-.371.006-.735s-.327-.5-.054-.745c.326-.287.45,0,.885-.016s.436.02.87.008.436-.042.872-.053.436-.007.872-.018.436.01.871,0,.434-.045.868-.056.437-.009.874-.02l.875-.023c.439-.012.44.018.878.007s.6-.379.885-.049c.345.395.015.531.024,1.056s.369.67.016,1.059c-.315.347-.478-.057-.947-.075s-.471.03-.94.011-.469-.058-.94-.077-.472.019-.942,0c-.572-.022-.571-.051-1.142-.077S800.316,214.758,799.745,214.73Z"/>
          <path id="パス_779" data-name="パス 779" d="M799.745,214.73c-.447-.022-.447-.009-.893-.039s-.449-.009-.9-.039-.559.224-.9-.068c-.275-.238.016-.371.006-.735s-.327-.5-.054-.745c.326-.287.45,0,.885-.016s.436.02.87.008.436-.042.872-.053.436-.007.872-.018.436.01.871,0,.434-.045.868-.056.437-.009.874-.02l.875-.023c.439-.012.44.018.878.007s.6-.379.885-.049c.345.395.015.531.024,1.056s.369.67.016,1.059c-.315.347-.478-.057-.947-.075s-.471.03-.94.011-.469-.058-.94-.077-.472.019-.942,0c-.572-.022-.571-.051-1.142-.077S800.316,214.758,799.745,214.73Z" fill="none" stroke="#000" stroke-linecap="round" stroke-linejoin="round" stroke-width="1.064"/>
        </g>
        <g id="グループ_933" data-name="グループ 933">
          <path id="パス_780" data-name="パス 780" d="M799.608,210.876c-.55-.03-.549-.034-1.1-.073s-.748.351-1.106-.067c-.405-.471-.357-.722-.008-1.235.252-.369.429-.035.876-.048s.446.011.892,0,.446,0,.891-.014.444-.051.889-.063.447,0,.894-.011.448-.028.9-.04.45,0,.9-.016.585-.335.911-.025-.006.46,0,.907.35.6.009.884c-.392.331-.505-.021-1.017-.042s-.513-.027-1.027-.048-.514,0-1.028-.025c-.468-.018-.468-.028-.936-.046S800.076,210.9,799.608,210.876Z"/>
          <path id="パス_781" data-name="パス 781" d="M799.608,210.876c-.55-.03-.549-.034-1.1-.073s-.748.351-1.106-.067c-.405-.471-.357-.722-.008-1.235.252-.369.429-.035.876-.048s.446.011.892,0,.446,0,.891-.014.444-.051.889-.063.447,0,.894-.011.448-.028.9-.04.45,0,.9-.016.585-.335.911-.025-.006.46,0,.907.35.6.009.884c-.392.331-.505-.021-1.017-.042s-.513-.027-1.027-.048-.514,0-1.028-.025c-.468-.018-.468-.028-.936-.046S800.076,210.9,799.608,210.876Z" fill="none" stroke="#000" stroke-linecap="round" stroke-linejoin="round" stroke-width="1.064"/>
        </g>
        <g id="グループ_934" data-name="グループ 934">
          <path id="パス_782" data-name="パス 782" d="M803.569,208.514c-.017-.219-.024-.513-.049-.857-.019-.259-.077-.545-.1-.853-.022-.276-.048-.566-.074-.865-.025-.283-.043-.587-.072-.878.354-.154.392.019.778,0s.386-.054.773-.07.529-.317.792-.032c.3.329-.025.462-.015.909s.042.446.052.892-.021.449-.011.9.024.447.033.894.029.447.038.894-.015.446-.006.892.03.448.04.9.018.449.028.9-.022.451-.012.9.354.594.019.894c-.387.345-.512.029-1.03.034s-.537.13-1.027-.038c.032-.353.053-.646.057-.922.007-.482-.021-.824-.017-.949-.022-.183-.06-.493-.077-.883-.012-.264,0-.565-.017-.887-.013-.282-.039-.58-.057-.885S803.593,208.809,803.569,208.514Z"/>
          <path id="パス_783" data-name="パス 783" d="M803.569,208.514c-.017-.219-.024-.513-.049-.857-.019-.259-.077-.545-.1-.853-.022-.276-.048-.566-.074-.865-.025-.283-.043-.587-.072-.878.354-.154.392.019.778,0s.386-.054.773-.07.529-.317.792-.032c.3.329-.025.462-.015.909s.042.446.052.892-.021.449-.011.9.024.447.033.894.029.447.038.894-.015.446-.006.892.03.448.04.9.018.449.028.9-.022.451-.012.9.354.594.019.894c-.387.345-.512.029-1.03.034s-.537.13-1.027-.038c.032-.353.053-.646.057-.922.007-.482-.021-.824-.017-.949-.022-.183-.06-.493-.077-.883-.012-.264,0-.565-.017-.887-.013-.282-.039-.58-.057-.885S803.593,208.809,803.569,208.514Z" fill="none" stroke="#000" stroke-linecap="round" stroke-linejoin="round" stroke-width="1.064"/>
        </g>
      </g>
    </g>
    <g id="グループ_947" data-name="グループ 947">
      <g id="グループ_946" data-name="グループ 946">
        <g id="グループ_939" data-name="グループ 939">
          <path id="パス_789" data-name="パス 789" d="M575.621,403.1c.265.259.009.376.009.747s0,.37,0,.74-.02.37-.02.74.01.369.01.739,0,.371,0,.742-.034.372-.034.744.017.373.017.746.028.372.028.745c0,.263-.037.521-.051.776s-.014.523-.043.776-.044.524-.092.774-.164.5-.235.743a6.8,6.8,0,0,1-.259.728,5.836,5.836,0,0,1-.322.7,4.955,4.955,0,0,1-.453.625,4.492,4.492,0,0,1-.537.549,4.224,4.224,0,0,1-.619.456,4.568,4.568,0,0,1-.69.342,5.186,5.186,0,0,1-.737.212,6.324,6.324,0,0,1-.765.116,7.607,7.607,0,0,1-.774.045,7.452,7.452,0,0,1-.778,0,6.389,6.389,0,0,1-.774-.118,5.382,5.382,0,0,1-.731-.274,5.121,5.121,0,0,1-.717-.3,4.9,4.9,0,0,1-.642-.442,5,5,0,0,1-.542-.556,5.281,5.281,0,0,1-.509-.587,5.98,5.98,0,0,1-.367-.685,6.688,6.688,0,0,1-.322-.708,7.757,7.757,0,0,1-.234-.744c-.061-.248-.067-.511-.107-.771s-.123-.506-.143-.768.009-.518.009-.781c0-.355.021-.355.021-.711s-.008-.356-.008-.712.259-.484,0-.732-.384.028-.751.028-.365-.04-.731-.04-.365.059-.731.059-.364-.027-.729-.027-.367-.01-.733-.01-.368.036-.735.036-.368-.013-.736-.013-.46.23-.713-.037c-.267-.282-.032-.366-.032-.754s.012-.39.012-.781.021-.391.021-.782-.056-.392-.056-.784-.228-.49.043-.773.364.018.739.018.375-.018.75-.018.375-.019.75-.019.375-.018.75-.018.375.03.751.03.372.005.744.005.374.022.747.022.375-.055.75-.055.376.009.752.009.374.046.749.046.374-.032.749-.032.374-.012.749-.012.377.005.753.005.376.009.752.009.375.029.751.029.377-.01.754-.01.377-.006.753-.006.376.013.752.013.375-.044.751-.044.377.016.755.016.378.019.756.019a2.4,2.4,0,0,0,.757-.02C575.256,403.019,575.35,402.837,575.621,403.1ZM567.3,408.92a5.806,5.806,0,0,0,.059.8,3.8,3.8,0,0,0,.186.776,2.534,2.534,0,0,0,.361.71,2.07,2.07,0,0,0,.6.516,2.488,2.488,0,0,0,.743.281,3.691,3.691,0,0,0,.8.113,3.188,3.188,0,0,0,.782-.1,2.005,2.005,0,0,0,.7-.348,1.89,1.89,0,0,0,.537-.56,2.885,2.885,0,0,0,.271-.734,5.09,5.09,0,0,0,.1-.772,7.443,7.443,0,0,0,.091-.782c0-.45.005-.45.005-.9s.265-.559-.022-.906c-.236-.287-.378-.024-.75-.024s-.371,0-.742,0-.371.008-.742.008-.372.008-.745.008-.373-.009-.746-.009-.374-.007-.748-.007-.48-.228-.766.014c-.241.205.028.337.028.654s.009.317.011.635S567.3,408.6,567.3,408.92Z"/>
        </g>
        <g id="グループ_940" data-name="グループ 940">
          <path id="パス_790" data-name="パス 790" d="M575.6,421.2c.271.279.035.375.035.764s-.033.388-.033.776-.018.388-.018.776.058.387.058.774-.056.389-.056.778.058.39.058.78v.782c0,.391,0,.391,0,.782,0,.254-.013.507-.025.754s-.089.5-.117.747-.044.505-.09.748-.121.491-.189.728a7.131,7.131,0,0,1-.186.732,5.491,5.491,0,0,1-.352.668,4.782,4.782,0,0,1-.435.614,4.337,4.337,0,0,1-.527.532,4.193,4.193,0,0,1-.59.465,4.617,4.617,0,0,1-.687.307,5.085,5.085,0,0,1-.713.229,6.37,6.37,0,0,1-.749.084,7.218,7.218,0,0,1-.752.087,7.018,7.018,0,0,1-.761-.072,6.445,6.445,0,0,1-.762-.094,5.337,5.337,0,0,1-.721-.26,4.974,4.974,0,0,1-.7-.3,4.663,4.663,0,0,1-.6-.473,4.745,4.745,0,0,1-.576-.5,5.227,5.227,0,0,1-.445-.619,6,6,0,0,1-.385-.657,6.434,6.434,0,0,1-.282-.71c-.081-.236-.159-.48-.219-.732s-.071-.5-.108-.754-.062-.5-.08-.759-.022-.5-.022-.762c0-.386-.044-.386-.044-.771s-.011-.387-.011-.774.285-.477.011-.75-.365-.008-.754-.008-.387-.01-.775-.01-.388.007-.775.007-.387.012-.774.012-.389-.055-.778-.055-.389.032-.779.032h-.781c-.39,0-.507.279-.784,0s.008-.391.008-.78.006-.39.006-.78-.017-.391-.017-.782-.016-.392-.016-.784-.269-.52,0-.8.4.05.771.05.375,0,.75,0,.375-.022.75-.022.375,0,.75,0l.751,0c.372,0,.372.019.744.019s.374-.032.747-.032.375-.024.75-.024.376.012.752.012.374.047.749.047.374-.061.749-.061h.749c.377,0,.377.051.753.051s.376-.017.752-.017.375.028.751.028.377-.059.754-.059.377.038.753.038.376.006.752.006.375-.02.751-.02.377-.007.755-.007.378,0,.756,0a2.459,2.459,0,0,0,.752-.015C575.242,421.079,575.337,420.931,575.6,421.2Zm-10.024,5.516c.361.058.267.235.516.5s.225.292.475.562.237.282.488.553.292.232.543.5.514.193.455.557-.283.215-.608.4l-.647.366-.647.365c-.324.183-.327.178-.65.361s-.353.136-.678.32-.313.2-.638.386-.332.169-.657.352-.3.238-.621.422-.337.163-.662.347-.331.171-.656.355-.329.174-.654.357-.31.212-.636.4-.337.165-.663.35-.32.2-.648.383-.316.519-.647.339-.036-.34-.036-.7.032-.362.032-.725-.032-.364-.032-.728.035-.365.035-.73-.03-.366-.03-.732-.149-.406.041-.718.3-.2.629-.378.337-.158.665-.332.321-.189.649-.363.333-.17.662-.345.326-.181.655-.356.344-.145.673-.32l.657-.347c.33-.175.331-.172.661-.347s.31-.214.641-.389a2.863,2.863,0,0,0,.652-.358C565.2,426.785,565.208,426.659,565.578,426.718Zm2.056.377a5.632,5.632,0,0,0,.088.772,4.225,4.225,0,0,0,.136.763,2.82,2.82,0,0,0,.328.706,2.093,2.093,0,0,0,.588.5,2.214,2.214,0,0,0,.684.356,3.305,3.305,0,0,0,.775.032,2.889,2.889,0,0,0,.735-.085,1.743,1.743,0,0,0,.658-.315,1.7,1.7,0,0,0,.468-.557,2.712,2.712,0,0,0,.308-.681,5.324,5.324,0,0,0,.092-.743c.02-.233.047-.484.047-.749,0-.332-.062-.332-.062-.665s.024-.333.024-.667.27-.458.013-.67c-.311-.257-.406-.012-.81-.012s-.4.032-.8.032-.405-.022-.81-.022-.405.015-.811.015-.406-.036-.813-.036-.483-.213-.8.045c-.257.21-.024.314-.024.646s.04.334.033.668S567.634,426.762,567.634,427.1Z"/>
        </g>
        <g id="グループ_941" data-name="グループ 941">
          <path id="パス_791" data-name="パス 791" d="M567.048,439.593c.254,0,.5-.009.746,0s.5.051.742.078.5.03.744.071.486.128.723.186.48.139.711.214.476.155.7.25.476.166.692.281.421.272.626.407a7.427,7.427,0,0,1,.609.428,7.285,7.285,0,0,1,.532.521,6.856,6.856,0,0,1,.508.543,6.767,6.767,0,0,1,.4.624,6.838,6.838,0,0,1,.394.63,7.124,7.124,0,0,1,.236.706,7.4,7.4,0,0,1,.271.693c.061.237.1.483.138.731s.076.487.1.738.031.493.031.745-.016.5-.035.744-.09.492-.129.733-.04.5-.1.738a34.5,34.5,0,0,0-.507,1.4,6.97,6.97,0,0,1-.4.627,6.772,6.772,0,0,1-.413.617,6.992,6.992,0,0,1-.495.554,7.091,7.091,0,0,1-.565.48,7.187,7.187,0,0,1-.6.431c-.2.135-.413.259-.635.377s-.427.24-.659.338-.461.161-.7.24-.46.169-.705.23-.48.1-.729.146-.482.093-.733.12-.49.056-.743.069-.493-.026-.747-.026-.5-.01-.749-.023-.506.008-.751-.019-.5-.066-.744-.108-.488-.128-.726-.186-.494-.1-.728-.176-.466-.191-.693-.285-.458-.2-.677-.318-.472-.189-.679-.323a7.278,7.278,0,0,1-.58-.477,16.455,16.455,0,0,1-1.1-1.019,7.05,7.05,0,0,1-.416-.624,15.024,15.024,0,0,1-.7-1.319c-.088-.231-.169-.47-.235-.714s-.087-.488-.13-.737-.11-.488-.13-.74-.021-.5-.021-.752,0-.507.022-.752.065-.5.106-.745.085-.5.149-.737a7.443,7.443,0,0,1,.284-.7,6.9,6.9,0,0,1,.291-.689,6.813,6.813,0,0,1,.38-.644,10.632,10.632,0,0,1,1.486-1.672,7.369,7.369,0,0,1,.612-.433c.207-.133.425-.255.65-.371s.432-.247.666-.344.476-.142.718-.219.473-.142.721-.2.482-.107.733-.151.487-.091.74-.118.5-.015.75-.028S566.793,439.593,567.048,439.593Zm0,11.7c.261,0,.512-.024.756-.04.26-.018.513-.026.754-.062.259-.039.5-.119.735-.178a6.492,6.492,0,0,0,.728-.19,5.149,5.149,0,0,0,.692-.3,4.167,4.167,0,0,0,.621-.431,3.452,3.452,0,0,0,.5-.562,3.139,3.139,0,0,0,.418-.618,3.217,3.217,0,0,0,.218-.716,2.888,2.888,0,0,0,0-1.492,3.2,3.2,0,0,0-.206-.724,3.164,3.164,0,0,0-.429-.618,3.455,3.455,0,0,0-.49-.575,4.244,4.244,0,0,0-.654-.376,5.181,5.181,0,0,0-.677-.326,6.494,6.494,0,0,0-.721-.215c-.234-.059-.48-.1-.737-.143-.241-.036-.49-.068-.751-.086-.244-.017-.5-.067-.757-.067s-.518.062-.766.079-.522,0-.768.041a7.6,7.6,0,0,0-.743.194,7.131,7.131,0,0,0-.745.177,5.537,5.537,0,0,0-.692.33,4.476,4.476,0,0,0-.645.414,3.746,3.746,0,0,0-.57.512,3.291,3.291,0,0,0-.429.639,3.207,3.207,0,0,0-.256.726,4.846,4.846,0,0,0,0,1.533,3.125,3.125,0,0,0,.282.715,3.208,3.208,0,0,0,.417.642,3.666,3.666,0,0,0,.563.516,4.471,4.471,0,0,0,.643.4,5.319,5.319,0,0,0,.681.353,6.658,6.658,0,0,0,.735.227c.239.058.5.067.758.105s.5.067.763.085S566.785,451.289,567.048,451.289Z"/>
        </g>
        <g id="グループ_942" data-name="グループ 942">
          <path id="パス_792" data-name="パス 792" d="M561.135,459.559c.33.247.242.332.488.663s.264.319.511.65.236.341.484.674.344.277.467.672a4.151,4.151,0,0,0-.635.406,3.149,3.149,0,0,0-.519.578,2.548,2.548,0,0,0-.421.649,2.21,2.21,0,0,0-.144.766,2.842,2.842,0,0,0,.1.7,1.694,1.694,0,0,0,.287.651,1.724,1.724,0,0,0,.575.408,2.793,2.793,0,0,0,.666.225,4.949,4.949,0,0,0,.7.112c.22.019.455.034.713.034.374,0,.374.013.747.013s.372-.006.744-.006.371.018.743.018.372-.009.744-.009.374.015.747.015.373.019.746.019.373-.006.746-.006.375-.02.749-.02.373.013.747.013.373-.054.747-.054.372.023.745.023.375,0,.749,0,.375.042.751.042.376-.007.752-.007.479-.285.74-.015.039.376.039.765-.026.39-.026.78-.015.391-.015.782-.016.392-.016.785.285.484.01.764-.363-.009-.747-.009-.383.024-.766.024-.382.021-.764.021-.383-.037-.766-.037-.385.035-.769.035-.384-.044-.768-.044-.384,0-.767,0-.385.034-.771.034-.384.016-.768.016-.384-.043-.769-.043-.383.04-.767.04-.385-.036-.771-.036-.386-.012-.772-.012-.387.028-.774.028-.387-.025-.774-.025c-.263,0-.524.034-.778.012s-.521-.053-.772-.1a6.981,6.981,0,0,1-.754-.189,6.287,6.287,0,0,1-.711-.31,5.322,5.322,0,0,1-.687-.347,4.933,4.933,0,0,1-.632-.443,4.669,4.669,0,0,1-.539-.55,4.741,4.741,0,0,1-.452-.625,4.946,4.946,0,0,1-.379-.678,5.715,5.715,0,0,1-.174-.755,6,6,0,0,1-.172-.758,7.415,7.415,0,0,1-.052-.778c0-.259.012-.512.032-.754a7.275,7.275,0,0,1,.13-.741,6.66,6.66,0,0,1,.144-.739,5.493,5.493,0,0,1,.328-.677,5.284,5.284,0,0,1,.329-.671,5.426,5.426,0,0,1,.43-.615,5.8,5.8,0,0,1,.548-.511,6.64,6.64,0,0,1,.566-.5C560.686,459.788,560.911,459.687,561.135,459.559Z"/>
        </g>
        <g id="グループ_943" data-name="グループ 943">
          <path id="パス_793" data-name="パス 793" d="M575.6,478.632c.27.274.025.367.025.752s-.035.384-.035.769.046.385.046.77.008.387.008.774-.029.386-.029.772.02.386.02.772-.036.388-.036.775-.006.387-.006.773.023.387.023.773-.01.386-.01.772-.011.387-.011.775.026.389.026.777-.018.389-.018.779.314.528.032.8-.426-.028-.834-.028-.41-.011-.819-.011-.41.016-.821.016-.537.3-.837.022c-.28-.261.015-.4.015-.784s-.011-.384-.011-.768-.018-.384-.018-.768.03-.383.03-.767-.006-.383-.006-.766-.02-.385-.02-.769.03-.386.03-.771-.01-.387-.01-.773.268-.489.011-.777c-.23-.258-.349.01-.694.01l-.694,0c-.347,0-.347-.034-.694-.034s-.349.021-.7.021-.434-.227-.673.026c-.253.268-.009.346-.009.714s-.03.368-.03.735,0,.367,0,.735.031.366.031.733-.032.368-.032.736.017.369.017.738.012.37.012.74.266.5-.008.749c-.3.274-.416-.028-.825-.028s-.409.054-.818.054-.41-.038-.821-.038-.5.263-.807-.011c-.274-.246.012-.353.012-.722s0-.367,0-.734-.059-.367-.059-.735.061-.366.061-.733-.01-.368-.01-.736.007-.369.007-.738-.024-.37-.024-.74.249-.469-.021-.722c-.289-.27-.378-.017-.774-.017s-.4.03-.8.03-.4-.061-.8-.061-.4.033-.8.033-.478-.245-.776.022c-.267.239.011.333.011.691s-.031.358-.031.716-.021.36-.021.719-.015.359-.015.718.05.358.05.717-.037.358-.037.716.024.359.024.719,0,.361,0,.721-.018.361-.018.723.279.473.008.713c-.306.27-.4.04-.809.04s-.409-.031-.818-.031-.411-.034-.821-.034-.519.313-.824.038c-.275-.247.029-.373.029-.742s-.033-.369-.033-.737-.014-.368-.014-.735.035-.369.035-.737-.028-.37-.028-.74.03-.369.03-.738-.048-.369-.048-.739.04-.37.04-.741.026-.369.026-.739-.043-.37-.043-.739.038-.369.038-.738-.06-.371-.06-.742.054-.371.054-.742-.035-.373-.035-.745-.247-.478.017-.74.371.015.746.015.375-.02.75-.02.375.027.75.027.375-.032.75-.032.375.013.751.013.372.024.744.024.374-.017.747-.017.375-.019.75-.019.376.038.752.038.374-.044.749-.044.374,0,.749,0,.374.02.749.02.377-.03.753-.03.376.035.752.035.375-.036.751-.036.377.03.754.03.377-.03.753-.03.376.017.752.017.375,0,.751,0,.377,0,.755,0,.378.03.756.03a2.558,2.558,0,0,0,.762-.009C575.251,478.558,575.332,478.362,575.6,478.632Z"/>
        </g>
        <g id="グループ_944" data-name="グループ 944">
          <path id="パス_794" data-name="パス 794" d="M566.874,496.066c.258,0,.512.014.761.029s.505.082.752.113.516.013.76.061.5.11.741.177.487.158.721.243.462.219.688.324.474.194.69.318.424.284.629.428.4.309.593.472.376.339.55.52.349.368.5.565a7.546,7.546,0,0,1,.44.618c.136.213.268.429.382.654s.218.457.31.693.148.482.217.726.152.482.2.731.065.5.088.754.03.5.03.757a6.1,6.1,0,0,1-.113,1.451,6.817,6.817,0,0,1-.217.7,7.074,7.074,0,0,1-.259.68c-.1.225-.234.427-.351.635s-.212.443-.349.639-.3.386-.453.567-.339.393-.508.557c-.37-.163-.283-.306-.595-.562s-.348-.215-.661-.473-.318-.253-.631-.511-.392-.2-.62-.532c.159-.171.318-.357.456-.535a5.345,5.345,0,0,0,.387-.566,4.077,4.077,0,0,0,.3-.614,3.587,3.587,0,0,0,.188-.661,6.071,6.071,0,0,0,.01-1.468,3.192,3.192,0,0,0-.666-1.407,4.025,4.025,0,0,0-.483-.616,4.59,4.59,0,0,0-.644-.442,5.05,5.05,0,0,0-.666-.407,5.78,5.78,0,0,0-.727-.3,7.32,7.32,0,0,0-.768-.144c-.249-.046-.508-.071-.777-.094-.252-.022-.512-.07-.782-.07-.246,0-.486.007-.718.023s-.482.07-.712.1-.474.1-.7.156a6.609,6.609,0,0,0-.684.2,5.444,5.444,0,0,0-.651.287,4.693,4.693,0,0,0-.628.342,3.892,3.892,0,0,0-.51.5,3.652,3.652,0,0,0-.487.526,3.613,3.613,0,0,0-.259.668,3.745,3.745,0,0,0-.2.681,4.3,4.3,0,0,0-.078.71,4.208,4.208,0,0,0,.069.773,4.1,4.1,0,0,0,.225.74,4.39,4.39,0,0,0,.354.685,5.064,5.064,0,0,0,.441.632,5.636,5.636,0,0,0,.512.535c-.21.34-.273.28-.579.537s-.324.236-.63.494-.3.264-.609.522-.24.364-.61.519a7.744,7.744,0,0,1-.572-.54,7.167,7.167,0,0,1-.537-.585,6.934,6.934,0,0,1-.4-.683,4.052,4.052,0,0,1-.639-1.439,7.326,7.326,0,0,1-.217-.758,7.625,7.625,0,0,1-.111-.782c-.025-.259-.053-.522-.053-.79,0-.252.039-.5.059-.746s.033-.5.074-.743.074-.5.137-.736.154-.476.239-.709a7.44,7.44,0,0,1,.305-.682,7.194,7.194,0,0,1,.326-.674,7.328,7.328,0,0,1,.446-.6,7.216,7.216,0,0,1,.477-.574,164.594,164.594,0,0,1,1.116-.993c.2-.142.436-.235.656-.359s.421-.258.652-.362.459-.178.7-.262.464-.167.71-.232.484-.094.734-.141.477-.144.73-.174.5-.02.751-.034S566.618,496.066,566.874,496.066Z"/>
        </g>
        <g id="グループ_945" data-name="グループ 945">
          <path id="パス_795" data-name="パス 795" d="M572.362,518.472c.271-.287-.052-.417-.052-.812s.008-.394.008-.788.01-.4.01-.793,0-.4,0-.794.025-.4.025-.8-.289-.509,0-.786.4-.032.808-.032.409-.006.818-.006.411.044.821.044.51-.284.815-.01c.274.248-.02.363-.02.733s.026.37.026.74-.005.372-.005.744.034.373.034.745-.014.372-.014.744-.01.371-.01.742-.028.372-.028.744.045.373.045.747-.044.372-.044.745,0,.373,0,.745.025.374.025.748.011.373.011.747-.045.373-.045.746.014.372.014.744.043.375.043.749,0,.375,0,.75-.031.376-.031.752.265.483-.012.737c-.3.277-.4.023-.8.023s-.41.013-.819.013-.41.01-.821.01-.544.273-.839-.012.011-.414.011-.809.011-.395.011-.789.016-.4.016-.793-.051-.4-.051-.794.056-.4.056-.8.258-.515-.011-.808c-.247-.269-.379.029-.744.029s-.365.016-.73.016-.367-.029-.733-.029-.368.012-.735.012-.369,0-.738,0-.368-.043-.735-.043-.367.026-.735.026-.367.02-.735.02-.37-.005-.739-.005-.369-.042-.737-.042-.369,0-.737,0-.37.014-.74.014-.369.012-.739.012h-.738c-.368,0-.368.042-.736.042s-.37-.067-.741-.067-.371.023-.741.023-.372.017-.744.017-.486.26-.743-.008.024-.387.024-.776-.047-.39-.047-.781.009-.391.009-.782.037-.392.037-.784-.27-.477,0-.764c.249-.267.344-.053.709-.053h.731c.366,0,.366.05.732.05s.368-.018.736-.018.369-.027.738-.027.367,0,.735,0,.367.015.734.015.368.006.736.006.369-.022.739-.022.368.03.737.03.368-.013.737-.013.37-.02.74-.02.369,0,.738,0,.369,0,.738,0,.368.021.737.021.37.021.74.021.371-.043.742-.043a2.169,2.169,0,0,1,.742.03C571.994,518.549,572.107,518.743,572.362,518.472Z"/>
        </g>
      </g>
    </g>
    <g id="グループ_953" data-name="グループ 953">
      <g id="グループ_948" data-name="グループ 948">
        <path id="パス_796" data-name="パス 796" d="M756.814,206.253c.253-.269-.019-.354-.029-.724s.115-.373.105-.744-.16-.367-.169-.737.163-.377.153-.748-.087-.369-.1-.74.062-.373.053-.743-.086-.369-.1-.739-.018-.37-.027-.74-.115-.368-.125-.739.172-.376.163-.747-.111-.37-.12-.741.093-.374.083-.745-.067-.37-.077-.74-.026-.371-.036-.742.047-.373.038-.745-.074-.367-.084-.735.024-.371.014-.74-.149-.368-.159-.739.009-.372,0-.744-.034-.37-.044-.741.037-.372.027-.742-.032-.371-.042-.742.107-.375.1-.748-.039-.371-.048-.743-.038-.371-.048-.743-.065-.372-.075-.745.125-.376.115-.748-.154-.369-.164-.741.123-.375.113-.746-.137-.371-.147-.744.085-.377.075-.751-.142-.371-.152-.747-.035-.376-.04-.751.031-.369.031-.736.193-.368.193-.736-.215-.368-.215-.737.153-.368.153-.736-.007-.368-.007-.736-.093-.367-.093-.735.1-.369.1-.738,0-.37,0-.74-.13-.37-.13-.741.114-.361,0-.714c-.244,0-.4-.119-.644-.121s-.489.122-.736.121-.484-.123-.733-.123-.483-.033-.733-.032-.482.146-.733.147-.481.045-.733.047-.483-.081-.735-.08-.482.09-.734.091-.485-.1-.738-.1-.486.019-.739.019c-.221,0-.464-.031-.728-.03-.228,0-.471.151-.728.152-.232,0-.474-.037-.728-.037-.234,0-.478-.2-.73-.2-.236,0-.479.177-.73.177s-.48-.009-.729-.009-.482-.151-.731-.15-.481.121-.729.122-.482.091-.729.092-.484-.215-.731-.214-.483.191-.729.192-.484-.072-.73-.071-.48.042-.724.043-.481-.005-.724,0-.482.018-.726.019-.483-.022-.726-.021-.484.083-.728.084-.484-.1-.728-.1-.486-.1-.73-.1-.483.146-.726.147-.484.017-.728.018-.486-.109-.73-.108-.486.06-.73.061-.488.041-.732.042-.489-.112-.733-.111-.489.092-.733.093-.49-.123-.735-.122-.489.189-.733.191-.49.02-.735.021-.49-.015-.734-.013-.492-.1-.736-.1-.49.071-.734.073-.491-.013-.734-.012-.491-.054-.734-.052-.49.073-.733.074-.491-.15-.733-.148-.49.012-.731.014-.489.026-.73.028-.488.1-.728.1-.491-.127-.731-.125-.493.008-.733.01-.489.113-.727.115-.492-.085-.73-.082-.489.136-.725.138-.437-.029-.671-.026c-.111.338-.039.338-.039.694s.073.356.073.712-.108.357-.108.713.135.358.135.716-.187.357-.187.715.162.357.162.714-.107.359-.107.717-.043.358-.043.716.093.358.093.715-.01.357-.01.714.011.359.011.718-.021.359-.021.719-.109.36-.109.721-.2.511.054.763.4-.168.764-.173.367.213.73.208.36-.134.722-.14.363.057.725.051.36-.133.722-.139.362.023.724.018.361-.057.723-.063.366.185.728.179.361-.12.725-.126.363.035.725.029.362-.053.724-.059.361-.078.724-.084.361.069.72.063.361.014.721.009.362.047.723.041.361-.127.723-.133.367.208.731.2.36-.107.723-.113.363.093.725.087.361-.1.724-.1.364.025.729.02.363,0,.726-.006.362-.129.725-.135.366.052.73.047.364-.055.728-.061.363-.047.726-.053.364.04.727.035.368.153.733.147.362-.23.727-.236.368.044.734.039.368.092.734.092.381-.033.761-.028.382-.009.764,0,.379.138.76.143.384-.214.764-.209.381-.007.761,0,.381.064.763.069.382.077.765.082.383-.011.767-.005.384.048.767.051c.338,0,.661-.037.976-.03.135.335.028.363.018.725s-.132.358-.142.72.047.363.037.724.081.364.071.725-.032.36-.041.721.049.362.039.723-.222.355-.232.716.212.368.2.729-.074.361-.084.723-.014.361-.024.723-.134.357-.144.719.051.363.041.724.061.361.052.72-.145.355-.155.714.054.362.044.722-.1.359-.108.721.19.368.18.73-.007.362-.016.723-.086.359-.1.72.089.364.08.726-.084.361-.094.724-.143.359-.153.721.1.366.091.728-.106.361-.116.724.038.365.028.728-.088.36-.1.723.2.368.191.73-.048.363-.058.727-.067.363-.076.727.069.368.059.734-.367.474-.105.729.369-.039.739-.055.364-.113.732-.129.377.2.745.187.362-.172.73-.188.375.1.745.079.367-.064.736-.08.372.042.741.026.363-.18.734-.2.378.19.748.174.362-.2.731-.214.374.1.743.079.369-.063.74-.079.372-.008.743-.024a2.467,2.467,0,0,1,.728.08C756.453,206.472,756.558,206.525,756.814,206.253Z"/>
      </g>
    </g>
    <g id="グループ_949" data-name="グループ 949">
      <path id="パス_797" data-name="パス 797" d="M632.407,514.338c-.366,0-.366.173-.732.171s-.365-.031-.731-.034-.366-.14-.732-.143-.369.078-.737.075-.37,0-.739,0-.368-.055-.736-.057-.366-.124-.734-.127-.368.008-.737.005-.37.125-.74.123-.37.11-.739.107-.368-.236-.737-.239-.371.19-.741.187-.369-.214-.738-.216-.371.2-.741.2-.367-.171-.736-.173-.371.067-.742.065-.371.045-.743.043-.371-.159-.743-.162-.373.078-.746.076c-.352,0-.633.021-.962.014-.14-.338.088-.34.1-.706s-.08-.368-.069-.734.021-.366.033-.732-.089-.369-.077-.735.009-.367.02-.734-.03-.368-.019-.735,0-.367.015-.734.122-.363.133-.729-.012-.367,0-.734-.058-.366-.047-.73,0-.365.009-.729.212-.359.223-.724.028-.366.039-.733-.024-.369-.013-.736.051-.366.062-.732-.229-.374-.218-.74.144-.362.155-.729-.137-.373-.125-.741.235-.361.247-.728.006-.368.017-.735-.137-.374-.125-.742.131-.365.143-.733-.046-.37-.035-.737.117-.364.128-.732-.118-.373-.107-.742.029-.369.04-.739.132-.367.143-.738.141-.459-.117-.725-.341-.125-.7-.11-.351.151-.708.166-.357.06-.715.075-.362-.092-.719-.077-.356.04-.712.055-.362-.079-.719-.064-.35.234-.708.249-.368-.218-.726-.2-.349.253-.707.268-.361-.026-.72-.011-.363-.094-.722-.079-.361-.05-.72-.035-.353.111-.711.126-.36.009-.72.024-.362-.02-.722-.005-.354.183-.715.2-.486-.356-.731-.09.019.369.03.735-.017.368-.006.734-.022.368-.011.736.152.362.163.729.05.365.061.731-.192.372-.181.738.178.361.188.728-.015.367,0,.733.038.366.049.733-.16.373-.15.74.071.365.081.732-.084.369-.073.736.205.361.215.728-.188.369-.178.734.123.361.133.725.006.366.017.731-.077.369-.066.736.2.363.208.731-.091.369-.08.736-.1.37-.091.736.163.362.174.729-.137.373-.127.741.255.361.265.729-.246.375-.235.743.179.364.19.733-.113.372-.1.74-.012.369,0,.737.206.361.216.729-.194.375-.183.744.156.366.167.736.006.371.017.742-.018.372-.012.743.111.374.111.748-.04.375-.04.749.032.376.032.751-.216.375-.216.75.212.375.212.749,0,.374,0,.748.037.376.037.752-.036.377-.036.753-.12.378-.12.756a1.636,1.636,0,0,0,.115.728c.235,0,.382-.034.616-.032s.468-.022.7-.021.467.12.705.12.465.029.7.029.465.013.7.012.464-.046.7-.047.463.038.7.037.464-.16.706-.161.464.087.705.086.466-.024.709-.024.467.1.71.1c.223,0,.468-.111.734-.111.23,0,.475.062.735.062.234,0,.479.093.736.093.236,0,.482-.045.736-.045.238,0,.484-.067.737-.068s.484-.009.735-.01.486.1.736.1.486-.137.736-.138.487,0,.736,0,.487-.01.736-.011.488-.056.736-.057.489.131.737.131.489.047.737.046.484.006.73.006.485-.075.731-.076.487-.04.733-.041.487.107.733.107.489-.035.735-.036.488-.183.734-.184.49.09.736.089.488-.1.733-.1.49.181.736.18.49-.063.736-.064.491-.02.737-.021.493.05.739.049.492-.152.739-.153.494.208.741.207.493-.12.74-.122.494-.1.74-.1.5.066.742.064.5.138.743.136.494-.137.741-.138.5.174.742.172.494-.239.74-.241.5.008.741.007.5.156.741.154.495-.008.74-.01.494-.123.738-.124.495.176.739.174.492-.208.734-.21.494.015.736.013.494.011.736.009.5.074.74.072.495.043.735.04.5.055.736.052.5-.036.733-.038.435-.124.672-.127c.129-.345-.028-.352-.008-.72s.041-.366.061-.732.128-.361.148-.727-.112-.375-.092-.741.129-.363.149-.732.08-.364.1-.732-.094-.374-.074-.742-.048-.373-.028-.742.18-.36.2-.728-.023-.371,0-.739-.014-.369.006-.737-.021-.372,0-.741.221-.359.241-.729-.107-.378-.087-.749.26-.429,0-.7-.326-.129-.7-.121-.368.137-.738.145-.373-.11-.743-.1-.37.016-.74.024-.371.011-.742.019-.364.185-.732.193-.368,0-.737.008-.371-.017-.741-.009-.371,0-.743.005-.374-.181-.744-.173-.364.264-.734.272-.374-.2-.744-.189-.37.1-.742.112-.369.1-.74.107-.373-.1-.744-.092-.375-.091-.747-.083-.367.215-.739.223-.376-.191-.747-.183-.372-.031-.742-.023-.368.243-.741.251-.377-.179-.75-.17-.371-.006-.745-.012S632.781,514.335,632.407,514.338Z"/>
    </g>
  </g>
</svg>
