<svg xmlns="http://www.w3.org/2000/svg" width="347.46" height="58.595" viewBox="0 0 347.46 58.595">
  <g id="グループ_964" data-name="グループ 964" transform="translate(-510.127 -3744.114)">
    <path id="パス_811" data-name="パス 811" d="M7.7-5.633c-.531.737-.944,1-1.534,1S5.072-5.19,5.072-6.016c0-1.828,1.769-3.8,5.013-4.306A37.773,37.773,0,0,1,7.7-5.633Zm20.467-2.33c-.855-.56-1.917-1.268-3.126-1.946a48.053,48.053,0,0,0,.56-5.426l-3.834-.442a18.939,18.939,0,0,1,.029,3.185c-.029.324-.059.649-.088,1a25.594,25.594,0,0,0-6.282-1.887,56.517,56.517,0,0,1,2.861-6.252,6.836,6.836,0,0,1,.973-1.239L16.928-22.8a7.238,7.238,0,0,1-1.976.442c-1.357.118-4.483.236-6.134.236A23.632,23.632,0,0,1,6.4-22.236l.147,3.775c.737-.118,1.769-.236,2.389-.265,1.327-.088,3.834-.177,4.984-.206-.678,1.386-1.5,3.362-2.33,5.249-5.869.265-9.968,3.745-9.968,8.258A4.354,4.354,0,0,0,6.1-.708a4.991,4.991,0,0,0,4.542-2.566,60.727,60.727,0,0,0,3.391-7.019A20.471,20.471,0,0,1,20.88-7.933c-.973,2.654-3.008,5.456-7.432,7.343l3.126,2.536a14.629,14.629,0,0,0,7.4-7.9c.885.649,1.74,1.357,2.507,2.035Zm25.6-14.215L49.6-23.858c-.531,1.239-1.062,2.182-1.445,2.979-1.534,2.772-7.7,15.04-9.85,20.88l4.129,1.386A56.364,56.364,0,0,1,44.65-5.1C45.682-7.491,47.3-9.5,49.309-9.5a1.572,1.572,0,0,1,1.71,1.622c.088,1.18.059,3.568.177,5.131.118,2.123,1.652,4.07,4.837,4.07,4.512,0,7.225-3.3,8.729-8.346L61.607-9.585c-.826,3.627-2.418,6.9-4.925,6.9a1.649,1.649,0,0,1-1.858-1.593c-.177-1.209-.088-3.568-.147-4.866-.118-2.418-1.445-3.834-3.627-3.834a6.646,6.646,0,0,0-3.332.885c1.445-2.566,3.657-6.636,5.1-8.729C53.143-21.293,53.467-21.823,53.762-22.177ZM100.978-16.1a52.55,52.55,0,0,0-7.2-3.952l-1.887,2.89a38.939,38.939,0,0,1,7.019,4.158Zm-11-4.483a30.848,30.848,0,0,1-3.922.914c.413-1.563.767-3.038,1-3.981l-4.04-.413a24.866,24.866,0,0,1-.8,4.9c-.885.059-1.769.088-2.625.088a37.123,37.123,0,0,1-3.893-.206l.265,3.421c1.268.059,2.448.088,3.657.088.5,0,1,0,1.5-.029A44.56,44.56,0,0,1,75.173-5.485l3.568,1.8a53.91,53.91,0,0,0,6.252-12.5,42.8,42.8,0,0,0,5.072-1Zm.708,16.25c0,1.563-.649,2.713-2.625,2.713-1.593,0-2.507-.737-2.507-1.828,0-1.032,1.091-1.74,2.772-1.74a10.336,10.336,0,0,1,2.359.295Zm-.472-10.233c.088,1.769.236,4.335.324,6.518-.619-.059-1.3-.118-1.976-.118-4.07,0-6.459,2.212-6.459,5.072,0,3.215,2.861,4.837,6.488,4.837,4.158,0,5.633-2.123,5.633-4.837v-.265a26,26,0,0,1,3.952,3.1l1.946-3.126a19.456,19.456,0,0,0-6.046-3.745c-.088-1.445-.147-2.861-.177-3.686-.029-1.3-.088-2.507,0-3.745Zm27.545,9.26c-1.091,0-2.271-1.445-2.271-4.394a9.157,9.157,0,0,1,7.4-8.464,46.878,46.878,0,0,1-1.563,7.078C120.147-7.137,118.967-5.308,117.758-5.308Zm8.022,6.518c7.373-1.121,11.148-5.485,11.148-11.62,0-6.37-4.571-11.413-11.8-11.413-7.579,0-13.448,5.78-13.448,12.5,0,4.925,2.743,8.493,5.957,8.493,3.185,0,5.721-3.6,7.461-9.5a63.469,63.469,0,0,0,1.74-7.933c3.922.678,6.1,3.686,6.1,7.727,0,4.247-2.89,6.93-6.636,7.815-.767.177-1.593.324-2.713.472ZM154.563-.177h2.6l.737-5.987h4.925l-.767,5.987h2.6l.737-5.987h5.072V-8.936h-4.748l.619-5.249h4.925v-2.8h-4.6l.649-5.279h-2.536l-.678,5.279h-4.925l.649-5.279h-2.536l-.678,5.279h-4.984v2.8h4.66l-.649,5.249h-4.778v2.772H155.3Zm3.627-8.759.649-5.249h4.9l-.619,5.249Z" transform="translate(508.505 3790.658)"/>
    <g id="グループ_169" data-name="グループ 169">
      <g id="グループ_159" data-name="グループ 159">
        <path id="パス_322" data-name="パス 322" d="M724.275,3777.716l.309.74.116.835.148.825.291.792.133.827.221.811.131.833.136.835.26.8-.755.254-.764.241-.79.146-.789.049-.8.031-.755.269-.749.257-.786.1-.767.185-.783.092-.767.175-.778.129-.78.112-.782.058-.78.073-.785.075-.239-.787-.262-.772-.208-.787-.22-.782-.16-.8-.142-.8-.287-.763-.263-.769-.115-.81-.323-.752-.179-.791-.224-.778-.143-.8-.245-.78-.186-.795-.244-.778-.315-.757-.15-.8-.251-.773-.263-.768-.111-.809-.3-.754-.147-.8-.336-.745-.151-.8-.172-.792-.323-.748-.228-.775-.185-.789-.262-.764-.2-.784-.215-.775-.222-.687.771-.2.8-.174.816-.1.79-.223.8-.147.809-.143.813-.132.788-.272.855-.19.153.827.173.769.179.765.211.758.221.755.053.8.282.735.225.751.172.767.186.766.151.772.107.781.19.763.278.745.182.767.21.759.175.771.124.782.2.764.232.753.068.8.163.776.32.74.082.849.838-.145.793-.1.779-.2.793-.084.812.031.785-.188.8-.136Z"/>
      </g>
      <g id="グループ_160" data-name="グループ 160">
        <path id="パス_323" data-name="パス 323" d="M738.218,3777.281l-.14-.833-.277-.776-.194-.792-.168-.8-.2-.8-.185-.8-.215-.789-.146-.807-.186-.8-.2-.795-.254-.783-.19-.8-.216-.794-.158-.806-.224-.79-.216-.8-.192-.8-.13-.82-.212-.776.725-.222.761-.183.762-.168.769-.161.746-.257.765-.19.778-.163.141.828.184.8.145.8.09.817.224.791.1.815.2.8.148.807.189.8.163.8.2.793.088.817.246.784.168.8.181.8.167.8.178.8.13.816.165.766-.751.274-.785.188-.807.125-.774.257-.8.169Z"/>
      </g>
      <g id="グループ_161" data-name="グループ 161">
        <path id="パス_324" data-name="パス 324" d="M781.125,3767.23l.3.814.3.814.276.824.3.82.26.83.326.807.266.826.3.818.323.813.3.821.273.834-.817.281-.806.322-.818.292-.817.3-.812.288-.3-.8-.209-.863-.2-.864-.188-.866-.163-.87-.153-.87-.183-.866-.172-.868-.2-.864-.23-.858-.177-.87-.257-.853-.213-.833.87.1.859.229.881.13Z"/>
      </g>
      <g id="グループ_162" data-name="グループ 162">
        <path id="パス_325" data-name="パス 325" d="M822.993,3755.329l.574.636.506.709.532.686.553.676.6.639.525.7.563.68-.729.66-.8.58-.717.677-.819.559-.724.681-.581-.714-.532-.733-.328-.842-.42-.79-.5-.749-.454-.783-.532-.731-.5-.71.72-.406.755-.38.783-.326.756-.387Z"/>
      </g>
      <g id="グループ_163" data-name="グループ 163">
        <path id="パス_326" data-name="パス 326" d="M830.208,3753.462l.54.942.465.964.595.588.4.764.365.765-.978.4-.958.461-.981.417-.958.436-.655-.74-.6-.813-.667-.758-.63-.792-.609-.822.95-.325.928-.367.937-.344.918-.4Z"/>
      </g>
      <g id="グループ_164" data-name="グループ 164">
        <path id="パス_327" data-name="パス 327" d="M768.807,3780.231l-.2-.956-.136-.973-.259-.951-.142-1.006-.82.269-.806.2-.806.2-.791.268-.8.15-.416-.871-.341-.921-.413-.892-.268-.833-.251-.838-.3-.824-.252-.839-.336-.844-.395-.819-.42-.805-.379-.829-.3-.868-.418-.816-.384-.836-.918.1-.919-.015-.914.053-.907.143-.92.01-.917.08-.921.056-.929.035.368.9.262.925.4.874.254.935.307.918.378.815.214.87.276.851.378.82.278.852.294.847.279.855.24.867.3.844.271.854.3.848.308.848.3.854.279.862.883-.178.872-.234.9-.108.874-.214.891-.127.881-.2.884-.19.887-.187.89-.175,0,.022.831-.181.833-.179.832-.193Z"/>
      </g>
      <g id="グループ_166" data-name="グループ 166">
        <g id="グループ_165" data-name="グループ 165">
          <path id="パス_328" data-name="パス 328" d="M823.971,3775.355c-.268-.3-.168-.389-.424-.7s-.342-.247-.6-.564-.171-.385-.427-.7-.282-.295-.538-.61-.263-.309-.519-.624-.244-.327-.5-.644-.3-.285-.554-.6-.226-.344-.484-.662-.3-.282-.565-.6c-.188-.207-.3-.475-.484-.678s-.46-.332-.643-.534-.324-.454-.507-.656-.384-.4-.566-.6-.376-.417-.56-.621-.366-.423-.549-.626-.355-.431-.537-.634-.379-.408-.56-.61-.338-.442-.518-.644-.382-.4-.561-.6-.357-.425-.535-.626l-.549-.621c-.186-.211-.425-.366-.6-.566s-.293-.483-.468-.683-.455-.34-.628-.54-.331-.488-.5-.688c-.342.127-.249.288-.527.523s-.335.169-.614.4-.234.29-.513.526-.283.232-.572.457a8.552,8.552,0,0,0-.773.555c-.2.155-.43.354-.726.614-.2.181-.429.4-.7.652-.3.284-.525.464-.672.6a5.865,5.865,0,0,1-.691.561c-.135.11-.334.291-.679.578-.186.155-.379.381-.656.614-.318.3-.367.245-.678.548s-.3.313-.607.614-.313.3-.624.6-.259.355-.57.657l-.623.609c-.312.3-.3.317-.612.621s-.312.307-.626.612-.324.295-.644.593-.3.3-.614.58-.363.229-.679.512-.346.247-.661.529-.249.355-.564.637-.323.275-.639.557-.3.3-.617.58-.307.291-.622.573-.323.273-.637.555-.388.2-.7.487-.261.345-.578.629-.363.234-.681.518-.568.175-.6.6.264.329.542.657.266.34.545.669.338.277.617.606.276.33.554.658.21.385.488.712.291.32.571.649.325.291.6.621.278.332.559.663.151.476.511.717c.193-.157.416-.364.636-.566.182-.167.339-.392.554-.6.181-.173.394-.342.606-.547.182-.176.386-.355.6-.557.184-.178.416-.328.626-.528.186-.177.377-.368.586-.564.189-.177.336-.417.545-.611.191-.177.412-.338.621-.53.194-.177.389-.368.6-.558s.405-.352.615-.54.373-.392.584-.579.408-.352.62-.538.457-.3.67-.487.4-.366.616-.551c.286-.277.259-.3.539-.588s.306-.258.587-.542.281-.28.56-.562.251-.313.531-.6.3-.264.578-.548.279-.286.56-.571.317-.251.6-.536.221-.347.5-.632.276-.293.559-.578c.35-.349.621-.55.837-.777.3.118.249.183.47.424s.169.289.39.53c.293.32.34.277.633.6s.329.286.621.6.244.367.538.687.27.344.564.666.345.276.641.6.284.332.569.663c.264.306.277.295.53.61s.185.368.438.682.33.252.582.566.219.343.473.658.218.345.472.661.306.276.56.593.278.3.543.6.262.326.543.636.253.339.535.65.263.325.544.634.264.327.546.638.31.284.591.594.34.261.623.573.242.35.526.662l.568.626c.284.314.271.325.55.643s.332.268.6.588.271.317.541.636.264.323.533.641l.54.638c.271.32.233.353.5.673s.225.359.495.679.341.26.611.579.3.3.569.62.232.354.5.674.29.3.561.623l.542.638c.272.321.19.39.462.711s.338.265.611.587.3.3.571.624.081.678.5.683.3-.287.564-.6.187-.379.45-.694.252-.324.515-.639.286-.295.549-.61.293-.291.557-.607.269-.312.533-.629.261-.321.526-.638.361-.26.548-.629c-.136-.136-.333-.365-.55-.635-.149-.186-.317-.4-.5-.643-.152-.2-.3-.428-.477-.661-.155-.206-.369-.385-.54-.613-.156-.209-.309-.434-.479-.66s-.312-.436-.482-.659-.364-.4-.533-.621-.239-.5-.41-.716-.367-.393-.537-.61-.319-.434-.491-.649-.369-.4-.542-.612-.351-.413-.527-.625-.3-.457-.478-.668-.35-.418-.529-.626-.346-.421-.526-.627-.408-.368-.591-.571-.365-.407-.551-.609-.367-.405-.556-.6-.36-.415-.552-.611-.379-.4-.574-.589-.392-.383-.59-.571S824.172,3775.539,823.971,3775.355Z"/>
        </g>
        <path id="パス_329" data-name="パス 329" d="M835.352,3788.9c.208-.731.867-.062.353-.389s-.614-.677-.546-.724,3.489.351-1.317-.635Z"/>
        <path id="パス_330" data-name="パス 330" d="M834.995,3785.346l.008-.185a.226.226,0,0,1,.323.316.17.17,0,0,1-.209,0,.15.15,0,0,0-.206-.158v-.089l.23-.033"/>
      </g>
      <path id="パス_331" data-name="パス 331" d="M742.625,3775.756a.483.483,0,0,1-.159.079.944.944,0,0,0-.44.162,1.982,1.982,0,0,1-.727.276.254.254,0,0,0-.06.013,8.546,8.546,0,0,1-1.209.324c-.221.069-.455.093-.679.157s-.441.149-.66.229c-.046.017-.118.029-.1.1.016.054.128.077.179.041s.065-.074.106-.095a.306.306,0,0,1,.117-.009c-.005.03-.008.061-.016.091s-.023.051-.028.078c-.012.067.062.233.1.227a.152.152,0,0,0,.121-.168c0-.287.19-.348.41-.381.093-.014.19-.01.282-.029.056-.011.105-.057.161-.074a.53.53,0,0,1,.138,0c-.009.038-.017.076-.029.113-.029.085-.067.167-.09.254-.01.04-.006.118.014.127.074.03.088-.049.106-.094.03-.076.046-.158.07-.237.045-.151.117-.179.261-.113s.077-.125.107.021a1.215,1.215,0,0,0,.033.182c.054.144.15.161.264.056a.685.685,0,0,1,.16-.125c.146-.071.206-.03.2.128,0,.041-.012.082-.014.124a.271.271,0,0,0,.17.3.249.249,0,0,0,.333-.124,2.33,2.33,0,0,1,.59-.711.55.55,0,0,0,.135-.181.44.44,0,0,1,.169-.223.243.243,0,0,0,.079-.153c.032-.209.115-.089.037-.282Z"/>
      <path id="パス_332" data-name="パス 332" d="M740.6,3777.663c0,.133-.148.321-.192.287a.362.362,0,0,1-.121-.221c-.013-.092.031-.206.144-.193C740.505,3777.543,740.566,3777.631,740.6,3777.663Z"/>
      <g id="グループ_167" data-name="グループ 167">
        <path id="パス_333" data-name="パス 333" d="M688.927,3756.742c-.252-.272-.029-.349-.019-.72s.013-.372.022-.743.032-.373.042-.746.034-.371.044-.744.017-.372.027-.744-.005-.374,0-.748.021-.372.031-.745-.074-.375-.064-.748.091-.369.1-.741.019-.374.029-.748-.02-.375-.01-.75,0-.376.006-.752.03-.375.035-.751-.045-.364-.045-.727.013-.365.013-.729-.028-.366-.028-.731-.088-.389.025-.737c.241,0,.5.008.743.008.229,0,.466,0,.721,0,.226,0,.467.014.728.015.227,0,.469.029.732.029.2,0,.44-.045.721-.045.218,0,.459.02.72.021.226,0,.466,0,.718,0,.231,0,.471-.021.72-.02s.475-.029.721-.028.476.076.722.077.475-.031.717-.03.478.02.721.021.48-.053.721-.051.484.027.726.028.487-.039.729-.038.484.015.723.016.486.042.724.043.49.026.728.027.489-.058.724-.056.491.072.724.074c.251,0,.492-.067.72-.064.256,0,.534.033.756.036.106.38-.081.405-.081.8s0,.4,0,.792.049.4.049.794-.026.4-.026.795.267.48-.005.769c-.253.269-.34-.026-.709-.032s-.371.009-.742,0-.371.043-.741.037-.37.027-.74.021-.37-.086-.741-.092-.371.016-.742.01-.37-.042-.74-.048-.371.061-.74.055-.372-.012-.743-.018-.373.019-.745.013-.373-.032-.746-.038-.373-.018-.747-.018c-.339,0-.338.03-.677.034s-.339.018-.679.023l-.681.01c-.34,0-.341-.007-.681,0-.134,0-.254-.029-.378-.026-.052.365.051.366.061.734s-.073.372-.063.742.084.367.094.735-.039.371-.029.74.023.369.033.74-.018.37-.008.739.082.368.092.737,0,.369.009.738.015.37.025.741-.076.373-.066.744.011.372.021.745.319.472.056.736-.359.027-.723.011-.362-.063-.726-.078-.368.034-.734.018-.364-.054-.731-.07a2.492,2.492,0,0,0-.732-.021C689.264,3756.867,689.177,3757.012,688.927,3756.742Z"/>
      </g>
      <g id="グループ_168" data-name="グループ 168">
        <path id="パス_334" data-name="パス 334" d="M846.97,3798.38c.347,0,.347.006.694,0s.346.035.692.032.345-.032.691-.035.345.013.69.01.346-.069.693-.071.348.055.7.053.348-.052.7-.055.349,0,.7,0c.14,0,.245.01.375.008a2.832,2.832,0,0,0-.021-.735c-.011-.368-.014-.368-.025-.737s.042-.37.031-.738-.07-.368-.082-.738.059-.371.047-.741-.051-.367-.062-.736,0-.369-.012-.737-.029-.37-.04-.74.017-.372.006-.742-.009-.372-.02-.744-.314-.487-.061-.759c.234-.252.36.06.7.074s.345-.022.689-.008.343-.005.686.009.343.04.688.054.344.043.689.057.349-.059.7-.044.447-.171.68.085-.018.346-.028.7-.011.356-.021.712.049.359.039.717-.057.356-.067.713-.044.355-.055.712-.018.358-.029.716.029.359.019.716.03.359.02.716-.075.355-.085.711-.006.359-.016.717-.018.359-.028.718,0,.36-.009.72-.041.36-.046.72.043.372.043.742.023.371.023.742-.048.372-.048.745.1.375-.019.727c-.254,0-.457.036-.718.036-.242,0-.492-.057-.762-.058-.239,0-.493.007-.769.006-.239,0-.5.073-.773.073-.2,0-.44-.023-.719-.023-.218,0-.459-.024-.719-.024-.225,0-.465.038-.718.038-.23,0-.47-.051-.719-.051-.233,0-.474-.018-.721-.018s-.475,0-.72,0-.477.026-.721.025l-.718,0c-.238,0-.479.042-.721.041s-.48-.095-.721-.1-.485.01-.727.008l-.722,0c-.243,0-.484.076-.723.075s-.485-.035-.723-.037-.489-.05-.727-.052-.488.025-.723.023l-.722,0c-.251,0-.491-.029-.719-.031-.255,0-.454.014-.676.011-.123-.342-.021-.351-.041-.714s-.062-.36-.081-.722-.036-.364-.056-.728-.026-.365-.046-.73.005-.367-.015-.733-.327-.5-.07-.761.4.065.776.073.377-.064.752-.056.374.032.748.04.373.057.747.065.375-.023.748-.015.375.045.75.053.378-.055.754-.047.377,0,.754.014S846.593,3798.377,846.97,3798.38Z"/>
      </g>
    </g>
  </g>
</svg>
