<svg xmlns="http://www.w3.org/2000/svg" width="250.517" height="356.547" viewBox="0 0 250.517 356.547">
  <g id="グループ_65" data-name="グループ 65" transform="translate(-1054.666 -77.387)">
    <g id="グループ_7" data-name="グループ 7">
      <path id="パス_2" data-name="パス 2" d="M1165.012,163.025l.121.706.367.734.114.792.084.8.209.77.1.8.329.736.322.74.08.8-.036.828.2.771.156.781.258.757.217.772.3.749-.013.823.171.783.528.7.025.815.209.771.057.81.342.745-.018.831.323.765-.845.132-.7.471-.769.279-.825.081-.842-.017-.7.537-.83-.008-.812.018-.8.178-.8.019-.809-.029-.811.06-.736.414-.777.213-.784.2-.832-.025-.711.441-.773.236-.844-.072-.735.392-.826-.02-.765.26-.761.28-.817-.01-.762.274-.777.2-.819-.074-.789.1-.761.291-.831-.205-.778.179-.786.152-.776.231-.8-.054-.781.16-.774.251-.824-.261-.761.358-.8-.046-.892.245-.285-.885-.121-.807.032-.849-.45-.716-.158-.8-.132-.8-.252-.771-.328-.75.031-.848-.474-.709-.035-.83-.142-.806-.524-.7-.111-.813-.347-.748-.151-.8-.264-.771-.068-.825-.126-.808-.241-.777-.178-.794-.362-.742-.132-.807-.4-.732-.036-.832-.089-.818-.358-.743-.355-.743-.175-.793-.037-.832-.5-.7-.137-.8-.014-.837-.416-.725-.185-.79-.075-.82-.435-.718-.2-.785-.214-.781-.024-.833-.4-.727-.241-.772-.228-.776.057-.855-.535-.689.043-.851-.472-.706.02-.845-.4-.725-.066-.82-.333-.744-.223-.775-.3-.753.025-.845-.431-.715-.257-.763-.252-.765.052-.859-.209-.783-.277-.764-.186-.788-.2-.785-.555-.681.085-.865-.386-.728-.289-.754-.262-.762-.12-.8-.3-.75-.157-.79-.168-.786-.265-.756-.277-.754-.1-.814-.26-.763-.2-.779-.365-.727-.313-.739.016-.841-.183-.78-.357-.727-.157-.788-.159-.785-.494-.809.9.123.775-.276.754-.376.861.159.747-.423.832.009.773-.262.807-.112.767-.321.825-.02.781-.234.838.049.787-.229.788-.217.83,0,.8-.182.787-.227.792-.2.819-.057.77-.323.845.043.788-.249.727-.126.1.721.207.786.129.8.42.734.274.767.011.83.292.762.173.79.1.806.183.787.364.743.106.805.34.75.12.8.16.794-.085.853.212.783.364.748.165.8.072.82.481.72.223.781-.14.868.2.785.254.773.1.809.516.711.027.829.247.777.03.831.108.811.371.747.178.793.349.752-.147.871.24.78.485.722.158.8-.045.847.3.766.085.818.209.788.418.733-.14.87.384.747.219.784.235.779.244.778-.014.843.168.8.331.759.285.773-.03.848.313.764-.045.848.517.718.184.8-.133.878.362.781.816-.179.835.13.789-.233.807-.051.766-.4.853.271.763-.42.833.139.814-.021.8-.157.8-.108.8-.143.8-.14.82,0,.8-.125.764-.429.839.133.819-.031.787-.395Z"/>
    </g>
    <g id="グループ_8" data-name="グループ 8">
      <path id="パス_3" data-name="パス 3" d="M1200.369,161.934l-.15-.82-.11-.8-.353-.739-.2-.777-.2-.777,0-.828-.23-.773-.283-.761-.28-.763-.151-.795-.038-.822-.314-.753-.184-.784-.207-.778-.2-.78-.12-.8-.337-.746-.131-.8-.039-.823-.313-.757-.119-.8-.312-.754-.143-.8-.134-.8-.343-.748-.141-.8-.194-.786-.165-.792-.314-.755-.188-.786-.127-.8-.243-.774-.141-.794-.075-.814-.3-.76-.224-.777-.023-.825-.4-.733-.115-.808-.29-.762-.084-.814-.28-.768-.179-.791-.142-.8-.289-.762-.113-.81-.2-.791-.111-.814-.153-.715.671-.321.819-.088.757-.352.827-.058.781-.238.791-.205.792-.215.82-.1.8-.163.771-.3.785-.245.786-.234.809-.137.791-.23.809-.158.813-.152.8-.136.214.73.075.807.243.781-.034.826.162.789.132.794.086.8.386.746.051.806.107.8.1.8.3.764.181.785.063.809.06.809.121.8.283.762.034.813.349.749.005.82.261.768.161.789.225.776.182.785.125.8.066.811.234.776.068.812.179.789.282.767.089.808.142.8.165.791.171.784.123.8.289.761.057.813.291.763.126.8.127.8.245.777.2.78.192.785.144.8.114.807.145.8.15.8.357.753.1.885-.822.168-.785.217-.779.239-.823.069-.757.347-.831.042-.751.364-.825.08-.78.252-.812.125-.81.126-.78.262-.8.208-.795.219Z"/>
    </g>
    <g id="グループ_9" data-name="グループ 9">
      <path id="パス_4" data-name="パス 4" d="M1205.439,227.092l.225.908.348.829.321.838.26.86.364.823.271.858.32.842.31.843.3.847.24.869.405.811.257.864.214.879.408.807.335.837.209.878.31.841.265.859.3.849.357.828.231.873.428.806.229.875.371.824.31.844.227.879.264.867.351.838.371.859-.907.256-.839.376-.836.378-.868.292-.86.324-.884.254-.837.378-.881.255-.865.313-.872.3-.816.453-.886.3-.281-.9-.366-.839-.2-.893-.3-.864-.163-.9-.237-.88-.271-.874-.163-.9-.145-.9-.221-.887-.16-.9-.2-.891-.06-.92-.255-.882-.234-.886-.169-.9-.08-.916-.253-.875-.2-.888-.118-.907-.276-.874-.186-.894-.2-.893-.118-.913-.3-.864-.225-.884-.141-.908-.328-.863-.149-.9-.221-.892-.325-.862-.2-.974.933.112.916-.1.914.118.913-.133.912.02.916.039.918.077.919-.153Z"/>
    </g>
    <g id="グループ_10" data-name="グループ 10">
      <path id="パス_5" data-name="パス 5" d="M1205.969,292.944l.5.74.64.651.512.758.6.685.529.739.595.687.685.62.5.766.514.756.723.59.589.7.575.707.382.862.715.6.47.8.719.6.591.79-.833.592-.8.533-.739.612-.613.762-.772.57-.676.69-.833.5-.726.627-.777.563-.782.565-.694.672-.725.64-.741.592-.6-.63-.514-.765-.659-.653-.513-.771-.5-.774-.38-.831-.3-.863-.34-.849-.412-.816-.491-.772-.577-.718-.356-.85-.532-.742-.638-.673-.271-.917-.517-.759-.63-.682-.547-.736-.468-.8-.628-.821.887-.3.778-.445.839-.314.751-.5.856-.285.784-.431.856-.28.774-.448.8-.4.845-.313.717-.589Z"/>
    </g>
    <g id="グループ_11" data-name="グループ 11">
      <path id="パス_6" data-name="パス 6" d="M1224.258,288.2l.563,1.009.489.977.665.884.506.957.524.95.473.933.782.708.463,1,.667.877.493.979.4,1.015-1.018.352-.985.434-.917.6-1.005.392-.951.517-1.037.313-.981.453-1.012.386-1.016.386-.931.5-.649-.794-.648-.845-.722-.784-.6-.88-.753-.763-.66-.835-.707-.8-.649-.84-.594-.891-.6-.884-.646-.857-.685-.767.9-.445,1.029-.263.964-.424.926-.522,1.073-.153.98-.389.938-.5.968-.411,1.006-.326.942-.5,1.029-.285Z"/>
    </g>
    <g id="グループ_12" data-name="グループ 12">
      <path id="パス_7" data-name="パス 7" d="M1174.714,261.775l-.105-.85-.109-.9-.35-.851-.2-.885-.18-.886.044-.93-.339-.852-.055-.914-.342-.858-.17-.895-.088-.917-.875.133-.848.223-.8.4-.859.175-.825.313-.883.091-.842.241-.86.168-.865.167-.834.291-.846.252-.822.212-.409-.8-.285-.889-.468-.812-.354-.858-.414-.838-.347-.868-.274-.9-.287-.892-.242-.85-.305-.832-.381-.811-.145-.885-.315-.83-.419-.8-.028-.925-.279-.846-.4-.812-.3-.839-.317-.841-.486-.759-.272-.861-.429-.792-.307-.845-.475-.767-.279-.858-.418-.8-.276-.862-.433-.79-.385-.815-.306-.85-.56-.733-.34-.832-.233-.886-.443-.792-.406-.811-.332-.87-.945.154-.933.009-.928.087-.928.072-.93.054-.936-.041-.916.224-.93-.015-.936-.083-.92.23-.926.11-.939-.089-.932.073h-.935l-.932.061-.922.146-.941-.056-.921.26-.945-.059-.912.165.375.8.209.921.26.9.389.856.419.844.19.926.4.852.4.852.269.9.316.885.208.922.4.858.21.924.279.862.256.871.491.791.255.873.183.9.413.822.2.894.38.831.2.891.332.847.4.825.253.876.235.883.351.842.269.87.335.847.124.921.41.823.378.834.281.865.147.914.4.825.31.854.189.9.416.823.278.868.293.863.165.91.426.819.31.858.176.9.447.815.176.909.274.878.375.77.8-.178.911-.007.845-.323.911,0,.836-.377.883-.149.887-.121.9-.065.831-.405.916.026.854-.271.885-.124.858-.28.908-.025.864-.24.844-.349.88-.166.9-.084.881-.152.9-.1.852-.326.908-.062.878-.212-.016-.061.963-.064.926-.271.934-.221.956-.115.958-.083.921-.3.962-.092.921-.318Z"/>
    </g>
    <g id="グループ_13" data-name="グループ 13">
      <path id="パス_8" data-name="パス 8" d="M1294.839,141.89l.227,1.478-.076.872.075.8.066.792-.946,0-.952.025-.954-.008-.971,0-.034-.993-.041-.978-.074-.979-.044-.969.919-.009.934,0,.936-.014Z"/>
    </g>
    <g id="グループ_14" data-name="グループ 14">
      <path id="パス_9" data-name="パス 9" d="M1281.988,175.289c-.228-.4.1-.461.228-.907s.143-.44.268-.885.129-.446.254-.893.138-.442.262-.888.092-.456.216-.9.181-.43.305-.875.1-.455.222-.9.151-.44.276-.889.1-.456.225-.906-.171-.688.251-.887c.48-.225.5.154,1,.306s.519.12,1.028.272.573.023,1.013.321c-.108.309-.191.6-.289.879s-.181.562-.287.879c-.087.262-.194.544-.3.873-.085.264-.221.54-.325.867-.085.268-.118.579-.219.9-.086.273-.191.563-.291.881-.086.276-.2.561-.3.876-.086.277-.167.574-.263.884-.087.282-.175.58-.271.891-.088.285-.186.548-.282.859-.469.022-.457-.072-.908-.2s-.429-.227-.9-.26C1282.4,175.543,1282.221,175.7,1281.988,175.289Z"/>
      <path id="パス_10" data-name="パス 10" d="M1281.988,175.289c-.228-.4.1-.461.228-.907s.143-.44.268-.885.129-.446.254-.893.138-.442.262-.888.092-.456.216-.9.181-.43.305-.875.1-.455.222-.9.151-.44.276-.889.1-.456.225-.906-.171-.688.251-.887c.48-.225.5.154,1,.306s.519.12,1.028.272.573.023,1.013.321c-.108.309-.191.6-.289.879s-.181.562-.287.879c-.087.262-.194.544-.3.873-.085.264-.221.54-.325.867-.085.268-.118.579-.219.9-.086.273-.191.563-.291.881-.086.276-.2.561-.3.876-.086.277-.167.574-.263.884-.087.282-.175.58-.271.891-.088.285-.186.548-.282.859-.469.022-.457-.072-.908-.2s-.429-.227-.9-.26C1282.4,175.543,1282.221,175.7,1281.988,175.289Z" fill="none" stroke="#000" stroke-linecap="round" stroke-linejoin="round" stroke-width="1.068"/>
    </g>
    <g id="グループ_15" data-name="グループ 15">
      <path id="パス_11" data-name="パス 11" d="M1297.517,227.027c.01.427.028.426.054.852s.015.427.041.853.047.425.074.85,0,.43.023.857.064.426.091.855-.026.432,0,.862.375.55.092.874-.43-.009-.841,0-.413,0-.826.013-.44.192-.827.05c-.006-.328-.015-.659-.02-.975s-.013-.65-.018-.966,0-.651-.009-.966.022-.651.018-.965c0-.331-.018-.652-.022-.965,0-.332-.056-.654-.059-.966,0-.333.056-.654.054-.964,0-.335-.04-.657-.041-.966,0-.335.016-.655.016-.96,0-.338-.016-.682-.014-.982.53-.174.564-.027,1.121-.06s.694-.417,1.134-.074c.366.284-.045.488-.05.951s.028.465.023.928-.015.465-.02.93S1297.506,226.562,1297.517,227.027Z"/>
      <path id="パス_12" data-name="パス 12" d="M1297.517,227.027c.01.427.028.426.054.852s.015.427.041.853.047.425.074.85,0,.43.023.857.064.426.091.855-.026.432,0,.862.375.55.092.874-.43-.009-.841,0-.413,0-.826.013-.44.192-.827.05c-.006-.328-.015-.659-.02-.975s-.013-.65-.018-.966,0-.651-.009-.966.022-.651.018-.965c0-.331-.018-.652-.022-.965,0-.332-.056-.654-.059-.966,0-.333.056-.654.054-.964,0-.335-.04-.657-.041-.966,0-.335.016-.655.016-.96,0-.338-.016-.682-.014-.982.53-.174.564-.027,1.121-.06s.694-.417,1.134-.074c.366.284-.045.488-.05.951s.028.465.023.928-.015.465-.02.93S1297.506,226.562,1297.517,227.027Z" fill="none" stroke="#000" stroke-linecap="round" stroke-linejoin="round" stroke-width="1.068"/>
    </g>
    <g id="グループ_16" data-name="グループ 16">
      <path id="パス_13" data-name="パス 13" d="M1289.286,210.347c.478,0,.475-.09.952-.1s.478.005.956-.008.478.085.954.071.475-.1.953-.116.479-.009.958-.023.482.063.962.049.479-.072.959-.088c.465-.016.464-.064.929-.082s.469.09.934.071.462-.114.927-.132.465.018.929,0,.465-.04.931-.058.467-.016.933-.034.468-.027.936-.046.594-.327.949-.021c.321.277.049.438.05.862s-.049.425-.048.85a2.025,2.025,0,0,1-.045.84c-.244,0-.525.048-.9.048-.288,0-.607.008-.946.006-.3,0-.62-.059-.945-.061s-.63.024-.947.022-.64.015-.953.012-.646-.062-.948-.064c-.342,0-.663.042-.949.041-.389,0-.715-.063-.945-.059-.306.005-.607.1-.9.11s-.609.021-.906.027-.611,0-.909.011-.611-.036-.908-.029-.607.05-.9.057-.61.008-.905.015-.611-.013-.905-.006c-.31.008-.61.05-.9.057-.311.007-.614-.064-.906-.059-.31.006-.61.015-.9.018-.312,0-.582.039-.869.039a3.117,3.117,0,0,1-.094-1.134c-.025-.572-.327-.65.007-1.115.252-.35.39.024.821.03s.433-.049.864-.043.432.042.865.056S1288.853,210.351,1289.286,210.347Z"/>
      <path id="パス_14" data-name="パス 14" d="M1289.286,210.347c.478,0,.475-.09.952-.1s.478.005.956-.008.478.085.954.071.475-.1.953-.116.479-.009.958-.023.482.063.962.049.479-.072.959-.088c.465-.016.464-.064.929-.082s.469.09.934.071.462-.114.927-.132.465.018.929,0,.465-.04.931-.058.467-.016.933-.034.468-.027.936-.046.594-.327.949-.021c.321.277.049.438.05.862s-.049.425-.048.85a2.025,2.025,0,0,1-.045.84c-.244,0-.525.048-.9.048-.288,0-.607.008-.946.006-.3,0-.62-.059-.945-.061s-.63.024-.947.022-.64.015-.953.012-.646-.062-.948-.064c-.342,0-.663.042-.949.041-.389,0-.715-.063-.945-.059-.306.005-.607.1-.9.11s-.609.021-.906.027-.611,0-.909.011-.611-.036-.908-.029-.607.05-.9.057-.61.008-.905.015-.611-.013-.905-.006c-.31.008-.61.05-.9.057-.311.007-.614-.064-.906-.059-.31.006-.61.015-.9.018-.312,0-.582.039-.869.039a3.117,3.117,0,0,1-.094-1.134c-.025-.572-.327-.65.007-1.115.252-.35.39.024.821.03s.433-.049.864-.043.432.042.865.056S1288.853,210.351,1289.286,210.347Z" fill="none" stroke="#000" stroke-linecap="round" stroke-linejoin="round" stroke-width="1.068"/>
    </g>
    <g id="グループ_17" data-name="グループ 17">
      <path id="パス_15" data-name="パス 15" d="M1288.786,192.561c.477,0,.477-.02.954-.033s.478.014.956,0,.474-.044.95-.056.478,0,.956-.01.477-.079.956-.092.48,0,.96-.017.48-.021.96-.038c.445-.016.446,0,.891-.018s.444-.03.888-.05.447.036.891.016.445-.034.892-.053.446-.033.893-.053.447-.046.9-.066.53-.275.873.014c.314.266.07.381.085.793s-.048.414-.033.827.2.432.089.83c-.255.005-.589-.018-.932-.017-.282,0-.587.061-.905.059-.3,0-.6.006-.91,0s-.61-.02-.911-.023-.618-.1-.912-.1c-.325,0-.634.1-.914.1-.354,0-.663-.073-.905-.069-.307.005-.609.013-.906.018s-.608.055-.905.061-.613-.036-.911-.029l-.906.021c-.307.007-.607.075-.9.082s-.609.018-.9.025-.613-.068-.907-.061c-.309.007-.609.073-.9.079-.311.006-.613-.045-.9-.04-.311.005-.611-.006-.9,0-.312,0-.624.063-.912.064a3.1,3.1,0,0,1-.111-1.115c-.044-.557-.371-.657-.051-1.114.247-.353.429-.034.86-.029s.431.053.863.058.433-.015.866,0S1288.353,192.565,1288.786,192.561Z"/>
      <path id="パス_16" data-name="パス 16" d="M1288.786,192.561c.477,0,.477-.02.954-.033s.478.014.956,0,.474-.044.95-.056.478,0,.956-.01.477-.079.956-.092.48,0,.96-.017.48-.021.96-.038c.445-.016.446,0,.891-.018s.444-.03.888-.05.447.036.891.016.445-.034.892-.053.446-.033.893-.053.447-.046.9-.066.53-.275.873.014c.314.266.07.381.085.793s-.048.414-.033.827.2.432.089.83c-.255.005-.589-.018-.932-.017-.282,0-.587.061-.905.059-.3,0-.6.006-.91,0s-.61-.02-.911-.023-.618-.1-.912-.1c-.325,0-.634.1-.914.1-.354,0-.663-.073-.905-.069-.307.005-.609.013-.906.018s-.608.055-.905.061-.613-.036-.911-.029l-.906.021c-.307.007-.607.075-.9.082s-.609.018-.9.025-.613-.068-.907-.061c-.309.007-.609.073-.9.079-.311.006-.613-.045-.9-.04-.311.005-.611-.006-.9,0-.312,0-.624.063-.912.064a3.1,3.1,0,0,1-.111-1.115c-.044-.557-.371-.657-.051-1.114.247-.353.429-.034.86-.029s.431.053.863.058.433-.015.866,0S1288.353,192.565,1288.786,192.561Z" fill="none" stroke="#000" stroke-linecap="round" stroke-linejoin="round" stroke-width="1.068"/>
    </g>
    <g id="グループ_18" data-name="グループ 18">
      <path id="パス_17" data-name="パス 17" d="M1302.945,201.01c.343.442.08.521.137,1.077s.31.573.206,1.123c-.326,0-.7.021-1.01.017s-.629,0-.943-.005-.617-.115-.938-.124c-.3-.009-.614-.025-.94-.035-.3-.009-.617.091-.948.081-.3-.009-.611-.024-.943-.033-.3-.008-.609-.055-.939-.062-.3-.007-.617.033-.949.027-.3-.006-.618-.058-.95-.063-.188,0-.491.016-.879.016-.26,0-.556,0-.882,0-.274,0-.569.045-.879.046-.283,0-.578-.021-.881-.02s-.583-.038-.882-.037-.589-.039-.885-.038-.592.081-.885.082-.6-.018-.887-.017-.6-.047-.888-.046c-.31,0-.606-.011-.883-.011-.325,0-.622.036-.884.036-.376,0-.711.016-.913.013a2.347,2.347,0,0,1,.013-.831c.016-.413.058-.411.073-.824s-.3-.587.02-.848c.369-.3.5-.03.972-.018s.471.135.946.147.477-.078.952-.065.476.022.952.034.474.094.949.107.478-.066.954-.053.474.023.948.036l.954.023c.477.013.475.081.953.094s.48-.07.959-.057.476.107.955.12.487-.03.973-.017.486.052.973.065.486-.028.97-.015.488.008.975.021.489-.044.977-.031.487.112.977.125.49-.03.98-.029c.367,0,.392.122.749.034S1302.719,200.72,1302.945,201.01Z"/>
      <path id="パス_18" data-name="パス 18" d="M1302.945,201.01c.343.442.08.521.137,1.077s.31.573.206,1.123c-.326,0-.7.021-1.01.017s-.629,0-.943-.005-.617-.115-.938-.124c-.3-.009-.614-.025-.94-.035-.3-.009-.617.091-.948.081-.3-.009-.611-.024-.943-.033-.3-.008-.609-.055-.939-.062-.3-.007-.617.033-.949.027-.3-.006-.618-.058-.95-.063-.188,0-.491.016-.879.016-.26,0-.556,0-.882,0-.274,0-.569.045-.879.046-.283,0-.578-.021-.881-.02s-.583-.038-.882-.037-.589-.039-.885-.038-.592.081-.885.082-.6-.018-.887-.017-.6-.047-.888-.046c-.31,0-.606-.011-.883-.011-.325,0-.622.036-.884.036-.376,0-.711.016-.913.013a2.347,2.347,0,0,1,.013-.831c.016-.413.058-.411.073-.824s-.3-.587.02-.848c.369-.3.5-.03.972-.018s.471.135.946.147.477-.078.952-.065.476.022.952.034.474.094.949.107.478-.066.954-.053.474.023.948.036l.954.023c.477.013.475.081.953.094s.48-.07.959-.057.476.107.955.12.487-.03.973-.017.486.052.973.065.486-.028.97-.015.488.008.975.021.489-.044.977-.031.487.112.977.125.49-.03.98-.029c.367,0,.392.122.749.034S1302.719,200.72,1302.945,201.01Z" fill="none" stroke="#000" stroke-linecap="round" stroke-linejoin="round" stroke-width="1.068"/>
    </g>
    <g id="グループ_19" data-name="グループ 19">
      <path id="パス_19" data-name="パス 19" d="M1285.951,183.862c.471,0,.47-.118.941-.131s.474.088.946.075.471.007.94-.005.47-.133.942-.146.475.082.949.069.474,0,.949-.012.473-.048.947-.061.463.024.924.012.459-.05.919-.063.46-.009.92-.022.462-.017.924-.03.461.009.922,0l.921-.025c.46-.013.459-.058.919-.071s.461-.039.923-.051.464.006.927-.006.466.059.93.046.541-.345.9-.048c.317.263.049.377.064.788s.041.412.055.824a2.241,2.241,0,0,1,0,.825c-.209,0-.527-.03-.928-.03-.275,0-.588.015-.929.015-.292,0-.6.062-.931.061-.3,0-.614-.056-.934-.057s-.619-.048-.934-.049-.625.084-.936.083-.63-.037-.938-.038-.636.011-.938.01c-.329,0-.642.051-.934.05l-.935,0c-.414,0-.736-.009-.93-.006-.335.005-.657-.078-.966-.072-.334.006-.654.028-.962.035-.334.007-.653.029-.96.036-.334.009-.655-.012-.961,0-.335.009-.654.007-.962.016-.331.01-.646.085-.955.094-.327.009-.644.056-.956.063s-.638.006-.955.011-.591-.06-.914-.06a2.713,2.713,0,0,1-.174-1.094c-.044-.556-.4-.679-.014-1.087s.524-.033,1.079,0S1285.4,183.864,1285.951,183.862Z"/>
      <path id="パス_20" data-name="パス 20" d="M1285.951,183.862c.471,0,.47-.118.941-.131s.474.088.946.075.471.007.94-.005.47-.133.942-.146.475.082.949.069.474,0,.949-.012.473-.048.947-.061.463.024.924.012.459-.05.919-.063.46-.009.92-.022.462-.017.924-.03.461.009.922,0l.921-.025c.46-.013.459-.058.919-.071s.461-.039.923-.051.464.006.927-.006.466.059.93.046.541-.345.9-.048c.317.263.049.377.064.788s.041.412.055.824a2.241,2.241,0,0,1,0,.825c-.209,0-.527-.03-.928-.03-.275,0-.588.015-.929.015-.292,0-.6.062-.931.061-.3,0-.614-.056-.934-.057s-.619-.048-.934-.049-.625.084-.936.083-.63-.037-.938-.038-.636.011-.938.01c-.329,0-.642.051-.934.05l-.935,0c-.414,0-.736-.009-.93-.006-.335.005-.657-.078-.966-.072-.334.006-.654.028-.962.035-.334.007-.653.029-.96.036-.334.009-.655-.012-.961,0-.335.009-.654.007-.962.016-.331.01-.646.085-.955.094-.327.009-.644.056-.956.063s-.638.006-.955.011-.591-.06-.914-.06a2.713,2.713,0,0,1-.174-1.094c-.044-.556-.4-.679-.014-1.087s.524-.033,1.079,0S1285.4,183.864,1285.951,183.862Z" fill="none" stroke="#000" stroke-linecap="round" stroke-linejoin="round" stroke-width="1.068"/>
    </g>
    <g id="グループ_20" data-name="グループ 20">
      <path id="パス_21" data-name="パス 21" d="M1291.391,172.232c0-.444.018-.444.006-.887s-.1-.44-.108-.882.106-.446.094-.888-.078-.442-.09-.885-.069-.442-.081-.885.027-.443.015-.886.067-.444.055-.886-.088-.442-.1-.886.088-.448.076-.892-.145-.443-.157-.889,0-.445-.018-.891.06-.444.032-.884-.032-.439-.061-.878-.1-.434-.124-.872.072-.447.043-.888-.144-.434-.173-.875-.018-.443-.047-.886-.34-.583-.041-.91.475.017.924,0,.451.011.9-.006.453.017.9,0,.453-.183.885-.052c.005.306.059.558.06.86s.025.608.023.909-.018.606-.022.906-.07.6-.074.9.065.608.062.908-.067.6-.067.9-.033.6-.028.9.074.608.079.908.049.607.054.907-.079.61-.073.908.036.608.043.906.033.608.039.906.037.609.044.907-.1.615-.092.915.086.609.093.907.047.609.054.906-.074.61-.067.906.086.608.092.9-.053.611-.047.907.016.61.022.9.012.61.016.9.107.608.11.9-.034.66-.034.952c-.371.164-.424.023-.829.056s-.405.026-.811.059-.415-.074-.821-.041-.6.494-.863.184c-.325-.381.1-.549.11-1.05s-.048-.5-.042-1.007-.045-.505-.039-1.01.069-.505.073-1.011S1291.394,172.738,1291.391,172.232Z"/>
      <path id="パス_22" data-name="パス 22" d="M1291.391,172.232c0-.444.018-.444.006-.887s-.1-.44-.108-.882.106-.446.094-.888-.078-.442-.09-.885-.069-.442-.081-.885.027-.443.015-.886.067-.444.055-.886-.088-.442-.1-.886.088-.448.076-.892-.145-.443-.157-.889,0-.445-.018-.891.06-.444.032-.884-.032-.439-.061-.878-.1-.434-.124-.872.072-.447.043-.888-.144-.434-.173-.875-.018-.443-.047-.886-.34-.583-.041-.91.475.017.924,0,.451.011.9-.006.453.017.9,0,.453-.183.885-.052c.005.306.059.558.06.86s.025.608.023.909-.018.606-.022.906-.07.6-.074.9.065.608.062.908-.067.6-.067.9-.033.6-.028.9.074.608.079.908.049.607.054.907-.079.61-.073.908.036.608.043.906.033.608.039.906.037.609.044.907-.1.615-.092.915.086.609.093.907.047.609.054.906-.074.61-.067.906.086.608.092.9-.053.611-.047.907.016.61.022.9.012.61.016.9.107.608.11.9-.034.66-.034.952c-.371.164-.424.023-.829.056s-.405.026-.811.059-.415-.074-.821-.041-.6.494-.863.184c-.325-.381.1-.549.11-1.05s-.048-.5-.042-1.007-.045-.505-.039-1.01.069-.505.073-1.011S1291.394,172.738,1291.391,172.232Z" fill="none" stroke="#000" stroke-linecap="round" stroke-linejoin="round" stroke-width="1.068"/>
    </g>
    <g id="グループ_21" data-name="グループ 21">
      <path id="パス_23" data-name="パス 23" d="M1292.506,196.316c-.008-.455-.035-.453-.054-.908s0-.457-.023-.914.032-.458.013-.914-.07-.453-.089-.909-.009-.458-.028-.916-.031-.456-.05-.912.031-.459.012-.915-.006-.456-.025-.912-.013-.458-.033-.916-.038-.457-.057-.916,0-.461-.021-.92-.438-.644-.093-.949c.411-.365.576.018,1.126.008s.571-.17,1.1-.028c.005.314-.025.64-.02.955s.058.629.063.943-.017.632-.012.946-.031.633-.026.947.027.633.032.947.037.633.041.946.011.634.015.947-.034.634-.03.946.065.633.068.944.006.633.009.942.011.632.014.94.029.634.031.941-.051.636-.049.942c0,.323-.016.637-.015.94,0,.326,0,.641,0,.941,0,.329.034.642.035.937,0,.334.012.655.013.941-.465.15-.492-.032-.98-.019s-.586.361-.959.047c-.323-.271-.067-.4-.063-.824s.043-.42.046-.84-.037-.423-.033-.846.082-.422.085-.845-.013-.424-.019-.849S1292.513,196.741,1292.506,196.316Z"/>
      <path id="パス_24" data-name="パス 24" d="M1292.506,196.316c-.008-.455-.035-.453-.054-.908s0-.457-.023-.914.032-.458.013-.914-.07-.453-.089-.909-.009-.458-.028-.916-.031-.456-.05-.912.031-.459.012-.915-.006-.456-.025-.912-.013-.458-.033-.916-.038-.457-.057-.916,0-.461-.021-.92-.438-.644-.093-.949c.411-.365.576.018,1.126.008s.571-.17,1.1-.028c.005.314-.025.64-.02.955s.058.629.063.943-.017.632-.012.946-.031.633-.026.947.027.633.032.947.037.633.041.946.011.634.015.947-.034.634-.03.946.065.633.068.944.006.633.009.942.011.632.014.94.029.634.031.941-.051.636-.049.942c0,.323-.016.637-.015.94,0,.326,0,.641,0,.941,0,.329.034.642.035.937,0,.334.012.655.013.941-.465.15-.492-.032-.98-.019s-.586.361-.959.047c-.323-.271-.067-.4-.063-.824s.043-.42.046-.84-.037-.423-.033-.846.082-.422.085-.845-.013-.424-.019-.849S1292.513,196.741,1292.506,196.316Z" fill="none" stroke="#000" stroke-linecap="round" stroke-linejoin="round" stroke-width="1.068"/>
    </g>
    <g id="グループ_22" data-name="グループ 22">
      <path id="パス_25" data-name="パス 25" d="M1293.7,214.954c.462-.013.46-.038.921-.066s.463.025.923,0,.459-.048.918-.076.461,0,.92-.028.458-.09.919-.118.466.033.928,0,.461-.064.925-.093.578-.365.925-.057-.02.448-.012.9.211.479.074.906c-.308.006-.636,0-.932.006s-.608-.023-.9-.017-.608.06-.9.065-.61-.035-.905-.029-.608.088-.9.093c-.309.006-.611-.07-.905-.065s-.608.063-.9.068c-.31.005-.611-.029-.9-.025-.31,0-.611,0-.9.005-.309,0-.609.069-.9.072-.31,0-.611-.058-.9-.056-.309,0-.608.051-.9.052-.308,0-.614,0-.9,0-.146-.359,0-.39-.014-.777s-.334-.537-.048-.8c.321-.292.455.008.889.012s.435-.006.871,0,.436.072.872.076.438-.061.876-.058S1293.26,214.966,1293.7,214.954Z"/>
      <path id="パス_26" data-name="パス 26" d="M1293.7,214.954c.462-.013.46-.038.921-.066s.463.025.923,0,.459-.048.918-.076.461,0,.92-.028.458-.09.919-.118.466.033.928,0,.461-.064.925-.093.578-.365.925-.057-.02.448-.012.9.211.479.074.906c-.308.006-.636,0-.932.006s-.608-.023-.9-.017-.608.06-.9.065-.61-.035-.905-.029-.608.088-.9.093c-.309.006-.611-.07-.905-.065s-.608.063-.9.068c-.31.005-.611-.029-.9-.025-.31,0-.611,0-.9.005-.309,0-.609.069-.9.072-.31,0-.611-.058-.9-.056-.309,0-.608.051-.9.052-.308,0-.614,0-.9,0-.146-.359,0-.39-.014-.777s-.334-.537-.048-.8c.321-.292.455.008.889.012s.435-.006.871,0,.436.072.872.076.438-.061.876-.058S1293.26,214.966,1293.7,214.954Z" fill="none" stroke="#000" stroke-linecap="round" stroke-linejoin="round" stroke-width="0.703"/>
    </g>
    <g id="グループ_23" data-name="グループ 23">
      <path id="パス_27" data-name="パス 27" d="M1302.774,187.6c0,.454.048.453.061.907s.02.454.033.908-.085.458-.071.912.005.454.018.907.031.452.044.9-.006.454.007.907.131.452.145.907-.052.457-.038.911.086.452.1.906-.1.46-.083.915.015.455.029.91.086.453.1.908-.046.455-.032.909.041.456.054.912-.038.459-.025.916.078.456.091.914.36.612.018.918c-.409.366-.551-.039-1.1-.018s-.563.238-1.1.113c-.005-.3.053-.614.048-.919s-.076-.6-.081-.9-.031-.6-.035-.906.044-.6.041-.906-.021-.6-.025-.906.039-.607.036-.91-.115-.607-.118-.91.108-.61.1-.913-.124-.609-.127-.912.015-.611.012-.913.048-.612.045-.913.027-.611.024-.911-.052-.611-.054-.91,0-.61,0-.907.013-.612.011-.908c0-.311-.085-.614-.087-.908,0-.313.056-.616.054-.907,0-.316-.007-.618-.009-.906,0-.321.011-.623.01-.9,0-.33,0-.606,0-.876a2.5,2.5,0,0,1,.962-.158c.487-.045.651-.417,1.02-.1.35.3-.085.511-.092.975s.077.467.069.933S1302.771,187.135,1302.774,187.6Z"/>
      <path id="パス_28" data-name="パス 28" d="M1302.774,187.6c0,.454.048.453.061.907s.02.454.033.908-.085.458-.071.912.005.454.018.907.031.452.044.9-.006.454.007.907.131.452.145.907-.052.457-.038.911.086.452.1.906-.1.46-.083.915.015.455.029.91.086.453.1.908-.046.455-.032.909.041.456.054.912-.038.459-.025.916.078.456.091.914.36.612.018.918c-.409.366-.551-.039-1.1-.018s-.563.238-1.1.113c-.005-.3.053-.614.048-.919s-.076-.6-.081-.9-.031-.6-.035-.906.044-.6.041-.906-.021-.6-.025-.906.039-.607.036-.91-.115-.607-.118-.91.108-.61.1-.913-.124-.609-.127-.912.015-.611.012-.913.048-.612.045-.913.027-.611.024-.911-.052-.611-.054-.91,0-.61,0-.907.013-.612.011-.908c0-.311-.085-.614-.087-.908,0-.313.056-.616.054-.907,0-.316-.007-.618-.009-.906,0-.321.011-.623.01-.9,0-.33,0-.606,0-.876a2.5,2.5,0,0,1,.962-.158c.487-.045.651-.417,1.02-.1.35.3-.085.511-.092.975s.077.467.069.933S1302.771,187.135,1302.774,187.6Z" fill="none" stroke="#000" stroke-linecap="round" stroke-linejoin="round" stroke-width="1.068"/>
    </g>
    <g id="グループ_24" data-name="グループ 24">
      <path id="パス_29" data-name="パス 29" d="M1299.321,223.392c-.454.007-.452.03-.906.051s-.455-.035-.907-.014-.45.079-.9.1-.454.011-.909.032-.455-.026-.908-.005-.452.047-.9.068-.453.023-.905.043-.455,0-.91.024-.457-.02-.912,0-.457.024-.914.045-.574.389-.914.083-.057-.448-.075-.9a1.722,1.722,0,0,1,.041-.886c.323-.006.605-.051.916-.056s.64.058.95.052.64-.08.95-.086.642.045.952.04.642-.035.951-.04c.325-.006.641-.027.95-.032.325-.005.642.042.95.038.326,0,.642-.036.95-.041.326,0,.643,0,.951-.009.325,0,.641.017.948.014.326,0,.641-.036.949-.038.324,0,.639,0,.945,0,.324,0,.653-.026.959-.027.174.348.042.393.081.779s.354.517.085.8-.429.005-.834,0-.406-.049-.813-.051S1299.728,223.385,1299.321,223.392Z"/>
      <path id="パス_30" data-name="パス 30" d="M1299.321,223.392c-.454.007-.452.03-.906.051s-.455-.035-.907-.014-.45.079-.9.1-.454.011-.909.032-.455-.026-.908-.005-.452.047-.9.068-.453.023-.905.043-.455,0-.91.024-.457-.02-.912,0-.457.024-.914.045-.574.389-.914.083-.057-.448-.075-.9a1.722,1.722,0,0,1,.041-.886c.323-.006.605-.051.916-.056s.64.058.95.052.64-.08.95-.086.642.045.952.04.642-.035.951-.04c.325-.006.641-.027.95-.032.325-.005.642.042.95.038.326,0,.642-.036.95-.041.326,0,.643,0,.951-.009.325,0,.641.017.948.014.326,0,.641-.036.949-.038.324,0,.639,0,.945,0,.324,0,.653-.026.959-.027.174.348.042.393.081.779s.354.517.085.8-.429.005-.834,0-.406-.049-.813-.051S1299.728,223.385,1299.321,223.392Z" fill="none" stroke="#000" stroke-linecap="round" stroke-linejoin="round" stroke-width="0.703"/>
    </g>
    <g id="グループ_25" data-name="グループ 25">
      <path id="パス_31" data-name="パス 31" d="M1285.74,188.328c.008.468.028.468.045.935s.059.465.076.931-.081.469-.063.935,0,.467.017.933.13.464.148.933-.095.471-.077.939.064.465.082.933.015.469.033.938.1.465.115.933,0,.469.022.938-.091.471-.074.938.089.467.107.936.046.469.064.939.007.471.025.943.269.551.036.961c-.191.337-.371.181-.733.317s-.37.12-.734.257-.354.216-.742.2c-.006-.306-.044-.575-.049-.873s-.011-.607-.017-.9-.008-.608-.014-.9-.019-.608-.024-.906.011-.611.005-.909-.034-.609-.039-.907.024-.61.019-.907,0-.608-.008-.9.026-.608.021-.9-.028-.607-.033-.9-.054-.608-.059-.9-.027-.608-.032-.9.012-.611.008-.908.02-.608.016-.9.034-.607.03-.9-.052-.607-.056-.9-.071-.608-.075-.9.076-.606.073-.9-.092-.6-.095-.9-.01-.6-.013-.9.071-.558.069-.854c.466-.143.474.017.962.016s.629-.409.965-.055c.353.373.04.5.038,1.017s-.029.515-.031,1.029.048.516.044,1.032S1285.732,187.813,1285.74,188.328Z"/>
      <path id="パス_32" data-name="パス 32" d="M1285.74,188.328c.008.468.028.468.045.935s.059.465.076.931-.081.469-.063.935,0,.467.017.933.13.464.148.933-.095.471-.077.939.064.465.082.933.015.469.033.938.1.465.115.933,0,.469.022.938-.091.471-.074.938.089.467.107.936.046.469.064.939.007.471.025.943.269.551.036.961c-.191.337-.371.181-.733.317s-.37.12-.734.257-.354.216-.742.2c-.006-.306-.044-.575-.049-.873s-.011-.607-.017-.9-.008-.608-.014-.9-.019-.608-.024-.906.011-.611.005-.909-.034-.609-.039-.907.024-.61.019-.907,0-.608-.008-.9.026-.608.021-.9-.028-.607-.033-.9-.054-.608-.059-.9-.027-.608-.032-.9.012-.611.008-.908.02-.608.016-.9.034-.607.03-.9-.052-.607-.056-.9-.071-.608-.075-.9.076-.606.073-.9-.092-.6-.095-.9-.01-.6-.013-.9.071-.558.069-.854c.466-.143.474.017.962.016s.629-.409.965-.055c.353.373.04.5.038,1.017s-.029.515-.031,1.029.048.516.044,1.032S1285.732,187.813,1285.74,188.328Z" fill="none" stroke="#000" stroke-linecap="round" stroke-linejoin="round" stroke-width="1.068"/>
    </g>
    <g id="グループ_26" data-name="グループ 26">
      <path id="パス_33" data-name="パス 33" d="M1289.4,227.345c.268-.464.3-.448.574-.906s.041-.778.56-.913c.476-.124.4.281.807.562s.514.165.814.555c-.17.27-.32.535-.472.776-.169.268-.36.5-.511.739-.17.267-.306.534-.458.773-.167.262-.316.517-.471.759s-.326.5-.486.747c-.183.283-.351.543-.507.781-.19.29-.377.545-.527.768-.413-.154-.337-.288-.685-.558s-.443-.174-.695-.535c.15-.244.268-.472.4-.684q.232-.375.426-.683c.163-.26.3-.487.42-.674.209-.373.215-.37.407-.751S1289.187,227.716,1289.4,227.345Z"/>
      <path id="パス_34" data-name="パス 34" d="M1289.4,227.345c.268-.464.3-.448.574-.906s.041-.778.56-.913c.476-.124.4.281.807.562s.514.165.814.555c-.17.27-.32.535-.472.776-.169.268-.36.5-.511.739-.17.267-.306.534-.458.773-.167.262-.316.517-.471.759s-.326.5-.486.747c-.183.283-.351.543-.507.781-.19.29-.377.545-.527.768-.413-.154-.337-.288-.685-.558s-.443-.174-.695-.535c.15-.244.268-.472.4-.684q.232-.375.426-.683c.163-.26.3-.487.42-.674.209-.373.215-.37.407-.751S1289.187,227.716,1289.4,227.345Z" fill="none" stroke="#000" stroke-linecap="round" stroke-linejoin="round" stroke-width="1.068"/>
    </g>
    <g id="グループ_27" data-name="グループ 27">
      <path id="パス_35" data-name="パス 35" d="M1299.515,217.973c-.016-.518.005-.519-.032-1.035s-.068-.516-.1-1.033-.388-.632-.05-1.026c.293-.342.439,0,.888.037s.484-.081.9.1c.027.335.031.662.056.981.026.336.089.66.113.978q.039.506.074.979c.026.339.033.667.056.981.025.34.06.664.082.975.024.342.034.667.055.974.018.274.034.554.059.826s.032.567.057.824c.029.311.08.577.092.8a3.277,3.277,0,0,1-1.043.038c-.522.016-.528.127-1.038.011-.025-.277-.045-.532-.06-.814s-.022-.572-.031-.845c-.011-.3-.011-.589-.018-.848-.01-.337-.008-.625-.022-.837,0-.518-.035-.518-.03-1.036S1299.531,218.491,1299.515,217.973Z"/>
      <path id="パス_36" data-name="パス 36" d="M1299.515,217.973c-.016-.518.005-.519-.032-1.035s-.068-.516-.1-1.033-.388-.632-.05-1.026c.293-.342.439,0,.888.037s.484-.081.9.1c.027.335.031.662.056.981.026.336.089.66.113.978q.039.506.074.979c.026.339.033.667.056.981.025.34.06.664.082.975.024.342.034.667.055.974.018.274.034.554.059.826s.032.567.057.824c.029.311.08.577.092.8a3.277,3.277,0,0,1-1.043.038c-.522.016-.528.127-1.038.011-.025-.277-.045-.532-.06-.814s-.022-.572-.031-.845c-.011-.3-.011-.589-.018-.848-.01-.337-.008-.625-.022-.837,0-.518-.035-.518-.03-1.036S1299.531,218.491,1299.515,217.973Z" fill="none" stroke="#000" stroke-linecap="round" stroke-linejoin="round" stroke-width="0.703"/>
    </g>
    <g id="グループ_28" data-name="グループ 28">
      <path id="パス_37" data-name="パス 37" d="M1290.961,221.969c.04.414.073.712.09.926.088,1.158-.145-.2-.107.5-.324.307-.45.052-.894.1s-.5-.123-.886.1c-.183.1-.029.627-.047.417a7.171,7.171,0,0,1-.026-.866c0-.434,0-.434,0-.868s-.016-.435-.009-.868c.007-.379.042-.378.06-.756s.046-.377.067-.755c.029-.554,0-.555.035-1.109s.007-.555.046-1.108c.034-.492.083-.488.124-.979s0-.5.038-.988-.345-.784.1-.991.386.3.761.6.426.247.727.622c0,.327,0,.587-.006.867s-.016.543-.015.877c0,.252.013.538.015.881,0,.259.044.551.047.885-.012.417-.047.416-.065.834s-.005.419-.024.838S1290.959,221.55,1290.961,221.969Z"/>
      <path id="パス_38" data-name="パス 38" d="M1290.961,221.969c.04.414.073.712.09.926.088,1.158-.145-.2-.107.5-.324.307-.45.052-.894.1s-.5-.123-.886.1c-.183.1-.029.627-.047.417a7.171,7.171,0,0,1-.026-.866c0-.434,0-.434,0-.868s-.016-.435-.009-.868c.007-.379.042-.378.06-.756s.046-.377.067-.755c.029-.554,0-.555.035-1.109s.007-.555.046-1.108c.034-.492.083-.488.124-.979s0-.5.038-.988-.345-.784.1-.991.386.3.761.6.426.247.727.622c0,.327,0,.587-.006.867s-.016.543-.015.877c0,.252.013.538.015.881,0,.259.044.551.047.885-.012.417-.047.416-.065.834s-.005.419-.024.838S1290.959,221.55,1290.961,221.969Z" fill="none" stroke="#000" stroke-linecap="round" stroke-linejoin="round" stroke-width="0.703"/>
    </g>
    <g id="グループ_29" data-name="グループ 29">
      <path id="パス_39" data-name="パス 39" d="M1299.98,167.263c.157.264.315.545.463.8s.3.531.442.782.331.509.474.759c.155.27.287.539.427.789.153.273.306.53.442.78.151.276.276.547.406.795.149.283.27.555.393.8.146.293.293.548.4.789-.4.26-.449.149-.9.29s-.45.15-.9.292-.488.482-.916.277-.179-.444-.351-.884-.141-.451-.312-.891-.192-.43-.363-.868-.19-.435-.361-.876-.151-.45-.323-.891-.179-.441-.351-.884-.492-.438-.33-.885.436-.2.825-.48S1299.51,167.361,1299.98,167.263Z"/>
      <path id="パス_40" data-name="パス 40" d="M1299.98,167.263c.157.264.315.545.463.8s.3.531.442.782.331.509.474.759c.155.27.287.539.427.789.153.273.306.53.442.78.151.276.276.547.406.795.149.283.27.555.393.8.146.293.293.548.4.789-.4.26-.449.149-.9.29s-.45.15-.9.292-.488.482-.916.277-.179-.444-.351-.884-.141-.451-.312-.891-.192-.43-.363-.868-.19-.435-.361-.876-.151-.45-.323-.891-.179-.441-.351-.884-.492-.438-.33-.885.436-.2.825-.48S1299.51,167.361,1299.98,167.263Z" fill="none" stroke="#000" stroke-linecap="round" stroke-linejoin="round" stroke-width="1.068"/>
    </g>
    <g id="グループ_30" data-name="グループ 30">
      <path id="パス_41" data-name="パス 41" d="M1302.245,225.533c.128.289.257.56.373.824.128.29.245.567.359.83.128.293.261.565.373.828.125.3.206.588.315.85.122.3.266.562.37.823.118.3.223.579.32.842.11.3.205.6.294.864-.323.218-.385.091-.764.182s-.38.094-.76.185-.447.4-.76.164c-.4-.294-.119-.475-.253-.949s-.171-.461-.3-.934-.131-.475-.265-.95-.1-.485-.236-.96-.161-.47-.3-.946-.427-.487-.256-.953c.142-.387.4-.119.751-.336S1301.833,225.561,1302.245,225.533Z"/>
      <path id="パス_42" data-name="パス 42" d="M1302.245,225.533c.128.289.257.56.373.824.128.29.245.567.359.83.128.293.261.565.373.828.125.3.206.588.315.85.122.3.266.562.37.823.118.3.223.579.32.842.11.3.205.6.294.864-.323.218-.385.091-.764.182s-.38.094-.76.185-.447.4-.76.164c-.4-.294-.119-.475-.253-.949s-.171-.461-.3-.934-.131-.475-.265-.95-.1-.485-.236-.96-.161-.47-.3-.946-.427-.487-.256-.953c.142-.387.4-.119.751-.336S1301.833,225.561,1302.245,225.533Z" fill="none" stroke="#000" stroke-linecap="round" stroke-linejoin="round" stroke-width="1.068"/>
    </g>
    <g id="グループ_31" data-name="グループ 31">
      <path id="パス_43" data-name="パス 43" d="M1282.893,224.245c.048-.471.049-.471.1-.942s.083-.465.129-.935-.067-.48-.021-.949.1-.464.145-.934.041-.472.087-.944.028-.472.074-.943.066-.469.112-.939.085-.469.131-.941.024-.474.07-.945.065-.471.112-.943.027-.472.073-.942-.025-.48.021-.952.128-.466.174-.939-.035-.482.012-.957-.19-.589.181-.888.447-.088.932-.042.473.194.96.24.519-.139.985.007c-.022.207-.015.539-.058.935-.029.269-.175.564-.211.9-.03.285.065.606.031.932-.031.293-.068.6-.1.919-.031.3-.109.6-.143.914-.032.3-.06.608-.093.92s-.083.607-.116.918-.036.612-.068.919-.146.605-.179.912-.083.614-.116.921-.058.619-.09.924.026.63-.006.933-.079.619-.111.919c-.034.316-.037.628-.068.925-.034.322-.128.624-.159.917-.035.327-.025.639-.055.922-.036.343-.04.654-.068.92-.044.421-.087.735-.106.913-.031.3-.172.58-.2.863-.031.3-.046.594-.075.877-.031.3.023.6-.005.882-.03.3-.064.594-.091.874-.03.3-.086.592-.112.868-.029.306-.06.551-.084.823a2.342,2.342,0,0,1-.958.029c-.483-.04-.483-.036-.965-.076s-.557.121-.973-.127c.079-.446.148-.759.173-.893.055-.484-.009-.491.041-.975s.057-.485.107-.97.152-.473.2-.956-.054-.5,0-.982.141-.477.191-.963-.021-.5.042-.983S1282.844,224.733,1282.893,224.245Z"/>
      <path id="パス_44" data-name="パス 44" d="M1282.893,224.245c.048-.471.049-.471.1-.942s.083-.465.129-.935-.067-.48-.021-.949.1-.464.145-.934.041-.472.087-.944.028-.472.074-.943.066-.469.112-.939.085-.469.131-.941.024-.474.07-.945.065-.471.112-.943.027-.472.073-.942-.025-.48.021-.952.128-.466.174-.939-.035-.482.012-.957-.19-.589.181-.888.447-.088.932-.042.473.194.96.24.519-.139.985.007c-.022.207-.015.539-.058.935-.029.269-.175.564-.211.9-.03.285.065.606.031.932-.031.293-.068.6-.1.919-.031.3-.109.6-.143.914-.032.3-.06.608-.093.92s-.083.607-.116.918-.036.612-.068.919-.146.605-.179.912-.083.614-.116.921-.058.619-.09.924.026.63-.006.933-.079.619-.111.919c-.034.316-.037.628-.068.925-.034.322-.128.624-.159.917-.035.327-.025.639-.055.922-.036.343-.04.654-.068.92-.044.421-.087.735-.106.913-.031.3-.172.58-.2.863-.031.3-.046.594-.075.877-.031.3.023.6-.005.882-.03.3-.064.594-.091.874-.03.3-.086.592-.112.868-.029.306-.06.551-.084.823a2.342,2.342,0,0,1-.958.029c-.483-.04-.483-.036-.965-.076s-.557.121-.973-.127c.079-.446.148-.759.173-.893.055-.484-.009-.491.041-.975s.057-.485.107-.97.152-.473.2-.956-.054-.5,0-.982.141-.477.191-.963-.021-.5.042-.983S1282.844,224.733,1282.893,224.245Z" fill="none" stroke="#000" stroke-linecap="round" stroke-linejoin="round" stroke-width="1.068"/>
    </g>
    <g id="グループ_32" data-name="グループ 32">
      <path id="パス_45" data-name="パス 45" d="M1291.5,212.121c.23-.312.256-.292.5-.6s.1-.515.476-.6c.357-.078.306.178.623.359s.6-.015.649.348c.061.493-.245.436-.486.87s-.237.439-.479.875-.256.43-.5.867-.235.443-.478.881,0,.763-.489.885c-.511.127-.463-.267-.919-.53s-.788-.022-.891-.538.309-.427.624-.866.305-.445.614-.887C1291.117,212.653,1291.11,212.648,1291.5,212.121Z"/>
      <path id="パス_46" data-name="パス 46" d="M1291.5,212.121c.23-.312.256-.292.5-.6s.1-.515.476-.6c.357-.078.306.178.623.359s.6-.015.649.348c.061.493-.245.436-.486.87s-.237.439-.479.875-.256.43-.5.867-.235.443-.478.881,0,.763-.489.885c-.511.127-.463-.267-.919-.53s-.788-.022-.891-.538.309-.427.624-.866.305-.445.614-.887C1291.117,212.653,1291.11,212.648,1291.5,212.121Z" fill="none" stroke="#000" stroke-linecap="round" stroke-linejoin="round" stroke-width="0.602"/>
    </g>
    <g id="グループ_33" data-name="グループ 33">
      <path id="パス_47" data-name="パス 47" d="M1296.516,219.945l.839-.029c.422-.016.422,0,.844-.014s.42-.069.843-.084.424.009.848-.006.611.313.851-.036c.354-.513.39-.742.025-1.247-.276-.383-.469-.016-.941-.025s-.471-.027-.943-.036-.471,0-.943-.007-.473-.018-.945-.027-.473,0-.945-.009-.473.025-.946.017-.47-.048-.941-.057-.474.03-.947.021-.473-.063-.947-.072-.477.062-.952.053-.621-.4-.973-.079c-.332.3.022.474.014.923s-.318.558-.007.881.413.035.84.022.428-.074.858-.087.43-.011.86-.024.432.009.864,0l.863-.028c.47-.016.47-.015.94-.027S1296.046,219.963,1296.516,219.945Z"/>
      <path id="パス_48" data-name="パス 48" d="M1296.516,219.945l.839-.029c.422-.016.422,0,.844-.014s.42-.069.843-.084.424.009.848-.006.611.313.851-.036c.354-.513.39-.742.025-1.247-.276-.383-.469-.016-.941-.025s-.471-.027-.943-.036-.471,0-.943-.007-.473-.018-.945-.027-.473,0-.945-.009-.473.025-.946.017-.47-.048-.941-.057-.474.03-.947.021-.473-.063-.947-.072-.477.062-.952.053-.621-.4-.973-.079c-.332.3.022.474.014.923s-.318.558-.007.881.413.035.84.022.428-.074.858-.087.43-.011.86-.024.432.009.864,0l.863-.028c.47-.016.47-.015.94-.027S1296.046,219.963,1296.516,219.945Z" fill="none" stroke="#000" stroke-linecap="round" stroke-linejoin="round" stroke-width="0.803"/>
    </g>
    <g id="グループ_34" data-name="グループ 34">
      <path id="パス_49" data-name="パス 49" d="M1283.526,84.117c-.233-.389.114-.444.236-.881s.14-.431.261-.868.113-.438.234-.874.126-.437.248-.875.114-.441.236-.88.114-.442.237-.882-.159-.695.259-.879c.5-.219.526.156,1.049.313s.578.033,1.034.333c-.107.306-.184.553-.283.843-.085.25-.194.515-.3.853-.08.245-.165.527-.27.859-.081.255-.151.546-.253.87-.082.263-.166.553-.264.871-.084.268-.189.552-.285.864-.085.272-.175.547-.271.857-.484.018-.446-.221-.929-.258C1283.946,84.343,1283.775,84.532,1283.526,84.117Z"/>
      <path id="パス_50" data-name="パス 50" d="M1283.526,84.117c-.233-.389.114-.444.236-.881s.14-.431.261-.868.113-.438.234-.874.126-.437.248-.875.114-.441.236-.88.114-.442.237-.882-.159-.695.259-.879c.5-.219.526.156,1.049.313s.578.033,1.034.333c-.107.306-.184.553-.283.843-.085.25-.194.515-.3.853-.08.245-.165.527-.27.859-.081.255-.151.546-.253.87-.082.263-.166.553-.264.871-.084.268-.189.552-.285.864-.085.272-.175.547-.271.857-.484.018-.446-.221-.929-.258C1283.946,84.343,1283.775,84.532,1283.526,84.117Z" fill="none" stroke="#000" stroke-linecap="round" stroke-linejoin="round" stroke-width="1.068"/>
    </g>
    <g id="グループ_35" data-name="グループ 35">
      <path id="パス_51" data-name="パス 51" d="M1288.66,91.012c-.427.011-.427.031-.854.057s-.427.014-.853.04-.423.057-.849.083-.428.013-.856.04-.426.059-.855.085-.431-.005-.861.022-.56.381-.837.052c-.353-.42-.007-.532-.016-1.081s-.207-.573-.059-1.1c.329-.006.667,0,.983-.008s.651-.019.966-.024.651-.034.966-.039.651.031.965.027c.331-.005.652-.046.965-.05.332,0,.655.051.967.048.332,0,.653-.043.963-.045.335,0,.657.005.966,0,.335,0,.656-.034.96-.034.338,0,.646.038.946.04.164.46.014.485.038.972s.4.613.069.974c-.311.342-.462-.034-.925-.038s-.464.015-.928.01-.465-.008-.929-.026S1289.125,91,1288.66,91.012Z"/>
      <path id="パス_52" data-name="パス 52" d="M1288.66,91.012c-.427.011-.427.031-.854.057s-.427.014-.853.04-.423.057-.849.083-.428.013-.856.04-.426.059-.855.085-.431-.005-.861.022-.56.381-.837.052c-.353-.42-.007-.532-.016-1.081s-.207-.573-.059-1.1c.329-.006.667,0,.983-.008s.651-.019.966-.024.651-.034.966-.039.651.031.965.027c.331-.005.652-.046.965-.05.332,0,.655.051.967.048.332,0,.653-.043.963-.045.335,0,.657.005.966,0,.335,0,.656-.034.96-.034.338,0,.646.038.946.04.164.46.014.485.038.972s.4.613.069.974c-.311.342-.462-.034-.925-.038s-.464.015-.928.01-.465-.008-.929-.026S1289.125,91,1288.66,91.012Z" fill="none" stroke="#000" stroke-linecap="round" stroke-linejoin="round" stroke-width="0.247"/>
    </g>
    <g id="グループ_36" data-name="グループ 36">
      <path id="パス_53" data-name="パス 53" d="M1287.448,98.227c0-.477,0-.476-.014-.953s.039-.479.026-.956-.027-.475-.04-.951.006-.478-.007-.956-.026-.479-.039-.958-.031-.479-.044-.959-.011-.48-.032-.96c-.019-.421-.013-.421-.041-.842s-.026-.422-.054-.845-.082-.42-.11-.843.045-.429.017-.854-.367-.534-.087-.855.421.035.833.02.411-.03.824-.045.425-.166.818-.041c.006.294,0,.569,0,.857s-.01.582-.013.868-.036.586-.04.874.016.582.014.866.02.581.024.866c.005.306.044.608.049.9s-.017.609-.011.906,0,.612.005.91-.026.611-.019.907.11.606.117.9-.02.611-.013.906-.018.611-.011.9c.007.31-.016.611-.01.9.006.31.047.611.052.9.005.31-.007.61,0,.9,0,.311.028.588.028.876a3.048,3.048,0,0,1-1.1.146c-.556.045-.655.37-1.112.049-.353-.247-.044-.426-.039-.857s.006-.432.011-.864.047-.432.041-.865S1287.451,98.66,1287.448,98.227Z"/>
      <path id="パス_54" data-name="パス 54" d="M1287.448,98.227c0-.477,0-.476-.014-.953s.039-.479.026-.956-.027-.475-.04-.951.006-.478-.007-.956-.026-.479-.039-.958-.031-.479-.044-.959-.011-.48-.032-.96c-.019-.421-.013-.421-.041-.842s-.026-.422-.054-.845-.082-.42-.11-.843.045-.429.017-.854-.367-.534-.087-.855.421.035.833.02.411-.03.824-.045.425-.166.818-.041c.006.294,0,.569,0,.857s-.01.582-.013.868-.036.586-.04.874.016.582.014.866.02.581.024.866c.005.306.044.608.049.9s-.017.609-.011.906,0,.612.005.91-.026.611-.019.907.11.606.117.9-.02.611-.013.906-.018.611-.011.9c.007.31-.016.611-.01.9.006.31.047.611.052.9.005.31-.007.61,0,.9,0,.311.028.588.028.876a3.048,3.048,0,0,1-1.1.146c-.556.045-.655.37-1.112.049-.353-.247-.044-.426-.039-.857s.006-.432.011-.864.047-.432.041-.865S1287.451,98.66,1287.448,98.227Z" fill="none" stroke="#000" stroke-linecap="round" stroke-linejoin="round" stroke-width="0.247"/>
    </g>
    <g id="グループ_37" data-name="グループ 37">
      <path id="パス_55" data-name="パス 55" d="M1293.794,97.972c-.007-.455.048-.457.029-.912s-.031-.456-.05-.913-.064-.454-.083-.91-.018-.456-.037-.911.038-.46.019-.918-.047-.455-.066-.912-.061-.454-.08-.91,0-.457-.018-.912-.008-.459-.028-.917.02-.46,0-.918-.025-.46-.044-.92-.429-.637-.084-.942c.411-.365.57.006,1.12,0s.57-.163,1.1-.026c.005.305.013.62.018.917s.043.605.048.9,0,.6.009.9-.047.605-.043.9.019.6.023.9.032.605.036.9-.019.606-.015.9.005.609.009.9.039.607.043.9-.013.606-.01.9.009.607.012.9-.031.608-.028.9c0,.308.07.607.072.9,0,.31.01.61.012.9,0,.309-.062.608-.061.9,0,.311.045.617.046.9-.465.149-.492-.04-.98-.026s-.607.394-.976.075c-.326-.282-.033-.434-.028-.865s.056-.431.061-.863.04-.433.036-.866S1293.8,98.4,1293.794,97.972Z"/>
      <path id="パス_56" data-name="パス 56" d="M1293.794,97.972c-.007-.455.048-.457.029-.912s-.031-.456-.05-.913-.064-.454-.083-.91-.018-.456-.037-.911.038-.46.019-.918-.047-.455-.066-.912-.061-.454-.08-.91,0-.457-.018-.912-.008-.459-.028-.917.02-.46,0-.918-.025-.46-.044-.92-.429-.637-.084-.942c.411-.365.57.006,1.12,0s.57-.163,1.1-.026c.005.305.013.62.018.917s.043.605.048.9,0,.6.009.9-.047.605-.043.9.019.6.023.9.032.605.036.9-.019.606-.015.9.005.609.009.9.039.607.043.9-.013.606-.01.9.009.607.012.9-.031.608-.028.9c0,.308.07.607.072.9,0,.31.01.61.012.9,0,.309-.062.608-.061.9,0,.311.045.617.046.9-.465.149-.492-.04-.98-.026s-.607.394-.976.075c-.326-.282-.033-.434-.028-.865s.056-.431.061-.863.04-.433.036-.866S1293.8,98.4,1293.794,97.972Z" fill="none" stroke="#000" stroke-linecap="round" stroke-linejoin="round" stroke-width="0.703"/>
    </g>
    <g id="グループ_38" data-name="グループ 38">
      <path id="パス_57" data-name="パス 57" d="M1301.666,90.466c.007.45.065.448.084.9s-.046.455-.027.906.071.448.09.9.005.451.023.9.033.451.052.9.023.45.042.9.028.45.047.9,0,.45.023.9-.009.454.01.906.03.453.049.906.056.452.075.907.328.58-.011.884c-.408.366-.526.023-1.074.043s-.559.174-1.09.038c-.006-.32-.049-.613-.054-.926s-.012-.636-.017-.948-.024-.635-.029-.946-.012-.636-.016-.947.008-.638,0-.948-.026-.638-.03-.948.044-.639.04-.949.027-.639.023-.949-.082-.637-.085-.945,0-.639,0-.948-.021-.639-.024-.947c0-.324-.014-.639-.017-.945,0-.325,0-.641,0-.947,0-.325.077-.639.076-.943,0-.326-.052-.658-.052-.959.454-.181.5.006.985-.038s.6-.431.977-.124c.336.27-.013.437-.018.868s-.019.432-.024.864.066.435.049.868S1301.659,90.033,1301.666,90.466Z"/>
      <path id="パス_58" data-name="パス 58" d="M1301.666,90.466c.007.45.065.448.084.9s-.046.455-.027.906.071.448.09.9.005.451.023.9.033.451.052.9.023.45.042.9.028.45.047.9,0,.45.023.9-.009.454.01.906.03.453.049.906.056.452.075.907.328.58-.011.884c-.408.366-.526.023-1.074.043s-.559.174-1.09.038c-.006-.32-.049-.613-.054-.926s-.012-.636-.017-.948-.024-.635-.029-.946-.012-.636-.016-.947.008-.638,0-.948-.026-.638-.03-.948.044-.639.04-.949.027-.639.023-.949-.082-.637-.085-.945,0-.639,0-.948-.021-.639-.024-.947c0-.324-.014-.639-.017-.945,0-.325,0-.641,0-.947,0-.325.077-.639.076-.943,0-.326-.052-.658-.052-.959.454-.181.5.006.985-.038s.6-.431.977-.124c.336.27-.013.437-.018.868s-.019.432-.024.864.066.435.049.868S1301.659,90.033,1301.666,90.466Z" fill="none" stroke="#000" stroke-linecap="round" stroke-linejoin="round" stroke-width="0.703"/>
    </g>
    <g id="グループ_39" data-name="グループ 39">
      <path id="パス_59" data-name="パス 59" d="M1294.017,115.439c.008.448.054.446.069.894s-.025.449-.009.9.005.449.021.9.054.446.07.892.036.446.052.892.015.447.031.894,0,.45.013.9-.022.449-.007.9.079.446.1.894-.112.454-.1.9.129.445.145.894-.059.451-.044.9.035.447.05.895-.026.452-.01.9.126.446.142.9,0,.453.014.9.259.548.03.938c-.2.334-.442.041-.8.178l-.727.275c-.364.137-.315.341-.7.322-.005-.311-.066-.6-.072-.911s.061-.62.056-.926-.088-.618-.093-.925.048-.619.043-.925-.027-.619-.032-.925-.057-.617-.062-.923.117-.62.112-.925-.131-.616-.136-.921.112-.619.108-.924-.046-.617-.051-.921-.02-.617-.024-.92.009-.618.005-.922-.065-.618-.07-.921.038-.623.034-.927-.078-.62-.082-.924.1-.62.1-.923-.137-.616-.141-.917.064-.621.061-.922-.026-.62-.029-.921-.005-.621-.008-.92c0-.315.006-.622,0-.92,0-.316.022-.622.019-.917,0-.317-.02-.616-.021-.909.467-.142.486.046.974.045s.587-.351.955-.03c.321.28-.029.4-.03.828s0,.425,0,.851.085.428.084.856-.109.428-.111.856.128.43.13.859S1294.01,115.009,1294.017,115.439Z"/>
      <path id="パス_60" data-name="パス 60" d="M1294.017,115.439c.008.448.054.446.069.894s-.025.449-.009.9.005.449.021.9.054.446.07.892.036.446.052.892.015.447.031.894,0,.45.013.9-.022.449-.007.9.079.446.1.894-.112.454-.1.9.129.445.145.894-.059.451-.044.9.035.447.05.895-.026.452-.01.9.126.446.142.9,0,.453.014.9.259.548.03.938c-.2.334-.442.041-.8.178l-.727.275c-.364.137-.315.341-.7.322-.005-.311-.066-.6-.072-.911s.061-.62.056-.926-.088-.618-.093-.925.048-.619.043-.925-.027-.619-.032-.925-.057-.617-.062-.923.117-.62.112-.925-.131-.616-.136-.921.112-.619.108-.924-.046-.617-.051-.921-.02-.617-.024-.92.009-.618.005-.922-.065-.618-.07-.921.038-.623.034-.927-.078-.62-.082-.924.1-.62.1-.923-.137-.616-.141-.917.064-.621.061-.922-.026-.62-.029-.921-.005-.621-.008-.92c0-.315.006-.622,0-.92,0-.316.022-.622.019-.917,0-.317-.02-.616-.021-.909.467-.142.486.046.974.045s.587-.351.955-.03c.321.28-.029.4-.03.828s0,.425,0,.851.085.428.084.856-.109.428-.111.856.128.43.13.859S1294.01,115.009,1294.017,115.439Z" fill="none" stroke="#000" stroke-linecap="round" stroke-linejoin="round" stroke-width="0.803"/>
    </g>
    <g id="グループ_40" data-name="グループ 40">
      <path id="パス_61" data-name="パス 61" d="M1287.563,82.72a7.527,7.527,0,0,1-.808-.042c-.405-.016-.406.014-.812,0s-.526.242-.8-.059c-.3-.329-.038-.431-.046-.873s-.162-.474-.014-.891c.333-.01.675.008.988,0,.334-.01.656-.018.966-.026.337-.009.659-.041.969-.049.337-.008.658,0,.963-.009.341-.008.661-.006.961-.011.336-.006.647-.007.931-.01.347,0,.638-.025.908-.025.1.428-.007.436-.037.875s.114.476-.045.887c-.286.012-.575,0-.824.007-.294.011-.562.031-.8.039-.307.009-.574,0-.8,0-.427.035-.424.065-.849.115A6.418,6.418,0,0,1,1287.563,82.72Z"/>
      <path id="パス_62" data-name="パス 62" d="M1287.563,82.72a7.527,7.527,0,0,1-.808-.042c-.405-.016-.406.014-.812,0s-.526.242-.8-.059c-.3-.329-.038-.431-.046-.873s-.162-.474-.014-.891c.333-.01.675.008.988,0,.334-.01.656-.018.966-.026.337-.009.659-.041.969-.049.337-.008.658,0,.963-.009.341-.008.661-.006.961-.011.336-.006.647-.007.931-.01.347,0,.638-.025.908-.025.1.428-.007.436-.037.875s.114.476-.045.887c-.286.012-.575,0-.824.007-.294.011-.562.031-.8.039-.307.009-.574,0-.8,0-.427.035-.424.065-.849.115A6.418,6.418,0,0,1,1287.563,82.72Z" fill="none" stroke="#000" stroke-linecap="round" stroke-linejoin="round" stroke-width="1.068"/>
    </g>
    <g id="グループ_41" data-name="グループ 41">
      <path id="パス_63" data-name="パス 63" d="M1285.481,116.655c-.448.011-.447.01-.894,0s-.449,0-.9-.01-.449-.019-.9-.029-.592.322-.912.006-.005-.455-.013-.9-.168-.473-.032-.893c.3-.008.629-.019.922-.026s.6,0,.893-.006l.894-.023c.306-.007.6-.006.9-.013.306-.007.6,0,.892,0,.308-.006.6-.042.894-.048.307-.007.6,0,.89,0,.308-.006.6-.015.888-.019.454-.008.735-.027.96-.03.322,0,.55-.007.977-.01.157.414-.095.446-.142.886s.128.486-.074.88c-.361.012-.655.009-.907.018-.379.013-.657.059-.908.067-.3.009-.564,0-.905.006-.42.023-.418.057-.837.087s-.42.025-.841.052S1285.9,116.645,1285.481,116.655Z"/>
      <path id="パス_64" data-name="パス 64" d="M1285.481,116.655c-.448.011-.447.01-.894,0s-.449,0-.9-.01-.449-.019-.9-.029-.592.322-.912.006-.005-.455-.013-.9-.168-.473-.032-.893c.3-.008.629-.019.922-.026s.6,0,.893-.006l.894-.023c.306-.007.6-.006.9-.013.306-.007.6,0,.892,0,.308-.006.6-.042.894-.048.307-.007.6,0,.89,0,.308-.006.6-.015.888-.019.454-.008.735-.027.96-.03.322,0,.55-.007.977-.01.157.414-.095.446-.142.886s.128.486-.074.88c-.361.012-.655.009-.907.018-.379.013-.657.059-.908.067-.3.009-.564,0-.905.006-.42.023-.418.057-.837.087s-.42.025-.841.052S1285.9,116.645,1285.481,116.655Z" fill="none" stroke="#000" stroke-linecap="round" stroke-linejoin="round" stroke-width="1.068"/>
    </g>
    <g id="グループ_42" data-name="グループ 42">
      <path id="パス_65" data-name="パス 65" d="M1293.557,80.339a7.613,7.613,0,0,1,.256-.77c.112-.389.08-.4.193-.788s-.117-.591.24-.782c.39-.209.433.12.863.218s.5-.06.866.184c-.071.326-.155.639-.222.945-.071.327-.111.648-.177.952-.072.329-.14.644-.207.946-.073.33-.173.637-.24.934-.074.332-.122.65-.189.942-.075.328-.147.63-.212.907-.079.338-.157.631-.222.892-.44,0-.414-.146-.834-.28s-.471-.016-.832-.27c.057-.28.112-.522.163-.766.06-.288.121-.549.172-.786.065-.3.081-.567.131-.785.069-.422.117-.415.164-.841A5.486,5.486,0,0,1,1293.557,80.339Z"/>
      <path id="パス_66" data-name="パス 66" d="M1293.557,80.339a7.613,7.613,0,0,1,.256-.77c.112-.389.08-.4.193-.788s-.117-.591.24-.782c.39-.209.433.12.863.218s.5-.06.866.184c-.071.326-.155.639-.222.945-.071.327-.111.648-.177.952-.072.329-.14.644-.207.946-.073.33-.173.637-.24.934-.074.332-.122.65-.189.942-.075.328-.147.63-.212.907-.079.338-.157.631-.222.892-.44,0-.414-.146-.834-.28s-.471-.016-.832-.27c.057-.28.112-.522.163-.766.06-.288.121-.549.172-.786.065-.3.081-.567.131-.785.069-.422.117-.415.164-.841A5.486,5.486,0,0,1,1293.557,80.339Z" fill="none" stroke="#000" stroke-linecap="round" stroke-linejoin="round" stroke-width="1.068"/>
    </g>
    <g id="グループ_43" data-name="グループ 43">
      <path id="パス_67" data-name="パス 67" d="M1283.541,119.923a5.15,5.15,0,0,1,.515-.683c.262-.343.219-.376.482-.719s.276-.333.539-.676.277-.334.541-.678.134-.882.533-.714c.519.219.163.559.346,1.092a4.115,4.115,0,0,1,.353,1.065c-.165.293-.321.565-.478.842-.167.294-.311.589-.469.866-.167.294-.33.577-.487.852-.169.295-.3.6-.46.87-.17.295-.392.543-.548.813-.171.3-.326.583-.481.849-.1.177-.259.437-.441.74-.138.228-.241.51-.4.769s-.324.485-.472.728c-.161.264-.345.5-.482.723-.2.335-.338.611-.42.746a4.694,4.694,0,0,1-.817-.656c-.408-.329-.481-.252-.8-.667.129-.235.308-.5.5-.835.157-.271.326-.565.5-.862s.317-.6.484-.878c.183-.308.347-.608.5-.867.233-.39.413-.7.505-.859.233-.469.248-.461.471-.935A6.9,6.9,0,0,1,1283.541,119.923Z"/>
      <path id="パス_68" data-name="パス 68" d="M1283.541,119.923a5.15,5.15,0,0,1,.515-.683c.262-.343.219-.376.482-.719s.276-.333.539-.676.277-.334.541-.678.134-.882.533-.714c.519.219.163.559.346,1.092a4.115,4.115,0,0,1,.353,1.065c-.165.293-.321.565-.478.842-.167.294-.311.589-.469.866-.167.294-.33.577-.487.852-.169.295-.3.6-.46.87-.17.295-.392.543-.548.813-.171.3-.326.583-.481.849-.1.177-.259.437-.441.74-.138.228-.241.51-.4.769s-.324.485-.472.728c-.161.264-.345.5-.482.723-.2.335-.338.611-.42.746a4.694,4.694,0,0,1-.817-.656c-.408-.329-.481-.252-.8-.667.129-.235.308-.5.5-.835.157-.271.326-.565.5-.862s.317-.6.484-.878c.183-.308.347-.608.5-.867.233-.39.413-.7.505-.859.233-.469.248-.461.471-.935A6.9,6.9,0,0,1,1283.541,119.923Z" fill="none" stroke="#000" stroke-linecap="round" stroke-linejoin="round" stroke-width="0.823"/>
    </g>
    <g id="グループ_44" data-name="グループ 44">
      <path id="パス_69" data-name="パス 69" d="M1301.093,125.261c.2.229.388.458.57.681s.376.472.55.7c.191.246.382.474.549.7.188.254.324.52.481.742.19.27.358.514.5.725.227.331.451.585.561.724-.336.4-.438.307-.837.652s-.257.686-.784.67c-.45-.014-.284-.317-.548-.682s-.241-.382-.5-.748-.261-.369-.526-.736-.243-.382-.508-.749c-.253-.35-.271-.337-.525-.688s-.245-.358-.5-.709-.3-.318-.548-.676c-.213-.312-.169-.342-.373-.66s-.237-.3-.439-.618c-.3-.469-.29-.473-.585-.943s-.306-.463-.595-.936c-.256-.421-.25-.425-.5-.849s-.253-.424-.5-.849-.583-.376-.468-.857c.084-.348.339-.047.7-.066a1.574,1.574,0,0,1,.71.013c.186.272.391.508.607.789.19.247.389.512.618.806.188.242.4.5.627.8.188.249.373.534.591.835.269.33.276.325.553.649s.3.3.581.628S1300.815,124.937,1301.093,125.261Z"/>
      <path id="パス_70" data-name="パス 70" d="M1301.093,125.261c.2.229.388.458.57.681s.376.472.55.7c.191.246.382.474.549.7.188.254.324.52.481.742.19.27.358.514.5.725.227.331.451.585.561.724-.336.4-.438.307-.837.652s-.257.686-.784.67c-.45-.014-.284-.317-.548-.682s-.241-.382-.5-.748-.261-.369-.526-.736-.243-.382-.508-.749c-.253-.35-.271-.337-.525-.688s-.245-.358-.5-.709-.3-.318-.548-.676c-.213-.312-.169-.342-.373-.66s-.237-.3-.439-.618c-.3-.469-.29-.473-.585-.943s-.306-.463-.595-.936c-.256-.421-.25-.425-.5-.849s-.253-.424-.5-.849-.583-.376-.468-.857c.084-.348.339-.047.7-.066a1.574,1.574,0,0,1,.71.013c.186.272.391.508.607.789.19.247.389.512.618.806.188.242.4.5.627.8.188.249.373.534.591.835.269.33.276.325.553.649s.3.3.581.628S1300.815,124.937,1301.093,125.261Z" fill="none" stroke="#000" stroke-linecap="round" stroke-linejoin="round" stroke-width="1.068"/>
    </g>
    <g id="グループ_45" data-name="グループ 45">
      <path id="パス_71" data-name="パス 71" d="M1294.819,95.7c.326-.037.637-.066.944-.1.326-.036.643-.055.948-.087.33-.035.647-.072.951-.1.332-.034.645-.1.947-.129.335-.031.652-.05.949-.075.341-.029.658-.048.949-.069.35-.025.664-.037.943-.05.118.371,0,.39-.019.779s.266.55-.038.793c-.374.3-.491.015-.97.022s-.477-.006-.954,0-.48.014-.959.021-.48.01-.961.018-.481-.006-.963,0-.5.124-.959-.006C1294.989,96.538,1295.09,96.3,1294.819,95.7Z"/>
      <path id="パス_72" data-name="パス 72" d="M1294.819,95.7c.326-.037.637-.066.944-.1.326-.036.643-.055.948-.087.33-.035.647-.072.951-.1.332-.034.645-.1.947-.129.335-.031.652-.05.949-.075.341-.029.658-.048.949-.069.35-.025.664-.037.943-.05.118.371,0,.39-.019.779s.266.55-.038.793c-.374.3-.491.015-.97.022s-.477-.006-.954,0-.48.014-.959.021-.48.01-.961.018-.481-.006-.963,0-.5.124-.959-.006C1294.989,96.538,1295.09,96.3,1294.819,95.7Z" fill="none" stroke="#000" stroke-linecap="round" stroke-linejoin="round" stroke-width="0.301"/>
    </g>
    <g id="グループ_46" data-name="グループ 46">
      <path id="パス_73" data-name="パス 73" d="M1289.233,91.43c.228.221.442.413.649.6.242.216.463.416.677.59.251.206.487.382.7.547.258.2.485.382.692.552a5,5,0,0,1,.643.6c-.181.334-.279.26-.564.512s-.2.557-.575.494c-.415-.069-.237-.345-.483-.686s-.256-.336-.5-.679-.253-.34-.5-.683-.254-.341-.5-.685a3.072,3.072,0,0,1-.485-.7C1288.867,91.644,1289,91.554,1289.233,91.43Z"/>
      <path id="パス_74" data-name="パス 74" d="M1289.233,91.43c.228.221.442.413.649.6.242.216.463.416.677.59.251.206.487.382.7.547.258.2.485.382.692.552a5,5,0,0,1,.643.6c-.181.334-.279.26-.564.512s-.2.557-.575.494c-.415-.069-.237-.345-.483-.686s-.256-.336-.5-.679-.253-.34-.5-.683-.254-.341-.5-.685a3.072,3.072,0,0,1-.485-.7C1288.867,91.644,1289,91.554,1289.233,91.43Z" fill="none" stroke="#000" stroke-linecap="round" stroke-linejoin="round" stroke-width="0.703"/>
    </g>
    <g id="グループ_47" data-name="グループ 47">
      <path id="パス_75" data-name="パス 75" d="M1289.109,81c.1.327.2.64.289.94.1.331.222.638.311.936.1.335.169.655.251.948.1.345.2.657.275.944.093.361.152.67.206.94-.456.171-.481.062-.967.1s-.589.358-.98.067c-.363-.27-.052-.456-.117-.9s-.084-.447-.149-.9-.062-.45-.127-.9-.044-.455-.109-.906-.3-.471-.14-.9C1288.088,80.748,1288.451,81.022,1289.109,81Z"/>
      <path id="パス_76" data-name="パス 76" d="M1289.109,81c.1.327.2.64.289.94.1.331.222.638.311.936.1.335.169.655.251.948.1.345.2.657.275.944.093.361.152.67.206.94-.456.171-.481.062-.967.1s-.589.358-.98.067c-.363-.27-.052-.456-.117-.9s-.084-.447-.149-.9-.062-.45-.127-.9-.044-.455-.109-.906-.3-.471-.14-.9C1288.088,80.748,1288.451,81.022,1289.109,81Z" fill="none" stroke="#000" stroke-linecap="round" stroke-linejoin="round" stroke-width="1.068"/>
    </g>
    <g id="グループ_48" data-name="グループ 48">
      <path id="パス_77" data-name="パス 77" d="M1298.685,128.777c-.289.141-.581.262-.851.392-.293.141-.569.287-.839.414-.3.14-.581.267-.85.39-.3.138-.571.291-.837.408-.309.136-.609.226-.871.334-.322.132-.614.265-.866.356-.248-.5-.1-.55-.223-1.092s-.46-.565-.239-1.074c.172-.394.4-.118.811-.241l.822-.247c.413-.123.412-.127.825-.251s.412-.127.826-.25.417-.115.832-.24.417-.4.822-.25c.35.133.135.342.335.66S1298.673,128.4,1298.685,128.777Z"/>
      <path id="パス_78" data-name="パス 78" d="M1298.685,128.777c-.289.141-.581.262-.851.392-.293.141-.569.287-.839.414-.3.14-.581.267-.85.39-.3.138-.571.291-.837.408-.309.136-.609.226-.871.334-.322.132-.614.265-.866.356-.248-.5-.1-.55-.223-1.092s-.46-.565-.239-1.074c.172-.394.4-.118.811-.241l.822-.247c.413-.123.412-.127.825-.251s.412-.127.826-.25.417-.115.832-.24.417-.4.822-.25c.35.133.135.342.335.66S1298.673,128.4,1298.685,128.777Z" fill="none" stroke="#000" stroke-linecap="round" stroke-linejoin="round" stroke-width="1.068"/>
    </g>
    <g id="グループ_49" data-name="グループ 49">
      <path id="パス_79" data-name="パス 79" d="M1294.367,80.492c.334-.053.679-.082.994-.13.334-.051.654-.122.967-.168.338-.05.663-.1.975-.143.341-.048.665-.1.975-.137.343-.044.667-.091.972-.126.351-.041.679-.052.978-.08.361-.035.674-.066.96-.083.128.509,0,.522-.011,1.046s.327.668-.021,1.061c-.3.341-.47-.014-.926-.008s-.456.021-.912.028-.455-.022-.91-.015-.457.045-.915.051l-.916.012c-.46.007-.46-.032-.92-.025s-.5.233-.917.032C1294.114,81.5,1294.377,81.174,1294.367,80.492Z"/>
      <path id="パス_80" data-name="パス 80" d="M1294.367,80.492c.334-.053.679-.082.994-.13.334-.051.654-.122.967-.168.338-.05.663-.1.975-.143.341-.048.665-.1.975-.137.343-.044.667-.091.972-.126.351-.041.679-.052.978-.08.361-.035.674-.066.96-.083.128.509,0,.522-.011,1.046s.327.668-.021,1.061c-.3.341-.47-.014-.926-.008s-.456.021-.912.028-.455-.022-.91-.015-.457.045-.915.051l-.916.012c-.46.007-.46-.032-.92-.025s-.5.233-.917.032C1294.114,81.5,1294.377,81.174,1294.367,80.492Z" fill="none" stroke="#000" stroke-linecap="round" stroke-linejoin="round" stroke-width="1.068"/>
    </g>
    <g id="グループ_50" data-name="グループ 50">
      <path id="パス_81" data-name="パス 81" d="M1296.773,85.23c-.3-.368-.005-.465,0-.937s.006-.473.011-.946-.005-.474,0-.948-.324-.623.029-.939c.375-.337.495.017,1,.035s.545-.176,1.011.016c-.037.365-.066.687-.1.965-.042.356-.1.656-.134.949-.04.309-.072.607-.113.946-.033.279-.071.58-.107.943-.376.144-.406-.106-.8-.04C1297.145,85.344,1297.026,85.543,1296.773,85.23Z"/>
      <path id="パス_82" data-name="パス 82" d="M1296.773,85.23c-.3-.368-.005-.465,0-.937s.006-.473.011-.946-.005-.474,0-.948-.324-.623.029-.939c.375-.337.495.017,1,.035s.545-.176,1.011.016c-.037.365-.066.687-.1.965-.042.356-.1.656-.134.949-.04.309-.072.607-.113.946-.033.279-.071.58-.107.943-.376.144-.406-.106-.8-.04C1297.145,85.344,1297.026,85.543,1296.773,85.23Z" fill="none" stroke="#000" stroke-linecap="round" stroke-linejoin="round" stroke-width="1.068"/>
    </g>
    <g id="グループ_51" data-name="グループ 51">
      <path id="パス_83" data-name="パス 83" d="M1299.649,124.188c.04-.435.311-.293.627-.594s.309-.314.627-.617.321-.3.64-.606.327-.3.647-.6.19-.613.631-.63c.389-.016.281.283.55.563s.25.3.52.582.407.192.539.559c-.264.208-.5.378-.721.535-.274.191-.528.343-.766.488-.267.163-.505.331-.761.483s-.5.287-.769.469c-.227.154-.471.333-.734.542-.355-.169-.2-.365-.517-.6C1299.826,124.521,1299.613,124.579,1299.649,124.188Z"/>
      <path id="パス_84" data-name="パス 84" d="M1299.649,124.188c.04-.435.311-.293.627-.594s.309-.314.627-.617.321-.3.64-.606.327-.3.647-.6.19-.613.631-.63c.389-.016.281.283.55.563s.25.3.52.582.407.192.539.559c-.264.208-.5.378-.721.535-.274.191-.528.343-.766.488-.267.163-.505.331-.761.483s-.5.287-.769.469c-.227.154-.471.333-.734.542-.355-.169-.2-.365-.517-.6C1299.826,124.521,1299.613,124.579,1299.649,124.188Z" fill="none" stroke="#000" stroke-linecap="round" stroke-linejoin="round" stroke-width="1.068"/>
    </g>
    <g id="グループ_52" data-name="グループ 52">
      <path id="パス_85" data-name="パス 85" d="M1287.718,117.463c.465-.078.416.227.828.458s.406.242.818.474.417.225.831.458.615.041.827.466c.17.342-.122.364-.238.729s.023.443-.232.728c-.259-.178-.5-.338-.731-.5-.252-.179-.485-.356-.715-.523s-.486-.344-.722-.517-.467-.348-.711-.523-.471-.34-.726-.514C1286.94,117.644,1287.2,117.551,1287.718,117.463Z"/>
      <path id="パス_86" data-name="パス 86" d="M1287.718,117.463c.465-.078.416.227.828.458s.406.242.818.474.417.225.831.458.615.041.827.466c.17.342-.122.364-.238.729s.023.443-.232.728c-.259-.178-.5-.338-.731-.5-.252-.179-.485-.356-.715-.523s-.486-.344-.722-.517-.467-.348-.711-.523-.471-.34-.726-.514C1286.94,117.644,1287.2,117.551,1287.718,117.463Z" fill="none" stroke="#000" stroke-linecap="round" stroke-linejoin="round" stroke-width="1.068"/>
    </g>
    <g id="グループ_53" data-name="グループ 53">
      <path id="パス_87" data-name="パス 87" d="M1286.343,91.4c.044-.129.225-.406.372-.835a.79.79,0,0,1,.835.247c-.076.316-.193.63-.267.926s-.107.605-.2.913c-.083.282-.205.565-.313.881-.094.273-.182.569-.3.883-.1.27-.229.555-.361.866-.106.254-.186.547-.294.852-.1.268-.216.545-.314.842-.091.278-.17.569-.264.862s-.22.56-.314.849-.176.578-.273.863-.188.576-.29.855-.215.543-.327.814c-.526-.073-.483-.205-.971-.414s-.783.092-.976-.4.213-.474.433-.953.238-.473.459-.953.19-.494.414-.973c.2-.439.242-.421.449-.858s.193-.444.4-.881.216-.433.423-.869.213-.436.422-.875.2-.44.414-.879.207-.441.428-.876S1286.141,91.843,1286.343,91.4Z"/>
      <path id="パス_88" data-name="パス 88" d="M1286.343,91.4c.044-.129.225-.406.372-.835a.79.79,0,0,1,.835.247c-.076.316-.193.63-.267.926s-.107.605-.2.913c-.083.282-.205.565-.313.881-.094.273-.182.569-.3.883-.1.27-.229.555-.361.866-.106.254-.186.547-.294.852-.1.268-.216.545-.314.842-.091.278-.17.569-.264.862s-.22.56-.314.849-.176.578-.273.863-.188.576-.29.855-.215.543-.327.814c-.526-.073-.483-.205-.971-.414s-.783.092-.976-.4.213-.474.433-.953.238-.473.459-.953.19-.494.414-.973c.2-.439.242-.421.449-.858s.193-.444.4-.881.216-.433.423-.869.213-.436.422-.875.2-.44.414-.879.207-.441.428-.876S1286.141,91.843,1286.343,91.4Z" fill="none" stroke="#000" stroke-linecap="round" stroke-linejoin="round" stroke-width="0.556"/>
    </g>
    <g id="グループ_54" data-name="グループ 54">
      <path id="パス_89" data-name="パス 89" d="M1285.949,110.386c-.013-.136.017-.372-.022-.823.479-.212.5-.091,1.022-.089a2.762,2.762,0,0,1,1.038.074c0,.273-.053.531-.051.84,0,.277.122.569.125.875,0,.28-.035.572-.031.876,0,.281.057.572.062.874,0,.285-.017.579-.013.881.005.286.028.579.033.881,0,.179-.049.5-.041.919.005.267-.025.577-.019.921.005.285.02.594.026.923.005.293-.005.6,0,.924.005.3.067.606.072.923.006.3-.022.61-.016.925s.08.611.086.923-.059.613-.053.923-.039.617-.033.926.065.618.071.927.064.62.07.927-.006.624,0,.928-.058.625-.053.927c.006.318.119.627.125.926.006.323-.02.634-.014.93.006.327-.067.638-.061.924.006.343.089.651.094.922.008.4-.007.724,0,.931-.521.108-.534-.049-1.066-.044s-.688.434-1.088.085c-.357-.311-.011-.5-.016-.976s0-.472-.007-.943.07-.472.065-.943-.076-.471-.081-.943-.013-.474-.018-.948-.009-.473-.013-.946.1-.474.1-.947-.126-.473-.131-.948.1-.474.091-.948-.1-.473-.107-.948.088-.473.083-.945-.074-.475-.079-.949.055-.477.05-.952-.049-.477-.054-.954,0-.477-.011-.953-.037-.487-.045-.974.087-.489.079-.977-.089-.484-.1-.97-.022-.488-.03-.976-.02-.489-.028-.978.107-.493.091-.983S1285.962,110.876,1285.949,110.386Z"/>
      <path id="パス_90" data-name="パス 90" d="M1285.949,110.386c-.013-.136.017-.372-.022-.823.479-.212.5-.091,1.022-.089a2.762,2.762,0,0,1,1.038.074c0,.273-.053.531-.051.84,0,.277.122.569.125.875,0,.28-.035.572-.031.876,0,.281.057.572.062.874,0,.285-.017.579-.013.881.005.286.028.579.033.881,0,.179-.049.5-.041.919.005.267-.025.577-.019.921.005.285.02.594.026.923.005.293-.005.6,0,.924.005.3.067.606.072.923.006.3-.022.61-.016.925s.08.611.086.923-.059.613-.053.923-.039.617-.033.926.065.618.071.927.064.62.07.927-.006.624,0,.928-.058.625-.053.927c.006.318.119.627.125.926.006.323-.02.634-.014.93.006.327-.067.638-.061.924.006.343.089.651.094.922.008.4-.007.724,0,.931-.521.108-.534-.049-1.066-.044s-.688.434-1.088.085c-.357-.311-.011-.5-.016-.976s0-.472-.007-.943.07-.472.065-.943-.076-.471-.081-.943-.013-.474-.018-.948-.009-.473-.013-.946.1-.474.1-.947-.126-.473-.131-.948.1-.474.091-.948-.1-.473-.107-.948.088-.473.083-.945-.074-.475-.079-.949.055-.477.05-.952-.049-.477-.054-.954,0-.477-.011-.953-.037-.487-.045-.974.087-.489.079-.977-.089-.484-.1-.97-.022-.488-.03-.976-.02-.489-.028-.978.107-.493.091-.983S1285.962,110.876,1285.949,110.386Z" fill="none" stroke="#000" stroke-linecap="round" stroke-linejoin="round" stroke-width="1.068"/>
    </g>
    <g id="グループ_55" data-name="グループ 55">
      <path id="パス_91" data-name="パス 91" d="M1294.548,101.735c-.309-.255.015-.4.011-.8s-.007-.4-.012-.8-.323-.535-.02-.8c.348-.3.456,0,.917.006s.46.018.92.023.459-.016.919-.012.458.031.917.036.461-.007.922,0,.462.011.924.016.463.009.926.013.607-.345.914,0c.344.389-.011.509-.01,1.029s.369.647.031,1.043c-.3.349-.463.028-.922.044s-.459-.007-.918.009-.457.029-.915.045-.458.014-.915.029-.46,0-.92.021l-.921.031a3.075,3.075,0,0,0-.92.054C1295,101.831,1294.9,102.03,1294.548,101.735Z"/>
      <path id="パス_92" data-name="パス 92" d="M1294.548,101.735c-.309-.255.015-.4.011-.8s-.007-.4-.012-.8-.323-.535-.02-.8c.348-.3.456,0,.917.006s.46.018.92.023.459-.016.919-.012.458.031.917.036.461-.007.922,0,.462.011.924.016.463.009.926.013.607-.345.914,0c.344.389-.011.509-.01,1.029s.369.647.031,1.043c-.3.349-.463.028-.922.044s-.459-.007-.918.009-.457.029-.915.045-.458.014-.915.029-.46,0-.92.021l-.921.031a3.075,3.075,0,0,0-.92.054C1295,101.831,1294.9,102.03,1294.548,101.735Z" fill="none" stroke="#000" stroke-linecap="round" stroke-linejoin="round" stroke-width="0.412"/>
    </g>
    <g id="グループ_56" data-name="グループ 56">
      <path id="パス_93" data-name="パス 93" d="M1294.335,89.389c-.309-.255-.018-.406-.022-.807s.028-.4.023-.805-.309-.52-.009-.788c.346-.309.449-.019.913-.027s.463,0,.925-.006.463,0,.925-.006.461-.049.922-.057.465.029.928.021.465-.023.929-.031.466-.036.932-.044.623-.345.916.017c.36.444.02.559.01,1.131s.317.691-.04,1.137c-.286.359-.453.026-.912.042s-.459.01-.917.026-.458.036-.916.052-.458,0-.915.014-.459.026-.919.042-.462-.011-.922,0a3.068,3.068,0,0,0-.924.041C1294.783,89.462,1294.691,89.683,1294.335,89.389Z"/>
      <path id="パス_94" data-name="パス 94" d="M1294.335,89.389c-.309-.255-.018-.406-.022-.807s.028-.4.023-.805-.309-.52-.009-.788c.346-.309.449-.019.913-.027s.463,0,.925-.006.463,0,.925-.006.461-.049.922-.057.465.029.928.021.465-.023.929-.031.466-.036.932-.044.623-.345.916.017c.36.444.02.559.01,1.131s.317.691-.04,1.137c-.286.359-.453.026-.912.042s-.459.01-.917.026-.458.036-.916.052-.458,0-.915.014-.459.026-.919.042-.462-.011-.922,0a3.068,3.068,0,0,0-.924.041C1294.783,89.462,1294.691,89.683,1294.335,89.389Z" fill="none" stroke="#000" stroke-linecap="round" stroke-linejoin="round" stroke-width="0.456"/>
    </g>
    <g id="グループ_57" data-name="グループ 57">
      <path id="パス_95" data-name="パス 95" d="M1292.851,112.72c-.311-.252-.018-.4-.021-.805s.037-.4.034-.805-.343-.55-.038-.812c.356-.306.477-.007.947,0s.469,0,.939,0,.471.047.942.049.47,0,.94.007.471-.007.942,0,.469.008.938.01.471.007.943.009.472-.053.944-.051.474.053.947.055.632-.373.95-.022c.348.386.009.523.008,1.043s.34.663,0,1.053c-.309.352-.483,0-.952.018s-.467.027-.935.041-.471,0-.94.018-.469.005-.938.019-.47.021-.939.036-.468.023-.935.037-.471-.007-.941.007-.47.02-.941.034a3.224,3.224,0,0,0-.947.024C1293.307,112.79,1293.217,113.018,1292.851,112.72Z"/>
      <path id="パス_96" data-name="パス 96" d="M1292.851,112.72c-.311-.252-.018-.4-.021-.805s.037-.4.034-.805-.343-.55-.038-.812c.356-.306.477-.007.947,0s.469,0,.939,0,.471.047.942.049.47,0,.94.007.471-.007.942,0,.469.008.938.01.471.007.943.009.472-.053.944-.051.474.053.947.055.632-.373.95-.022c.348.386.009.523.008,1.043s.34.663,0,1.053c-.309.352-.483,0-.952.018s-.467.027-.935.041-.471,0-.94.018-.469.005-.938.019-.47.021-.939.036-.468.023-.935.037-.471-.007-.941.007-.47.02-.941.034a3.224,3.224,0,0,0-.947.024C1293.307,112.79,1293.217,113.018,1292.851,112.72Z" fill="none" stroke="#000" stroke-linecap="round" stroke-linejoin="round" stroke-width="0.803"/>
    </g>
    <g id="グループ_58" data-name="グループ 58">
      <path id="パス_97" data-name="パス 97" d="M1297.143,93.22c-.386-.037-.384-.05-.768-.1s-.494.168-.76-.114c-.251-.266-.022-.358-.03-.723s-.3-.512-.015-.737c.391-.306.5-.019,1-.036s.5.008,1-.009.5-.045,1-.062.5.007,1-.01.655-.407,1.01-.053c.372.372-.009.535,0,1.061s.421.7.033,1.057-.542-.057-1.079-.1-.538-.042-1.077-.079C1297.8,93.269,1297.8,93.283,1297.143,93.22Z"/>
      <path id="パス_98" data-name="パス 98" d="M1297.143,93.22c-.386-.037-.384-.05-.768-.1s-.494.168-.76-.114c-.251-.266-.022-.358-.03-.723s-.3-.512-.015-.737c.391-.306.5-.019,1-.036s.5.008,1-.009.5-.045,1-.062.5.007,1-.01.655-.407,1.01-.053c.372.372-.009.535,0,1.061s.421.7.033,1.057-.542-.057-1.079-.1-.538-.042-1.077-.079C1297.8,93.269,1297.8,93.283,1297.143,93.22Z" fill="none" stroke="#000" stroke-linecap="round" stroke-linejoin="round" stroke-width="0.201"/>
    </g>
    <g id="グループ_59" data-name="グループ 59">
      <path id="パス_99" data-name="パス 99" d="M1296.364,120.447c-.448-.022-.447-.041-.9-.071s-.449-.023-.9-.053-.556.211-.9-.083c-.276-.239.005-.365-.005-.731s-.3-.48-.026-.722c.327-.289.429,0,.866-.014s.436-.034.872-.046.439,0,.877-.01.436-.039.873-.051.438.017.875,0,.437.008.873,0,.438-.034.876-.045.439-.033.878-.045.441-.005.881-.017.576-.334.866,0c.346.4.047.513.056,1.039s.357.67,0,1.06c-.316.348-.477-.047-.947-.065s-.472.012-.943-.007-.472-.024-.944-.042-.472-.042-.944-.06c-.574-.021-.574,0-1.148-.007S1296.938,120.475,1296.364,120.447Z"/>
      <path id="パス_100" data-name="パス 100" d="M1296.364,120.447c-.448-.022-.447-.041-.9-.071s-.449-.023-.9-.053-.556.211-.9-.083c-.276-.239.005-.365-.005-.731s-.3-.48-.026-.722c.327-.289.429,0,.866-.014s.436-.034.872-.046.439,0,.877-.01.436-.039.873-.051.438.017.875,0,.437.008.873,0,.438-.034.876-.045.439-.033.878-.045.441-.005.881-.017.576-.334.866,0c.346.4.047.513.056,1.039s.357.67,0,1.06c-.316.348-.477-.047-.947-.065s-.472.012-.943-.007-.472-.024-.944-.042-.472-.042-.944-.06c-.574-.021-.574,0-1.148-.007S1296.938,120.475,1296.364,120.447Z" fill="none" stroke="#000" stroke-linecap="round" stroke-linejoin="round" stroke-width="0.703"/>
    </g>
    <g id="グループ_60" data-name="グループ 60">
      <path id="パス_101" data-name="パス 101" d="M1296.231,116.352c-.552-.03-.554,0-1.1-.044s-.742.326-1.1-.093a.841.841,0,0,1-.052-1.259c.253-.371.467-.022.915-.034s.448,0,.9-.012.448.019.9.007.445-.042.892-.054.449,0,.9-.017.45,0,.9-.014.45-.016.9-.028.581-.347.908-.036-.02.456-.012.9.387.617.044.906c-.393.332-.521-.042-1.035-.063s-.516-.031-1.031-.053-.517.017-1.033,0c-.47-.018-.47-.028-.94-.048S1296.7,116.378,1296.231,116.352Z"/>
      <path id="パス_102" data-name="パス 102" d="M1296.231,116.352c-.552-.03-.554,0-1.1-.044s-.742.326-1.1-.093a.841.841,0,0,1-.052-1.259c.253-.371.467-.022.915-.034s.448,0,.9-.012.448.019.9.007.445-.042.892-.054.449,0,.9-.017.45,0,.9-.014.45-.016.9-.028.581-.347.908-.036-.02.456-.012.9.387.617.044.906c-.393.332-.521-.042-1.035-.063s-.516-.031-1.031-.053-.517.017-1.033,0c-.47-.018-.47-.028-.94-.048S1296.7,116.378,1296.231,116.352Z" fill="none" stroke="#000" stroke-linecap="round" stroke-linejoin="round" stroke-width="0.502"/>
    </g>
    <g id="グループ_61" data-name="グループ 61">
      <path id="パス_103" data-name="パス 103" d="M1300.446,114.57c-.018-.219-.024-.514-.049-.859-.019-.261-.079-.548-.1-.857-.022-.276-.049-.568-.075-.868-.025-.284-.043-.59-.072-.882.356-.155.394.021.782.005s.387-.056.776-.072.539-.324.8-.032c.31.354-.028.487-.018.957s.044.47.054.94-.022.473-.013.945.026.471.035.942.03.472.039.943-.017.471-.007.941.031.471.04.944.019.473.029.946-.023.475-.014.949.365.617.019.942c-.379.356-.513.031-1.033.035a2.84,2.84,0,0,1-1.033-.041c.023-.254.048-.492.055-.753.007-.278,0-.549,0-.785,0-.393-.035-.692-.032-.783-.021-.184-.016-.5-.033-.888-.012-.265-.037-.566-.051-.889-.013-.283-.055-.582-.073-.888S1300.469,114.866,1300.446,114.57Z"/>
      <path id="パス_104" data-name="パス 104" d="M1300.446,114.57c-.018-.219-.024-.514-.049-.859-.019-.261-.079-.548-.1-.857-.022-.276-.049-.568-.075-.868-.025-.284-.043-.59-.072-.882.356-.155.394.021.782.005s.387-.056.776-.072.539-.324.8-.032c.31.354-.028.487-.018.957s.044.47.054.94-.022.473-.013.945.026.471.035.942.03.472.039.943-.017.471-.007.941.031.471.04.944.019.473.029.946-.023.475-.014.949.365.617.019.942c-.379.356-.513.031-1.033.035a2.84,2.84,0,0,1-1.033-.041c.023-.254.048-.492.055-.753.007-.278,0-.549,0-.785,0-.393-.035-.692-.032-.783-.021-.184-.016-.5-.033-.888-.012-.265-.037-.566-.051-.889-.013-.283-.055-.582-.073-.888S1300.469,114.866,1300.446,114.57Z" fill="none" stroke="#000" stroke-linecap="round" stroke-linejoin="round" stroke-width="0.703"/>
    </g>
    <g id="グループ_62" data-name="グループ 62">
      <path id="パス_105" data-name="パス 105" d="M1208.457,343.774c-.278-.318-.244-.352-.51-.68s-.253-.335-.518-.661-.073-.481-.337-.806-.523-.116-.787-.441-.057-.494-.321-.82-.362-.248-.627-.575-.358-.253-.624-.581-.158-.418-.424-.747-.166-.409-.432-.737-.474-.158-.74-.486-.066-.49-.332-.818-.227-.362-.495-.691-.5-.137-.769-.466-.079-.481-.346-.81-.239-.353-.507-.683-.336-.273-.6-.6-.195-.388-.462-.717-.341-.268-.607-.6-.262-.335-.529-.666-.278-.323-.546-.654-.227-.365-.5-.7-.266-.336-.54-.664c-.191-.209-.468-.344-.657-.552s-.43-.374-.619-.582-.343-.451-.532-.659-.243-.542-.432-.75-.4-.4-.591-.6-.473-.334-.661-.541-.428-.374-.616-.582-.313-.476-.5-.684-.313-.477-.5-.684-.407-.392-.594-.6-.5-.309-.685-.516-.276-.509-.463-.717-.291-.494-.477-.7-.542-.269-.729-.476-.313-.474-.5-.681-.4-.394-.588-.6-.477-.326-.663-.533-.371-.42-.557-.627-.354-.435-.54-.642-.2-.568-.39-.774-.4-.392-.586-.6-.4-.394-.583-.6-.315-.468-.5-.675-.354-.44-.539-.649-.5-.308-.686-.517-.446-.356-.631-.564-.36-.431-.544-.639-.187-.583-.37-.791-.541-.269-.724-.476-.2-.564-.387-.771-.44-.357-.621-.564-.26-.513-.441-.719-.44-.363-.623-.571-.546-.267-.727-.475-.311-.469-.492-.676-.388-.4-.567-.6-.173-.583-.351-.788-.353-.432-.531-.638-.572-.236-.749-.44-.213-.4-.389-.6a1.627,1.627,0,0,0-.66.433c-.315.265-.238.355-.553.62s-.392.173-.706.438-.279.306-.593.57-.321.255-.634.519-.244.35-.559.616-.354.22-.669.486-.385.186-.7.453-.373.194-.7.449c-.221.136-.324.435-.559.589-.2.135-.449.237-.687.408-.2.142-.485.2-.718.382-.194.151-.426.293-.653.479-.193.159-.342.4-.563.592-.191.164-.317.428-.532.618-.191.168-.363.376-.573.566-.192.172-.464.274-.674.466-.191.175-.351.4-.559.6-.223.208-.362.465-.546.637-.228.213-.64.174-.816.339-.242.227-.281.58-.444.734-.284.268-.481.423-.618.55-.236.218-.477.148-.759.375-.149.121-.221.435-.513.673-.174.142-.4.291-.651.5-.186.154-.394.331-.632.529-.191.159-.511.2-.741.393-.2.165-.276.5-.5.693-.2.169-.575.169-.8.36-.305.285-.226.37-.525.662s-.369.218-.667.509-.225.367-.523.657-.292.3-.59.59-.2.4-.5.688-.478.112-.779.4-.2.394-.506.688-.4.19-.7.483-.244.349-.545.642-.285.309-.585.6-.358.237-.66.531-.239.358-.54.652-.334.26-.636.553-.167.433-.47.728-.317.275-.618.567-.278.319-.58.613-.347.247-.648.54-.282.318-.585.613-.416.179-.72.475-.276.325-.581.621-.271.331-.581.621-.258.334-.568.612-.435.137-.745.415-.175.427-.484.705-.432.139-.741.416-.191.409-.5.685-.4.179-.706.455-.187.415-.5.692-.291.3-.6.576-.34.245-.65.522-.487.078-.8.354-.108.5-.416.775-.45.117-.758.392-.3.282-.609.558-.221.372-.529.648-.4.171-.711.447-.309.279-.618.557-.191.412-.5.691-.3.284-.613.561-.471.1-.781.373-.193.408-.5.686-.423.153-.734.432-.343.243-.653.521-.177.427-.488.706-.271.324-.582.6-.386.192-.7.469-.23.369-.541.648-.406.172-.716.45-.3.3-.607.578-.341.249-.654.529-.173.437-.487.718-.592.03-.626.45.031.409.3.722.452.154.717.467.254.321.518.632.1.448.366.759.391.2.654.512.359.229.622.54.035.5.3.815.465.14.729.452.188.378.453.691.31.276.576.589.258.319.523.631.283.3.548.609.24.334.505.647.353.24.62.554.159.4.424.718.16.4.426.716.42.185.686.5.283.3.549.613.148.414.414.728.328.26.593.573.309.28.576.6.146.418.413.733.363.236.631.552.081.552.432.771c.208-.169.4-.555.612-.743s.389-.374.6-.567c.2-.179.415-.346.626-.542.195-.182.49-.27.7-.467.193-.184.326-.444.533-.642s.407-.361.612-.559.447-.321.652-.519.323-.448.528-.646.54-.225.745-.423.383-.387.588-.584.372-.4.577-.6.306-.47.511-.666.521-.245.727-.44.393-.38.6-.575.3-.484.5-.678.485-.283.691-.476.276-.506.482-.7.4-.377.6-.568.442-.329.649-.52.33-.443.535-.631.5-.258.709-.446.278-.506.485-.694.58-.176.787-.363.257-.535.466-.722.508-.258.717-.445.449-.324.658-.511.327-.464.537-.651.418-.352.626-.537.4-.375.611-.56.432-.343.643-.528.515-.251.727-.437.379-.4.59-.584.254-.551.466-.736.617-.133.829-.317.308-.5.525-.69c.3-.288.351-.233.641-.527s.163-.417.452-.71.317-.265.606-.557.238-.343.527-.635.477-.107.766-.4.177-.4.466-.7.331-.255.622-.55.244-.342.536-.638.219-.365.51-.66.364-.221.654-.516.311-.275.6-.569.344-.245.636-.541.171-.415.463-.71.5-.087.8-.382.193-.4.485-.691.388-.2.679-.493.2-.387.491-.683.323-.265.615-.56.3-.292.592-.588.171-.419.464-.716.352-.241.647-.54.245-.346.54-.644c.188-.187.324-.408.494-.579.188-.189.41-.324.578-.495.186-.19.52-.215.685-.385.186-.193.338-.616.5-.785.353.216.264.381.544.686s.174.4.454.708.32.271.6.577.295.294.576.6.142.429.421.733.5.1.783.4.291.293.569.6.218.359.5.663.2.371.484.675.3.291.576.6.237.344.516.649.325.263.6.568.319.27.6.576.153.419.431.723.337.252.617.558.372.219.651.524.259.327.539.634.342.251.623.558.064.508.346.816.523.094.794.411.2.387.459.714.26.332.524.66.13.438.394.768.33.275.594.6.34.266.6.594.118.447.382.775.333.275.6.6.168.407.432.736.482.155.746.484.269.328.534.658.183.4.448.725.372.244.637.573.184.393.449.722.121.447.387.778.386.234.652.566.162.415.429.747.31.3.586.624.2.383.481.693.5.111.775.419.238.343.516.65.22.36.5.666.36.232.638.539.189.387.468.694.3.286.581.593.381.218.661.527.054.514.335.824.441.163.721.471.165.413.445.721.329.265.609.573.222.364.5.675.449.156.73.466.069.5.349.811.469.141.751.451.165.413.445.721.329.267.61.577.273.317.553.627.165.417.447.728.28.314.563.626.5.112.788.424.261.335.54.652.234.353.505.672.274.316.545.635.173.4.444.72l.541.638c.27.319.4.207.673.526s.293.3.563.62.1.461.375.78.3.3.572.616.207.376.479.7.37.236.642.556.252.336.523.656.4.213.668.533.22.362.491.682.233.352.5.673.166.409.438.73.442.177.714.5.1.462.375.783.266.322.535.641.364.238.634.557.311.283.581.6.1.461.371.78.321.276.591.6.434.183.705.5.29.307.562.629.156.418.428.739.2.379.473.7.379.23.65.55.32.282.593.6.309.291.581.613.257.334.529.655.2.384.474.707.232.356.5.678.212.373.485.7.463.16.735.481.063.5.337.823.3.3.57.628.406.213.68.537.064.533.489.538.247-.167.512-.485.218-.357.483-.675.279-.307.544-.625.426-.185.692-.5.168-.4.435-.723.194-.383.462-.7.285-.3.552-.625.425-.188.691-.507.278-.312.545-.632.217-.364.485-.686.221-.36.488-.681.271-.319.538-.64.107-.456.376-.778.522-.11.79-.432.179-.4.446-.716.206-.373.473-.694.3-.3.57-.618.356-.25.625-.573.091-.473.361-.8.388-.222.566-.605c-.164-.163-.2-.416-.411-.658-.164-.189-.319-.414-.51-.648-.163-.2-.576-.223-.757-.453-.163-.206-.327-.43-.5-.658-.162-.21-.134-.58-.308-.808-.162-.213-.4-.378-.574-.606s-.435-.355-.606-.582-.317-.445-.487-.672-.269-.482-.439-.707-.3-.457-.472-.683-.416-.373-.584-.6-.211-.527-.38-.752-.38-.4-.548-.625-.41-.379-.579-.6-.324-.444-.493-.667-.314-.444-.481-.665-.249-.5-.416-.716-.251-.5-.419-.715-.5-.3-.671-.524-.217-.524-.386-.743-.446-.348-.616-.567-.314-.451-.485-.67-.18-.557-.351-.775-.568-.253-.74-.471-.338-.434-.511-.651-.3-.466-.472-.683-.21-.538-.385-.754-.473-.327-.649-.543-.267-.494-.443-.709-.318-.451-.494-.664l-.528-.637c-.175-.212-.388-.394-.566-.606s-.36-.418-.539-.63-.384-.4-.564-.609-.36-.42-.54-.63-.271-.5-.453-.708-.462-.332-.645-.541-.313-.462-.5-.67-.355-.427-.54-.634-.459-.334-.645-.54-.416-.371-.6-.576-.27-.505-.458-.709-.371-.413-.561-.616-.277-.5-.467-.705-.535-.259-.727-.461-.338-.446-.531-.646-.483-.306-.678-.505-.193-.589-.389-.787-.576-.211-.773-.408-.414-.372-.612-.567-.341-.447-.541-.64-.364-.424-.565-.615-.4-.386-.6-.576-.379-.409-.583-.6S1208.661,343.96,1208.457,343.774Z"/>
    </g>
    <g id="グループ_63" data-name="グループ 63">
      <path id="パス_106" data-name="パス 106" d="M1253.357,111.961c.256-.269.044-.435.034-.806s-.1-.369-.109-.741-.095-.37-.1-.742.04-.375.03-.748-.1-.37-.109-.742.005-.372,0-.744-.037-.371-.047-.743.144-.376.135-.748-.175-.367-.185-.739.017-.374.007-.747.12-.376.11-.749-.085-.371-.095-.743-.015-.372-.025-.744.039-.374.029-.747.1-.376.095-.749-.02-.369-.029-.739-.13-.368-.139-.739-.116-.369-.126-.742.21-.379.2-.752-.19-.368-.2-.74.189-.377.179-.749-.2-.367-.212-.74.147-.378.138-.752-.076-.371-.086-.745-.055-.372-.064-.745.136-.378.126-.753-.085-.371-.095-.745,0-.374-.01-.748.058-.374.048-.747-.095-.373-.1-.748,0-.376-.01-.751-.1-.374-.113-.751-.016-.377-.021-.753-.039-.37-.039-.739-.007-.369-.007-.738.1-.37.1-.74-.021-.369-.021-.739-.066-.369-.066-.738-.012-.369-.012-.738.188-.37.188-.741.016-.371.016-.742-.033-.372-.033-.744.147-.428.031-.782c-.245,0-.6.137-.848.135s-.488-.129-.736-.13-.486.138-.736.138-.485-.21-.736-.209-.484.006-.736.007-.483.141-.735.142-.485-.111-.738-.11-.484.056-.737.056-.486-.1-.741-.1c-.24,0-.487.122-.741.122-.222,0-.466-.016-.731-.016-.228,0-.472-.112-.731-.112-.232,0-.476.139-.73.139-.235,0-.48-.138-.733-.138-.236,0-.481.13-.732.13s-.482.043-.733.043-.483-.1-.732-.1-.484.026-.733.026-.484-.087-.732-.086-.485.206-.732.207-.486-.217-.733-.217-.486.225-.733.226-.481-.037-.726-.037-.483-.1-.727-.1-.484-.06-.729-.059-.484.092-.729.093-.485,0-.73,0-.486-.031-.731-.03-.486.158-.731.159-.486-.111-.73-.11-.486.011-.731.012-.487-.024-.732-.023-.489-.028-.733-.027-.489.135-.734.136-.49.04-.736.041-.491-.187-.737-.186-.49.16-.735.161-.493-.022-.738-.02-.492.028-.737.029-.493-.157-.738-.156-.493.059-.738.06-.493-.085-.737-.084-.492.185-.736.187-.494-.184-.738-.182-.492.108-.735.11-.492,0-.735,0-.492-.079-.734-.077-.49.179-.731.181-.492-.091-.733-.089-.493-.1-.733-.1-.493.147-.734.15-.494-.134-.733-.132-.491.234-.729.236-.495-.235-.732-.232-.457.138-.692.141a1.6,1.6,0,0,0-.114.721c0,.365-.021.365-.021.729s.183.365.183.73-.192.366-.192.732.136.366.136.731,0,.365,0,.731-.032.364-.032.729.1.366.1.733-.037.367-.037.734.03.368.03.736-.43.558-.169.818.443-.171.807-.177.364-.008.729-.014.363-.039.726-.045.364.028.727.022.365.107.728.1.362-.117.725-.123.364.017.727.011.364-.031.728-.036.366.105.73.1.364.022.728.016.364.008.728,0,.363-.047.726-.053.362.033.723.027.359-.153.721-.159.364.077.726.071.364-.027.727-.032.367.092.732.086.362-.11.726-.116.364.054.727.048.365.082.729.076.365-.047.731-.052.363-.068.728-.074.365-.013.729-.019.368.086.734.08.363-.133.728-.139.365,0,.73-.01.365-.014.729-.02.366-.057.732-.063.369.119.736.113.369.041.736.035.367,0,.735,0,.382-.063.764-.058.383-.031.766-.026.381.108.764.113.382-.026.764-.021.384-.165.766-.16.382.092.765.1.386-.083.77-.078.383.177.768.182.386-.051.771-.047c.339,0,.681,0,1,.008.16.335-.025.382,0,.752s.161.363.182.733-.176.382-.155.754.132.365.153.737.116.366.137.737-.043.374-.022.745-.11.378-.089.748.147.364.168.734-.144.381-.123.752.243.358.264.73.011.372.032.744-.128.38-.107.751.026.371.047.742.133.365.154.736-.147.382-.126.753.213.358.234.727,0,.371.024.74.007.372.028.743-.052.377-.031.749-.023.374,0,.745-.035.373-.014.744.05.369.071.741.17.364.192.737.062.369.084.741,0,.374.022.746-.08.379-.058.752.145.365.166.738-.081.378-.06.751-.035.375-.013.746.128.368.15.742.085.37.106.744-.128.384-.107.76-.2.494.081.744.372-.054.751-.075.378-.058.758-.078.389.168.769.148.373-.14.752-.16.378-.074.758-.094.388.127.768.107.374-.14.753-.16.385.09.764.07.381-.028.762-.048.381-.024.763-.044.405-.277.781-.2C1252.981,111.926,1253.093,112.239,1253.357,111.961Z"/>
    </g>
    <g id="グループ_64" data-name="グループ 64">
      <path id="パス_107" data-name="パス 107" d="M1128.41,423.054c-.365,0-.364.132-.729.13s-.364-.113-.729-.115-.365.029-.729.027-.363.113-.725.111-.363.035-.725.032-.363-.1-.726-.1-.365-.091-.729-.094-.367.073-.733.071-.364-.052-.729-.054-.364-.006-.728-.008-.365-.067-.729-.069-.368.191-.735.188-.365-.093-.73-.1-.366.007-.732,0-.367.031-.734.028-.366-.036-.732-.038-.366-.07-.732-.072-.365.036-.731.034-.367-.035-.734-.037-.368.03-.736.027-.37.12-.739.117-.368-.141-.737-.143c-.354,0-.756.09-1.085.083-.142-.336.2-.389.212-.753s-.247-.372-.236-.738.262-.357.273-.722-.137-.368-.127-.732-.043-.366-.033-.73.2-.358.214-.722-.21-.371-.2-.735.016-.365.027-.73.088-.363.1-.728,0-.365.013-.73.042-.363.052-.728-.04-.366-.03-.731.149-.358.159-.72.042-.361.052-.724,0-.364.008-.727-.147-.369-.137-.734.034-.365.044-.731-.04-.366-.03-.73.116-.362.126-.726-.062-.367-.052-.731-.039-.368-.029-.735.027-.365.037-.731.2-.36.21-.726-.016-.367-.005-.734-.133-.37-.123-.736.02-.366.03-.732.058-.364.069-.729.081-.366.091-.733-.179-.373-.169-.741,0-.369.014-.738.367-.442.1-.7-.331-.02-.7,0-.358.119-.721.137-.364.008-.728.026-.374-.155-.739-.137-.356.2-.72.216-.373-.136-.737-.117-.361.12-.727.138-.367-.031-.732-.012-.363.073-.727.091-.366,0-.73.02-.362.105-.728.123-.378-.207-.745-.188-.357.218-.725.237-.433-.27-.683,0,.05.311.06.679-.007.368,0,.736.02.368.03.737-.114.372-.1.74-.072.37-.061.737.236.361.246.729-.014.368,0,.735-.194.374-.184.742.17.363.181.732-.071.371-.061.74-.053.37-.043.738.253.361.264.729-.112.371-.1.739-.057.368-.046.733.178.361.189.727-.083.369-.072.736.06.367.071.735-.087.372-.077.742-.08.37-.069.738.125.365.135.732.056.367.067.735.059.369.07.739-.017.37-.006.739.028.368.039.737-.162.376-.151.746.134.366.145.736.11.366.121.736-.113.372-.1.741.047.369.058.74-.076.374-.065.745.089.37.1.743.044.372.049.744.026.377.026.752-.042.376-.042.752-.005.377-.005.754-.014.376-.014.752.029.376.029.753.075.375.075.75-.013.378-.013.755,0,.378,0,.756-.095.379-.095.758-.233.426-.121.788c.235,0,.566-.039.8-.037s.471-.072.709-.071.468.172.707.172.467-.177.707-.177.466.063.706.062.466-.013.707-.014.466.124.708.123.466-.043.708-.044.466.056.708.055.468-.041.711-.041.469-.16.713-.16c.224,0,.47.119.737.119.231,0,.477-.05.738-.05.234,0,.48-.072.738-.072.237,0,.484.183.739.183.239,0,.485-.136.739-.136s.487.125.739.124.487-.189.738-.19.488.122.739.121.489.088.739.087.488-.164.738-.165.49,0,.739,0,.49.072.74.072.49-.055.739-.056.486.051.733.05.487.033.734.032.489.092.736.091.489-.079.735-.08.491-.023.737-.024.492.1.739.1.491-.106.738-.107.49.019.736.018.491.027.738.026.492.047.739.045.492-.184.739-.185.494-.064.741-.065.5.106.743.1.495.015.743.013.5.005.743,0,.5-.048.744-.049.5-.066.744-.067.5.215.745.213.5-.167.744-.169.5-.073.744-.075.5.017.744.016.5-.008.744-.01.5.052.743.05.5.123.743.122.5-.015.741-.016.495-.16.739-.162.5,0,.74,0,.494-.048.737-.05.5.011.739.009.5.1.743.094.5-.025.737-.027.5-.086.738-.089.5.19.737.187c.253,0,.609-.049.847-.052.134-.352-.189-.426-.164-.8s.246-.363.271-.742-.067-.384-.042-.761.03-.378.055-.755-.133-.39-.108-.769.052-.376.078-.754.239-.364.265-.742-.116-.387-.091-.764-.031-.383-.006-.763.046-.378.071-.758.016-.382.041-.763.287-.389.027-.669-.276.013-.648.021-.375-.148-.746-.14-.369.134-.741.142l-.743.017c-.372.008-.372,0-.744.012s-.369.026-.738.034-.371-.035-.741-.027-.371.055-.742.063-.374-.062-.747-.054-.372-.007-.743,0-.373-.064-.744-.056-.37.044-.742.052-.371.1-.745.1-.371.042-.744.05-.373-.034-.745-.026-.375-.052-.749-.044-.375-.077-.748-.069-.371.094-.744.1-.369.134-.741.142-.378-.155-.752-.147-.371.176-.745.185a5.561,5.561,0,0,1-.763.026C1128.773,423.242,1128.785,423.051,1128.41,423.054Z"/>
    </g>
    <path id="パス_108" data-name="パス 108" d="M1071.425,315.866v5.654c0,3.621-1.3,6.541-5.294,6.541-3.868,0-5.579-2.953-5.579-6.44v-2.034h-5.583v-3.721Zm-7.919,5.535c0,2.046.912,3.014,2.625,3.014s2.34-1.1,2.34-3.114v-1.714h-4.965Z"/>
    <path id="パス_109" data-name="パス 109" d="M1071.425,333.082v5.927c0,3.49-1.212,6.351-5.124,6.351-3.782,0-5.41-2.861-5.41-6.351V336.8h-5.922v-3.72Zm-9.554,5.246,2.381,2.574-9.283,5.252V341.99Zm1.974.378c0,1.957.837,3.008,2.456,3.008s2.17-1.051,2.17-3.008v-1.9h-4.626Z"/>
    <path id="パス_110" data-name="パス 110" d="M1063.268,350.6c5.377,0,8.46,3.036,8.46,7.475s-3.1,7.474-8.46,7.474c-5.377,0-8.6-3.036-8.6-7.474S1057.891,350.6,1063.268,350.6Zm0,11.136c3.3,0,5.248-1.417,5.248-3.661s-1.948-3.662-5.248-3.662-5.39,1.417-5.39,3.662S1059.969,361.74,1063.268,361.74Z"/>
    <path id="パス_111" data-name="パス 111" d="M1057.642,369.608l1.882,2.529a2.683,2.683,0,0,0-1.646,2.293c0,1.33.68,2.049,2.875,2.049h10.672v3.72h-10.981c-3.167,0-5.778-1.643-5.778-5.279A5.575,5.575,0,0,1,1057.642,369.608Z"/>
    <path id="パス_112" data-name="パス 112" d="M1071.425,387.756v10.312h-3.12v-6.591H1065v5.611h-3.121v-5.611h-3.791v6.843h-3.12V387.756Z"/>
    <path id="パス_113" data-name="パス 113" d="M1063.1,404.395c5.46,0,8.626,3.61,8.626,7.768a6.942,6.942,0,0,1-2.136,4.95l-2.386-1.961a4.137,4.137,0,0,0,1.31-2.9c0-2.257-1.99-4.039-5.29-4.039-3.382,0-5.348,1.574-5.348,3.98a4.336,4.336,0,0,0,1.538,3.219l-2.335,1.961a6.774,6.774,0,0,1-2.415-5.314C1054.666,407.88,1057.559,404.395,1063.1,404.395Z"/>
    <path id="パス_114" data-name="パス 114" d="M1068.305,425.684v-4.529h3.12v12.78h-3.12V429.4h-13.336v-3.721Z"/>
    <path id="パス_115" data-name="パス 115" d="M1237.84,378.58c.525-1.85,2.19-.157.892-.983s-1.552-1.712-1.382-1.83,8.819.885-3.328-1.605Z"/>
    <path id="パス_116" data-name="パス 116" d="M1236.937,369.609l.02-.468a.573.573,0,0,1,.816.8.431.431,0,0,1-.528.008.379.379,0,0,0-.52-.4v-.225l.581-.084"/>
    <path id="パス_117" data-name="パス 117" d="M1211.892,158.475a1.192,1.192,0,0,1-.4.185,2.365,2.365,0,0,0-1.1.374,4.942,4.942,0,0,1-1.824.637.561.561,0,0,0-.15.027,21.255,21.255,0,0,1-3.024.726c-.555.156-1.139.2-1.7.342s-1.106.342-1.656.525c-.116.039-.3.065-.246.248.037.136.313.2.443.114.1-.064.168-.18.27-.23a.759.759,0,0,1,.292-.014c-.015.075-.025.152-.047.226s-.061.125-.075.191c-.034.164.138.583.245.572a.38.38,0,0,0,.313-.41c.011-.715.494-.852,1.043-.919.234-.028.473-.012.7-.052.14-.025.265-.136.4-.174a1.272,1.272,0,0,1,.343,0c-.027.093-.047.188-.081.278-.078.209-.178.411-.239.624-.029.1-.023.3.025.316.181.081.221-.113.269-.224.081-.187.127-.39.191-.586.123-.372.3-.435.656-.261s.2-.307.265.058a3.034,3.034,0,0,0,.068.454c.125.363.363.41.652.157a1.716,1.716,0,0,1,.407-.3c.368-.165.514-.061.5.333,0,.1-.035.2-.044.3a.674.674,0,0,0,.4.748.621.621,0,0,0,.838-.286,5.784,5.784,0,0,1,1.513-1.727,1.339,1.339,0,0,0,.346-.439,1.1,1.1,0,0,1,.434-.543.607.607,0,0,0,.209-.376c.092-.517.291-.212.109-.7Z"/>
    <path id="パス_118" data-name="パス 118" d="M1206.832,163.1c0,.338-.394.8-.5.712a.92.92,0,0,1-.292-.566c-.026-.232.094-.517.377-.478C1206.589,162.791,1206.735,163.018,1206.832,163.1Z"/>
  </g>
</svg>
