<svg xmlns="http://www.w3.org/2000/svg" width="352.891" height="37.626" viewBox="0 0 352.891 37.626">
  <g id="グループ_954" data-name="グループ 954" transform="translate(-25.86 -16.602)">
    <path id="パス_800" data-name="パス 800" d="M17.22,9.48a1.15,1.15,0,1,1,1.14-1.14A1.157,1.157,0,0,1,17.22,9.48ZM4.46,8.8a22.269,22.269,0,0,1-2.38-.16v2.82c.52-.04,1.46-.08,2.38-.08h9.32a12.843,12.843,0,0,1-2.36,5.64,13.144,13.144,0,0,1-7.84,4.7L5.76,24.1a15.828,15.828,0,0,0,8.04-5.52,20.189,20.189,0,0,0,3-7.28l.16-.6a1.14,1.14,0,0,0,.26.02,2.39,2.39,0,1,0-2.4-2.38,2.215,2.215,0,0,0,.04.38,8.854,8.854,0,0,1-1.14.08ZM34.9,11.4v8.3H25.24V11.4Zm2.68-.64c0-.6,0-1.34.04-1.94-.72.04-1.48.04-1.98.04h-11c-.54,0-1.3-.02-2.12-.04.04.56.04,1.38.04,1.94v9.78c0,.96-.04,2.7-.06,2.8h2.76l-.02-1.1h9.64l-.02,1.1h2.76c0-.08-.04-2-.04-2.78Zm17-3.12-1.66.7a18.065,18.065,0,0,1,1.76,3.14l1.74-.74A30.1,30.1,0,0,0,54.58,7.64Zm2.76-.96-1.7.7a19.218,19.218,0,0,1,1.88,3.04l1.7-.76A25.72,25.72,0,0,0,57.34,6.68ZM45.9,7.26l-1.44,2.2c1.32.74,3.4,2.08,4.52,2.86l1.48-2.2C49.42,9.4,47.22,7.98,45.9,7.26Zm-3.7,14.2,1.5,2.62a25.153,25.153,0,0,0,6.68-2.46,24.125,24.125,0,0,0,7.94-7.2L56.78,11.7A20.246,20.246,0,0,1,49,19.2,21.448,21.448,0,0,1,42.2,21.46Zm.62-9.64-1.44,2.2c1.34.72,3.42,2.06,4.56,2.86l1.46-2.24C46.38,13.92,44.18,12.54,42.82,11.82Zm28.44,9.22V14.6h3.42c.44,0,1.06.04,1.56.08V12.16a13.614,13.614,0,0,1-1.56.1H65.52a10.479,10.479,0,0,1-1.58-.1v2.52c.44-.04,1.16-.08,1.58-.08h3.12v6.44H64.56a15.448,15.448,0,0,1-1.64-.12v2.62a11.813,11.813,0,0,1,1.64-.1H75.6a10.2,10.2,0,0,1,1.52.1V20.92a14.692,14.692,0,0,1-1.52.12ZM95.94,9.3a6.413,6.413,0,0,1-1.74.24H90.18l.06-.1c.24-.44.74-1.34,1.22-2.04l-2.92-.96a9.622,9.622,0,0,1-.9,2.1,17.61,17.61,0,0,1-6.24,6.44l2.24,1.66a22.8,22.8,0,0,0,5.04-4.84H94.3a14.217,14.217,0,0,1-2.84,5.46A15.939,15.939,0,0,1,83.4,22.2l2.36,2.12a18.842,18.842,0,0,0,8.08-5.64A20.868,20.868,0,0,0,97.32,12a8.008,8.008,0,0,1,.66-1.44Zm21.44,6.34a65.321,65.321,0,0,0-8.36-3.1V9.6a21.752,21.752,0,0,1,.18-2.42h-3.12a13.949,13.949,0,0,1,.2,2.42V21.08a21.4,21.4,0,0,1-.2,2.78h3.12c-.08-.8-.18-2.2-.18-2.78V15.42a57.768,57.768,0,0,1,7.22,2.98Zm8.08,3.76c-.74,0-1.54-.98-1.54-2.98a6.21,6.21,0,0,1,5.02-5.74,31.792,31.792,0,0,1-1.06,4.8C127.08,18.16,126.28,19.4,125.46,19.4Zm5.44,4.42c5-.76,7.56-3.72,7.56-7.88,0-4.32-3.1-7.74-8-7.74-5.14,0-9.12,3.92-9.12,8.48,0,3.34,1.86,5.76,4.04,5.76,2.16,0,3.88-2.44,5.06-6.44a43.043,43.043,0,0,0,1.18-5.38c2.66.46,4.14,2.5,4.14,5.24a5.362,5.362,0,0,1-4.5,5.3c-.52.12-1.08.22-1.84.32Zm26.56-.38c-.04-.6-.08-1.66-.08-2.36V10.72c0-.58.04-1.38.06-1.84-.34.02-1.18.04-1.76.04H145.62c-.7,0-1.74-.04-2.48-.12v2.78c.56-.04,1.64-.08,2.48-.08h8.98v8.28h-9.22c-.9,0-1.8-.06-2.5-.12v2.86c.66-.06,1.8-.12,2.58-.12h9.12c0,.38,0,.72-.02,1.04ZM164.82,7.8l-1.88,2a41.586,41.586,0,0,1,5,4.32l2.04-2.1A42,42,0,0,0,164.82,7.8Zm-2.5,13.32L164,23.76a21.659,21.659,0,0,0,7.42-2.82,21.267,21.267,0,0,0,7.4-7.4l-1.56-2.82a18.964,18.964,0,0,1-7.28,7.78A20.614,20.614,0,0,1,162.32,21.12Zm31.12-2.66a28.122,28.122,0,0,0,4.14-5.82c.18-.36.48-.8.66-1.08l-1.92-1.5a6.526,6.526,0,0,1-1.42.48c-.9.2-3.7.78-6.62,1.32V9.5a16.461,16.461,0,0,1,.18-2.28h-2.98a16.764,16.764,0,0,1,.16,2.28v2.86c-1.98.36-3.74.66-4.68.78l.48,2.62c.84-.2,2.42-.52,4.2-.88v5.46c0,2.36.66,3.46,5.22,3.46a47.012,47.012,0,0,0,6.2-.44l.08-2.7a34.361,34.361,0,0,1-6.32.66c-2.18,0-2.54-.44-2.54-1.68v-5.3c2.84-.56,5.54-1.1,6.16-1.22a17.373,17.373,0,0,1-3.2,4.04Zm23.78-8.98a1.15,1.15,0,1,1,1.14-1.14A1.157,1.157,0,0,1,217.22,9.48ZM204.46,8.8a22.269,22.269,0,0,1-2.38-.16v2.82c.52-.04,1.46-.08,2.38-.08h9.32a12.843,12.843,0,0,1-2.36,5.64,13.144,13.144,0,0,1-7.84,4.7l2.18,2.38a15.828,15.828,0,0,0,8.04-5.52,20.19,20.19,0,0,0,3-7.28l.16-.6a1.141,1.141,0,0,0,.26.02,2.39,2.39,0,1,0-2.4-2.38,2.215,2.215,0,0,0,.04.38,8.854,8.854,0,0,1-1.14.08Zm32.92,6.84a65.322,65.322,0,0,0-8.36-3.1V9.6a21.75,21.75,0,0,1,.18-2.42h-3.12a13.949,13.949,0,0,1,.2,2.42V21.08a21.4,21.4,0,0,1-.2,2.78h3.12c-.08-.8-.18-2.2-.18-2.78V15.42a57.769,57.769,0,0,1,7.22,2.98Z" transform="translate(141.37 21)"/>
    <g id="グループ_795" data-name="グループ 795" transform="translate(-514.936 -1490.209)">
      <g id="グループ_90" data-name="グループ 90" transform="translate(551.999 1517.114)">
        <path id="パス_279" data-name="パス 279" d="M570.116,1534.4l.121.446.084.477.153.463.141.465.056.484.077.478.153.464.135.468.136.469.059.486-.482.179-.508.085-.491.177-.515-.044-.494.136-.506.085-.486.141-.492.123-.5.1-.5.1-.493.113-.511.006-.494.116-.5.03-.5.052-.521.076-.123-.516-.119-.493-.092-.5-.174-.478-.171-.478-.107-.5-.163-.48-.13-.489-.09-.5-.166-.479-.172-.477-.088-.5-.184-.472-.1-.5-.138-.491-.162-.482-.056-.512-.155-.484-.161-.481-.175-.476-.1-.5-.124-.489-.122-.488-.167-.477-.122-.489-.159-.479-.139-.487-.178-.473-.126-.487-.124-.489-.176-.472-.073-.5-.215-.458-.145-.523.532-.088.523-.072.52-.083.511-.124.521-.074.512-.129.515-.124.531-.049.486-.1.173.443.111.493.129.489.061.5.141.485.1.5.122.486.085.5.127.489.2.474.1.5.1.493.1.494.155.484.128.49.124.49.091.5.133.489.125.491.09.5.072.505.157.486.114.5.114.5.51-.086.516,0,.509-.065.5-.157.52.01.514-.043.5-.145Z" transform="translate(-558.541 -1523.131)"/>
      </g>
      <g id="グループ_91" data-name="グループ 91" transform="translate(570.147 1517.558)">
        <path id="パス_280" data-name="パス 280" d="M589.659,1534.4l-.095-.508-.136-.482-.1-.485-.122-.483-.155-.476-.069-.5-.15-.477-.124-.484-.127-.484-.129-.485-.089-.495-.117-.487-.142-.482-.135-.484-.087-.495-.139-.482-.085-.5-.171-.477-.121-.491-.075-.48.463-.131.485-.132.5-.084.485-.14.492-.113.48-.165.5-.064.112.463.052.5.078.493.1.489.1.49.1.489.105.489.087.493.105.489.153.48.068.5.093.491.148.479.061.5.14.482.068.5.153.481.1.492.075.5.133.507-.512.123-.513.087-.5.143-.509.117-.5.153Z" transform="translate(-587.287 -1523.834)"/>
      </g>
      <g id="グループ_92" data-name="グループ 92" transform="translate(597.833 1521.217)">
        <path id="パス_281" data-name="パス 281" d="M633.392,1530.064l.174.538.2.521.187.526.18.53.188.526.206.52.179.527.2.522.182.53.187.531.163.525-.507.185-.516.213-.523.193-.529.184-.518.226-.205-.548-.115-.559-.128-.554-.122-.556-.1-.559-.143-.55-.095-.56-.122-.555-.1-.559-.12-.558-.154-.548-.143-.554-.154-.569.558.142.561.1.566.076Z" transform="translate(-631.141 -1529.63)"/>
      </g>
      <g id="グループ_93" data-name="グループ 93" transform="translate(624.533 1513.975)">
        <path id="パス_282" data-name="パス 282" d="M675.875,1518.159l.323.48.387.405.328.453.367.424.347.442.376.42.336.456-.476.413-.508.376-.479.414-.481.413-.5.38-.345-.438-.319-.478-.258-.516-.263-.511-.326-.478-.287-.506-.337-.472-.327-.458.483-.224.488-.237.495-.225.474-.273Z" transform="translate(-673.434 -1518.159)"/>
      </g>
      <g id="グループ_94" data-name="グループ 94" transform="translate(628.628 1512.821)">
        <path id="パス_283" data-name="パス 283" d="M682.889,1516.331l.364.6.31.612.323.413.282.475.254.5-.634.258-.622.281-.628.272-.623.3-.415-.5-.372-.53-.4-.512-.42-.5-.391-.5.587-.207.578-.279.615-.19.593-.25Z" transform="translate(-679.92 -1516.331)"/>
      </g>
      <g id="グループ_95" data-name="グループ 95" transform="translate(581.255 1520.589)">
        <path id="パス_284" data-name="パス 284" d="M615.808,1538.067l-.156-.621-.108-.621-.139-.616-.1-.625-.506.167-.531.076-.508.167-.51.163-.529.12-.218-.6-.245-.581-.243-.581-.207-.522-.143-.544-.213-.524-.114-.557-.294-.509-.2-.552-.259-.522-.253-.528-.226-.542-.269-.524-.226-.561-.6.079-.589.012-.586.072-.588,0-.59.024-.589.052-.589.07-.6.006.249.575.156.6.229.57.177.6.254.57.141.559.19.541.191.542.192.544.192.543.2.54.191.545.185.546.177.548.188.543.155.558.194.546.225.537.176.536.548-.119.575-.077.564-.129.561-.139.563-.123.568-.115.576-.08.567-.134.573-.1v0l.536-.1.534-.121.544-.076Z" transform="translate(-604.883 -1528.635)"/>
      </g>
      <g id="グループ_97" data-name="グループ 97" transform="translate(606.356 1516.867)">
        <g id="グループ_96" data-name="グループ 96" transform="translate(0)">
          <path id="パス_285" data-name="パス 285" d="M665.913,1532.721c-.172-.2-.191-.181-.355-.383s-.162-.205-.327-.408-.173-.2-.338-.4-.136-.225-.3-.428-.152-.212-.316-.414-.189-.184-.354-.388-.14-.225-.3-.429-.159-.209-.325-.414-.177-.2-.346-.4c-.121-.133-.25-.256-.368-.386s-.214-.287-.331-.417-.26-.245-.377-.375-.251-.254-.367-.383l-.359-.4c-.121-.134-.246-.262-.364-.392s-.222-.282-.339-.412-.211-.291-.327-.421-.254-.251-.37-.38-.282-.225-.4-.354-.188-.31-.3-.439-.285-.227-.4-.357-.227-.275-.34-.4-.206-.294-.319-.422-.255-.251-.366-.379-.215-.273-.325-.4c-.22.081-.155.175-.333.326s-.2.131-.374.282-.168.166-.347.317-.217.105-.4.251c-.115.071-.234.137-.384.247-.1.074-.213.174-.355.293-.1.084-.211.189-.341.307-.1.093-.182.234-.308.351-.2.182-.33.306-.424.395a4.421,4.421,0,0,1-.435.374c-.088.07-.216.184-.437.369-.119.1-.266.217-.444.366-.182.168-.182.167-.36.34s-.174.177-.352.35-.183.166-.36.338-.175.174-.354.347-.169.181-.347.354-.18.172-.358.345-.181.172-.359.346-.211.141-.391.315-.145.21-.327.38c-.2.185-.194.19-.4.371l-.4.364c-.2.181-.2.179-.406.36s-.235.145-.437.326-.216.167-.419.348-.152.238-.355.419-.217.165-.419.347-.215.167-.417.348-.2.181-.407.363-.177.212-.381.394-.225.158-.429.342-.359.1-.39.368c-.028.247.143.188.3.377s.149.2.31.389.168.185.329.375.177.175.337.364.12.225.281.415.16.191.32.38.168.186.329.376.185.172.347.362.159.194.321.386.1.278.31.411c.124-.1.289-.231.43-.361.117-.107.214-.256.352-.389.115-.111.258-.213.395-.345.117-.113.214-.263.349-.393.119-.114.282-.2.417-.323.119-.114.213-.269.347-.394s.251-.23.385-.355.251-.233.385-.356.256-.229.391-.351.253-.234.388-.355.246-.244.381-.365.267-.22.4-.34.272-.217.408-.337.25-.242.388-.36c.183-.178.228-.133.408-.315s.166-.2.347-.378.138-.222.317-.4.229-.134.409-.316.146-.214.326-.4.208-.157.388-.339.172-.192.353-.375.2-.162.385-.345.175-.189.357-.373c.225-.224.371-.417.509-.563.2.076.129.162.27.318s.129.167.271.322c.188.205.24.157.428.363s.149.241.337.446.183.211.372.417.181.213.371.419.248.153.438.361.179.218.362.431c.169.2.117.239.28.44s.222.155.384.356.117.238.279.44l.326.4c.164.2.2.177.359.379s.167.2.331.4.171.2.341.395.148.227.329.427.191.19.372.391.169.211.35.411.153.224.334.424.23.155.41.354.154.225.336.425.186.2.367.4.157.224.34.424.249.142.428.346.153.224.326.429.151.224.324.429.167.21.34.414.188.192.362.4.183.2.357.4.172.207.346.412.186.194.361.4.169.21.343.417.131.242.3.447.2.184.374.389.148.227.322.431.176.205.351.412.171.21.346.416.225.164.4.371.061.456.332.459.181-.223.35-.426.171-.2.339-.4.145-.222.314-.425.2-.179.364-.381.15-.22.319-.422.2-.176.372-.38.127-.24.3-.444a1.559,1.559,0,0,0,.317-.415,3.67,3.67,0,0,1-.33-.356c-.1-.119-.164-.289-.282-.444-.1-.128-.226-.25-.338-.4-.1-.132-.228-.254-.338-.4s-.179-.293-.288-.439-.179-.3-.287-.44-.2-.283-.308-.425-.244-.249-.353-.391-.225-.261-.333-.4-.2-.28-.314-.419-.22-.268-.332-.406-.2-.287-.312-.423-.251-.246-.365-.381-.237-.257-.352-.391-.223-.268-.34-.4-.2-.288-.321-.418-.255-.242-.374-.372-.2-.291-.326-.418-.265-.234-.388-.36-.24-.259-.365-.382-.247-.251-.374-.372S666.043,1532.84,665.913,1532.721Z" transform="translate(-644.642 -1522.739)"/>
        </g>
        <path id="パス_286" data-name="パス 286" d="M689.29,1551.718c.133-.47.556-.04.226-.25s-.394-.435-.351-.465,2.241.225-.845-.408Z" transform="translate(-660.745 -1533.009)"/>
        <path id="パス_287" data-name="パス 287" d="M689.461,1548.674l.005-.119a.145.145,0,0,1,.207.2.108.108,0,0,1-.134,0,.1.1,0,0,0-.132-.1v-.057l.148-.021" transform="translate(-661.146 -1532.244)"/>
      </g>
      <path id="パス_288" data-name="パス 288" d="M594.016,1539.008c-.034.018-.068.049-.1.05a.617.617,0,0,0-.282.1,1.28,1.28,0,0,1-.467.177.173.173,0,0,0-.039.008,5.4,5.4,0,0,1-.776.208c-.142.044-.293.06-.436.1s-.283.1-.424.147c-.03.011-.076.019-.062.066s.083.05.116.027.042-.047.068-.061a.2.2,0,0,1,.075-.006c0,.02-.006.04-.011.059s-.014.033-.018.05c-.008.043.04.15.067.146a.1.1,0,0,0,.078-.108c0-.184.121-.224.263-.244.061-.01.122-.007.182-.019.036-.007.068-.037.1-.047a.318.318,0,0,1,.088,0c-.006.024-.011.049-.019.073-.019.054-.043.107-.057.163-.007.026,0,.076.009.081.047.02.056-.031.068-.06a1.567,1.567,0,0,0,.046-.153c.029-.1.075-.114.168-.072s.049-.081.069.013a.716.716,0,0,0,.021.117c.035.093.1.1.169.036a.46.46,0,0,1,.1-.081c.093-.045.132-.019.131.083,0,.026-.008.052-.009.079a.174.174,0,0,0,.109.19.161.161,0,0,0,.215-.08,1.49,1.49,0,0,1,.379-.456.35.35,0,0,0,.086-.116.289.289,0,0,1,.109-.143.155.155,0,0,0,.051-.1c.02-.134.074-.057.024-.181Z" transform="translate(-18.666 -11.87)"/>
      <path id="パス_289" data-name="パス 289" d="M593.356,1540.9c0,.086-.095.206-.123.184a.238.238,0,0,1-.078-.142c-.008-.059.02-.132.092-.125C593.292,1540.823,593.331,1540.879,593.356,1540.9Z" transform="translate(-19.303 -12.537)"/>
      <g id="グループ_98" data-name="グループ 98" transform="translate(540.796 1506.811)">
        <path id="パス_290" data-name="パス 290" d="M540.865,1514.926c-.162-.175.008-.223.015-.462s-.033-.239-.027-.478.019-.239.025-.479,0-.239.006-.479.042-.238.049-.477-.039-.241-.033-.481.037-.239.043-.478.025-.239.031-.479-.04-.24-.034-.479.005-.24.011-.48.03-.24.036-.48.027-.241.033-.482.015-.241.018-.482-.03-.234-.03-.468-.021-.234-.021-.468.057-.235.057-.47-.118-.251-.045-.474c.155,0,.323-.015.481-.015s.3.021.463.022c.145,0,.3-.013.467-.013.146,0,.3.018.47.018.127,0,.283-.032.463-.032.14,0,.3.008.463.008.145,0,.3.03.461.03s.3.013.463.013.3-.033.463-.033.306.017.463.018.3.015.461.016.307-.008.463-.007.308-.025.463-.025.311.013.466.015.313.026.468.027.311-.037.465-.037.312.029.465.03.314-.025.468-.024.314.007.465.008.316-.015.465-.014.315.037.462.038c.164,0,.346-.007.488-.005.069.244-.034.261-.034.514s0,.254,0,.509.013.255.013.51-.035.256-.035.511.216.339.04.525-.252-.048-.489-.052-.239.038-.477.034l-.475-.007c-.237,0-.237-.046-.475-.05s-.239.052-.477.049-.238-.016-.476-.02l-.475-.006c-.237,0-.237-.008-.475-.012s-.239.016-.478.012-.239-.038-.477-.042-.241.024-.48.02-.239-.035-.479-.036c-.218,0-.218.025-.435.027s-.218.009-.436.012-.219-.038-.438-.035-.218.036-.437.039c-.086,0-.172-.014-.251-.013a1.894,1.894,0,0,0-.007.474c.006.238,0,.238.008.476s.007.237.014.474.042.236.048.473.023.238.029.476.011.237.018.475-.039.238-.032.475.025.236.031.473.03.237.036.475,0,.239.009.477.016.239.022.478.137.3-.031.465-.22-.008-.453-.018-.236.027-.469.016-.233-.062-.468-.072-.236.006-.471,0-.244-.076-.477-.04S541.026,1515.1,540.865,1514.926Z" transform="translate(-540.796 -1506.811)"/>
      </g>
      <g id="グループ_99" data-name="グループ 99" transform="translate(637.948 1536.327)">
        <path id="パス_291" data-name="パス 291" d="M699.1,1558.886c.223,0,.223.016.445.015s.222.009.444.007.222-.048.444-.05.222.027.443.025.223-.016.446-.018.223.035.446.034.224-.015.448-.016.223,0,.448,0c.089,0,.205-.006.288-.008.034-.235-.043-.241-.05-.479s.023-.238.015-.475-.059-.235-.067-.472.03-.239.023-.476-.047-.236-.054-.473.038-.239.03-.475-.041-.235-.049-.472,0-.237-.007-.475-.012-.238-.019-.476.025-.24.018-.479-.205-.314-.043-.489.234-.007.455,0,.218.065.439.074.222-.016.441-.008.221.025.442.035.222.015.443.024.223-.013.445,0,.28-.134.43.03.008.215,0,.443.016.229.01.458-.023.229-.029.459-.029.229-.035.458-.023.229-.03.458.049.232.042.462-.044.229-.05.458-.023.229-.03.458.035.23.029.459-.036.229-.043.46-.018.23-.025.461.015.232.008.463.032.232.028.464-.019.237-.019.475-.011.239-.011.477-.009.24-.009.478.083.252.007.479c-.164,0-.325.015-.493.015s-.316-.044-.489-.044c-.154,0-.317.029-.494.028-.154,0-.318-.024-.5-.024-.127,0-.283.04-.462.04-.14,0-.294-.023-.461-.023-.145,0-.3-.008-.461-.008s-.3.023-.462.023-.3,0-.463,0-.306.008-.463.008-.306-.023-.463-.023-.306-.005-.461-.005-.307-.01-.462-.01-.309-.016-.464-.016-.311.028-.467.028-.31.028-.464.028-.311-.042-.463-.044-.312.034-.465.032-.314,0-.468,0-.312-.038-.463-.039-.315.011-.464.01-.316.018-.462.016c-.163,0-.329-.027-.473-.028-.079-.22.009-.238,0-.472s-.025-.232-.037-.465.013-.235,0-.47,0-.235-.015-.469-.057-.232-.07-.468-.185-.309-.02-.476.245.033.485.038.241,0,.482.009.241.01.481.015.24-.03.481-.025.24,0,.48.007.242-.014.483-.009.24.028.482.033.242.007.484.009S698.855,1558.884,699.1,1558.886Z" transform="translate(-694.683 -1553.563)"/>
      </g>
    </g>
  </g>
</svg>
