<svg xmlns="http://www.w3.org/2000/svg" width="166.446" height="58.289" viewBox="0 0 166.446 58.289">
  <g id="グループ_1044" data-name="グループ 1044" transform="translate(-426.118 -5435.101)">
    <path id="パス_812" data-name="パス 812" d="M5.022-1.6c-.468,0-1.3-.5-1.3-1.044,0-.63.72-1.368,1.818-1.926.036.936.054,1.746.054,2.2C5.6-1.764,5.346-1.6,5.022-1.6ZM7.56-8.01c0-.522,0-1.062.018-1.6a34.426,34.426,0,0,0,3.4-.558L10.926-12.4a24.411,24.411,0,0,1-3.276.666c.018-.45.036-.882.054-1.278.036-.45.108-1.224.144-1.548H5.4A14.15,14.15,0,0,1,5.526-13c0,.306,0,.828-.018,1.458-.36.018-.7.036-1.026.036a19.528,19.528,0,0,1-2.466-.144l.036,2.16c.774.072,1.674.09,2.484.09.288,0,.612-.018.954-.036v1.494c0,.414,0,.828.018,1.242-2.178.954-4,2.556-4,4.122C1.512-.684,3.978.81,5.724.81,6.876.81,7.686.234,7.686-1.98c0-.612-.054-1.98-.09-3.4a12.654,12.654,0,0,1,3.348-.486c1.548,0,2.628.7,2.628,1.908,0,1.3-1.152,2.034-2.592,2.286a13.627,13.627,0,0,1-2.2.126L9.612.738A14.523,14.523,0,0,0,11.952.45c2.826-.7,3.924-2.286,3.924-4.392,0-2.448-2.16-3.906-4.9-3.906a14.508,14.508,0,0,0-3.42.468Zm4.392-2.88A27.078,27.078,0,0,1,16.236-8.3l1.08-1.836a39.377,39.377,0,0,0-4.374-2.5Zm16,4.968a1.331,1.331,0,0,1,1.368-1.4,1.271,1.271,0,0,1,1.17.63c.234,1.548-.432,2.106-1.17,2.106A1.325,1.325,0,0,1,27.954-5.922Zm9.5-6.462c-.936-.018-3.366,0-5.166,0,0-.216.018-.4.018-.54.018-.288.072-1.242.126-1.53H29.844a12.061,12.061,0,0,1,.162,1.548,4.569,4.569,0,0,1,.018.54c-2.394.036-5.634.126-7.668.126l.054,2.16c2.2-.126,4.95-.234,7.65-.27l.018,1.188a4.277,4.277,0,0,0-.7-.054,3.357,3.357,0,0,0-3.564,3.33A3.14,3.14,0,0,0,28.89-2.61a3.849,3.849,0,0,0,.81-.09A8.148,8.148,0,0,1,25.344-.666l1.89,1.908c4.356-1.224,5.724-4.176,5.724-6.5a4.4,4.4,0,0,0-.666-2.466c0-.774,0-1.746-.018-2.646,2.412,0,4.086.036,5.166.09Zm11.2,6.462a1.331,1.331,0,0,1,1.368-1.4,1.271,1.271,0,0,1,1.17.63c.234,1.548-.432,2.106-1.17,2.106A1.325,1.325,0,0,1,48.654-5.922Zm9.5-6.462c-.936-.018-3.366,0-5.166,0,0-.216.018-.4.018-.54.018-.288.072-1.242.126-1.53H50.544a12.061,12.061,0,0,1,.162,1.548,4.569,4.569,0,0,1,.018.54c-2.394.036-5.634.126-7.668.126l.054,2.16c2.2-.126,4.95-.234,7.65-.27l.018,1.188a4.277,4.277,0,0,0-.7-.054,3.357,3.357,0,0,0-3.564,3.33A3.14,3.14,0,0,0,49.59-2.61a3.849,3.849,0,0,0,.81-.09A8.148,8.148,0,0,1,46.044-.666l1.89,1.908c4.356-1.224,5.724-4.176,5.724-6.5a4.4,4.4,0,0,0-.666-2.466c0-.774,0-1.746-.018-2.646,2.412,0,4.086.036,5.166.09Zm8.3,9.81c-.648,0-1.008-.558-1.008-1.422a5.44,5.44,0,0,1,1.3-3.348A19.618,19.618,0,0,0,68.4-3.924,2.914,2.914,0,0,1,66.456-2.574ZM71.334-9.72A21.238,21.238,0,0,1,69.75-5.9,17.861,17.861,0,0,1,68.49-8.73,6.95,6.95,0,0,1,71.334-9.72Zm2.9-2.538c.108-.45.27-1.314.414-1.8l-2.466-.234a9.621,9.621,0,0,1-.126,1.692c-.054.27-.108.558-.18.864a9.293,9.293,0,0,0-4.032,1.062c-.126-.378-.234-.756-.324-1.1-.144-.522-.288-1.116-.4-1.692l-2.34.72a13.113,13.113,0,0,1,.72,1.854c.144.486.306.972.468,1.44a7.819,7.819,0,0,0-2.628,5.634c0,2.3,1.368,3.564,2.844,3.564,1.314,0,2.3-.612,3.51-1.908.18.234.4.468.612.7L72.09-2.88c-.324-.324-.648-.684-.972-1.062a21.7,21.7,0,0,0,2.412-5.67,3.819,3.819,0,0,1,2.88,3.924c0,2.232-1.53,4.23-5.454,4.572L72.324.936c3.726-.558,6.426-2.718,6.426-6.5a5.874,5.874,0,0,0-4.68-6.012Zm12.4-2a11.192,11.192,0,0,1,.234,2.412c0,1.53-.18,6.21-.18,8.6,0,3.042,1.89,4.32,4.806,4.32a9.277,9.277,0,0,0,7.74-4.068l-1.62-2a7.117,7.117,0,0,1-6.1,3.636,2.146,2.146,0,0,1-2.448-2.376c0-2.214.126-6.21.216-8.118a18.293,18.293,0,0,1,.234-2.376Zm26.46,7.434a26.189,26.189,0,0,1,3.438-.2,25.747,25.747,0,0,1,3.06.216l.054-2.142a30.947,30.947,0,0,0-3.132-.162c-1.152,0-2.43.09-3.42.18Zm1.4-5.724c-.972.234-1.98.432-2.988.594l.144-.684c.09-.4.252-1.188.378-1.674l-2.718-.216a9.255,9.255,0,0,1-.072,1.8q-.054.432-.162,1.026c-.54.036-1.062.054-1.584.054a17.549,17.549,0,0,1-2.25-.144l.054,2.232c.63.036,1.3.072,2.16.072.36,0,.756-.018,1.17-.036-.126.5-.252,1.008-.378,1.476a39.3,39.3,0,0,1-3.078,8.028l2.5.828A57.489,57.489,0,0,0,110.5-7.434c.2-.72.378-1.512.54-2.286,1.188-.144,2.394-.342,3.456-.576Zm-2.5,7.9a12.234,12.234,0,0,0-.306,2.376c0,1.8,1.53,2.844,4.536,2.844a28.524,28.524,0,0,0,3.636-.252l.09-2.286a20.665,20.665,0,0,1-3.708.36c-1.908,0-2.358-.576-2.358-1.35a6.167,6.167,0,0,1,.252-1.494Zm16.92-8.172-2.736-.036a10.331,10.331,0,0,1,.126,1.8c0,1.1.036,3.168.2,4.806.5,4.788,2.214,6.552,4.158,6.552,1.44,0,2.556-1.1,3.744-4.194l-1.8-2.16c-.342,1.4-1.044,3.492-1.89,3.492-1.116,0-1.656-1.746-1.908-4.32-.108-1.278-.126-2.628-.108-3.78A14.124,14.124,0,0,1,128.916-12.816Zm8.91.378-2.268.756c1.944,2.2,2.9,6.39,3.168,9.252l2.358-.9C140.886-6.066,139.518-10.368,137.826-12.438Z" transform="translate(440.938 5449.663)"/>
    <path id="パス_813" data-name="パス 813" d="M16.992-9.828A32.074,32.074,0,0,0,12.6-12.24l-1.152,1.764a23.766,23.766,0,0,1,4.284,2.538Zm-6.714-2.736a18.828,18.828,0,0,1-2.394.558c.252-.954.468-1.854.612-2.43L6.03-14.688A15.177,15.177,0,0,1,5.544-11.7c-.54.036-1.08.054-1.6.054a22.658,22.658,0,0,1-2.376-.126l.162,2.088c.774.036,1.494.054,2.232.054.306,0,.612,0,.918-.018a27.2,27.2,0,0,1-3.636,6.3L3.42-2.25A32.9,32.9,0,0,0,7.236-9.882a26.122,26.122,0,0,0,3.1-.612Zm.432,9.918c0,.954-.4,1.656-1.6,1.656-.972,0-1.53-.45-1.53-1.116,0-.63.666-1.062,1.692-1.062a6.309,6.309,0,0,1,1.44.18Zm-.288-6.246c.054,1.08.144,2.646.2,3.978-.378-.036-.792-.072-1.206-.072-2.484,0-3.942,1.35-3.942,3.1,0,1.962,1.746,2.952,3.96,2.952,2.538,0,3.438-1.3,3.438-2.952v-.162a15.869,15.869,0,0,1,2.412,1.89L16.47-2.07a11.875,11.875,0,0,0-3.69-2.286c-.054-.882-.09-1.746-.108-2.25-.018-.792-.054-1.53,0-2.286Zm15.3,7.29c-.468,0-1.3-.5-1.3-1.044,0-.63.72-1.368,1.818-1.926.036.936.054,1.746.054,2.2C26.3-1.764,26.046-1.6,25.722-1.6ZM28.26-8.01c0-.522,0-1.062.018-1.6a34.426,34.426,0,0,0,3.4-.558L31.626-12.4a24.411,24.411,0,0,1-3.276.666c.018-.45.036-.882.054-1.278.036-.45.108-1.224.144-1.548H26.1A14.15,14.15,0,0,1,26.226-13c0,.306,0,.828-.018,1.458-.36.018-.7.036-1.026.036a19.528,19.528,0,0,1-2.466-.144l.036,2.16c.774.072,1.674.09,2.484.09.288,0,.612-.018.954-.036v1.494c0,.414,0,.828.018,1.242-2.178.954-4,2.556-4,4.122,0,1.89,2.466,3.384,4.212,3.384,1.152,0,1.962-.576,1.962-2.79,0-.612-.054-1.98-.09-3.4a12.654,12.654,0,0,1,3.348-.486c1.548,0,2.628.7,2.628,1.908,0,1.3-1.152,2.034-2.592,2.286a13.627,13.627,0,0,1-2.2.126L30.312.738A14.523,14.523,0,0,0,32.652.45c2.826-.7,3.924-2.286,3.924-4.392,0-2.448-2.16-3.906-4.9-3.906a14.508,14.508,0,0,0-3.42.468Zm4.392-2.88A27.078,27.078,0,0,1,36.936-8.3l1.08-1.836a39.376,39.376,0,0,0-4.374-2.5ZM55.134-.972h-6.39V-3.42h6.39Zm-2.358-9.882H50.6V-5.31H46.656V1.566h2.088V.9h6.39v.648h2.2V-5.31H52.776V-7.272h5.616v-1.89H52.776Zm-.7-2.3v-2.07H49.842v2.07H43.434v4.536c0,2.592-.126,6.372-1.6,8.946A9.942,9.942,0,0,1,43.686,1.53c1.62-2.808,1.89-7.254,1.89-10.152v-2.5h13.05v-2.034Z" transform="translate(533.938 5488.663)"/>
    <g id="グループ_196" data-name="グループ 196" transform="translate(426.118 5457.913)">
      <g id="グループ_186" data-name="グループ 186" transform="translate(10.618 9.692)">
        <path id="パス_340" data-name="パス 340" d="M551.871,5453.512l.11.526.129.491.1.5.1.5.091.5.162.484.09.5.155.488.047.5-.441.122-.466.124-.473.074-.467.121-.476.044-.471.1-.467.1-.452.166-.465.109-.476.052-.474.04-.474.053-.466.108H546.3l-.464.123-.451,0-.157-.447-.131-.475-.155-.466-.138-.474-.116-.479-.093-.484-.157-.467-.094-.484-.136-.472-.176-.46-.1-.48-.122-.476-.131-.473-.134-.475-.116-.481-.18-.462-.09-.486-.18-.46-.116-.479-.117-.477-.162-.462-.145-.467-.142-.468-.124-.474-.113-.478-.126-.473-.128-.473-.208-.447-.122-.476-.123-.473-.148-.467-.158-.461-.1-.454.468-.153.5-.034.473-.164.5-.048.481-.118.494-.068.494-.068.485-.122.476-.1.109.451.094.467.109.463.156.451.095.467.088.469.117.458.091.465.146.453.145.457.087.467.059.475.116.462.106.466.13.458.12.462.14.458.065.475.109.464.194.444.074.474.119.465.082.476.141.443.47-.015.475-.1.484-.027.471-.12.479-.073.486-.028.491-.006Z" transform="translate(-540.947 -5442.926)"/>
      </g>
      <g id="グループ_187" data-name="グループ 187" transform="translate(27.66 10.094)">
        <path id="パス_341" data-name="パス 341" d="M571.386,5453.56l-.1-.479-.119-.483-.138-.474-.093-.488-.164-.471-.092-.488-.143-.473-.122-.48-.091-.491-.1-.485-.136-.479-.144-.477-.09-.491-.139-.477-.14-.477-.11-.488-.121-.484-.1-.493-.14-.488.472-.1.461-.109.461-.1.45-.161.464-.1.47-.089.462-.142.078.506.109.484.069.492.1.484.121.481.088.488.085.49.114.483.1.487.112.484.062.492.131.479.124.479.1.486.07.494.13.48.109.485.082.493.126.505-.482.119-.474.119-.484.089-.47.151-.478.125Z" transform="translate(-569.102 -5443.59)"/>
      </g>
      <g id="グループ_188" data-name="グループ 188" transform="translate(53.789 13.591)">
        <path id="パス_342" data-name="パス 342" d="M614.374,5449.788l.187.485.191.491.171.5.178.5.162.5.191.489.161.5.176.5.173.5.21.488.172.507-.5.17-.485.2-.5.168-.489.2-.5.17-.174-.5-.157-.514-.113-.526-.1-.527-.113-.523-.1-.525-.112-.523-.081-.531-.133-.519-.134-.521-.126-.522-.112-.527-.152-.527.53.1.524.118.533.081Z" transform="translate(-612.269 -5449.367)"/>
      </g>
      <g id="グループ_189" data-name="グループ 189" transform="translate(78.958 6.789)">
        <path id="パス_343" data-name="パス 343" d="M656.139,5438.129l.315.418.347.4.316.42.338.406.323.419.339.409.364.4-.475.373-.469.366-.429.417-.456.386-.468.387-.335-.469-.328-.436-.209-.5-.3-.452-.282-.465-.277-.471-.286-.468-.315-.418.431-.255.467-.209.452-.243.479-.19Z" transform="translate(-653.851 -5438.129)"/>
      </g>
      <g id="グループ_190" data-name="グループ 190" transform="translate(82.816 5.674)">
        <path id="パス_344" data-name="パス 344" d="M663.019,5436.288l.348.554.285.581.289.4.275.441.241.46-.574.286-.591.256-.587.266-.6.233-.363-.482-.394-.465-.367-.487-.387-.474-.369-.468.545-.21.551-.247.57-.2.571-.2Z" transform="translate(-660.224 -5436.288)"/>
      </g>
      <g id="グループ_191" data-name="グループ 191" transform="translate(38.163 13.03)">
        <path id="パス_345" data-name="パス 345" d="M596.733,5457.281l-.1-.581-.142-.577-.086-.59-.143-.567-.477.1-.478.154-.49.114-.489.124-.485.133-.2-.556-.236-.545-.242-.542-.159-.5-.18-.5-.151-.51-.139-.516-.243-.5-.266-.482-.193-.516-.226-.5-.249-.493-.212-.513-.258-.48-.544.047-.554.029-.554.031-.553.024-.555.041-.557.021-.557.044-.562.024.18.563.2.543.211.539.184.556.238.537.156.521.171.512.14.524.182.513.183.511.211.5.154.523.163.519.162.519.177.512.175.517.2.51.193.512.154.538.54-.137.542-.071.533-.11.527-.139.53-.123.543-.072.529-.143.544-.08.54-.1-.006-.026.51-.073.5-.135.507-.1Z" transform="translate(-586.454 -5448.44)"/>
      </g>
      <g id="グループ_193" data-name="グループ 193" transform="translate(61.782 9.483)">
        <g id="グループ_192" data-name="グループ 192">
          <path id="パス_346" data-name="パス 346" d="M645.542,5452.005c-.162-.184-.146-.2-.3-.39l-.31-.383c-.155-.19-.148-.2-.3-.388s-.152-.193-.307-.384-.165-.183-.32-.374-.12-.221-.275-.413-.165-.186-.32-.377-.188-.166-.344-.359-.114-.227-.273-.417c-.114-.125-.269-.212-.381-.335s-.2-.275-.307-.4-.211-.262-.321-.384-.262-.216-.373-.337-.236-.245-.348-.368-.2-.278-.307-.4-.225-.252-.335-.375-.249-.229-.358-.352-.241-.236-.35-.357-.22-.252-.328-.374-.226-.25-.334-.372-.191-.283-.3-.405-.254-.223-.361-.345-.168-.3-.274-.422-.274-.207-.379-.328-.192-.267-.3-.388c-.206.076-.181.123-.349.265s-.17.14-.339.283-.161.152-.331.295-.156.159-.331.3a4.188,4.188,0,0,0-.484.315c-.12.093-.281.19-.461.349-.124.109-.234.272-.4.423-.185.171-.331.268-.419.351a4.467,4.467,0,0,1-.4.362c-.082.067-.2.174-.413.348-.113.094-.244.214-.412.354-.192.181-.166.208-.354.391s-.226.143-.414.325-.167.205-.355.388-.218.153-.406.336-.173.2-.362.383-.194.18-.383.364-.177.2-.367.383-.209.164-.4.345-.176.185-.366.355-.176.188-.367.358-.2.157-.394.327-.2.157-.393.328-.164.2-.355.374-.214.145-.4.316-.184.178-.375.349-.21.148-.4.32-.156.211-.347.383-.227.132-.419.3-.171.2-.363.369-.388.09-.4.348.185.206.353.4.148.217.317.416.223.153.392.351.141.223.31.421.147.217.315.415.2.175.367.374.138.226.307.426.212.165.381.365.122.241.341.388c.116-.1.223-.173.356-.3.11-.1.212-.23.343-.356.109-.1.256-.188.384-.312.11-.106.233-.215.36-.339.111-.107.212-.24.339-.36s.24-.212.366-.331.243-.209.369-.327.215-.242.342-.358.253-.2.38-.318.21-.252.337-.366.271-.187.4-.3.252-.207.38-.32.235-.23.364-.342.224-.241.353-.353c.172-.169.188-.152.357-.324s.16-.181.331-.353.154-.185.323-.357.2-.146.365-.319.163-.176.333-.347.154-.189.324-.361.2-.147.366-.321.162-.181.333-.354.181-.163.352-.336c.212-.211.372-.39.5-.527.185.072.139.146.272.292s.1.173.238.32c.177.192.2.176.373.369s.208.165.385.358.162.209.34.4.153.218.331.413.181.193.36.387.212.165.385.365.125.215.278.405.168.179.321.369.164.18.317.371.149.194.3.385.126.215.28.4.2.152.358.345.114.225.274.412.156.2.326.388.166.193.337.382.168.189.337.376.222.142.393.33.117.236.288.424.18.18.352.368.165.2.336.385.194.17.366.36.2.163.37.356.142.212.306.406.19.171.353.364.108.238.272.43.193.169.356.361.191.172.355.365l.327.387c.164.193.135.217.3.411s.146.21.31.4.151.206.315.4.209.155.373.349.131.223.294.416.186.176.35.37.163.2.328.39.149.209.314.4.09.391.345.394.133-.229.292-.42.187-.168.346-.359.189-.167.348-.356.124-.221.283-.41.187-.169.346-.36.13-.217.29-.408.148-.2.308-.4.24-.138.354-.361a4,4,0,0,1-.349-.369c-.09-.113-.164-.265-.276-.411-.092-.122-.237-.219-.343-.36-.094-.125-.154-.285-.258-.424s-.169-.277-.272-.414-.236-.228-.338-.363-.16-.288-.263-.421-.254-.217-.358-.349-.149-.3-.252-.427-.234-.23-.337-.361-.187-.27-.292-.4-.2-.264-.3-.393-.228-.239-.335-.366-.189-.273-.3-.4-.243-.225-.353-.349-.207-.258-.318-.38-.2-.264-.314-.386-.24-.231-.355-.35-.246-.224-.362-.343-.2-.267-.321-.384-.274-.193-.393-.308S645.663,5452.116,645.542,5452.005Z" transform="translate(-625.474 -5442.579)"/>
        </g>
        <path id="パス_347" data-name="パス 347" d="M669.39,5471.023c.126-.444.525-.038.214-.236s-.372-.409-.331-.437,2.112.212-.8-.385Z" transform="translate(-642.448 -5453.389)"/>
        <path id="パス_348" data-name="パス 348" d="M669.6,5468.069l0-.113a.137.137,0,0,1,.195.191.1.1,0,0,1-.126,0,.091.091,0,0,0-.125-.1V5468l.139-.019" transform="translate(-642.869 -5452.582)"/>
      </g>
      <path id="パス_349" data-name="パス 349" d="M575.666,5458.574a.288.288,0,0,1-.1.048.563.563,0,0,0-.266.1,1.223,1.223,0,0,1-.44.167.078.078,0,0,0-.036.008,5.205,5.205,0,0,1-.732.2c-.134.042-.276.056-.411.1s-.267.09-.4.139c-.028.009-.071.018-.058.062s.077.046.109.025.039-.045.064-.058a.178.178,0,0,1,.071,0c0,.018,0,.037-.01.054a.473.473,0,0,0-.017.047c-.007.04.037.141.063.137a.092.092,0,0,0,.074-.1c0-.174.115-.21.248-.23.056-.008.115-.005.171-.017.034-.007.063-.035.1-.045a.318.318,0,0,1,.084,0c-.006.022-.01.046-.018.068-.018.052-.041.1-.054.153-.006.025,0,.072.008.076.044.02.053-.029.064-.055.019-.046.028-.1.043-.145.027-.09.071-.108.158-.067s.047-.076.065.012a.794.794,0,0,0,.019.11c.033.087.091.1.16.034a.448.448,0,0,1,.1-.076c.088-.042.125-.017.123.078,0,.025-.007.049-.009.075a.165.165,0,0,0,.1.18.152.152,0,0,0,.2-.075,1.421,1.421,0,0,1,.357-.432.326.326,0,0,0,.082-.108.267.267,0,0,1,.1-.136.144.144,0,0,0,.048-.093c.019-.126.069-.053.022-.17Z" transform="translate(-543.069 -5439.411)"/>
      <path id="パス_350" data-name="パス 350" d="M575.115,5460.428c0,.081-.089.195-.116.174a.219.219,0,0,1-.073-.134c-.008-.055.019-.125.087-.118C575.054,5460.356,575.09,5460.41,575.115,5460.428Z" transform="translate(-543.74 -5440.111)"/>
      <g id="グループ_194" data-name="グループ 194">
        <path id="パス_351" data-name="パス 351" d="M523.469,5434.6c-.152-.166.016-.239.022-.465s.015-.225.021-.449.02-.225.025-.451-.037-.227-.031-.452.053-.224.059-.449,0-.227.007-.453-.024-.226-.018-.452-.008-.226,0-.451.03-.225.036-.45,0-.227,0-.452.009-.227.015-.454.042-.226.048-.453-.013-.228-.01-.455-.016-.221-.016-.441,0-.22,0-.44.035-.223.035-.442-.068-.223,0-.433c.146,0,.263,0,.412,0s.282-.01.436-.009l.441,0c.137,0,.284-.035.443-.035.12,0,.267.058.437.058.132,0,.278-.02.436-.019.136,0,.282-.014.435-.014s.285.008.436.008.287.021.436.021.288-.038.437-.037.287.008.434.009.289.032.436.033.29.006.436.007.293-.052.44-.052.295,0,.441,0,.292.044.437.044.294-.013.439-.013.3-.021.441-.021.3.006.438.008.3.014.438.016.3.009.436.01h.455c.064.229-.025.245-.025.483s.011.24.011.479.017.241.017.48,0,.24,0,.481.157.319-.008.5-.237-.015-.461-.019-.225-.021-.449-.024-.224.033-.448.029-.224-.029-.448-.032-.225.021-.45.018-.224-.01-.449-.013-.223-.038-.447-.042-.225.047-.449.043l-.45-.008c-.225,0-.225-.013-.45-.018s-.226-.032-.452-.036-.226.021-.452.021c-.205,0-.205-.015-.41-.012s-.205,0-.411,0l-.412,0c-.206,0-.206.012-.412.015-.08,0-.156,0-.231,0a1.774,1.774,0,0,0,.018.444c.006.224.006.224.012.447s-.015.225-.008.447.028.224.034.447-.005.223,0,.447,0,.225.009.448.027.222.033.445.016.225.022.446-.018.226-.013.45.005.225.012.449-.018.226-.012.451.2.3.045.459-.23-.017-.45-.026-.222.013-.441,0-.22-.057-.441-.065-.223.035-.445.025a1.3,1.3,0,0,0-.439-.016C523.693,5434.672,523.62,5434.761,523.469,5434.6Z" transform="translate(-523.405 -5426.913)"/>
      </g>
      <g id="グループ_195" data-name="グループ 195" transform="translate(91.615 27.846)">
        <path id="パス_352" data-name="パス 352" d="M678.9,5477.911c.21,0,.21.018.42.016s.209,0,.419-.008.21.01.419.008.209-.012.418-.014.209-.012.419-.013.211.03.421.028.211-.016.422-.018.211-.024.422-.025c.084,0,.153.015.232.013.032-.223-.022-.223-.028-.444s.047-.226.04-.448-.063-.222-.07-.444.01-.226,0-.449-.006-.223-.013-.446.025-.226.018-.447-.022-.224-.029-.446-.025-.223-.032-.446.028-.227.021-.45-.023-.226-.03-.45-.152-.267,0-.431.188-.033.4-.024.207.007.416.017.206.029.414.037.209-.018.418-.008.208.027.417.035.208.044.417.052.283-.164.423-.009-.03.218-.036.433.006.216,0,.433-.027.215-.033.432.047.217.041.433-.016.216-.022.433-.021.217-.027.433.015.218.008.433-.028.216-.034.433,0,.217-.007.433.019.217.013.434-.062.217-.069.435.034.218.028.437-.038.217-.041.435.012.225.012.448-.015.225-.015.45.042.225.042.45a.908.908,0,0,1-.051.441c-.154,0-.28.032-.438.032s-.3-.029-.461-.03c-.145,0-.3.012-.466.011-.145,0-.3,0-.468,0-.12,0-.266-.03-.435-.03h-.435c-.136,0-.282.056-.435.054s-.285-.007-.436-.007-.286-.01-.436-.01h-.436c-.144,0-.289-.024-.436-.026h-.435c-.144,0-.29.03-.436.029s-.291,0-.437,0-.293-.042-.439-.042-.292,0-.438,0-.292-.018-.436-.019-.294.022-.438.022-.3-.007-.44-.009-.3.028-.438.028-.3-.016-.438-.017-.3-.012-.435-.014c-.154,0-.28-.015-.415-.017a1,1,0,0,1-.063-.432c-.012-.219.028-.221.016-.441s-.011-.22-.023-.44-.035-.22-.047-.44-.022-.221-.035-.442-.148-.266.008-.424.205,0,.432.006.228-.033.455-.028.227,0,.453,0,.226.032.453.037.226.023.451.026.228-.021.455-.015.228-.007.456,0,.228,0,.456,0S678.675,5477.909,678.9,5477.911Z" transform="translate(-674.762 -5472.918)"/>
      </g>
    </g>
  </g>
</svg>
