<svg xmlns="http://www.w3.org/2000/svg" width="424.325" height="47.364" viewBox="0 0 424.325 47.364">
  <g id="グループ_1043" data-name="グループ 1043" transform="translate(-310.504 -5426.913)">
    <path id="パス_810" data-name="パス 810" d="M6.975-2.225c-.65,0-1.8-.7-1.8-1.45,0-.875,1-1.9,2.525-2.675.05,1.3.075,2.425.075,3.05C7.775-2.45,7.425-2.225,6.975-2.225Zm3.525-8.9c0-.725,0-1.475.025-2.225a47.814,47.814,0,0,0,4.725-.775l-.075-3.1a33.9,33.9,0,0,1-4.55.925c.025-.625.05-1.225.075-1.775.05-.625.15-1.7.2-2.15H7.5a19.653,19.653,0,0,1,.175,2.175c0,.425,0,1.15-.025,2.025-.5.025-.975.05-1.425.05a27.123,27.123,0,0,1-3.425-.2l.05,3c1.075.1,2.325.125,3.45.125.4,0,.85-.025,1.325-.05v2.075c0,.575,0,1.15.025,1.725C4.625-7.975,2.1-5.75,2.1-3.575c0,2.625,3.425,4.7,5.85,4.7,1.6,0,2.725-.8,2.725-3.875,0-.85-.075-2.75-.125-4.725A17.575,17.575,0,0,1,15.2-8.15c2.15,0,3.65.975,3.65,2.65,0,1.8-1.6,2.825-3.6,3.175a18.926,18.926,0,0,1-3.05.175l1.15,3.175a20.171,20.171,0,0,0,3.25-.4c3.925-.975,5.45-3.175,5.45-6.1,0-3.4-3-5.425-6.8-5.425a20.151,20.151,0,0,0-4.75.65Zm6.1-4a37.609,37.609,0,0,1,5.95,3.6l1.5-2.55a54.69,54.69,0,0,0-6.075-3.475Zm22.225,6.9a1.848,1.848,0,0,1,1.9-1.95A1.766,1.766,0,0,1,42.35-9.3c.325,2.15-.6,2.925-1.625,2.925A1.84,1.84,0,0,1,38.825-8.225Zm13.2-8.975c-1.3-.025-4.675,0-7.175,0,0-.3.025-.55.025-.75.025-.4.1-1.725.175-2.125h-3.6a16.751,16.751,0,0,1,.225,2.15,6.345,6.345,0,0,1,.025.75c-3.325.05-7.825.175-10.65.175l.075,3c3.05-.175,6.875-.325,10.625-.375l.025,1.65A5.94,5.94,0,0,0,40.8-12.8a4.662,4.662,0,0,0-4.95,4.625,4.361,4.361,0,0,0,4.275,4.55A5.345,5.345,0,0,0,41.25-3.75C39.875-2.275,37.7-1.45,35.2-.925l2.625,2.65c6.05-1.7,7.95-5.8,7.95-9.025a6.1,6.1,0,0,0-.925-3.425c0-1.075,0-2.425-.025-3.675,3.35,0,5.675.05,7.175.125Zm15.55,8.975a1.848,1.848,0,0,1,1.9-1.95A1.766,1.766,0,0,1,71.1-9.3c.325,2.15-.6,2.925-1.625,2.925A1.84,1.84,0,0,1,67.575-8.225Zm13.2-8.975c-1.3-.025-4.675,0-7.175,0,0-.3.025-.55.025-.75.025-.4.1-1.725.175-2.125H70.2a16.751,16.751,0,0,1,.225,2.15,6.347,6.347,0,0,1,.025.75c-3.325.05-7.825.175-10.65.175l.075,3c3.05-.175,6.875-.325,10.625-.375l.025,1.65a5.94,5.94,0,0,0-.975-.075A4.662,4.662,0,0,0,64.6-8.175a4.361,4.361,0,0,0,4.275,4.55A5.345,5.345,0,0,0,70-3.75c-1.375,1.475-3.55,2.3-6.05,2.825l2.625,2.65c6.05-1.7,7.95-5.8,7.95-9.025a6.1,6.1,0,0,0-.925-3.425c0-1.075,0-2.425-.025-3.675,3.35,0,5.675.05,7.175.125ZM92.3-3.575c-.9,0-1.4-.775-1.4-1.975a7.556,7.556,0,0,1,1.8-4.65A27.248,27.248,0,0,0,95-5.45C94.1-4.325,93.175-3.575,92.3-3.575ZM99.075-13.5a29.5,29.5,0,0,1-2.2,5.3,24.807,24.807,0,0,1-1.75-3.925A9.652,9.652,0,0,1,99.075-13.5Zm4.025-3.525c.15-.625.375-1.825.575-2.5l-3.425-.325a13.361,13.361,0,0,1-.175,2.35c-.075.375-.15.775-.25,1.2a12.907,12.907,0,0,0-5.6,1.475c-.175-.525-.325-1.05-.45-1.525-.2-.725-.4-1.55-.55-2.35l-3.25,1a18.213,18.213,0,0,1,1,2.575c.2.675.425,1.35.65,2A10.86,10.86,0,0,0,87.975-5.3c0,3.2,1.9,4.95,3.95,4.95,1.825,0,3.2-.85,4.875-2.65.25.325.55.65.85.975L100.125-4c-.45-.45-.9-.95-1.35-1.475a30.139,30.139,0,0,0,3.35-7.875,5.3,5.3,0,0,1,4,5.45c0,3.1-2.125,5.875-7.575,6.35l1.9,2.85c5.175-.775,8.925-3.775,8.925-9.025a8.158,8.158,0,0,0-6.5-8.35ZM120.325-19.8a15.544,15.544,0,0,1,.325,3.35c0,2.125-.25,8.625-.25,11.95,0,4.225,2.625,6,6.675,6a12.884,12.884,0,0,0,10.75-5.65l-2.25-2.775c-1.775,2.7-4.375,5.05-8.475,5.05-1.9,0-3.4-.8-3.4-3.3,0-3.075.175-8.625.3-11.275a25.409,25.409,0,0,1,.325-3.3Zm36.75,10.325a36.374,36.374,0,0,1,4.775-.275,35.76,35.76,0,0,1,4.25.3l.075-2.975a42.983,42.983,0,0,0-4.35-.225c-1.6,0-3.375.125-4.75.25Zm1.95-7.95c-1.35.325-2.75.6-4.15.825l.2-.95c.125-.55.35-1.65.525-2.325l-3.775-.3a12.853,12.853,0,0,1-.1,2.5q-.075.6-.225,1.425c-.75.05-1.475.075-2.2.075a24.373,24.373,0,0,1-3.125-.2l.075,3.1c.875.05,1.8.1,3,.1.5,0,1.05-.025,1.625-.05-.175.7-.35,1.4-.525,2.05a54.586,54.586,0,0,1-4.275,11.15l3.475,1.15a79.848,79.848,0,0,0,3.925-11.45c.275-1,.525-2.1.75-3.175,1.65-.2,3.325-.475,4.8-.8ZM155.55-6.45a16.993,16.993,0,0,0-.425,3.3c0,2.5,2.125,3.95,6.3,3.95a39.617,39.617,0,0,0,5.05-.35l.125-3.175a28.7,28.7,0,0,1-5.15.5c-2.65,0-3.275-.8-3.275-1.875a8.565,8.565,0,0,1,.35-2.075Zm23.5-11.35-3.8-.05a14.349,14.349,0,0,1,.175,2.5c0,1.525.05,4.4.275,6.675.7,6.65,3.075,9.1,5.775,9.1,2,0,3.55-1.525,5.2-5.825l-2.5-3c-.475,1.95-1.45,4.85-2.625,4.85-1.55,0-2.3-2.425-2.65-6-.15-1.775-.175-3.65-.15-5.25A19.618,19.618,0,0,1,179.05-17.8Zm12.375.525-3.15,1.05c2.7,3.05,4.025,8.875,4.4,12.85l3.275-1.25C195.675-8.425,193.775-14.4,191.425-17.275Z" transform="translate(308.404 5464.925)"/>
    <g id="グループ_196" data-name="グループ 196" transform="translate(510.118 5426.913)">
      <g id="グループ_186" data-name="グループ 186" transform="translate(14.176 12.94)">
        <path id="パス_340" data-name="パス 340" d="M555.531,5457.06l.146.7.172.656.133.665.129.664.121.665.217.646.12.67.207.652.062.673-.589.163-.622.166-.632.1-.623.16-.635.06-.63.136-.623.132-.6.222-.621.145-.635.069-.633.053-.633.07-.621.144H548.1l-.62.165-.6,0-.21-.6-.175-.634-.207-.624-.184-.631-.154-.639-.124-.646-.21-.623-.125-.646-.181-.63-.235-.615-.134-.642-.162-.635-.174-.631-.179-.634-.154-.643-.241-.616-.121-.649-.241-.615-.155-.638-.156-.637-.216-.617-.193-.624-.19-.625-.166-.633-.151-.637-.168-.632-.171-.631-.278-.6-.162-.635-.165-.631-.2-.623-.211-.615-.137-.606.625-.2.668-.045.632-.218.662-.064.642-.157.66-.091.66-.09.648-.163.636-.138.146.6.125.624.145.619.208.6.127.623.118.627.157.611.122.62.2.606.194.609.116.624.079.634.155.616.141.623.173.612.16.617.188.611.087.635.145.62.259.593.1.632.158.621.11.635.188.592.627-.021.634-.126.646-.036.629-.16.64-.1.649-.037.656-.009Z" transform="translate(-540.947 -5442.926)"/>
      </g>
      <g id="グループ_187" data-name="グループ 187" transform="translate(36.929 13.477)">
        <path id="パス_341" data-name="パス 341" d="M572.151,5456.9l-.137-.64-.159-.645-.184-.633-.124-.651-.219-.629-.123-.652-.192-.632-.162-.641-.122-.656-.139-.647-.181-.64-.192-.638-.12-.654-.185-.637-.187-.637-.146-.651-.162-.646-.128-.658-.187-.651.63-.127.615-.146.616-.139.6-.214.62-.139.627-.118.616-.189.1.676.146.646.092.657.136.646.162.643.117.652.114.653.153.646.129.649.15.646.083.657.175.639.166.641.135.648.094.66.174.642.146.647.109.657.168.675-.644.158-.633.159-.646.119-.627.2-.638.167Z" transform="translate(-569.102 -5443.59)"/>
      </g>
      <g id="グループ_188" data-name="グループ 188" transform="translate(71.814 18.145)">
        <path id="パス_342" data-name="パス 342" d="M615.079,5449.929l.25.648.255.655.228.664.238.662.216.671.255.652.215.668.235.664.23.668.28.651.23.678-.668.228-.647.271-.665.225-.653.266-.664.228-.232-.667-.21-.686-.151-.7-.133-.7-.15-.7-.133-.7-.15-.7-.108-.709-.178-.693-.179-.7-.168-.7-.149-.7-.2-.7.708.13.7.157.711.108Z" transform="translate(-612.269 -5449.367)"/>
      </g>
      <g id="グループ_189" data-name="グループ 189" transform="translate(105.417 9.064)">
        <path id="パス_343" data-name="パス 343" d="M656.906,5438.129l.421.558.464.53.422.562.452.542.432.56.453.546.486.54-.634.5-.626.488-.573.556-.609.516-.625.517-.448-.625-.438-.582-.279-.673-.4-.6-.377-.621-.37-.63-.382-.624-.42-.559.575-.341.623-.28.6-.324.639-.254Z" transform="translate(-653.851 -5438.129)"/>
      </g>
      <g id="グループ_190" data-name="グループ 190" transform="translate(110.568 7.575)">
        <path id="パス_344" data-name="パス 344" d="M663.955,5436.288l.464.739.381.776.385.534.367.589.322.614-.767.382-.789.341-.784.355-.8.31-.485-.643-.526-.622-.49-.651-.516-.633-.492-.625.727-.28.736-.329.761-.269.762-.273Z" transform="translate(-660.224 -5436.288)"/>
      </g>
      <g id="グループ_191" data-name="グループ 191" transform="translate(50.952 17.396)">
        <path id="パス_345" data-name="パス 345" d="M600.178,5460.243l-.133-.775-.19-.771-.115-.787-.191-.758-.636.139-.639.206-.654.153-.652.166-.648.177-.271-.742-.315-.728-.324-.724-.212-.673-.24-.666-.2-.681-.185-.687-.325-.663-.355-.645-.257-.688-.3-.672-.333-.659-.283-.685-.344-.641-.726.062-.74.04-.739.042-.738.032-.741.056-.744.028-.744.059-.75.033.24.751.271.725.282.72.245.742.318.718.209.693.229.684.186.7.242.685.245.682.282.668.206.7.217.692.216.693.236.684.234.689.262.68.258.684.206.719.72-.183.724-.1.712-.148.7-.184.707-.165.725-.1.707-.191.726-.106.721-.133-.008-.035.68-.1.666-.18.677-.133Z" transform="translate(-586.454 -5448.44)"/>
      </g>
      <g id="グループ_193" data-name="グループ 193" transform="translate(82.485 12.66)">
        <g id="グループ_192" data-name="グループ 192">
          <path id="パス_346" data-name="パス 346" d="M652.266,5455.165c-.217-.247-.195-.266-.4-.521l-.414-.512c-.207-.255-.2-.263-.4-.518s-.2-.258-.41-.514-.22-.244-.427-.5-.16-.294-.368-.551-.22-.248-.427-.5-.251-.222-.46-.479-.153-.3-.365-.558c-.152-.167-.36-.282-.508-.447s-.262-.367-.41-.53-.282-.351-.429-.513-.35-.288-.5-.45-.315-.327-.464-.491-.262-.372-.41-.537-.3-.336-.447-.5-.332-.307-.478-.471-.322-.314-.467-.477-.294-.336-.438-.5-.3-.333-.446-.5-.255-.378-.4-.541-.339-.3-.482-.461-.224-.4-.365-.563-.366-.276-.506-.437-.256-.357-.394-.519c-.276.1-.242.164-.466.354s-.227.187-.453.377-.215.2-.441.395-.208.212-.442.394a5.63,5.63,0,0,0-.646.421c-.16.124-.376.254-.615.466-.166.145-.313.364-.531.565-.246.229-.442.357-.56.468a6.073,6.073,0,0,1-.53.484c-.11.089-.272.232-.552.464-.15.126-.326.286-.55.474-.256.241-.221.276-.473.521s-.3.19-.552.433-.223.273-.474.519-.291.2-.541.448-.231.268-.483.512-.259.24-.511.486-.236.265-.49.512-.279.219-.537.461-.235.246-.489.474-.235.251-.49.479-.272.209-.526.437-.271.21-.525.438-.219.269-.474.5-.285.194-.54.423-.246.237-.5.465-.28.2-.534.427-.208.283-.463.511-.3.177-.559.4-.228.263-.485.493-.518.12-.54.464.247.275.472.541.2.29.423.556.3.2.523.468.188.3.414.562.2.289.421.553.265.233.491.5.184.3.41.569.283.22.509.487.163.323.455.518c.155-.127.3-.23.475-.395.147-.135.284-.308.457-.476.146-.14.342-.251.513-.417.147-.142.311-.288.481-.452.149-.143.283-.321.453-.481.15-.143.32-.283.488-.441.153-.144.324-.28.493-.436s.288-.323.457-.479.338-.27.507-.423.28-.338.45-.49.361-.25.532-.4.337-.276.507-.427.314-.308.486-.457.3-.321.472-.471c.23-.225.251-.2.477-.433s.214-.242.441-.471.205-.248.431-.476.26-.2.487-.426.218-.236.444-.465.205-.252.432-.482.261-.2.489-.428.217-.242.445-.473.242-.217.47-.45c.283-.281.5-.52.671-.7.247.1.185.195.364.39s.14.231.318.427c.237.257.261.236.5.493s.278.221.514.478.217.279.454.538.2.292.442.551.242.258.48.517.284.22.514.488c.213.248.166.287.371.542s.225.238.429.492.219.241.423.5.2.259.4.514.168.287.373.541.272.2.478.46.152.3.365.549.208.268.436.519.221.258.449.51.224.252.45.5.3.189.524.44.156.315.384.566.241.24.47.492.22.261.448.513.259.228.488.481.268.218.494.476.19.283.409.542.254.229.472.486.145.318.363.575.258.225.476.481.255.229.474.488l.437.517c.219.258.181.291.4.55s.195.279.415.539.2.274.42.533.28.207.5.465.175.3.393.555.248.235.468.494.218.262.438.521.2.279.419.539.12.521.461.526.177-.307.39-.562.25-.224.462-.479.252-.223.465-.476.165-.294.377-.547.25-.226.462-.48.174-.29.387-.545.2-.27.411-.528.321-.185.473-.482a5.465,5.465,0,0,1-.466-.493c-.12-.152-.219-.354-.368-.549-.123-.163-.316-.292-.457-.48-.125-.168-.206-.38-.344-.565-.126-.168-.226-.37-.363-.553-.128-.168-.315-.3-.452-.485s-.214-.383-.352-.562-.339-.289-.478-.467-.2-.394-.336-.569-.312-.308-.45-.482-.25-.361-.389-.534-.262-.352-.4-.524-.3-.318-.447-.488-.252-.364-.4-.533-.325-.3-.471-.466-.276-.344-.425-.507-.269-.353-.419-.516-.321-.308-.473-.466-.328-.3-.483-.458-.272-.357-.429-.512-.365-.259-.525-.411S652.428,5455.312,652.266,5455.165Z" transform="translate(-625.474 -5442.579)"/>
        </g>
        <path id="パス_347" data-name="パス 347" d="M669.7,5471.378c.168-.592.7-.051.285-.315s-.5-.547-.442-.584,2.819.283-1.064-.514Z" transform="translate(-633.725 -5447.834)"/>
        <path id="パス_348" data-name="パス 348" d="M669.613,5468.118l.006-.15a.183.183,0,0,1,.26.255.135.135,0,0,1-.168,0,.122.122,0,0,0-.166-.128v-.072l.186-.026" transform="translate(-633.93 -5447.441)"/>
      </g>
      <path id="パス_349" data-name="パス 349" d="M576.485,5458.574c-.043.022-.085.061-.128.063a.756.756,0,0,0-.355.131,1.629,1.629,0,0,1-.588.223.118.118,0,0,0-.048.011,6.982,6.982,0,0,1-.977.261c-.178.057-.368.075-.549.127s-.356.121-.534.186c-.037.012-.094.023-.078.082.014.044.1.062.145.033s.053-.06.086-.077a.232.232,0,0,1,.095-.007c0,.024-.006.049-.013.073a.611.611,0,0,0-.023.063c-.01.052.05.188.084.183a.123.123,0,0,0,.1-.136c0-.232.153-.281.331-.308.075-.011.154-.008.228-.023.045-.009.085-.047.13-.06a.4.4,0,0,1,.112,0c-.008.03-.014.061-.024.091-.024.069-.054.134-.073.2-.008.034,0,.1.011.1.059.026.07-.039.085-.074.025-.062.038-.128.057-.193.036-.121.095-.144.211-.09s.062-.1.086.017a1.066,1.066,0,0,0,.026.146c.044.118.122.131.214.045a.577.577,0,0,1,.13-.1c.118-.057.167-.023.165.1,0,.033-.01.066-.012.1a.222.222,0,0,0,.137.241.2.2,0,0,0,.27-.1,1.906,1.906,0,0,1,.477-.576.427.427,0,0,0,.109-.145.362.362,0,0,1,.136-.182.19.19,0,0,0,.065-.124c.025-.168.093-.071.03-.227Z" transform="translate(-532.964 -5432.989)"/>
      <path id="パス_350" data-name="パス 350" d="M575.179,5460.454c0,.108-.12.26-.155.233a.292.292,0,0,1-.1-.179c-.011-.074.025-.167.116-.157C575.1,5460.358,575.146,5460.429,575.179,5460.454Z" transform="translate(-533.29 -5433.328)"/>
      <g id="グループ_194" data-name="グループ 194">
        <path id="パス_351" data-name="パス 351" d="M523.49,5437.171c-.2-.221.022-.32.029-.62s.02-.3.028-.6.027-.3.034-.6-.049-.3-.041-.6.071-.3.079-.6,0-.3.009-.6-.031-.3-.024-.6-.011-.3,0-.6.041-.3.049-.6-.006-.3,0-.6.012-.3.02-.606.056-.3.064-.605-.018-.3-.014-.607-.022-.295-.022-.589.006-.294.006-.588.047-.3.047-.591-.091-.3,0-.578c.195,0,.351,0,.55,0s.377-.013.583-.012l.588,0c.183,0,.379-.047.591-.047.16,0,.356.076.583.076.176,0,.371-.026.582-.025.182,0,.377-.018.58-.018.187,0,.381.011.582.011s.383.028.583.028.385-.052.583-.05.384.011.579.011.386.043.583.045.387.007.583.008.391-.069.587-.069.393,0,.589.005.39.059.583.06.393-.018.586-.017.4-.028.589-.028.394.007.584.01.4.019.585.021.4.012.582.013c.207,0,.428,0,.608,0,.086.306-.033.327-.033.645s.014.32.014.64.023.321.023.642,0,.32,0,.643.209.426-.011.661c-.2.216-.317-.02-.615-.026s-.3-.028-.6-.032-.3.044-.6.04-.3-.039-.6-.043-.3.028-.6.022-.3-.012-.6-.017-.3-.051-.6-.055-.3.062-.6.057l-.6-.01c-.3,0-.3-.017-.6-.023s-.3-.043-.6-.049-.3.029-.6.028c-.274,0-.274-.02-.548-.016s-.274-.006-.549,0l-.55.006c-.275,0-.275.014-.55.018-.107,0-.208,0-.309.005a2.37,2.37,0,0,0,.024.594c.008.3.008.3.016.6s-.019.3-.011.6.038.3.046.6-.007.3,0,.6,0,.3.012.6.036.3.044.595.022.3.03.6-.024.3-.017.6.007.3.016.6-.024.3-.016.6.272.4.06.613-.307-.022-.6-.035-.3.018-.589,0-.293-.075-.589-.087-.3.047-.594.034a1.718,1.718,0,0,0-.586-.021C523.789,5437.271,523.692,5437.39,523.49,5437.171Z" transform="translate(-523.405 -5426.913)"/>
      </g>
      <g id="グループ_195" data-name="グループ 195" transform="translate(122.316 37.177)">
        <path id="パス_352" data-name="パス 352" d="M680.291,5479.584c.281,0,.281.023.56.02s.279-.007.559-.01.28.013.559.011.279-.017.558-.019.28-.015.56-.017.281.04.562.038.282-.021.563-.023.281-.033.563-.034c.112,0,.2.019.309.017.043-.3-.029-.3-.038-.595s.063-.3.054-.6-.085-.3-.094-.593.013-.3,0-.6-.008-.3-.017-.6.033-.3.024-.6-.03-.3-.039-.594-.033-.3-.043-.6.037-.3.028-.6-.031-.3-.04-.6-.2-.354,0-.575c.189-.2.251-.044.529-.032s.277.009.555.022.276.038.553.048.28-.022.558-.01.277.038.557.048.277.058.557.069.377-.219.565-.012-.04.291-.048.578.008.289,0,.577-.036.288-.044.578.063.29.055.578-.022.288-.03.577-.027.289-.036.578.02.29.01.578-.037.289-.046.577,0,.289-.009.577.025.291.017.58-.083.29-.092.581.045.292.037.582-.051.289-.055.581.016.3.016.6-.02.3-.02.6.057.3.057.6a1.213,1.213,0,0,1-.069.589c-.205,0-.373.042-.584.042-.2,0-.4-.039-.616-.04-.193,0-.4.016-.622.014-.194,0-.4,0-.625,0-.16,0-.356-.04-.581-.04h-.581c-.182,0-.376.073-.58.071-.186,0-.38-.008-.582-.009s-.382-.014-.582-.014h-.582c-.192,0-.385-.034-.583-.035h-.58c-.192,0-.387.041-.583.04s-.389.006-.583,0-.391-.055-.587-.055-.39.006-.584.006-.39-.024-.583-.024-.393.03-.585.03-.4-.01-.587-.011-.394.038-.584.037-.4-.02-.584-.021-.4-.016-.581-.018c-.205,0-.373-.02-.554-.023a1.331,1.331,0,0,1-.085-.575c-.016-.293.038-.3.022-.59s-.015-.293-.031-.588-.046-.293-.062-.588-.03-.294-.046-.59-.2-.355.011-.565.274,0,.576.007.3-.044.607-.038.3,0,.605.007.3.043.6.049.3.031.6.036.3-.028.608-.021.3-.008.609,0,.3,0,.608,0S679.987,5479.582,680.291,5479.584Z" transform="translate(-674.762 -5472.918)"/>
      </g>
    </g>
    <path id="パス_811" data-name="パス 811" d="M23.6-13.65A44.548,44.548,0,0,0,17.5-17l-1.6,2.45a33.009,33.009,0,0,1,5.95,3.525Zm-9.325-3.8a26.15,26.15,0,0,1-3.325.775c.35-1.325.65-2.575.85-3.375L8.375-20.4A21.079,21.079,0,0,1,7.7-16.25c-.75.05-1.5.075-2.225.075a31.47,31.47,0,0,1-3.3-.175l.225,2.9c1.075.05,2.075.075,3.1.075.425,0,.85,0,1.275-.025a37.774,37.774,0,0,1-5.05,8.75L4.75-3.125a45.7,45.7,0,0,0,5.3-10.6,36.281,36.281,0,0,0,4.3-.85Zm.6,13.775c0,1.325-.55,2.3-2.225,2.3-1.35,0-2.125-.625-2.125-1.55,0-.875.925-1.475,2.35-1.475a8.762,8.762,0,0,1,2,.25Zm-.4-8.675c.075,1.5.2,3.675.275,5.525-.525-.05-1.1-.1-1.675-.1-3.45,0-5.475,1.875-5.475,4.3,0,2.725,2.425,4.1,5.5,4.1,3.525,0,4.775-1.8,4.775-4.1V-2.85a22.04,22.04,0,0,1,3.35,2.625l1.65-2.65A16.493,16.493,0,0,0,17.75-6.05c-.075-1.225-.125-2.425-.15-3.125-.025-1.1-.075-2.125,0-3.175ZM35.725-2.225c-.65,0-1.8-.7-1.8-1.45,0-.875,1-1.9,2.525-2.675.05,1.3.075,2.425.075,3.05C36.525-2.45,36.175-2.225,35.725-2.225Zm3.525-8.9c0-.725,0-1.475.025-2.225A47.814,47.814,0,0,0,44-14.125l-.075-3.1a33.9,33.9,0,0,1-4.55.925c.025-.625.05-1.225.075-1.775.05-.625.15-1.7.2-2.15h-3.4a19.653,19.653,0,0,1,.175,2.175c0,.425,0,1.15-.025,2.025-.5.025-.975.05-1.425.05a27.123,27.123,0,0,1-3.425-.2l.05,3c1.075.1,2.325.125,3.45.125.4,0,.85-.025,1.325-.05v2.075c0,.575,0,1.15.025,1.725-3.025,1.325-5.55,3.55-5.55,5.725,0,2.625,3.425,4.7,5.85,4.7,1.6,0,2.725-.8,2.725-3.875,0-.85-.075-2.75-.125-4.725a17.575,17.575,0,0,1,4.65-.675c2.15,0,3.65.975,3.65,2.65,0,1.8-1.6,2.825-3.6,3.175a18.926,18.926,0,0,1-3.05.175L42.1,1.025a20.171,20.171,0,0,0,3.25-.4c3.925-.975,5.45-3.175,5.45-6.1,0-3.4-3-5.425-6.8-5.425a20.151,20.151,0,0,0-4.75.65Zm6.1-4a37.609,37.609,0,0,1,5.95,3.6l1.5-2.55a54.691,54.691,0,0,0-6.075-3.475ZM76.575-1.35H67.7v-3.4h8.875ZM73.3-15.075H70.275v7.7H64.8v9.55h2.9V1.25h8.875v.9h3.05V-7.375H73.3V-10.1h7.8v-2.625H73.3Zm-.975-3.2V-21.15h-3.1v2.875h-8.9v6.3c0,3.6-.175,8.85-2.225,12.425a13.808,13.808,0,0,1,2.575,1.675c2.25-3.9,2.625-10.075,2.625-14.1V-15.45H81.425v-2.825Z" transform="translate(653.404 5464.925)"/>
  </g>
</svg>
