<svg xmlns="http://www.w3.org/2000/svg" width="128.902" height="40.199" viewBox="0 0 128.902 40.199">
  <g id="グループ_1049" data-name="グループ 1049" transform="translate(-340.724 -1769.4)">
    <path id="パス_814" data-name="パス 814" d="M14.818,10.334c1.106.1,2.282.154,3.668.154,1.274,0,2.8-.1,3.738-.168V9.172c-.994.1-2.408.2-3.738.2a30.945,30.945,0,0,1-3.668-.182Zm-.574,4.34a8.79,8.79,0,0,0-.28,1.946c0,1.736,1.638,2.66,4.452,2.66a20.39,20.39,0,0,0,4.732-.476l-.014-1.2a18.018,18.018,0,0,1-4.746.532c-2.212,0-3.276-.728-3.276-1.764a5.465,5.465,0,0,1,.28-1.582Zm14.994-4.34c1.106.1,2.282.154,3.668.154,1.274,0,2.8-.1,3.738-.168V9.172c-.994.1-2.408.2-3.738.2a30.945,30.945,0,0,1-3.668-.182Zm-.574,4.34a8.79,8.79,0,0,0-.28,1.946c0,1.736,1.638,2.66,4.452,2.66a20.39,20.39,0,0,0,4.732-.476l-.014-1.2a18.018,18.018,0,0,1-4.746.532c-2.212,0-3.276-.728-3.276-1.764a5.465,5.465,0,0,1,.28-1.582Zm23.394-4.13A15.611,15.611,0,0,0,50.91,8.612l-.742.322A16,16,0,0,1,51.3,10.88Zm-4.62,2.94A22.271,22.271,0,0,1,50,13.344a20.064,20.064,0,0,1,2.338.154l.028-1.064a22.138,22.138,0,0,0-2.394-.112c-.9,0-1.806.056-2.534.112Zm.9-3.64a20.091,20.091,0,0,1-2.646.5l.21-1.022c.056-.266.154-.8.252-1.092l-1.358-.112a6.5,6.5,0,0,1-.042,1.134c-.042.28-.112.714-.21,1.218-.532.028-1.022.056-1.484.056a12.361,12.361,0,0,1-1.666-.1l.042,1.092c.49.042.994.056,1.61.056q.588,0,1.26-.042c-.112.5-.224,1.008-.35,1.47a30.806,30.806,0,0,1-2.324,6.2l1.232.406a40.911,40.911,0,0,0,2.17-6.342c.154-.6.308-1.232.434-1.848a26.677,26.677,0,0,0,2.87-.462Zm-1.6,5.866a7.842,7.842,0,0,0-.21,1.638c0,1.372,1.148,2.058,3.332,2.058a20.364,20.364,0,0,0,2.674-.2l.042-1.134a14.261,14.261,0,0,1-2.7.266c-1.974,0-2.282-.63-2.282-1.274a4.95,4.95,0,0,1,.2-1.26Zm4.984-7.35a14.887,14.887,0,0,1,1.162,1.946l.756-.336a18.008,18.008,0,0,0-1.19-1.932Zm5.348-.154A5.763,5.763,0,0,1,57,9.13a37.463,37.463,0,0,0-.518,5.53,15.338,15.338,0,0,0,.728,4.4l.952-.112-.042-.476a3.606,3.606,0,0,1,.07-.616,30.728,30.728,0,0,1,.9-3.052l-.616-.378c-.252.686-.532,1.512-.728,2.1a18.888,18.888,0,0,1,.392-7.294c.07-.266.168-.644.252-.9ZM67.612,10.7a16.453,16.453,0,0,1-2.254.322c-.014-.868-.028-1.778-.014-2.086s.014-.574.042-.812h-1.3a8.078,8.078,0,0,1,.126.826c.028.35.056,1.274.084,2.142-.588.028-1.176.042-1.75.042a15.438,15.438,0,0,1-2.226-.154V12.1c.6.056,1.582.1,2.24.1.574,0,1.176-.014,1.764-.042v.406c0,2.674-.07,4.228-1.554,5.516a4.67,4.67,0,0,1-1.358.868l1.022.812c2.94-1.736,2.94-3.99,2.94-7.182V12.1a21.766,21.766,0,0,0,2.24-.252Zm5.362,6.342c-.6,0-1.414-.77-1.414-2.52a4.834,4.834,0,0,1,4.284-4.48,22.368,22.368,0,0,1-.77,3.738C74.36,16.116,73.59,17.04,72.974,17.04Zm3.654,2.324c3.3-.434,5.222-2.38,5.222-5.292a5.033,5.033,0,0,0-5.32-5.1,5.92,5.92,0,0,0-6.076,5.642c0,2.282,1.246,3.71,2.478,3.71,1.288,0,2.394-1.47,3.248-4.312a29.3,29.3,0,0,0,.826-3.99,3.843,3.843,0,0,1,3.682,4.018,4.156,4.156,0,0,1-3.514,4.1,8.69,8.69,0,0,1-1.19.168ZM98.9,16.648V14.984H92.208a9.551,9.551,0,0,0,.144-.976H98.72v-1.7H92.544V11.5h4.9V9.9h-4.9V9.08H98.08V7.4H95.12c.32-.416.7-.928,1.088-1.488L94.16,5.4a10.541,10.541,0,0,1-1.088,1.872l.448.128H89.552l.368-.16a6.33,6.33,0,0,0-1.184-1.824l-1.68.656A6.375,6.375,0,0,1,87.888,7.4H85.12V9.08h5.472V9.9H85.856v1.6h4.736v.816H84.48v1.7h5.856c-.048.352-.1.672-.16.976H84.384v1.664H89.44c-.8.976-2.3,1.616-5.344,2.016a5.618,5.618,0,0,1,.944,1.712c3.952-.64,5.728-1.776,6.576-3.488,1.248,2.1,3.184,3.136,6.48,3.52a7.353,7.353,0,0,1,1.136-1.76c-2.7-.192-4.528-.784-5.632-2Zm6.028-8.666a16.291,16.291,0,0,1-.35,3.01c-.84.07-1.652.14-2.114.154a12.054,12.054,0,0,1-1.232,0l.112,1.218c.364-.056.924-.126,1.246-.168.364-.042,1.036-.112,1.75-.182a21.721,21.721,0,0,1-2.912,6.874l1.148.462a27.817,27.817,0,0,0,2.912-7.448c.6-.056,1.148-.1,1.484-.1.882,0,1.456.224,1.456,1.484a11.916,11.916,0,0,1-.644,4.242,1.166,1.166,0,0,1-1.218.714,6.824,6.824,0,0,1-1.694-.308l.182,1.176a8.291,8.291,0,0,0,1.624.21,1.951,1.951,0,0,0,2.03-1.162,13.325,13.325,0,0,0,.812-5c0-1.876-1.022-2.352-2.254-2.352-.336,0-.91.042-1.554.084.154-.742.28-1.554.35-1.96.056-.266.112-.56.168-.812Zm5.04,2.058a16.668,16.668,0,0,1,2.478,5.026l1.092-.518A24.351,24.351,0,0,0,111,9.592Zm8.96-.91c1.064.294,4.074.91,5.39,1.092l.266-1.092a37.068,37.068,0,0,1-5.362-1.064Zm-.014,1.456-1.19-.154a49.04,49.04,0,0,1-.7,5.628l1.05.252a2.9,2.9,0,0,1,.42-.7,5.385,5.385,0,0,1,4.284-1.834c1.414,0,2.436.77,2.436,1.876,0,1.89-2.142,3.15-6.51,2.618l.336,1.148c5.152.434,7.35-1.246,7.35-3.738,0-1.624-1.414-2.9-3.542-2.9a6.563,6.563,0,0,0-4.48,1.666C118.49,13.554,118.728,11.538,118.91,10.586ZM84.868,40.11c-.014-.672-.028-1.848-.042-2.646,1.05-.49,2.044-.9,2.828-1.2.364-.14.868-.336,1.218-.434l-.448-1.05c-.392.2-.728.364-1.148.546-.728.336-1.568.672-2.52,1.12a1.743,1.743,0,0,0-1.834-1.26A3.932,3.932,0,0,0,81,35.7a9.948,9.948,0,0,0,1.246-2.128,42.832,42.832,0,0,0,4.592-.392l.014-1.036a37.2,37.2,0,0,1-4.242.42c.2-.63.322-1.2.42-1.6l-1.148-.1a7.513,7.513,0,0,1-.35,1.722c-.322.014-.616.014-.91.014-.63,0-1.6-.056-2.338-.14v1.05c.756.056,1.694.084,2.282.084h.574a14.67,14.67,0,0,1-3.192,4.228l.952.714c.476-.56.868-1.078,1.26-1.456a3.69,3.69,0,0,1,2.394-1.022,1.172,1.172,0,0,1,1.246.854c-1.61.84-3.262,1.876-3.262,3.514,0,1.694,1.6,2.114,3.584,2.114a35.7,35.7,0,0,0,3.794-.224l.028-1.134a24.408,24.408,0,0,1-3.78.336c-1.428,0-2.506-.154-2.506-1.246,0-.91.9-1.624,2.184-2.324,0,.728-.014,1.624-.056,2.156Zm14.266-1.82H96.7V36.2h2.436Zm2.688-2.086v-.532a8.907,8.907,0,0,0,2,1.218,4.816,4.816,0,0,1,.714-.868A9.1,9.1,0,0,1,101.92,34.4a20.759,20.759,0,0,0,2.2-1.82l-.784-.546a18.24,18.24,0,0,1-1.988,1.806,9.506,9.506,0,0,1-.91-1.078A21.669,21.669,0,0,0,102.48,31l-.784-.56a16.368,16.368,0,0,1-1.722,1.652,10.247,10.247,0,0,1-.882-1.75l-.9.266a12.065,12.065,0,0,0,3.122,4.634h-6.58a9.769,9.769,0,0,0,2.912-4.06l-.686-.336-.182.042h-3.99v.924h3.472a9.806,9.806,0,0,1-1.3,1.848,19.467,19.467,0,0,0-1.694-1.372l-.644.546A14.84,14.84,0,0,1,94.3,34.3a9.683,9.683,0,0,1-2.842,1.82,5.632,5.632,0,0,1,.644.784,11.472,11.472,0,0,0,2.086-1.232V36.2h1.47V38.29h-3.22v.966H95.55c-.252,1.162-1.05,2.268-3.388,3.052a4.063,4.063,0,0,1,.658.826c2.744-.952,3.57-2.38,3.794-3.878h2.52V41.5c0,1.148.308,1.456,1.484,1.456h1.834c1.022,0,1.316-.49,1.414-2.268a2.868,2.868,0,0,1-.938-.434c-.056,1.5-.126,1.778-.56,1.778h-1.6c-.476,0-.56-.084-.56-.518V39.256h3.318V38.29h-3.318V36.2Zm15.694-5.25H111.1v.854h6.412Zm-8.19-.63a15.63,15.63,0,0,1-3.584,5.516,6.266,6.266,0,0,1,.588,1.008A15.007,15.007,0,0,0,107.884,35v8.022h.98V33.5a20.451,20.451,0,0,0,1.428-2.884Zm7.532,9.17v2.058H111.79V39.494Zm-6.076,3.57h1.008v-.658h5.068v.616h1.036V38.654h-7.112Zm.154-5.488h6.8v-.84h-6.8Zm6.832-2.772h-6.832v.854h6.832Zm-7.98-1.932v.868h9.044v-.868Z" transform="translate(335 1764)"/>
    <path id="パス_812" data-name="パス 812" d="M6.578,10.334c1.106.1,2.282.154,3.668.154,1.274,0,2.8-.1,3.738-.168V9.172c-.994.1-2.408.2-3.738.2a30.945,30.945,0,0,1-3.668-.182ZM6,14.674a8.79,8.79,0,0,0-.28,1.946c0,1.736,1.638,2.66,4.452,2.66a20.39,20.39,0,0,0,4.732-.476l-.014-1.2a18.018,18.018,0,0,1-4.746.532c-2.212,0-3.276-.728-3.276-1.764a5.465,5.465,0,0,1,.28-1.582ZM21,10.334c1.106.1,2.282.154,3.668.154,1.274,0,2.8-.1,3.738-.168V9.172c-.994.1-2.408.2-3.738.2A30.945,30.945,0,0,1,21,9.186Zm-.574,4.34a8.79,8.79,0,0,0-.28,1.946c0,1.736,1.638,2.66,4.452,2.66a20.39,20.39,0,0,0,4.732-.476l-.014-1.2a18.018,18.018,0,0,1-4.746.532c-2.212,0-3.276-.728-3.276-1.764a5.465,5.465,0,0,1,.28-1.582Zm23.394-4.13A15.611,15.611,0,0,0,42.67,8.612l-.742.322a16,16,0,0,1,1.134,1.946Zm-4.62,2.94a22.271,22.271,0,0,1,2.562-.14A20.064,20.064,0,0,1,44.1,13.5l.028-1.064a22.138,22.138,0,0,0-2.394-.112c-.9,0-1.806.056-2.534.112Zm.9-3.64a20.091,20.091,0,0,1-2.646.5l.21-1.022c.056-.266.154-.8.252-1.092l-1.358-.112a6.5,6.5,0,0,1-.042,1.134c-.042.28-.112.714-.21,1.218-.532.028-1.022.056-1.484.056a12.361,12.361,0,0,1-1.666-.1l.042,1.092c.49.042.994.056,1.61.056q.588,0,1.26-.042c-.112.5-.224,1.008-.35,1.47a30.806,30.806,0,0,1-2.324,6.2l1.232.406a40.911,40.911,0,0,0,2.17-6.342c.154-.6.308-1.232.434-1.848a26.677,26.677,0,0,0,2.87-.462ZM38.5,15.71a7.842,7.842,0,0,0-.21,1.638c0,1.372,1.148,2.058,3.332,2.058a20.364,20.364,0,0,0,2.674-.2l.042-1.134a14.261,14.261,0,0,1-2.7.266c-1.974,0-2.282-.63-2.282-1.274a4.95,4.95,0,0,1,.2-1.26Zm4.984-7.35a14.887,14.887,0,0,1,1.162,1.946L45.4,9.97a18.008,18.008,0,0,0-1.19-1.932Zm5.348-.154a5.763,5.763,0,0,1-.07.924,37.463,37.463,0,0,0-.518,5.53,15.338,15.338,0,0,0,.728,4.4l.952-.112-.042-.476a3.606,3.606,0,0,1,.07-.616,30.728,30.728,0,0,1,.9-3.052l-.616-.378c-.252.686-.532,1.512-.728,2.1a18.888,18.888,0,0,1,.392-7.294c.07-.266.168-.644.252-.9ZM59.372,10.7a16.453,16.453,0,0,1-2.254.322c-.014-.868-.028-1.778-.014-2.086s.014-.574.042-.812h-1.3a8.078,8.078,0,0,1,.126.826c.028.35.056,1.274.084,2.142-.588.028-1.176.042-1.75.042a15.438,15.438,0,0,1-2.226-.154V12.1c.6.056,1.582.1,2.24.1.574,0,1.176-.014,1.764-.042v.406c0,2.674-.07,4.228-1.554,5.516a4.67,4.67,0,0,1-1.358.868l1.022.812c2.94-1.736,2.94-3.99,2.94-7.182V12.1a21.766,21.766,0,0,0,2.24-.252Zm5.362,6.342c-.6,0-1.414-.77-1.414-2.52A4.834,4.834,0,0,1,67.6,10.04a22.368,22.368,0,0,1-.77,3.738C66.12,16.116,65.35,17.04,64.734,17.04Zm3.654,2.324c3.3-.434,5.222-2.38,5.222-5.292a5.033,5.033,0,0,0-5.32-5.1,5.92,5.92,0,0,0-6.076,5.642c0,2.282,1.246,3.71,2.478,3.71,1.288,0,2.394-1.47,3.248-4.312a29.3,29.3,0,0,0,.826-3.99,3.843,3.843,0,0,1,3.682,4.018,4.156,4.156,0,0,1-3.514,4.1,8.69,8.69,0,0,1-1.19.168Zm12.6-4.892h1.584V12.344c.3.288.592.592.768.784l.9-1.184c-.24-.176-1.264-.864-1.664-1.1v-.176h1.632V9.224H82.576V7.96H80.992V9.224H79.264v1.44h1.424a8.066,8.066,0,0,1-1.936,2.3c.016-.72.032-1.408.032-2.032v-3.2h11.76V6.024H77.008v4.912c0,2.512-.1,6.08-1.3,8.544a7.158,7.158,0,0,1,1.616.88,19.339,19.339,0,0,0,1.392-7.024,6.984,6.984,0,0,1,.816.944,8.089,8.089,0,0,0,1.456-1.744Zm4.592,2.736h3.7V15.576h-3.7V14.2H83.728v4.208H81.936V15.384h-1.76v3.024H78.384v1.7h12.24v-1.7h-5.04Zm4.7-6.544V9.224h-2.3V7.96h-1.6V9.224H84.592v1.44h1.392a7.434,7.434,0,0,1-2.16,2.288A7.759,7.759,0,0,1,84.848,14.1a7.508,7.508,0,0,0,1.536-1.792v2.16h1.6V12.328a6.792,6.792,0,0,0,1.84,1.808A6.144,6.144,0,0,1,90.9,12.888a6.48,6.48,0,0,1-2.48-2.224Zm5.2-1.088h3.376v2.256H95.488Zm8.688,0v2.256h-3.328V9.576Zm1.968,4.08v-5.9h-5.3V5.528H98.864V7.752H93.632v5.9h5.2a4.8,4.8,0,0,1-.864,2.528,7.671,7.671,0,0,1-1.936-2.352l-1.744.624a9.251,9.251,0,0,0,2.208,2.96,13.258,13.258,0,0,1-4.128,1.328,8.371,8.371,0,0,1,1.152,1.7,12.905,12.905,0,0,0,4.672-1.872c2.16,1.12,4.944,1.5,8.416,1.68a4.988,4.988,0,0,1,.88-1.984c-3.328-.048-5.888-.256-7.856-1.1a6.679,6.679,0,0,0,1.2-3.5Zm7.02-5.674a16.291,16.291,0,0,1-.35,3.01c-.84.07-1.652.14-2.114.154a12.054,12.054,0,0,1-1.232,0l.112,1.218c.364-.056.924-.126,1.246-.168.364-.042,1.036-.112,1.75-.182a21.721,21.721,0,0,1-2.912,6.874l1.148.462a27.817,27.817,0,0,0,2.912-7.448c.6-.056,1.148-.1,1.484-.1.882,0,1.456.224,1.456,1.484a11.916,11.916,0,0,1-.644,4.242,1.166,1.166,0,0,1-1.218.714,6.824,6.824,0,0,1-1.694-.308l.182,1.176a8.291,8.291,0,0,0,1.624.21,1.951,1.951,0,0,0,2.03-1.162,13.325,13.325,0,0,0,.812-5c0-1.876-1.022-2.352-2.254-2.352-.336,0-.91.042-1.554.084.154-.742.28-1.554.35-1.96.056-.266.112-.56.168-.812Zm5.04,2.058a16.668,16.668,0,0,1,2.478,5.026l1.092-.518a24.351,24.351,0,0,0-2.534-4.956Zm8.96-.91c1.064.294,4.074.91,5.39,1.092l.266-1.092a37.068,37.068,0,0,1-5.362-1.064Zm-.014,1.456-1.19-.154a49.04,49.04,0,0,1-.7,5.628l1.05.252a2.9,2.9,0,0,1,.42-.7,5.385,5.385,0,0,1,4.284-1.834c1.414,0,2.436.77,2.436,1.876,0,1.89-2.142,3.15-6.51,2.618l.336,1.148c5.152.434,7.35-1.246,7.35-3.738,0-1.624-1.414-2.9-3.542-2.9a6.563,6.563,0,0,0-4.48,1.666C126.73,13.554,126.968,11.538,127.15,10.586ZM84.868,40.11c-.014-.672-.028-1.848-.042-2.646,1.05-.49,2.044-.9,2.828-1.2.364-.14.868-.336,1.218-.434l-.448-1.05c-.392.2-.728.364-1.148.546-.728.336-1.568.672-2.52,1.12a1.743,1.743,0,0,0-1.834-1.26A3.932,3.932,0,0,0,81,35.7a9.948,9.948,0,0,0,1.246-2.128,42.832,42.832,0,0,0,4.592-.392l.014-1.036a37.2,37.2,0,0,1-4.242.42c.2-.63.322-1.2.42-1.6l-1.148-.1a7.513,7.513,0,0,1-.35,1.722c-.322.014-.616.014-.91.014-.63,0-1.6-.056-2.338-.14v1.05c.756.056,1.694.084,2.282.084h.574a14.67,14.67,0,0,1-3.192,4.228l.952.714c.476-.56.868-1.078,1.26-1.456a3.69,3.69,0,0,1,2.394-1.022,1.172,1.172,0,0,1,1.246.854c-1.61.84-3.262,1.876-3.262,3.514,0,1.694,1.6,2.114,3.584,2.114a35.7,35.7,0,0,0,3.794-.224l.028-1.134a24.408,24.408,0,0,1-3.78.336c-1.428,0-2.506-.154-2.506-1.246,0-.91.9-1.624,2.184-2.324,0,.728-.014,1.624-.056,2.156Zm14.266-1.82H96.7V36.2h2.436Zm2.688-2.086v-.532a8.907,8.907,0,0,0,2,1.218,4.816,4.816,0,0,1,.714-.868A9.1,9.1,0,0,1,101.92,34.4a20.759,20.759,0,0,0,2.2-1.82l-.784-.546a18.24,18.24,0,0,1-1.988,1.806,9.506,9.506,0,0,1-.91-1.078A21.669,21.669,0,0,0,102.48,31l-.784-.56a16.368,16.368,0,0,1-1.722,1.652,10.247,10.247,0,0,1-.882-1.75l-.9.266a12.065,12.065,0,0,0,3.122,4.634h-6.58a9.769,9.769,0,0,0,2.912-4.06l-.686-.336-.182.042h-3.99v.924h3.472a9.806,9.806,0,0,1-1.3,1.848,19.467,19.467,0,0,0-1.694-1.372l-.644.546A14.84,14.84,0,0,1,94.3,34.3a9.683,9.683,0,0,1-2.842,1.82,5.632,5.632,0,0,1,.644.784,11.472,11.472,0,0,0,2.086-1.232V36.2h1.47V38.29h-3.22v.966H95.55c-.252,1.162-1.05,2.268-3.388,3.052a4.063,4.063,0,0,1,.658.826c2.744-.952,3.57-2.38,3.794-3.878h2.52V41.5c0,1.148.308,1.456,1.484,1.456h1.834c1.022,0,1.316-.49,1.414-2.268a2.868,2.868,0,0,1-.938-.434c-.056,1.5-.126,1.778-.56,1.778h-1.6c-.476,0-.56-.084-.56-.518V39.256h3.318V38.29h-3.318V36.2Zm15.694-5.25H111.1v.854h6.412Zm-8.19-.63a15.63,15.63,0,0,1-3.584,5.516,6.266,6.266,0,0,1,.588,1.008A15.007,15.007,0,0,0,107.884,35v8.022h.98V33.5a20.451,20.451,0,0,0,1.428-2.884Zm7.532,9.17v2.058H111.79V39.494Zm-6.076,3.57h1.008v-.658h5.068v.616h1.036V38.654h-7.112Zm.154-5.488h6.8v-.84h-6.8Zm6.832-2.772h-6.832v.854h6.832Zm-7.98-1.932v.868h9.044v-.868Z" transform="translate(335 1764)" fill="none"/>
    <g id="グループ_583" data-name="グループ 583" transform="translate(31 51.34)">
      <g id="グループ_100" data-name="グループ 100" transform="translate(319.673 1738)">
        <g id="グループ_90" data-name="グループ 90" transform="translate(6.032 5.548)">
          <path id="パス_279" data-name="パス 279" d="M564.773,1529.2l.065.24.045.257.082.249.076.25.03.26.041.257.083.25.073.252.073.253.032.262-.26.1-.274.046-.264.1-.277-.023-.266.073-.272.046-.262.076-.265.066-.267.053-.267.051-.265.061-.275,0-.266.063-.271.016-.27.028-.28.041-.066-.278-.064-.266-.049-.27-.094-.257-.092-.257-.058-.267-.088-.258-.07-.264-.048-.269-.089-.258-.093-.257-.047-.269-.1-.254-.056-.267-.074-.264-.087-.26-.03-.276-.083-.26-.087-.259-.095-.256-.055-.267-.067-.263-.066-.263-.09-.257-.066-.263-.086-.258-.075-.262-.1-.255-.068-.262-.067-.263-.095-.254-.039-.271-.116-.246-.078-.281.286-.048.282-.038.28-.045.275-.067.28-.04.276-.07.277-.067.286-.026.262-.056.093.238.059.266.069.263.033.272.076.261.056.267.066.262.046.267.068.263.106.255.052.267.056.266.055.266.083.261.069.264.067.264.049.269.071.264.067.264.048.268.039.272.085.262.062.268.062.269.275-.046.278,0,.274-.035.267-.085.28.005.277-.023.271-.078Z" transform="translate(-558.541 -1523.131)"/>
        </g>
        <g id="グループ_91" data-name="グループ 91" transform="translate(15.804 5.787)">
          <path id="パス_280" data-name="パス 280" d="M588.564,1529.521l-.051-.274-.073-.26-.056-.261-.066-.26-.084-.256-.037-.269-.081-.257-.067-.26-.068-.26-.069-.261-.048-.266-.063-.262-.077-.26-.073-.26-.047-.266-.075-.259-.046-.267-.092-.257-.065-.264-.04-.259.25-.07.261-.071.267-.046.261-.075.265-.061.259-.089.267-.035.061.249.028.269.042.266.055.263.052.264.056.263.057.263.047.265.057.263.082.258.037.267.05.265.08.258.033.268.075.259.037.268.082.259.052.265.04.269.071.273-.276.066-.276.047-.27.077-.274.063-.27.083Z" transform="translate(-587.287 -1523.834)"/>
        </g>
        <g id="グループ_92" data-name="グループ 92" transform="translate(30.711 7.757)">
          <path id="パス_281" data-name="パス 281" d="M632.353,1529.864l.094.29.107.281.1.283.1.285.1.283.111.28.1.284.11.281.1.286.1.286.088.282-.273.1-.278.115-.282.1-.285.1-.279.122-.11-.3-.062-.3-.069-.3-.066-.3-.054-.3-.077-.3-.051-.3-.066-.3-.056-.3-.065-.3-.083-.3-.077-.3-.083-.307.3.076.3.055.3.041Z" transform="translate(-631.141 -1529.63)"/>
        </g>
        <g id="グループ_93" data-name="グループ 93" transform="translate(45.088 3.858)">
          <path id="パス_282" data-name="パス 282" d="M674.749,1518.159l.174.258.208.218.176.244.2.228.187.238.2.226.181.245-.256.223-.274.2-.258.223-.259.222-.268.2-.186-.236-.172-.257-.139-.278-.141-.275-.176-.257-.154-.273-.181-.254-.176-.247.26-.121.263-.128.266-.121.255-.147Z" transform="translate(-673.434 -1518.159)"/>
        </g>
        <g id="グループ_94" data-name="グループ 94" transform="translate(47.292 3.236)">
          <path id="パス_283" data-name="パス 283" d="M681.519,1516.331l.2.321.167.329.174.223.152.256.137.27-.341.139-.335.151-.338.146-.335.16-.224-.268-.2-.286-.214-.276-.226-.267-.211-.269.316-.112.311-.15.331-.1.319-.135Z" transform="translate(-679.92 -1516.331)"/>
        </g>
        <g id="グループ_95" data-name="グループ 95" transform="translate(21.785 7.419)">
          <path id="パス_284" data-name="パス 284" d="M610.765,1533.714l-.084-.334-.058-.334-.075-.332-.056-.336-.272.09-.286.041-.273.09-.275.088-.285.064-.117-.321-.132-.312-.131-.313-.111-.281-.077-.293-.115-.282-.061-.3-.158-.274-.105-.3-.14-.281-.136-.284-.122-.292-.145-.282-.122-.3-.324.042-.317.007-.315.039-.317,0-.318.013-.317.028-.317.038-.322,0,.134.31.084.322.124.307.1.321.137.307.076.3.1.291.1.292.1.293.1.292.108.291.1.293.1.294.1.3.1.293.084.3.1.294.121.289.095.289.3-.064.31-.041.3-.069.3-.075.3-.067.306-.062.31-.043.305-.072.309-.055h0l.288-.057.287-.065.293-.041Z" transform="translate(-604.883 -1528.635)"/>
        </g>
        <g id="グループ_97" data-name="グループ 97" transform="translate(35.3 5.414)">
          <g id="グループ_96" data-name="グループ 96">
            <path id="パス_285" data-name="パス 285" d="M656.1,1528.114c-.093-.106-.1-.1-.191-.206s-.087-.11-.176-.22-.093-.105-.182-.215-.073-.121-.162-.23-.082-.114-.17-.223-.1-.1-.191-.209-.075-.121-.164-.231-.086-.113-.175-.223-.1-.1-.186-.214c-.065-.071-.135-.138-.2-.208s-.115-.154-.179-.224-.14-.132-.2-.2-.135-.137-.2-.206l-.193-.214c-.065-.072-.133-.141-.2-.211s-.12-.152-.183-.222-.114-.157-.176-.227-.137-.135-.2-.2-.152-.121-.214-.191-.1-.167-.163-.237-.154-.122-.216-.192-.122-.148-.183-.217-.111-.158-.172-.228-.137-.135-.2-.2-.116-.147-.175-.216c-.118.044-.083.094-.18.175s-.105.071-.2.152-.09.089-.187.171-.117.057-.216.135c-.062.038-.126.074-.207.133-.054.04-.115.094-.191.158-.054.046-.114.1-.184.165s-.1.126-.166.189l-.228.212a2.385,2.385,0,0,1-.234.2c-.047.038-.116.1-.236.2-.064.053-.143.117-.239.2s-.1.09-.194.183-.094.1-.189.189-.1.089-.194.182l-.19.187c-.1.093-.091.1-.187.19s-.1.093-.193.186-.1.093-.193.186-.114.076-.211.17-.078.113-.176.2-.1.1-.213.2l-.218.2c-.109.1-.11.1-.219.194s-.126.078-.235.176-.116.09-.226.188-.082.128-.191.225-.117.089-.226.187-.116.09-.224.187l-.219.2c-.109.1-.1.114-.2.212s-.121.085-.231.184-.193.052-.21.2.077.1.164.2.08.107.167.209.09.1.177.2.1.094.182.2.065.121.151.224.086.1.172.2.09.1.177.2.1.093.187.2.086.1.173.208.052.149.167.221c.067-.054.155-.124.232-.194s.115-.138.19-.209.139-.115.212-.186.115-.142.188-.212.152-.105.224-.174.115-.144.187-.212.135-.124.207-.191l.207-.192c.067-.061.138-.123.211-.189s.136-.126.209-.191.132-.132.205-.2.144-.118.217-.183.147-.117.22-.181.135-.13.209-.194c.1-.1.123-.071.22-.17s.089-.105.187-.2.074-.119.171-.217.123-.072.22-.17.079-.115.176-.213.112-.084.209-.182.093-.1.19-.2.11-.087.207-.186.094-.1.192-.2c.121-.121.2-.225.274-.3.105.041.069.087.146.171s.069.09.146.173c.1.11.129.085.231.2s.08.129.181.24.1.114.2.225.1.115.2.226.134.083.236.194.1.117.195.232.063.128.151.237.119.083.207.192.063.128.15.237l.175.218c.088.109.106.1.193.2s.09.108.178.218.092.106.184.213.08.122.177.23.1.1.2.21.091.114.188.221.083.121.18.228.124.083.221.191.083.121.181.229.1.106.2.214.085.12.183.228.134.077.231.186.082.121.176.231.081.121.174.231.09.113.183.223.1.1.195.214.1.107.192.218l.186.221c.094.11.1.1.194.215s.091.113.185.224.071.13.164.241.108.1.2.209.08.122.173.232l.189.222c.094.111.092.113.186.224s.121.088.216.2.033.245.179.247.1-.12.188-.229l.183-.218c.091-.109.078-.12.169-.229s.1-.1.2-.205.081-.118.172-.227.109-.095.2-.2.068-.129.16-.239a.839.839,0,0,0,.171-.223,1.983,1.983,0,0,1-.178-.192c-.051-.064-.088-.155-.152-.239s-.122-.135-.182-.216-.123-.137-.182-.215-.1-.158-.155-.236-.1-.16-.155-.237-.107-.152-.166-.229-.131-.134-.19-.21-.121-.141-.179-.216-.11-.151-.169-.225-.119-.144-.179-.219-.107-.154-.168-.228-.135-.132-.2-.205-.128-.139-.19-.211-.12-.144-.183-.215-.109-.155-.173-.225-.137-.131-.2-.2-.11-.156-.175-.225-.142-.126-.209-.194-.129-.139-.2-.206-.133-.135-.2-.2S656.165,1528.177,656.1,1528.114Z" transform="translate(-644.642 -1522.739)"/>
          </g>
          <path id="パス_286" data-name="パス 286" d="M688.842,1551.2c.072-.253.3-.021.122-.135s-.212-.234-.189-.25,1.207.121-.455-.219Z" transform="translate(-673.473 -1541.127)"/>
          <path id="パス_287" data-name="パス 287" d="M689.436,1548.6l0-.064a.078.078,0,0,1,.112.109.058.058,0,0,1-.072,0,.052.052,0,0,0-.071-.055v-.031l.079-.011" transform="translate(-674.19 -1539.756)"/>
        </g>
        <path id="パス_288" data-name="パス 288" d="M592.82,1539.008c-.018.009-.036.026-.055.027a.332.332,0,0,0-.152.056.692.692,0,0,1-.252.1.092.092,0,0,0-.021,0,2.912,2.912,0,0,1-.418.112c-.076.024-.158.032-.235.054s-.153.052-.228.079c-.016.006-.041.01-.033.035s.044.027.062.014.022-.026.037-.033a.112.112,0,0,1,.04,0c0,.011,0,.021-.006.032s-.008.018-.01.027.021.081.036.079a.053.053,0,0,0,.042-.058c0-.1.065-.12.141-.131.033-.005.066,0,.1-.01s.036-.02.056-.025a.171.171,0,0,1,.048,0c0,.013-.006.026-.01.039-.01.029-.023.058-.031.088,0,.014,0,.041,0,.044.026.01.03-.017.036-.032a.818.818,0,0,0,.025-.082c.016-.052.04-.062.09-.039s.026-.043.037.007a.387.387,0,0,0,.011.063c.019.05.052.056.091.019a.247.247,0,0,1,.056-.043c.05-.024.071-.01.07.045,0,.014,0,.028-.005.042a.094.094,0,0,0,.059.1.087.087,0,0,0,.116-.043.8.8,0,0,1,.2-.246.186.186,0,0,0,.046-.063.155.155,0,0,1,.058-.077.083.083,0,0,0,.027-.053c.011-.072.04-.031.013-.1Z" transform="translate(-574.215 -1528.063)"/>
        <path id="パス_289" data-name="パス 289" d="M593.263,1540.862c0,.046-.051.111-.066.1a.128.128,0,0,1-.042-.077c0-.031.011-.071.05-.067S593.249,1540.85,593.263,1540.862Z" transform="translate(-575.356 -1529.257)"/>
        <g id="グループ_98" data-name="グループ 98" transform="translate(0 0)">
          <path id="パス_290" data-name="パス 290" d="M540.833,1511.18c-.087-.094,0-.12.008-.249s-.018-.129-.015-.257.01-.129.014-.258,0-.129,0-.258.023-.128.026-.257-.021-.13-.018-.259.02-.129.023-.257.013-.129.017-.258-.022-.129-.018-.258,0-.129.006-.259.016-.129.019-.259.015-.13.018-.259.008-.13.009-.26-.016-.126-.016-.252-.012-.126-.012-.252.031-.127.031-.253-.064-.135-.024-.255c.083,0,.174-.008.259-.008s.161.012.25.012.161-.007.251-.007.162.01.253.01c.068,0,.152-.017.25-.017.076,0,.159,0,.249,0s.161.016.248.016.163.007.249.007.164-.018.249-.018.165.01.25.01.164.008.248.009.165,0,.249,0,.166-.014.25-.013.167.007.251.008.168.014.252.015.168-.02.25-.02.168.016.25.016.169-.014.252-.013l.25,0c.086,0,.17-.008.25-.008s.17.02.249.02.186,0,.263,0c.037.131-.018.14-.018.277s0,.137,0,.274.007.137.007.274-.019.138-.019.275.116.183.022.283-.136-.026-.263-.028-.129.02-.257.018l-.256,0c-.128,0-.127-.025-.256-.027s-.129.028-.257.026-.128-.009-.256-.011l-.256,0c-.128,0-.128,0-.256-.006s-.129.009-.257.007-.128-.02-.257-.022-.13.013-.258.011-.129-.019-.258-.019-.117.013-.234.015-.118.005-.235.007-.118-.02-.236-.019-.117.02-.235.021c-.046,0-.092-.007-.135-.007a1.023,1.023,0,0,0,0,.255c0,.128,0,.128,0,.256s0,.127.007.255.022.127.026.255.012.128.016.256.006.128.01.256-.021.128-.017.256.013.127.017.255.016.128.019.256,0,.129.005.257.008.129.012.257.074.159-.017.25-.118,0-.244-.01-.127.014-.253.009-.125-.033-.252-.039-.127,0-.254,0-.131-.041-.257-.022S540.92,1511.274,540.833,1511.18Z" transform="translate(-540.796 -1506.811)"/>
        </g>
        <g id="グループ_99" data-name="グループ 99" transform="translate(52.311 15.892)">
          <path id="パス_291" data-name="パス 291" d="M697.06,1556.429c.12,0,.12.009.24.008s.12,0,.239,0,.119-.026.239-.027.119.014.239.013.12-.009.24-.01.12.019.24.018.12-.008.241-.009.12,0,.241,0c.048,0,.11,0,.155,0,.018-.126-.023-.13-.027-.258s.012-.128.008-.256-.032-.126-.036-.254.016-.129.012-.256-.025-.127-.029-.255.02-.128.016-.256-.022-.127-.026-.254,0-.128,0-.256-.007-.128-.01-.256.014-.129.01-.258-.11-.169-.023-.263.126,0,.245,0,.118.035.236.04.119-.009.238,0,.119.014.238.019.119.008.239.013.12-.007.24,0,.151-.073.231.016,0,.116,0,.239.009.123.005.247-.012.123-.016.247-.016.123-.019.246-.013.123-.016.246.026.125.022.249-.024.123-.027.247-.013.123-.016.247.019.124.016.247-.019.123-.023.247-.01.124-.013.248.008.125,0,.249.017.125.015.25-.01.128-.01.256-.006.129-.006.257,0,.129,0,.257.045.136,0,.258c-.088,0-.175.008-.266.008s-.17-.023-.263-.024-.171.016-.266.015-.171-.013-.267-.013c-.069,0-.152.022-.249.021-.075,0-.158-.013-.248-.013s-.161,0-.248,0-.163.013-.249.012l-.249,0c-.081,0-.164,0-.249,0s-.165-.012-.249-.013l-.249,0c-.082,0-.166-.005-.249-.005s-.167-.009-.25-.009-.168.015-.251.015-.167.015-.25.015-.167-.023-.249-.023-.168.018-.25.017H695.8c-.085,0-.168-.02-.25-.021s-.17.006-.25.005-.17.01-.249.009-.177-.014-.255-.016c-.042-.118,0-.128,0-.254s-.013-.125-.02-.25.007-.127,0-.253,0-.126-.008-.253-.031-.125-.038-.252-.1-.166-.01-.256.132.018.261.021l.259,0c.129,0,.129,0,.259.008s.13-.016.259-.013l.258,0c.13,0,.13-.008.26-.005s.129.015.26.018.13,0,.261,0S696.929,1556.428,697.06,1556.429Z" transform="translate(-694.683 -1553.563)"/>
        </g>
      </g>
    </g>
  </g>
</svg>
