<svg xmlns="http://www.w3.org/2000/svg" width="341.011" height="47.364" viewBox="0 0 341.011 47.364">
  <g id="グループ_982" data-name="グループ 982" transform="translate(-510.118 -5426.913)">
    <path id="パス_808" data-name="パス 808" d="M23.6-13.65A44.548,44.548,0,0,0,17.5-17l-1.6,2.45a33.009,33.009,0,0,1,5.95,3.525Zm-9.325-3.8a26.15,26.15,0,0,1-3.325.775c.35-1.325.65-2.575.85-3.375L8.375-20.4A21.079,21.079,0,0,1,7.7-16.25c-.75.05-1.5.075-2.225.075a31.47,31.47,0,0,1-3.3-.175l.225,2.9c1.075.05,2.075.075,3.1.075.425,0,.85,0,1.275-.025a37.774,37.774,0,0,1-5.05,8.75L4.75-3.125a45.7,45.7,0,0,0,5.3-10.6,36.281,36.281,0,0,0,4.3-.85Zm.6,13.775c0,1.325-.55,2.3-2.225,2.3-1.35,0-2.125-.625-2.125-1.55,0-.875.925-1.475,2.35-1.475a8.762,8.762,0,0,1,2,.25Zm-.4-8.675c.075,1.5.2,3.675.275,5.525-.525-.05-1.1-.1-1.675-.1-3.45,0-5.475,1.875-5.475,4.3,0,2.725,2.425,4.1,5.5,4.1,3.525,0,4.775-1.8,4.775-4.1V-2.85a22.04,22.04,0,0,1,3.35,2.625l1.65-2.65A16.493,16.493,0,0,0,17.75-6.05c-.075-1.225-.125-2.425-.15-3.125-.025-1.1-.075-2.125,0-3.175ZM50.575.55c-.05-.75-.1-2.075-.1-2.95V-15.35c0-.725.05-1.725.075-2.3-.425.025-1.475.05-2.2.05H35.775c-.875,0-2.175-.05-3.1-.15v3.475c.7-.05,2.05-.1,3.1-.1H47v10.35H35.475c-1.125,0-2.25-.075-3.125-.15V-.6c.825-.075,2.25-.15,3.225-.15h11.4c0,.475,0,.9-.025,1.3Zm14.15.5a7.054,7.054,0,0,1,1.5-.675c5.875-1.925,11.075-4.9,14.5-9L78.95-11.45A28.377,28.377,0,0,1,66.1-3.2V-16.175A17.711,17.711,0,0,1,66.35-19H62.425a15.45,15.45,0,0,1,.275,2.825v13.55A3.265,3.265,0,0,1,62.375-1ZM96.3-13.55a13.859,13.859,0,0,1,.175,2.25c0,4.1-.6,6.75-3.775,8.95A9.878,9.878,0,0,1,90.075-.975l2.9,2.375c6.825-3.65,6.95-8.75,6.95-14.95Zm11.825-5.225a12.455,12.455,0,0,1-2.525.225H92.125a19.82,19.82,0,0,1-3.05-.25v3.475c1.175-.1,2-.175,3.05-.175H105.15a14.867,14.867,0,0,1-4.6,4.65l2.575,2.075a25.156,25.156,0,0,0,6.025-6.85,12.587,12.587,0,0,1,.975-1.3Zm14.1,19.825a7.054,7.054,0,0,1,1.5-.675c5.875-1.925,11.075-4.9,14.5-9L136.45-11.45A28.377,28.377,0,0,1,123.6-3.2V-16.175A17.711,17.711,0,0,1,123.85-19h-3.925a15.451,15.451,0,0,1,.275,2.825v13.55A3.265,3.265,0,0,1,119.875-1ZM149.85-1.475,152.825,1.1A21.162,21.162,0,0,0,161.5-6.575a26.278,26.278,0,0,0,3.475-8.775c.175-.725.45-1.95.75-2.9l-4.05-.575a13.976,13.976,0,0,1-.325,3.025,19.51,19.51,0,0,1-2.95,7.55A18.941,18.941,0,0,1,149.85-1.475ZM146.125-17.05A56.486,56.486,0,0,1,150.35-9.5l3.3-1.875c-.925-1.75-3.075-5.575-4.325-7.325Zm33.6,18.1a7.053,7.053,0,0,1,1.5-.675c5.875-1.925,11.075-4.9,14.5-9L193.95-11.45A28.377,28.377,0,0,1,181.1-3.2V-16.175A17.71,17.71,0,0,1,181.35-19h-3.925a15.451,15.451,0,0,1,.275,2.825v13.55A3.265,3.265,0,0,1,177.375-1Z" transform="translate(655.404 5464.925)"/>
    <g id="グループ_196" data-name="グループ 196" transform="translate(510.118 5426.913)">
      <g id="グループ_186" data-name="グループ 186" transform="translate(14.176 12.94)">
        <path id="パス_340" data-name="パス 340" d="M555.531,5457.06l.146.7.172.656.133.665.129.664.121.665.217.646.12.67.207.652.062.673-.589.163-.622.166-.632.1-.623.16-.635.06-.63.136-.623.132-.6.222-.621.145-.635.069-.633.053-.633.07-.621.144H548.1l-.62.165-.6,0-.21-.6-.175-.634-.207-.624-.184-.631-.154-.639-.124-.646-.21-.623-.125-.646-.181-.63-.235-.615-.134-.642-.162-.635-.174-.631-.179-.634-.154-.643-.241-.616-.121-.649-.241-.615-.155-.638-.156-.637-.216-.617-.193-.624-.19-.625-.166-.633-.151-.637-.168-.632-.171-.631-.278-.6-.162-.635-.165-.631-.2-.623-.211-.615-.137-.606.625-.2.668-.045.632-.218.662-.064.642-.157.66-.091.66-.09.648-.163.636-.138.146.6.125.624.145.619.208.6.127.623.118.627.157.611.122.62.2.606.194.609.116.624.079.634.155.616.141.623.173.612.16.617.188.611.087.635.145.62.259.593.1.632.158.621.11.635.188.592.627-.021.634-.126.646-.036.629-.16.64-.1.649-.037.656-.009Z" transform="translate(-540.947 -5442.926)"/>
      </g>
      <g id="グループ_187" data-name="グループ 187" transform="translate(36.929 13.477)">
        <path id="パス_341" data-name="パス 341" d="M572.151,5456.9l-.137-.64-.159-.645-.184-.633-.124-.651-.219-.629-.123-.652-.192-.632-.162-.641-.122-.656-.139-.647-.181-.64-.192-.638-.12-.654-.185-.637-.187-.637-.146-.651-.162-.646-.128-.658-.187-.651.63-.127.615-.146.616-.139.6-.214.62-.139.627-.118.616-.189.1.676.146.646.092.657.136.646.162.643.117.652.114.653.153.646.129.649.15.646.083.657.175.639.166.641.135.648.094.66.174.642.146.647.109.657.168.675-.644.158-.633.159-.646.119-.627.2-.638.167Z" transform="translate(-569.102 -5443.59)"/>
      </g>
      <g id="グループ_188" data-name="グループ 188" transform="translate(71.814 18.145)">
        <path id="パス_342" data-name="パス 342" d="M615.079,5449.929l.25.648.255.655.228.664.238.662.216.671.255.652.215.668.235.664.23.668.28.651.23.678-.668.228-.647.271-.665.225-.653.266-.664.228-.232-.667-.21-.686-.151-.7-.133-.7-.15-.7-.133-.7-.15-.7-.108-.709-.178-.693-.179-.7-.168-.7-.149-.7-.2-.7.708.13.7.157.711.108Z" transform="translate(-612.269 -5449.367)"/>
      </g>
      <g id="グループ_189" data-name="グループ 189" transform="translate(105.417 9.064)">
        <path id="パス_343" data-name="パス 343" d="M656.906,5438.129l.421.558.464.53.422.562.452.542.432.56.453.546.486.54-.634.5-.626.488-.573.556-.609.516-.625.517-.448-.625-.438-.582-.279-.673-.4-.6-.377-.621-.37-.63-.382-.624-.42-.559.575-.341.623-.28.6-.324.639-.254Z" transform="translate(-653.851 -5438.129)"/>
      </g>
      <g id="グループ_190" data-name="グループ 190" transform="translate(110.568 7.575)">
        <path id="パス_344" data-name="パス 344" d="M663.955,5436.288l.464.739.381.776.385.534.367.589.322.614-.767.382-.789.341-.784.355-.8.31-.485-.643-.526-.622-.49-.651-.516-.633-.492-.625.727-.28.736-.329.761-.269.762-.273Z" transform="translate(-660.224 -5436.288)"/>
      </g>
      <g id="グループ_191" data-name="グループ 191" transform="translate(50.952 17.396)">
        <path id="パス_345" data-name="パス 345" d="M600.178,5460.243l-.133-.775-.19-.771-.115-.787-.191-.758-.636.139-.639.206-.654.153-.652.166-.648.177-.271-.742-.315-.728-.324-.724-.212-.673-.24-.666-.2-.681-.185-.687-.325-.663-.355-.645-.257-.688-.3-.672-.333-.659-.283-.685-.344-.641-.726.062-.74.04-.739.042-.738.032-.741.056-.744.028-.744.059-.75.033.24.751.271.725.282.72.245.742.318.718.209.693.229.684.186.7.242.685.245.682.282.668.206.7.217.692.216.693.236.684.234.689.262.68.258.684.206.719.72-.183.724-.1.712-.148.7-.184.707-.165.725-.1.707-.191.726-.106.721-.133-.008-.035.68-.1.666-.18.677-.133Z" transform="translate(-586.454 -5448.44)"/>
      </g>
      <g id="グループ_193" data-name="グループ 193" transform="translate(82.485 12.66)">
        <g id="グループ_192" data-name="グループ 192">
          <path id="パス_346" data-name="パス 346" d="M652.266,5455.165c-.217-.247-.195-.266-.4-.521l-.414-.512c-.207-.255-.2-.263-.4-.518s-.2-.258-.41-.514-.22-.244-.427-.5-.16-.294-.368-.551-.22-.248-.427-.5-.251-.222-.46-.479-.153-.3-.365-.558c-.152-.167-.36-.282-.508-.447s-.262-.367-.41-.53-.282-.351-.429-.513-.35-.288-.5-.45-.315-.327-.464-.491-.262-.372-.41-.537-.3-.336-.447-.5-.332-.307-.478-.471-.322-.314-.467-.477-.294-.336-.438-.5-.3-.333-.446-.5-.255-.378-.4-.541-.339-.3-.482-.461-.224-.4-.365-.563-.366-.276-.506-.437-.256-.357-.394-.519c-.276.1-.242.164-.466.354s-.227.187-.453.377-.215.2-.441.395-.208.212-.442.394a5.63,5.63,0,0,0-.646.421c-.16.124-.376.254-.615.466-.166.145-.313.364-.531.565-.246.229-.442.357-.56.468a6.073,6.073,0,0,1-.53.484c-.11.089-.272.232-.552.464-.15.126-.326.286-.55.474-.256.241-.221.276-.473.521s-.3.19-.552.433-.223.273-.474.519-.291.2-.541.448-.231.268-.483.512-.259.24-.511.486-.236.265-.49.512-.279.219-.537.461-.235.246-.489.474-.235.251-.49.479-.272.209-.526.437-.271.21-.525.438-.219.269-.474.5-.285.194-.54.423-.246.237-.5.465-.28.2-.534.427-.208.283-.463.511-.3.177-.559.4-.228.263-.485.493-.518.12-.54.464.247.275.472.541.2.29.423.556.3.2.523.468.188.3.414.562.2.289.421.553.265.233.491.5.184.3.41.569.283.22.509.487.163.323.455.518c.155-.127.3-.23.475-.395.147-.135.284-.308.457-.476.146-.14.342-.251.513-.417.147-.142.311-.288.481-.452.149-.143.283-.321.453-.481.15-.143.32-.283.488-.441.153-.144.324-.28.493-.436s.288-.323.457-.479.338-.27.507-.423.28-.338.45-.49.361-.25.532-.4.337-.276.507-.427.314-.308.486-.457.3-.321.472-.471c.23-.225.251-.2.477-.433s.214-.242.441-.471.205-.248.431-.476.26-.2.487-.426.218-.236.444-.465.205-.252.432-.482.261-.2.489-.428.217-.242.445-.473.242-.217.47-.45c.283-.281.5-.52.671-.7.247.1.185.195.364.39s.14.231.318.427c.237.257.261.236.5.493s.278.221.514.478.217.279.454.538.2.292.442.551.242.258.48.517.284.22.514.488c.213.248.166.287.371.542s.225.238.429.492.219.241.423.5.2.259.4.514.168.287.373.541.272.2.478.46.152.3.365.549.208.268.436.519.221.258.449.51.224.252.45.5.3.189.524.44.156.315.384.566.241.24.47.492.22.261.448.513.259.228.488.481.268.218.494.476.19.283.409.542.254.229.472.486.145.318.363.575.258.225.476.481.255.229.474.488l.437.517c.219.258.181.291.4.55s.195.279.415.539.2.274.42.533.28.207.5.465.175.3.393.555.248.235.468.494.218.262.438.521.2.279.419.539.12.521.461.526.177-.307.39-.562.25-.224.462-.479.252-.223.465-.476.165-.294.377-.547.25-.226.462-.48.174-.29.387-.545.2-.27.411-.528.321-.185.473-.482a5.465,5.465,0,0,1-.466-.493c-.12-.152-.219-.354-.368-.549-.123-.163-.316-.292-.457-.48-.125-.168-.206-.38-.344-.565-.126-.168-.226-.37-.363-.553-.128-.168-.315-.3-.452-.485s-.214-.383-.352-.562-.339-.289-.478-.467-.2-.394-.336-.569-.312-.308-.45-.482-.25-.361-.389-.534-.262-.352-.4-.524-.3-.318-.447-.488-.252-.364-.4-.533-.325-.3-.471-.466-.276-.344-.425-.507-.269-.353-.419-.516-.321-.308-.473-.466-.328-.3-.483-.458-.272-.357-.429-.512-.365-.259-.525-.411S652.428,5455.312,652.266,5455.165Z" transform="translate(-625.474 -5442.579)"/>
        </g>
        <path id="パス_347" data-name="パス 347" d="M669.7,5471.378c.168-.592.7-.051.285-.315s-.5-.547-.442-.584,2.819.283-1.064-.514Z" transform="translate(-633.725 -5447.834)"/>
        <path id="パス_348" data-name="パス 348" d="M669.613,5468.118l.006-.15a.183.183,0,0,1,.26.255.135.135,0,0,1-.168,0,.122.122,0,0,0-.166-.128v-.072l.186-.026" transform="translate(-633.93 -5447.441)"/>
      </g>
      <path id="パス_349" data-name="パス 349" d="M576.485,5458.574c-.043.022-.085.061-.128.063a.756.756,0,0,0-.355.131,1.629,1.629,0,0,1-.588.223.118.118,0,0,0-.048.011,6.982,6.982,0,0,1-.977.261c-.178.057-.368.075-.549.127s-.356.121-.534.186c-.037.012-.094.023-.078.082.014.044.1.062.145.033s.053-.06.086-.077a.232.232,0,0,1,.095-.007c0,.024-.006.049-.013.073a.611.611,0,0,0-.023.063c-.01.052.05.188.084.183a.123.123,0,0,0,.1-.136c0-.232.153-.281.331-.308.075-.011.154-.008.228-.023.045-.009.085-.047.13-.06a.4.4,0,0,1,.112,0c-.008.03-.014.061-.024.091-.024.069-.054.134-.073.2-.008.034,0,.1.011.1.059.026.07-.039.085-.074.025-.062.038-.128.057-.193.036-.121.095-.144.211-.09s.062-.1.086.017a1.066,1.066,0,0,0,.026.146c.044.118.122.131.214.045a.577.577,0,0,1,.13-.1c.118-.057.167-.023.165.1,0,.033-.01.066-.012.1a.222.222,0,0,0,.137.241.2.2,0,0,0,.27-.1,1.906,1.906,0,0,1,.477-.576.427.427,0,0,0,.109-.145.362.362,0,0,1,.136-.182.19.19,0,0,0,.065-.124c.025-.168.093-.071.03-.227Z" transform="translate(-532.964 -5432.989)"/>
      <path id="パス_350" data-name="パス 350" d="M575.179,5460.454c0,.108-.12.26-.155.233a.292.292,0,0,1-.1-.179c-.011-.074.025-.167.116-.157C575.1,5460.358,575.146,5460.429,575.179,5460.454Z" transform="translate(-533.29 -5433.328)"/>
      <g id="グループ_194" data-name="グループ 194">
        <path id="パス_351" data-name="パス 351" d="M523.49,5437.171c-.2-.221.022-.32.029-.62s.02-.3.028-.6.027-.3.034-.6-.049-.3-.041-.6.071-.3.079-.6,0-.3.009-.6-.031-.3-.024-.6-.011-.3,0-.6.041-.3.049-.6-.006-.3,0-.6.012-.3.02-.606.056-.3.064-.605-.018-.3-.014-.607-.022-.295-.022-.589.006-.294.006-.588.047-.3.047-.591-.091-.3,0-.578c.195,0,.351,0,.55,0s.377-.013.583-.012l.588,0c.183,0,.379-.047.591-.047.16,0,.356.076.583.076.176,0,.371-.026.582-.025.182,0,.377-.018.58-.018.187,0,.381.011.582.011s.383.028.583.028.385-.052.583-.05.384.011.579.011.386.043.583.045.387.007.583.008.391-.069.587-.069.393,0,.589.005.39.059.583.06.393-.018.586-.017.4-.028.589-.028.394.007.584.01.4.019.585.021.4.012.582.013c.207,0,.428,0,.608,0,.086.306-.033.327-.033.645s.014.32.014.64.023.321.023.642,0,.32,0,.643.209.426-.011.661c-.2.216-.317-.02-.615-.026s-.3-.028-.6-.032-.3.044-.6.04-.3-.039-.6-.043-.3.028-.6.022-.3-.012-.6-.017-.3-.051-.6-.055-.3.062-.6.057l-.6-.01c-.3,0-.3-.017-.6-.023s-.3-.043-.6-.049-.3.029-.6.028c-.274,0-.274-.02-.548-.016s-.274-.006-.549,0l-.55.006c-.275,0-.275.014-.55.018-.107,0-.208,0-.309.005a2.37,2.37,0,0,0,.024.594c.008.3.008.3.016.6s-.019.3-.011.6.038.3.046.6-.007.3,0,.6,0,.3.012.6.036.3.044.595.022.3.03.6-.024.3-.017.6.007.3.016.6-.024.3-.016.6.272.4.06.613-.307-.022-.6-.035-.3.018-.589,0-.293-.075-.589-.087-.3.047-.594.034a1.718,1.718,0,0,0-.586-.021C523.789,5437.271,523.692,5437.39,523.49,5437.171Z" transform="translate(-523.405 -5426.913)"/>
      </g>
      <g id="グループ_195" data-name="グループ 195" transform="translate(122.316 37.177)">
        <path id="パス_352" data-name="パス 352" d="M680.291,5479.584c.281,0,.281.023.56.02s.279-.007.559-.01.28.013.559.011.279-.017.558-.019.28-.015.56-.017.281.04.562.038.282-.021.563-.023.281-.033.563-.034c.112,0,.2.019.309.017.043-.3-.029-.3-.038-.595s.063-.3.054-.6-.085-.3-.094-.593.013-.3,0-.6-.008-.3-.017-.6.033-.3.024-.6-.03-.3-.039-.594-.033-.3-.043-.6.037-.3.028-.6-.031-.3-.04-.6-.2-.354,0-.575c.189-.2.251-.044.529-.032s.277.009.555.022.276.038.553.048.28-.022.558-.01.277.038.557.048.277.058.557.069.377-.219.565-.012-.04.291-.048.578.008.289,0,.577-.036.288-.044.578.063.29.055.578-.022.288-.03.577-.027.289-.036.578.02.29.01.578-.037.289-.046.577,0,.289-.009.577.025.291.017.58-.083.29-.092.581.045.292.037.582-.051.289-.055.581.016.3.016.6-.02.3-.02.6.057.3.057.6a1.213,1.213,0,0,1-.069.589c-.205,0-.373.042-.584.042-.2,0-.4-.039-.616-.04-.193,0-.4.016-.622.014-.194,0-.4,0-.625,0-.16,0-.356-.04-.581-.04h-.581c-.182,0-.376.073-.58.071-.186,0-.38-.008-.582-.009s-.382-.014-.582-.014h-.582c-.192,0-.385-.034-.583-.035h-.58c-.192,0-.387.041-.583.04s-.389.006-.583,0-.391-.055-.587-.055-.39.006-.584.006-.39-.024-.583-.024-.393.03-.585.03-.4-.01-.587-.011-.394.038-.584.037-.4-.02-.584-.021-.4-.016-.581-.018c-.205,0-.373-.02-.554-.023a1.331,1.331,0,0,1-.085-.575c-.016-.293.038-.3.022-.59s-.015-.293-.031-.588-.046-.293-.062-.588-.03-.294-.046-.59-.2-.355.011-.565.274,0,.576.007.3-.044.607-.038.3,0,.605.007.3.043.6.049.3.031.6.036.3-.028.608-.021.3-.008.609,0,.3,0,.608,0S679.987,5479.582,680.291,5479.584Z" transform="translate(-674.762 -5472.918)"/>
      </g>
    </g>
  </g>
</svg>
