<svg xmlns="http://www.w3.org/2000/svg" width="322.35" height="35.272" viewBox="0 0 322.35 35.272">
  <g id="グループ_956" data-name="グループ 956" transform="translate(-536.486 -1853.495)">
    <path id="パス_804" data-name="パス 804" d="M6.984-9.48H17.016v1.488H6.984Zm0-3.816H17.016v1.488H6.984Zm0-3.792H17.016V-15.6H6.984ZM17.064-.816c-.912,0-1.056-.1-1.056-.864V-5.5H19.92V-19.584H4.224V-5.5H7.152C6.744-2.88,5.712-1.272.792-.36A9.045,9.045,0,0,1,2.376,2.184C8.3.84,9.72-1.68,10.224-5.5h2.9v3.84c0,2.688.672,3.552,3.528,3.552h3.168c2.376,0,3.12-.984,3.432-4.776A9.09,9.09,0,0,1,20.64-4.008c-.12,2.784-.264,3.192-1.08,3.192ZM25.9-13.152l1.344,3.36c2.472-1.1,8.088-3.456,11.592-3.456,2.856,0,4.392,1.7,4.392,3.936,0,4.128-5.04,6-11.472,6.144L33.12,0C41.5-.432,46.632-3.888,46.632-9.264c0-4.392-3.384-6.864-7.68-6.864-3.48,0-8.3,1.7-10.152,2.256A25.639,25.639,0,0,1,25.9-13.152ZM52.224-18.96A12.452,12.452,0,0,1,52.08-16.9a62.153,62.153,0,0,0-.792,9.48,26.5,26.5,0,0,0,1.368,7.7L55.32.024c-.024-.336-.048-.744-.072-.984a5.556,5.556,0,0,1,.168-1.152A59.638,59.638,0,0,1,57.024-7.92l-1.512-.936c-.384.864-.792,2.016-1.1,2.736-.624-2.952.216-7.92.792-10.56a18.373,18.373,0,0,1,.552-1.92Zm18.792,4.176a31.094,31.094,0,0,1-3.576.432c0-1.3,0-2.52.024-3.048a12.083,12.083,0,0,1,.12-1.608H64.1a10.544,10.544,0,0,1,.264,1.632c.048.648.1,1.872.12,3.192-.912.024-1.824.048-2.688.048a24.961,24.961,0,0,1-3.6-.24v3.024c1.176.048,2.64.12,3.672.12.864,0,1.776-.024,2.664-.048v.864c0,4.008-.384,6.12-2.208,8.016A9.239,9.239,0,0,1,59.544-.5l2.76,2.16c4.728-3.024,5.16-6.456,5.16-12.072V-11.4c1.344-.072,2.568-.168,3.528-.288ZM87.84-12.168a17.55,17.55,0,0,0,1.536-1.44,44.931,44.931,0,0,0,1.392,5.88A11.648,11.648,0,0,0,87.84-12.168Zm7.128-.744a27.178,27.178,0,0,1-2.5,2.5q-.5-1.764-.864-3.672H96.36V-16.56H93.312c.48-.84,1.008-1.9,1.56-2.952L92.16-20.3a22.164,22.164,0,0,1-1.488,3.552l.6.192H87.264l.552-.216a13.185,13.185,0,0,0-1.608-3.408l-2.3.792a15.845,15.845,0,0,1,1.3,2.832H82.416v2.472h4.152a19.258,19.258,0,0,1-5.088,3.1,14.482,14.482,0,0,1,1.656,2.016A28.032,28.032,0,0,0,85.968-10.7a6.25,6.25,0,0,1,.72.864,19.486,19.486,0,0,1-4.32,2.832,7.374,7.374,0,0,0-1.752-4.8c.672-1.872,1.464-4.488,2.088-6.528l-1.872-1.08-.408.12H75.216V2.088h2.472v-18.84H79.56c-.384,1.632-.888,3.72-1.368,5.232a6.424,6.424,0,0,1,1.656,4.2c0,.672-.1,1.152-.36,1.344a1.243,1.243,0,0,1-.672.216c-.312,0-.624,0-1.056-.024a6.051,6.051,0,0,1,.624,2.424,10.261,10.261,0,0,0,1.536-.048,3.427,3.427,0,0,0,1.392-.5A2.876,2.876,0,0,0,82.32-6.048a10.388,10.388,0,0,1,.936,1.32,27.883,27.883,0,0,0,4.56-3.288,10.126,10.126,0,0,1,.432,1.08,20.226,20.226,0,0,1-7.536,5.208A9.48,9.48,0,0,1,82.416.24a26.591,26.591,0,0,0,6.36-4.464,4.821,4.821,0,0,1-.648,3.12,1.146,1.146,0,0,1-1.176.624c-.528,0-1.128-.048-1.9-.12a5.525,5.525,0,0,1,.72,2.616,13.709,13.709,0,0,0,1.68.048A3.288,3.288,0,0,0,90.144.984c1.32-1.2,1.9-4.584.864-7.968A16.2,16.2,0,0,0,95.088-.24,9.854,9.854,0,0,1,97.032-2.4,13.668,13.668,0,0,1,93.24-8.16c1.1-.792,2.424-1.872,3.552-2.856Zm18.624,3.1c1.536,1.464,2.448,3,2.448,4.608,0,1.968-1.824,3.48-5.136,3.48-2.352,0-3.552-1.08-3.552-3.024,0-.432.048-1.032.1-1.728h.96c1.464,0,2.856-.1,4.2-.216l.072-2.832a47.147,47.147,0,0,1-4.776.288h-.168c.12-1.056.264-2.184.408-3.24a42.592,42.592,0,0,0,4.632-.216l.1-2.832a34.881,34.881,0,0,1-4.368.288c.12-.768.192-1.392.264-1.8.1-.624.216-1.248.408-2.112l-3.336-.192a14.97,14.97,0,0,1-.048,2.112c-.048.528-.1,1.176-.192,1.9a22.031,22.031,0,0,1-4.872-.888l-.168,2.76a29.708,29.708,0,0,0,4.728.84c-.144,1.08-.264,2.184-.408,3.24a20.232,20.232,0,0,1-4.68-.936l-.168,2.88a26.652,26.652,0,0,0,4.56.792c-.1.984-.168,1.824-.168,2.4,0,3.96,2.64,5.592,6.384,5.592,5.208,0,8.424-2.592,8.424-6.168a8.841,8.841,0,0,0-2.3-5.712Zm16.92-7.8c-1.032-.672-3.12-1.728-4.464-2.4l-1.608,2.064a49.667,49.667,0,0,1,4.368,2.64Zm-1.152,6.48c-1.056-.648-3.192-1.68-4.512-2.328l-1.536,2.112c1.416.768,3.48,1.9,4.464,2.592Zm-3.312,12.96C127.512-.5,129.024-3.24,130.3-5.76l-2.088-1.92a70.933,70.933,0,0,1-4.56,7.56Zm15.576-3.312H134.4V-5.016h7.224Zm3.912-9.144v-2.736h-6.1v-3.288a30.676,30.676,0,0,0,5.232-1.416l-2.208-2.256a47.227,47.227,0,0,1-11.208,2.256,10.058,10.058,0,0,1,.792,2.448c1.512-.144,3.1-.312,4.68-.552v2.808h-6.384v2.736h6.384v3.024h-4.9v9.7H134.4V1.1h7.224v.864h2.712V-7.608h-4.9v-3.024Zm9.6,7.752h4.344V-4.9h-4.344v-.936h4.248v-7.416h-4.248v-.936h4.608v1.872h2.184c-.168,4.3-.744,7.728-2.616,10.32-1.392.12-2.808.24-4.176.336Zm-4.464-4.728v-1.08h1.872v1.08Zm6.336-1.08v1.08h-1.872v-1.08Zm-1.872-1.7v-1.056h1.872v1.056Zm-4.464-1.056h1.872v1.056h-1.872Zm14.04-3.48c.048-1.584.048-3.264.048-5.016h-2.736c0,1.776,0,3.432-.024,5.016h-2.256v-1.32h-4.608v-1.176c1.56-.168,3.048-.384,4.32-.648l-1.248-2.136a74.36,74.36,0,0,1-10.344,1.176,8.889,8.889,0,0,1,.624,2.016c1.3-.024,2.664-.1,4.056-.192v.96h-4.728v2.064h4.728v.936h-4.128v7.416h4.128V-4.9H148.32V-2.88h4.224v1.44c-1.848.12-3.528.24-4.872.336l.336,2.4c2.592-.216,6.048-.576,9.5-.936a9.351,9.351,0,0,1,1.68,1.9c4.032-3.192,5.136-8.136,5.448-14.568h2.16c-.144,7.752-.384,10.68-.888,11.328a.872.872,0,0,1-.816.408c-.456,0-1.368-.024-2.424-.12a6.682,6.682,0,0,1,.84,2.736,16.1,16.1,0,0,0,2.976-.1,2.678,2.678,0,0,0,1.9-1.2c.768-1.1.96-4.584,1.176-14.4,0-.336.024-1.272.024-1.272Zm20.112,6.72v-5.16h5.424v5.16Zm-8.424,0v-5.16h5.4v5.16Zm8.424-7.968v-4.152H181.8v4.152h-8.28v12.1h2.88V-5.4h5.4V2.088h3.024V-5.4h5.424v1.2h3V-16.176ZM206.616-6.168h2.472l.84-8.208.12-3.576h-4.392l.1,3.576ZM207.84.216a2.348,2.348,0,0,0,2.5-2.352,2.381,2.381,0,0,0-2.5-2.376,2.381,2.381,0,0,0-2.5,2.376A2.348,2.348,0,0,0,207.84.216Z" transform="translate(648.5 1885)"/>
    <g id="グループ_617" data-name="グループ 617" transform="translate(-4.681 115.829)">
      <g id="グループ_617-2" data-name="グループ 617" transform="translate(541.167 1737.666)">
        <g id="グループ_90" data-name="グループ 90" transform="translate(10.502 9.658)">
          <path id="パス_279" data-name="パス 279" d="M569.391,1533.7l.113.418.078.447.143.434.132.436.052.453.072.448.144.434.127.438.128.44.055.456-.452.167-.476.079-.46.166-.482-.04-.463.127-.474.079-.456.132-.461.115-.466.093-.465.089-.462.106-.479.006-.464.109-.472.028-.469.048-.488.071-.116-.484-.112-.463-.086-.47-.163-.448-.16-.448-.1-.465-.153-.45-.122-.459-.084-.469-.156-.449-.162-.447-.082-.469-.172-.443-.1-.465-.129-.46-.152-.452-.052-.48-.145-.453-.151-.451-.164-.446-.1-.465-.116-.459-.115-.458-.156-.447-.115-.458-.149-.449-.13-.457-.167-.443-.118-.457-.117-.459-.165-.443-.068-.472-.2-.429-.135-.49.5-.083.49-.067.488-.078.479-.116.488-.07.48-.121.482-.117.5-.046.456-.1.162.415.1.462.121.458.057.473.133.455.1.465.115.456.079.465.119.458.185.444.091.464.1.462.1.464.145.454.12.459.116.46.085.469.124.459.117.46.084.467.067.474.147.456.107.466.107.469.478-.08.484,0,.477-.061.465-.147.488.009.482-.041.472-.135Z" transform="translate(-558.541 -1523.131)"/>
        </g>
        <g id="グループ_91" data-name="グループ 91" transform="translate(27.514 10.074)">
          <path id="パス_280" data-name="パス 280" d="M589.511,1533.735l-.089-.476-.128-.452-.1-.455-.115-.453-.146-.446-.065-.468-.141-.448-.117-.453-.119-.453-.121-.454-.083-.463-.11-.457-.133-.452-.127-.453-.081-.464-.13-.452-.08-.465-.16-.447-.113-.46-.07-.45.434-.122.455-.124.464-.079.454-.131.462-.106.45-.155.465-.061.105.434.049.468.073.462.1.458.091.46.1.458.1.458.081.462.1.459.143.45.064.466.088.46.139.449.057.467.132.452.064.466.143.45.091.461.07.468.124.475-.48.115-.481.081-.47.134-.477.11-.47.144Z" transform="translate(-587.287 -1523.834)"/>
        </g>
        <g id="グループ_92" data-name="グループ 92" transform="translate(53.468 13.505)">
          <path id="パス_281" data-name="パス 281" d="M633.251,1530.037l.163.505.186.488.175.493.169.5.176.493.193.487.168.494.192.49.171.5.175.5.153.492-.475.174-.483.2-.491.181-.5.173-.486.212-.192-.514-.108-.524-.12-.52-.115-.521-.095-.524-.134-.516-.089-.525-.114-.52-.1-.524-.112-.523-.145-.514-.134-.519-.144-.534.523.133.526.1.531.071Z" transform="translate(-631.141 -1529.63)"/>
        </g>
        <g id="グループ_93" data-name="グループ 93" transform="translate(78.498 6.716)">
          <path id="パス_282" data-name="パス 282" d="M675.723,1518.159l.3.45.363.38.307.424.344.4.325.415.352.394.315.427-.446.388-.477.352-.448.388-.451.387-.466.356-.324-.411-.3-.448-.242-.484-.246-.479-.306-.448-.269-.475-.316-.443-.307-.43.453-.21.458-.223.464-.211.444-.256Z" transform="translate(-673.434 -1518.159)"/>
        </g>
        <g id="グループ_94" data-name="グループ 94" transform="translate(82.336 5.634)">
          <path id="パス_283" data-name="パス 283" d="M682.7,1516.331l.341.559.291.573.3.388.264.445.239.471-.594.242-.583.263-.589.255-.584.279-.39-.467-.349-.5-.372-.48-.393-.465-.367-.468.55-.195.542-.261.577-.178.556-.234Z" transform="translate(-679.92 -1516.331)"/>
        </g>
        <g id="グループ_95" data-name="グループ 95" transform="translate(37.928 12.916)">
          <path id="パス_284" data-name="パス 284" d="M615.124,1537.477l-.146-.582-.1-.582-.131-.578-.1-.586-.474.156-.5.071-.476.157-.478.153-.5.113-.2-.56-.229-.544-.228-.544-.194-.49-.134-.51-.2-.491-.107-.522-.276-.478-.184-.518-.243-.489-.237-.5-.212-.507-.253-.491-.212-.526-.564.074-.552.012-.549.067-.551,0-.553.022-.552.05-.552.065-.56.006.234.54.146.561.215.534.166.558.238.535.132.523.178.507.179.508.18.51.18.509.188.506.179.511.174.512.166.514.176.509.146.523.181.512.211.5.165.5.514-.111.539-.072.528-.121.526-.13.528-.116.533-.107.54-.075.531-.126.537-.1v0l.5-.1.5-.114.51-.071Z" transform="translate(-604.883 -1528.635)"/>
        </g>
        <g id="グループ_97" data-name="グループ 97" transform="translate(61.458 9.426)">
          <g id="グループ_96" data-name="グループ 96">
            <path id="パス_285" data-name="パス 285" d="M664.582,1532.1c-.161-.184-.179-.17-.333-.359s-.152-.192-.307-.383-.162-.184-.317-.375-.128-.211-.282-.4-.143-.2-.3-.388-.177-.173-.332-.363-.131-.211-.285-.4-.149-.2-.3-.388-.166-.183-.324-.372c-.113-.124-.234-.24-.345-.362s-.2-.269-.311-.391-.243-.23-.353-.352-.235-.238-.344-.359l-.337-.373c-.114-.126-.231-.246-.341-.368s-.208-.265-.318-.386-.2-.273-.306-.4-.239-.235-.347-.356-.264-.211-.372-.332-.176-.291-.284-.412-.267-.213-.375-.335-.213-.257-.318-.379-.194-.276-.3-.4-.239-.235-.344-.355-.2-.256-.3-.376c-.206.076-.145.164-.312.306s-.183.123-.351.265-.157.156-.326.3-.2.1-.376.236c-.107.066-.22.128-.36.231-.094.069-.2.163-.333.274-.095.08-.2.178-.32.288-.1.087-.171.219-.289.329-.183.171-.309.287-.4.37a4.219,4.219,0,0,1-.408.351c-.082.065-.2.173-.41.346-.112.093-.25.2-.416.344-.17.158-.171.157-.337.318s-.163.166-.33.328-.172.155-.337.317-.164.163-.331.326-.159.17-.325.331-.169.161-.336.323-.169.161-.337.324-.2.132-.367.3-.135.2-.307.356-.181.178-.371.347l-.379.341c-.189.17-.191.168-.381.337s-.22.136-.41.306-.2.156-.393.327-.143.222-.333.392-.2.155-.393.325-.2.156-.391.326l-.381.34c-.19.171-.166.2-.357.369s-.211.149-.4.32-.336.09-.366.345c-.027.231.134.176.285.353s.14.187.291.365.157.173.308.351.166.164.316.341.112.211.263.389.15.179.3.356.158.174.309.352.173.161.325.339.149.183.3.362.091.26.291.385c.116-.094.27-.216.4-.338.109-.1.2-.241.33-.365.108-.1.242-.2.37-.324.11-.106.2-.246.327-.369.111-.107.265-.183.391-.3s.2-.251.326-.369.236-.216.361-.333l.361-.334c.116-.106.24-.214.367-.329s.237-.22.363-.333.23-.229.358-.342.25-.206.378-.318.255-.2.383-.315.234-.227.363-.338c.172-.167.214-.124.382-.3s.156-.183.325-.354.13-.208.3-.378.215-.125.383-.3.137-.2.306-.371.195-.147.364-.318.161-.18.331-.351.191-.152.361-.324.164-.177.334-.35c.211-.21.347-.391.478-.528.183.071.121.152.253.3s.121.157.254.3c.176.192.225.148.4.34s.14.226.316.418.172.2.349.391.17.2.347.393.233.144.41.338.167.2.339.4c.159.184.11.224.262.413s.208.145.36.334.109.223.262.412l.305.379c.153.19.184.166.337.356s.157.188.31.379.16.184.32.37.138.213.308.4.179.179.349.366.158.2.328.385.144.21.313.4.215.145.385.332.145.211.315.4.174.185.344.373.148.21.318.4.234.133.4.324.143.21.306.4.141.21.3.4.157.2.319.388.176.181.339.372.172.186.335.379.162.194.324.386.175.182.338.374.159.2.322.391.123.227.286.419.188.172.351.365.139.212.3.4.165.192.329.386.16.2.324.39.211.154.376.348.058.427.311.43.169-.21.328-.4.16-.189.318-.379.136-.208.294-.4.183-.168.341-.358.14-.206.3-.4.19-.165.349-.356.119-.225.279-.416a1.462,1.462,0,0,0,.3-.389,3.421,3.421,0,0,1-.31-.334c-.089-.112-.154-.27-.265-.416-.092-.12-.212-.235-.317-.376-.094-.123-.214-.238-.317-.375s-.168-.275-.27-.411-.168-.278-.269-.412-.186-.265-.289-.4-.228-.234-.331-.366-.211-.245-.312-.375-.191-.263-.294-.393-.207-.251-.311-.381-.187-.269-.292-.4-.236-.23-.342-.357-.223-.241-.33-.367-.21-.251-.318-.374-.19-.27-.3-.393-.239-.227-.351-.349-.192-.272-.305-.392-.248-.22-.363-.337-.225-.243-.342-.358-.232-.235-.351-.348S664.7,1532.208,664.582,1532.1Z" transform="translate(-644.642 -1522.739)"/>
          </g>
          <path id="パス_286" data-name="パス 286" d="M689.23,1551.648c.125-.44.521-.037.212-.234s-.369-.408-.329-.436,2.1.211-.792-.382Z" transform="translate(-662.471 -1534.11)"/>
          <path id="パス_287" data-name="パス 287" d="M689.458,1548.664l0-.112a.136.136,0,0,1,.194.191.1.1,0,0,1-.125,0,.09.09,0,0,0-.124-.1v-.053l.138-.02" transform="translate(-662.914 -1533.262)"/>
        </g>
        <path id="パス_288" data-name="パス 288" d="M593.854,1539.008c-.032.017-.063.046-.1.047a.572.572,0,0,0-.264.1,1.2,1.2,0,0,1-.438.166.159.159,0,0,0-.036.008,5.1,5.1,0,0,1-.727.2c-.133.042-.275.056-.409.094s-.266.09-.4.138c-.028.01-.071.018-.058.062s.078.047.108.025.039-.044.064-.057a.18.18,0,0,1,.07-.005.547.547,0,0,1-.01.055c0,.016-.014.031-.016.047-.007.04.037.14.063.137a.092.092,0,0,0,.073-.1c0-.173.114-.209.246-.229.057-.009.115-.006.17-.018.034-.007.063-.034.1-.045a.3.3,0,0,1,.083,0c-.006.022-.01.045-.018.068-.018.051-.04.1-.054.153-.006.024,0,.071.008.076.044.018.053-.029.063-.057a1.484,1.484,0,0,0,.043-.143c.027-.09.07-.107.157-.067s.046-.076.065.012a.674.674,0,0,0,.02.109c.033.087.09.1.159.034a.444.444,0,0,1,.1-.076c.088-.042.124-.018.123.078,0,.024-.007.049-.009.074a.163.163,0,0,0,.1.178.151.151,0,0,0,.2-.075,1.4,1.4,0,0,1,.355-.428.33.33,0,0,0,.08-.109.269.269,0,0,1,.1-.134.146.146,0,0,0,.048-.093c.019-.126.069-.053.023-.169Z" transform="translate(-561.462 -1519.953)"/>
        <path id="パス_289" data-name="パス 289" d="M593.343,1540.895c0,.081-.089.193-.115.173a.223.223,0,0,1-.073-.133c-.008-.055.019-.124.086-.116C593.284,1540.822,593.32,1540.875,593.343,1540.895Z" transform="translate(-562.168 -1520.692)"/>
        <g id="グループ_98" data-name="グループ 98" transform="translate(0)">
          <path id="パス_290" data-name="パス 290" d="M540.861,1514.418c-.151-.164.008-.209.014-.432s-.031-.224-.026-.448.018-.224.024-.449,0-.224.005-.448.04-.223.046-.447-.037-.226-.031-.451.034-.223.04-.448.023-.224.029-.449-.038-.225-.032-.449,0-.225.011-.45.028-.225.034-.45.025-.226.031-.451.014-.226.017-.452-.028-.22-.028-.439-.02-.22-.02-.438.053-.22.053-.44-.111-.236-.042-.445c.145,0,.3-.014.451-.014s.28.02.434.021c.136,0,.281-.012.438-.012.137,0,.282.017.44.017.119,0,.265-.03.434-.03.131,0,.277.007.434.008.136,0,.28.027.432.027s.283.012.434.012.285-.031.434-.031.287.017.434.017.286.014.432.015.288-.007.434-.006.289-.024.434-.023.291.012.437.013.293.025.439.026.292-.035.436-.034.292.027.436.028.295-.024.439-.023.294.006.436.007.3-.014.436-.013.3.034.433.035c.154,0,.324-.006.457,0,.065.229-.031.244-.031.482s0,.238,0,.477.012.239.012.478-.033.24-.033.479.2.318.038.492-.236-.045-.458-.048-.224.035-.447.032l-.445-.007c-.223,0-.222-.043-.445-.047s-.224.049-.447.046-.223-.015-.446-.019l-.446-.006c-.222,0-.222-.008-.445-.011s-.224.015-.448.012-.224-.036-.447-.039-.226.023-.45.019-.224-.033-.449-.034c-.2,0-.2.023-.408.026s-.2.009-.409.011-.205-.035-.411-.032-.2.034-.409.036c-.081,0-.161-.013-.236-.012a1.779,1.779,0,0,0-.006.445c.006.222,0,.223.007.445s.007.222.013.444.039.221.045.444.021.222.027.445.011.223.017.445-.037.223-.03.445.023.222.029.443.028.223.034.446,0,.224.009.447.015.224.021.448.128.277-.03.435-.206-.007-.425-.017-.221.025-.44.015-.218-.058-.438-.067-.221.006-.441,0-.229-.071-.448-.038S541.011,1514.581,540.861,1514.418Z" transform="translate(-540.796 -1506.811)"/>
        </g>
        <g id="グループ_99" data-name="グループ 99" transform="translate(91.073 27.669)">
          <path id="パス_291" data-name="パス 291" d="M698.821,1558.553c.209,0,.209.016.417.014s.208.008.417.006.208-.045.416-.047.208.025.416.023.209-.016.418-.017.209.033.418.032.21-.014.42-.015.21,0,.42,0c.083,0,.192-.006.271-.007.032-.22-.04-.226-.047-.449s.021-.223.014-.445-.056-.22-.063-.442.028-.224.021-.446-.044-.221-.05-.443.035-.224.028-.445-.038-.221-.045-.443,0-.222-.007-.446-.012-.223-.018-.446.024-.225.017-.448-.192-.294-.04-.458.22-.007.426,0,.2.061.411.069.208-.015.414-.007.207.024.414.032.208.014.415.023.209-.012.417,0,.263-.126.4.028.007.2,0,.416.015.215.009.429-.021.215-.027.43-.027.214-.033.429-.022.214-.028.429.046.217.039.432-.041.214-.047.43-.022.214-.028.429.033.216.027.43-.034.215-.04.431-.017.216-.023.432.014.217.007.434.03.218.026.434-.018.223-.018.446-.01.224-.01.447-.008.224-.008.448.078.236.007.448c-.153,0-.3.014-.462.014s-.3-.041-.458-.042c-.144,0-.3.027-.463.027-.145,0-.3-.022-.465-.022-.119,0-.265.038-.433.037-.131,0-.276-.022-.433-.022-.135,0-.281-.007-.432-.008s-.283.022-.433.021-.285,0-.434,0-.286.008-.434.008-.287-.021-.434-.022-.287,0-.432,0-.288-.009-.433-.009-.29-.015-.435-.016-.292.027-.437.026-.291.027-.435.026-.291-.039-.435-.041-.292.031-.435.03-.295,0-.438,0-.293-.035-.434-.037-.3.011-.435.01-.3.017-.433.016c-.153,0-.309-.025-.443-.027-.074-.206.008-.223,0-.442s-.023-.217-.035-.436.012-.221,0-.44,0-.22-.014-.44-.054-.218-.066-.438-.173-.29-.018-.447.23.031.455.035.226,0,.452.008.225.009.451.014.226-.028.451-.023.225,0,.45.007.227-.014.453-.009.225.026.452.031.227.006.454.008S698.594,1558.551,698.821,1558.553Z" transform="translate(-694.683 -1553.563)"/>
        </g>
      </g>
    </g>
  </g>
</svg>
