<svg xmlns="http://www.w3.org/2000/svg" width="578.869" height="119.16" viewBox="0 0 578.869 119.16">
  <g id="グループ_954" data-name="グループ 954" transform="translate(-18279.254 -1580.439)">
    <path id="パス_800" data-name="パス 800" d="M23.91-4.782a.921.921,0,0,1,.956-.956h5.579a.944.944,0,0,1,.956.956v.2a.944.944,0,0,1-.956.956H24.866a.944.944,0,0,1-.956-.956Zm0-6.017a.733.733,0,0,1,.757-.757h5.977a.757.757,0,0,1,.757.757v.159a.733.733,0,0,1-.757.757H24.667a.733.733,0,0,1-.757-.757Zm0-5.738a.733.733,0,0,1,.757-.757h5.977a.733.733,0,0,1,.757.757v.08a.733.733,0,0,1-.757.757H24.667a.733.733,0,0,1-.757-.757ZM18.53-2.032c0,1.435-.08,3.029-.08,4.065,0,.8.359.917,1.076.917H22c1.435,0,1.993,0,1.993-.917V1.753a.924.924,0,0,1,.956-.837h5.459a.9.9,0,0,1,.917.917c0,1.116.319,1.116,1.953,1.116h2.232c.757,0,1.2-.08,1.2-.917,0-1.355-.08-2.71-.08-4.065V-17.056c0-1.116.08-2.271.08-3.427,0-1.435-.956-1.554-2.072-1.554-1.156,0-2.351.08-3.547.08H24.069c-1.235,0-2.431-.08-3.626-.08-1.156,0-1.993.2-1.993,1.554,0,1.076.08,2.192.08,3.427ZM11.955-30.764c-.2,0-.518-.04-.518-.359,0-.239.2-.319.359-.438.279-.12.638-.319.638-.638,0-.359-.558-.478-.837-.518-.8-.12-4.5-.677-5.1-.677-.4,0-.478.279-.6.638a34.71,34.71,0,0,1-3.587,6.934,3.642,3.642,0,0,0-.6,1.076c0,.956,3.706,2.311,4.583,2.311.638,0,1.793-2.152,2.112-2.75a1.231,1.231,0,0,1,1.2-.757c.757,0,1,.518,1.275,1.315a4.746,4.746,0,0,1,.4,1.275.389.389,0,0,1-.438.4,2.315,2.315,0,0,1-.4-.04c-.319-.04-1.913-.159-2.072-.159-.279,0-.677.08-.677.438,0,.239.12,1.714.12,2.192,0,.677-.359,1.275-1.076,1.275H5.659c-1.156,0-2.072-.12-2.63-.12-.757,0-.837.4-.837,1.435v2.192c0,1.116.08,1.474.837,1.474.478,0,1.514-.08,2.431-.08.438,0,1.036,0,1.036.558,0,1.116-3.387,7.412-4.543,8.887a1.384,1.384,0,0,0-.4.8c0,.717.717,1.315,1.395,1.913S4.7-.6,5.3-.6s1.634-2.192,1.873-2.75c.08-.159.239-.478.4-.478.2,0,.239.279.239.4v1.315c0,1.395-.12,2.789-.12,4.184,0,.757.4.837,1.474.837h2.471c1.116,0,1.514-.08,1.514-.837,0-1.395-.12-2.789-.12-4.184V-5.1c0-.2.12-.478.359-.478.2,0,.359.2.478.319.2.239.717.8,1.076.8.837,0,3.148-2.909,3.148-3.746a.636.636,0,0,0-.319-.558,35.841,35.841,0,0,1-3.148-2.869c-.518-.518-1.594-1.514-1.594-2.232a.452.452,0,0,1,.438-.478h.717c1.2,0,2.152.08,2.67.08.717,0,.8-.4.8-1.395v-2.351c0-.956-.08-1.355-.8-1.355-.638,0-1.634.12-2.511.12-.8,0-1.315-.478-1.315-1.036,0-1,0-1.315.4-1.554.279-.159.518-.239.518-.518,0-.159-.12-.159-.12-.319,0-.2.239-.239.4-.239.279,0,2.55-.438,2.55-1.036a1.516,1.516,0,0,0-.2-.6,1.477,1.477,0,0,1-.159-.6c0-.558.438-.717.917-.717.2,0,.438.04.638.04.359,0,.558,0,.558.239a1.19,1.19,0,0,1-.239.558,1.734,1.734,0,0,0-.319.6c0,.717,3.626,2.192,4.224,2.192a.884.884,0,0,0,.717-.478c.2-.279,1.315-1.873,1.435-2.072.438-.677.677-1.076,1.554-1.076,1.435,0,1.554.08,2.431,2.71.2.638.239.837.638.837.8,0,4.862-.438,4.862-1.395a2.318,2.318,0,0,0-.2-.638,2.263,2.263,0,0,1-.279-.877c0-.478.478-.638.917-.638.757,0,1.554.08,2.311.08.956,0,1.036-.359,1.036-1.474v-2.152c0-.917-.08-1.315-1-1.315-1.156,0-2.311.08-3.467.08h-5.1c-.239,0-.438-.12-.438-.239,0-.359.478-.6.638-.677.279-.12.558-.239.558-.558,0-.359-.359-.478-.638-.518-.518-.08-4.941-.717-5.141-.717-.279,0-.319.08-.438.359-.319,1.2-2.55,5.738-2.989,5.738-.2,0-.279-.159-.279-.359v-2.032c0-.837-.12-1.2-1.036-1.2-1.076,0-2.232.08-3.427.08ZM61.09-14.346a.782.782,0,0,1,.877.717,25.966,25.966,0,0,0,2.311,7.093.908.908,0,0,1,.12.438c0,.359-.2.518-.518.638a28.289,28.289,0,0,1-2.949.8c-.837,0-.837-.8-.837-1.435v-7.492a.757.757,0,0,1,.757-.757Zm6.854-5.539a.733.733,0,0,1-.757.757H60.851a.733.733,0,0,1-.757-.757v-.359A.733.733,0,0,1,60.851-21h6.336a.733.733,0,0,1,.757.757Zm0-6.456a.733.733,0,0,1-.757.757H60.851a.733.733,0,0,1-.757-.757v-.279a.733.733,0,0,1,.757-.757h6.336a.733.733,0,0,1,.757.757ZM70.256-13.27c-.4.359-1.594,1.395-2.072,1.395-.638,0-.917-1.674-.917-1.793,0-.478.359-.677.8-.677,1.036,0,2.112.08,3.148.08,1.435,0,2.112-.478,2.112-1.992,0-1.275-.08-2.59-.08-3.865V-26.46c0-1.315.08-2.59.08-3.905,0-1.554-.677-1.992-2.152-1.992-1.275,0-2.55.12-3.826.12H60.452c-1.235,0-2.471-.12-3.746-.12-1.474,0-2.112.478-2.112,2.032,0,1.315.08,2.59.08,3.865V-14.9c0,.239,0,.8-.359.8-.2,0-.319-.159-.438-.319-.877-1-3.945-4.7-3.945-5.9,0-.478.359-.638.8-.638.4,0,1.156.04,1.674.04.917,0,1.036-.4,1.036-1.554v-2.431c0-1.116-.08-1.554-1.036-1.554-.438,0-1.036.04-1.315.04a1.191,1.191,0,0,1-1.156-1.2v-2.192c0-.956.04-1.714.359-1.992.239-.239.4-.319.4-.558,0-.359-.438-.518-1.036-.6-.717-.08-4.264-.4-4.623-.4-.4,0-.757.08-.757.558,0,.279.159,1.235.159,2.67v2.55a1.165,1.165,0,0,1-1.156,1.2c-.837,0-1.674-.08-2.55-.08-.956,0-1.036.359-1.036,1.514v2.511c0,1.156.12,1.514,1.036,1.514.638,0,1.315-.08,1.913-.08a.651.651,0,0,1,.717.638c0,.279-.6,2.471-.717,2.909a32.31,32.31,0,0,1-3.507,8.687A3.262,3.262,0,0,0,38.5-7.332c0,1.315,2.471,3.746,3.467,3.746.677,0,1-.956,1.753-2.75.08-.159.239-.6.478-.6.2,0,.239.4.239.757v2.271c0,1.873-.12,3.706-.12,5.579,0,.956.4,1.036,1.634,1.036h2.391c1.315,0,1.714-.08,1.714-1.076,0-1.833-.12-3.706-.12-5.539v-6.376c0-.359,0-.677.239-.677.12,0,.2.12.279.2.677.917.956,1.355,1.474,1.355.6,0,1.435-1,1.833-1.435.12-.12.359-.4.558-.4.319,0,.359.478.359.877v5.7c0,.677-.08,1.395-.917,1.554-.438.08-1.156.2-1.474.239-.518.08-.877.239-.877.638,0,.319,1.156,3.905,1.355,4.463.12.359.239.757.638.757a.686.686,0,0,0,.717-.638c.04-.239.08-.279.638-.4A75.262,75.262,0,0,0,63.919-.4c1.355-.438,1.435-.518,1.435-2.351,0-.359-.04-1.076-.04-1.116a.188.188,0,0,1,.2-.2c.2,0,.319.2.4.319.677,1.116,4.583,6.456,5.7,6.456,1,0,4.184-2.59,4.184-3.586,0-.4-.6-.837-.917-1.116-.8-.717-4.224-3.905-4.224-4.822a.946.946,0,0,1,.638-.8,19.443,19.443,0,0,0,2.789-1.953.556.556,0,0,1,.359-.159c.159,0,.558.12.717.12.279,0,.478-.12.478-.4,0-.4-.558-.837-.837-1.076-.917-.877-2.311-2.192-2.67-2.511a1.342,1.342,0,0,0-.8-.438C71.013-14.027,70.853-13.788,70.256-13.27ZM95.2-20.642a5.591,5.591,0,0,0-5.977,5.858A5.088,5.088,0,0,0,94.564-9.6a5.645,5.645,0,0,0,5.938-6.017A4.975,4.975,0,0,0,95.2-20.642Zm27.018-2.192c-.4,0-.518.319-.6.6A33.421,33.421,0,0,1,114.967-10.4c-.319.359-.8.757-.8,1.156,0,1.275,3.706,3.507,4.9,3.507.558,0,.956-.6,1.275-1a46.123,46.123,0,0,0,6.217-11.437c.279-.717.239-.877,1-1.116.279-.08.717-.2.717-.558,0-.518-.518-.677-2.511-1.554A26.483,26.483,0,0,0,122.22-22.834Zm18.53.12c-1.076,0-4.264,2.311-4.264,3.467a1.4,1.4,0,0,0,.478,1,75.445,75.445,0,0,1,7.093,11.317c.438.877.558,1.235,1.156,1.235,1.395,0,4.782-2.59,4.782-3.826,0-.837-3.467-5.938-4.144-6.934-1.2-1.793-2.67-3.905-4.025-5.539C141.507-22.4,141.308-22.714,140.75-22.714Zm-5.22-6.336c0-1.156.04-2.152.438-2.471.239-.2.478-.359.478-.6,0-.438-.558-.478-1.355-.558-.717-.08-4.3-.359-5.141-.359-.438,0-.837.08-.837.638,0,.279.159,1.873.159,2.989V-5.858c0,2.072-.12,2.71-1.474,2.71-.837,0-2.311-.239-2.829-.239-.638,0-.757.478-.757,1.036a11.951,11.951,0,0,0,.717,3.507c.518,1.435.917,1.554,2.63,1.554,2.192,0,4.9-.159,6.655-1.594,1.275-1.036,1.435-2.75,1.435-4.264,0-1.634-.12-3.228-.12-4.822Zm31.163,9.763a1.09,1.09,0,0,1-1.116,1.116h-4.583a1.114,1.114,0,0,1-1.116-1.116v-5.26a1.114,1.114,0,0,1,1.116-1.116h4.583a1.114,1.114,0,0,1,1.116,1.116Zm0,12.911a1.09,1.09,0,0,1-1.116,1.116h-4.583a1.114,1.114,0,0,1-1.116-1.116v-5.459a1.09,1.09,0,0,1,1.116-1.116h4.583a1.09,1.09,0,0,1,1.116,1.116Zm5.938-5.459a1.067,1.067,0,0,1,1.116-1.116h4.782a1.114,1.114,0,0,1,1.116,1.116v5.459a1.14,1.14,0,0,1-1.116,1.116h-4.782a1.14,1.14,0,0,1-1.116-1.116Zm0-12.712a1.14,1.14,0,0,1,1.116-1.116h4.782a1.14,1.14,0,0,1,1.116,1.116v5.26a1.14,1.14,0,0,1-1.116,1.116h-4.782a1.09,1.09,0,0,1-1.116-1.116ZM178.727.2a.8.8,0,0,1,.8.8c0,1.2.239,1.235,2.909,1.235h1.435c1.355,0,1.753-.12,1.753-1.156,0-1.993-.12-3.985-.12-5.977V-24.747c0-1.435.12-2.869.12-4.3,0-1.674-.717-2.232-2.351-2.232-1.355,0-2.67.12-4.025.12H160.277c-1.355,0-2.75-.12-4.1-.12-1.594,0-2.271.6-2.271,2.232,0,1.435.08,2.869.08,4.3V-4.9c0,1.993-.12,4.025-.12,6.017,0,1.036.478,1.116,1.833,1.116h2.59c1.156,0,1.714-.08,1.714-.956,0-.558.159-1.076.8-1.076Zm41.245-9.923c1.2,0,1.833-.12,1.833-1.435,0-.438-.12-1.076-.12-2.471v-7.293c0-.956.08-1.953.08-2.949,0-1.076-.677-1.355-1.634-1.355-1.2,0-2.431.08-3.626.08h-2.829c-.319,0-.717,0-.717-.438,0-.04.08-1.235,1.992-1.235h4.1c1.514,0,3.029.12,4.543.12.956,0,1.036-.4,1.036-1.753v-2.072c0-1.2-.08-1.554-1.036-1.554-1.514,0-3.029.08-4.543.08H198.333c-1.275,0-2.55-.08-3.865-.08-1.395,0-2.152.438-2.152,1.993,0,1.275.12,2.55.12,3.826v4.583c0,2.909-.12,5.818-.2,8.727a27.567,27.567,0,0,1-2.909,11.477,3.55,3.55,0,0,0-.478,1.116c0,1.036,3.626,2.789,4.3,2.789.877,0,2.032-2.71,2.351-3.467,2.311-5.659,2.55-12.393,2.55-18.451V-25.7a1.114,1.114,0,0,1,1.116-1.116h7.093c.319,0,.8.08.8.478,0,.2-.279,1.2-1.953,1.2-1.076,0-2.192-.08-3.308-.08-.956,0-1.594.279-1.594,1.395,0,.956.04,1.953.04,2.909v7.293c0,1.355-.08,1.873-.08,2.511s.04,1.395,1.514,1.395h5.7A1.14,1.14,0,0,1,208.5-8.608v4.344c0,1.2-.08,1.634-1,1.634-.837,0-1.873-.08-2.271-.08-.717,0-.8.558-.8,1.156a8.022,8.022,0,0,0,.717,3.347c.438.917,1.2,1.036,2.152,1.036,1.674,0,4.3,0,5.619-1.2a4.23,4.23,0,0,0,1.076-3.347c0-1.116-.12-2.271-.12-3.387V-8.767a.944.944,0,0,1,.956-.956Zm-13.669-9.6a.655.655,0,0,1-.638-.638v-.159a.655.655,0,0,1,.638-.638h9.325a.629.629,0,0,1,.638.638v.159a.629.629,0,0,1-.638.638Zm9.325,3.945a.654.654,0,0,1,.638.638v.239a.629.629,0,0,1-.638.638H206.3a.655.655,0,0,1-.638-.638v-.239a.686.686,0,0,1,.638-.638Zm-.04,9.365a1.228,1.228,0,0,0,.279.558,51.078,51.078,0,0,1,3.507,5.141c.4.677.877,1.355,1.275,2.032.159.239.279.478.558.478.717,0,4.025-1.873,4.025-2.71a23.187,23.187,0,0,0-2.152-3.507c-.837-1.235-1.833-2.63-2.789-3.826-.2-.239-.438-.6-.8-.6C219.016-8.448,215.589-6.814,215.589-6.017ZM203.434-8.01a9.9,9.9,0,0,0-1.474-.638c-.2,0-.319.239-.4.438a27.626,27.626,0,0,1-4.981,6.934,1.035,1.035,0,0,0-.359.638c0,1.116,2.949,2.829,3.905,2.829.4,0,.717-.438,1.235-1.076a38.652,38.652,0,0,0,3.666-5.3c.359-.677.8-1.235,1.315-1.235.438,0,.757-.04.757-.319C207.1-6.137,206.861-6.3,203.434-8.01Z" transform="translate(18451.316 1613.833)" fill="#221714"/>
    <path id="パス_802" data-name="パス 802" d="M19.546-7.115a.782.782,0,0,1,.5-.46c.377-.084.963-.209.963-.712,0-.628-1.925-1.339-3.013-1.758-.628-.251-1.13-.46-1.13-.67,0-.293.377-.293.544-.293H20.3a1.17,1.17,0,0,1,1.172,1.172v5.525c0,.753-.042,2.176-.042,2.8,0,2.72,1.465,3.725,3.976,3.725h7.157c1.674,0,3.6,0,4.688-1.172,1.339-1.423,2.26-4.729,2.26-6.655,0-1.842-3.348-2.511-4.478-2.511-.586,0-.879.167-.921.753-.251,3.181-.335,3.851-2.846,3.851H29.59c-1.925,0-2.051-.377-2.051-2.26v-4.562a.661.661,0,0,1,.67-.67h.126c.377,0,.5.251.67.544.251.419.8.46,2.3.46h2.009c1.381,0,1.8-.084,1.8-.963,0-1.046-.084-2.553-.084-4.018V-28.46c0-1.3.084-2.553.084-3.851,0-1.507-.8-1.8-2.051-1.8-1.423,0-2.846.084-4.227.084H13.058c-1.423,0-2.846-.084-4.269-.084-1.339,0-2.009.377-2.009,1.8,0,1.3.042,2.553.042,3.851v13.477c0,1.423-.084,2.972-.084,4.018,0,.837.46.963,1.214.963h2.469c1.716,0,2.26,0,2.427-.46a.86.86,0,0,1,.8-.544.661.661,0,0,1,.67.67,6.446,6.446,0,0,1-1.256,3.055c-2.176,2.888-5.692,3.809-9.082,4.1-1,.084-1.632.126-1.632,1A7.154,7.154,0,0,0,2.762-.084c.335,1,.879,2.8,2.176,2.8a23.513,23.513,0,0,0,4.018-.8C13.937.5,17.62-2.218,19.546-7.115Zm-6.7-21.01a.554.554,0,0,1,.544-.544H28.5a.519.519,0,0,1,.5.544v.209a.519.519,0,0,1-.5.544H13.393a.528.528,0,0,1-.544-.544Zm0,5.566a.528.528,0,0,1,.544-.544H28.5a.519.519,0,0,1,.5.544v.251a.519.519,0,0,1-.5.544H13.393a.554.554,0,0,1-.544-.544Zm0,5.776a.506.506,0,0,1,.544-.544H28.5a.5.5,0,0,1,.5.544v.209a.5.5,0,0,1-.5.544H13.393a.528.528,0,0,1-.544-.544Zm51.48-11.384A30.2,30.2,0,0,0,54.577-26.2c-3.641,1.214-7.282,2.553-11.007,3.641-.5.126-1.046.293-1.046.921,0,1.674,2.553,6.027,4.353,6.027a2.255,2.255,0,0,0,1.256-.419c4.771-2.637,10.8-5.65,16.407-5.65,2.888,0,5.232,1.549,5.232,4.688,0,3.725-2.972,6.069-6.111,7.492a22.19,22.19,0,0,1-8.078,1.925c-.67.042-1.59.209-1.59,1.046a14.265,14.265,0,0,0,1.3,3.976c.377.8.8,1.507,1.758,1.507,1.967,0,6.529-1.339,8.413-2.093,5.985-2.344,11.049-6.99,11.049-13.853a11.37,11.37,0,0,0-3.055-7.827C71.067-27.288,67.677-28.167,64.329-28.167Zm27.079-2.051A37.293,37.293,0,0,0,87.6-31.557c-.419,0-.586.251-.753,1.381a9.421,9.421,0,0,1-.335,1.381,47.956,47.956,0,0,0-2.051,13.56c0,4.729.712,9.626,3.1,13.853C88.227-.167,88.645.209,89.4.209c.879,0,4.311-1.13,4.311-2.679a6.244,6.244,0,0,0-.084-.879c-.042-.5-.167-1.423-.167-1.925,0-2.3,1.716-6.7,1.716-7.324S93-14.439,92.454-14.439c-.419,0-.628.544-.963,1.3-.293.628-.377.8-.628.8-.5,0-.5-1.381-.5-2.93a28.21,28.21,0,0,1,2.386-11.3,2.83,2.83,0,0,1,1.59-1.59c.251-.126.377-.167.377-.377,0-.46-.67-.712-1.339-.963L93-29.632C92.747-29.716,92.161-29.925,91.408-30.218Zm12.3-1.716c-.419,0-.879.084-.879.586a3.663,3.663,0,0,0,.084.67,47.756,47.756,0,0,1,1.172,6.529c0,.712-.46,1-1.088,1.13-1.172.209-5.19.419-6.027.419-1.507,0-1.549.084-1.549,2.344,0,3.558.544,3.809,1.549,3.809.921,0,2.637-.293,3.6-.419.293-.042,2.637-.419,2.972-.419.753,0,1,.5,1,1.13v.753c0,5.315-1.172,8.957-5.441,12.389-.167.126-.209.167-.335.251-.544.419-.712.67-.712,1,0,.879,2.051,2.511,3.306,3.432a2.012,2.012,0,0,0,1.088.46c1.13,0,2.972-2.135,3.641-3.013,3.516-4.436,4.562-8.664,4.562-14.23,0-.712-.042-1.423-.042-2.093,0-1.214,1.046-1.339,1.59-1.423,3.1-.419,3.432-.46,3.432-1.716a27.142,27.142,0,0,0-.251-3.223c-.084-.586-.293-1.59-1.046-1.59a2.9,2.9,0,0,0-.67.126,19.676,19.676,0,0,1-2.469.5c-.879,0-1.088-.837-1.088-3.976a3,3,0,0,1,.419-2.009,1.063,1.063,0,0,0,.335-.586c0-.293-.335-.377-.712-.419C107.1-31.809,104.089-31.934,103.713-31.934ZM134.684-35.2c-.251,0-.335.209-.335.46a46.177,46.177,0,0,1-1.214,7.7c-.335,1.046-1,1.046-3.1,1.046-2.176,0-4.06-.209-4.478-.209-.67,0-.753.419-.753.963a31.25,31.25,0,0,0,.46,4.436c.251.921.8,1.046,1.674,1.046.921,0,1.925-.126,2.762-.126.46,0,.921.126.921.712a2.83,2.83,0,0,1-.293.963,66.1,66.1,0,0,1-6.864,13.77A3.919,3.919,0,0,0,122.63-2.8c0,1.256,4.353,3.139,5.064,3.139s.963-.46,1.3-1c2.679-4.353,6.278-13.435,8.036-18.5.5-1.507.628-1.549,2.428-1.925,1.632-.335,4.311-.963,5.985-1.507.67-.209.837-.46.837-1.046,0-1.256,0-5.4-1.13-5.4a3.6,3.6,0,0,0-1.046.293,17.714,17.714,0,0,1-3.39,1.088.715.715,0,0,1-.8-.753A3.409,3.409,0,0,1,140-28.8q.251-.816.377-1.381c.377-1.381.544-2.051,1.13-2.344.167-.084.419-.209.419-.419,0-.419-1.256-.8-2.051-1C139.12-34.152,135.228-35.2,134.684-35.2Zm5.734,19.713c0,.753.293.879,1.256.879h1.507a18.421,18.421,0,0,1,7.2,1.13,3.6,3.6,0,0,0,1.046.293.888.888,0,0,0,.8-.5,14.763,14.763,0,0,0,1.256-4.6c0-.67-.46-.837-1.046-1a37.017,37.017,0,0,0-9.5-1.256C141.255-20.55,140.418-20.3,140.418-15.486Zm-2.344,7.073c-.5,0-1.256.837-1.59,1.214-.5.586-2.051,2.469-2.051,3.181,0,.963,1.339,2.135,2.009,2.637C138.911.419,142.971.8,145.943.8a48.9,48.9,0,0,0,7.073-.544c.753-.209.753-.712.753-3.013V-4.018c0-1.339-.084-2.26-.753-2.26a1.5,1.5,0,0,0-.46.084,20.238,20.238,0,0,1-6.32.879c-2.511,0-5.692-.46-7.408-2.511C138.66-8.036,138.367-8.413,138.074-8.413Zm41.77-2.135c1.088,0,1.256-.167,1.3-1.256l.377-9.417c.167-3.139.5-8.873.5-9.71,0-.712-.251-.879-1.172-.879h-5.106c-.921,0-1.172.167-1.172.879,0,.837.335,6.613.5,9.208l.419,9.919c.042,1.088.209,1.256,1.3,1.256ZM178.5-7.91a4.172,4.172,0,0,0-4.311,4.478A3.641,3.641,0,0,0,178.086.251a4.115,4.115,0,0,0,4.353-4.311A3.784,3.784,0,0,0,178.5-7.91Z" transform="translate(18675.684 1687)" fill="#221714"/>
    <g id="グループ_100" data-name="グループ 100" transform="translate(17945.377 133.189)">
      <g id="グループ_90" data-name="グループ 90">
        <path id="パス_279" data-name="パス 279" d="M576.875,1540.988l.191.706.133.755.242.733.223.736.088.766.122.757.243.734.214.741.216.743.093.77-.764.283-.8.134-.777.28-.815-.069-.782.215-.8.134-.77.224-.779.195-.787.156-.786.151-.781.179-.809.01-.783.184-.8.047-.793.082-.825.121-.2-.818-.189-.781-.145-.794-.275-.757-.271-.757-.17-.786-.258-.76-.206-.775-.142-.792-.263-.758-.273-.755-.139-.792-.291-.748-.164-.785-.218-.777-.257-.764-.088-.811-.245-.766-.255-.762-.278-.754-.161-.786-.2-.775-.194-.773-.264-.755-.194-.775-.252-.759-.22-.771-.282-.749-.2-.772-.2-.775-.278-.748-.115-.8-.341-.725-.229-.828.842-.14.829-.113.824-.132.81-.2.825-.118.811-.205.815-.2.841-.077.77-.165.274.7.175.781.2.774.1.8.224.768.165.785.194.77.134.786.2.774.313.75.154.785.166.781.162.783.245.767.2.776.2.777.144.792.21.775.2.778.142.789.114.8.249.77.181.788.181.792.808-.136.818-.006.806-.1.785-.249.824.016.814-.069.8-.229Z"/>
      </g>
      <g id="グループ_91" data-name="グループ 91">
        <path id="パス_280" data-name="パス 280" d="M591.045,1540.564l-.15-.8-.216-.764-.164-.769-.194-.765-.246-.754-.11-.791-.238-.756-.2-.766-.2-.766-.2-.768-.141-.783-.186-.772-.225-.764-.214-.766-.137-.784-.22-.763-.135-.787-.271-.756-.191-.777-.118-.761.734-.207.768-.209.785-.134.768-.221.78-.179.761-.261.786-.1.178.733.083.791.124.781.161.774.153.776.164.774.167.774.137.781.167.775.242.76.108.787.148.778.235.758.1.789.222.763.108.787.242.761.154.779.118.791.21.8-.811.194-.813.137-.795.227-.806.186-.794.243Z"/>
      </g>
      <g id="グループ_92" data-name="グループ 92">
        <path id="パス_281" data-name="パス 281" d="M634.707,1530.318l.276.853.314.825.3.833.285.839.3.833.327.823.284.835.324.827.288.84.3.841.258.831-.8.294-.817.337-.829.306-.838.292-.821.358-.325-.868-.182-.886-.2-.878-.194-.881-.16-.886-.227-.871-.15-.888-.193-.879-.165-.886-.19-.884-.244-.869-.226-.877-.244-.9.884.225.888.161.9.12Z"/>
      </g>
      <g id="グループ_93" data-name="グループ 93">
        <path id="パス_282" data-name="パス 282" d="M677.3,1518.159l.512.76.613.642.519.717.581.672.549.7.595.666.532.722-.754.655-.8.595-.758.655-.762.654-.788.6-.547-.694-.506-.757-.409-.818-.416-.809-.517-.757-.454-.8-.534-.748-.518-.726.765-.355.773-.376.784-.357.751-.432Z"/>
      </g>
      <g id="グループ_94" data-name="グループ 94">
        <path id="パス_283" data-name="パス 283" d="M684.623,1516.331l.576.943.491.969.512.655.446.752.4.795-1,.409-.985.445-.995.431-.986.471-.658-.789-.589-.84-.629-.811-.665-.786-.62-.791.93-.328.916-.442.974-.3.939-.4Z"/>
      </g>
      <g id="グループ_95" data-name="グループ 95">
        <path id="パス_284" data-name="パス 284" d="M622.188,1543.576l-.247-.984-.172-.983-.221-.976-.163-.99-.8.265-.841.12-.8.265-.808.259-.838.19-.345-.945-.387-.92-.385-.919-.327-.827-.227-.862-.337-.829-.181-.883-.466-.807-.31-.875-.411-.827-.4-.837-.358-.858-.427-.829-.358-.889-.953.125-.933.02-.928.114-.931.005-.934.038-.933.083-.933.111-.946.01.4.911.248.948.363.9.281.943.4.9.223.885.3.857.3.858.3.861.3.859.318.855.3.864.294.865.28.869.3.861.246.884.307.865.357.85.279.85.869-.188.911-.122.893-.2.889-.22.892-.2.9-.181.913-.126.9-.213.908-.163v0l.849-.167.845-.192.861-.12Z"/>
      </g>
      <g id="グループ_97" data-name="グループ 97">
        <g id="グループ_96" data-name="グループ 96">
          <path id="パス_285" data-name="パス 285" d="M678.335,1538.551c-.272-.311-.3-.287-.562-.607s-.257-.325-.518-.647-.274-.31-.535-.632-.216-.357-.476-.678-.241-.336-.5-.656-.3-.292-.561-.614-.221-.356-.482-.679-.252-.332-.514-.656-.281-.309-.548-.629c-.191-.21-.4-.405-.583-.611s-.339-.454-.525-.66-.411-.389-.6-.594-.4-.4-.582-.607l-.569-.631c-.192-.213-.39-.415-.576-.622s-.352-.447-.537-.653-.334-.461-.518-.667-.4-.4-.586-.6-.446-.357-.628-.561-.3-.491-.479-.7-.452-.36-.634-.566-.359-.435-.538-.64-.327-.465-.505-.669-.4-.4-.58-.6-.341-.432-.515-.635c-.348.129-.245.277-.528.516s-.309.208-.593.447-.266.263-.55.5-.344.167-.636.4c-.182.112-.371.217-.608.391-.159.117-.337.275-.562.464-.16.134-.334.3-.541.486-.164.147-.288.371-.488.556-.31.289-.522.484-.671.625a7.028,7.028,0,0,1-.689.592c-.139.111-.342.292-.693.585-.189.157-.422.344-.7.58-.288.267-.289.265-.57.538s-.275.281-.557.555-.29.262-.57.535-.278.276-.56.55-.268.287-.549.56-.285.272-.567.546-.286.273-.569.548-.335.223-.619.5-.229.333-.518.6c-.314.293-.307.3-.627.587l-.641.576c-.32.287-.323.284-.643.57s-.372.23-.692.517-.342.264-.664.552-.241.376-.562.663-.343.262-.664.549-.34.264-.66.551-.322.287-.644.575-.281.335-.6.623-.357.251-.68.541-.568.152-.618.583c-.045.391.227.3.482.6s.236.316.491.616.266.293.521.594.28.277.534.576.19.356.445.657.253.3.507.6.266.294.522.595.293.272.549.574.252.308.509.611.154.44.491.651c.2-.16.457-.366.681-.572.185-.17.339-.406.558-.616.183-.176.409-.338.625-.547.185-.179.339-.417.553-.623.188-.18.447-.309.66-.512.189-.181.338-.425.55-.624.192-.181.4-.365.61-.562.194-.18.4-.369.61-.564.2-.18.406-.362.62-.556.2-.18.4-.371.614-.563s.389-.387.6-.578.423-.348.639-.538.431-.344.647-.533.4-.383.614-.571c.29-.282.361-.21.646-.5s.263-.31.549-.6.219-.351.5-.638.363-.212.648-.5.232-.339.517-.627.329-.248.615-.537.272-.3.559-.594.323-.256.61-.547.277-.3.565-.591c.356-.355.587-.661.807-.892.31.12.2.257.428.5s.2.265.429.51c.3.325.38.25.678.575s.236.381.534.706.29.334.589.661.287.337.587.664.393.243.693.571.283.345.573.682c.268.311.186.378.443.7s.351.245.608.564.185.377.442.7l.516.641c.259.321.311.28.569.6s.265.318.524.64.271.311.54.625.234.36.521.676.3.3.589.619.267.335.554.651.243.355.529.671.364.245.65.561.244.356.532.673.294.312.582.63.249.354.538.672.4.225.678.548.242.355.517.68.239.355.513.679.265.333.539.656.3.305.573.629.29.314.566.64.273.327.548.652.295.308.571.633.268.333.544.66.208.383.483.708.317.291.593.616.235.359.51.683.279.325.556.652.271.332.548.659.357.26.635.588.1.722.526.727.286-.354.554-.675.27-.319.537-.64.229-.352.5-.673.309-.284.576-.6.237-.348.505-.669.321-.279.589-.6.2-.38.471-.7a2.47,2.47,0,0,0,.5-.657,5.824,5.824,0,0,1-.523-.564c-.151-.189-.26-.457-.447-.7-.155-.2-.358-.4-.536-.635-.158-.209-.361-.4-.535-.634-.159-.212-.284-.465-.456-.695-.161-.214-.283-.47-.455-.7s-.315-.448-.488-.673-.386-.4-.559-.619-.356-.414-.528-.634-.323-.444-.5-.663-.349-.425-.526-.643-.316-.454-.494-.67-.4-.389-.578-.6-.376-.408-.558-.62-.354-.424-.538-.633-.322-.456-.509-.663-.4-.384-.593-.589-.324-.46-.516-.662-.419-.371-.614-.57-.38-.41-.578-.6-.392-.4-.593-.589S678.54,1538.738,678.335,1538.551Z"/>
        </g>
        <path id="パス_286" data-name="パス 286" d="M689.857,1552.374c.211-.744.881-.063.358-.4s-.624-.689-.556-.736,3.55.356-1.339-.646Z"/>
        <path id="パス_287" data-name="パス 287" d="M689.493,1548.764l.008-.189a.23.23,0,0,1,.328.322.171.171,0,0,1-.212,0,.153.153,0,0,0-.209-.161v-.09l.234-.034"/>
      </g>
      <path id="パス_288" data-name="パス 288" d="M595.529,1539.008c-.054.028-.107.077-.162.08a.973.973,0,0,0-.447.165,2.035,2.035,0,0,1-.74.281.249.249,0,0,0-.061.013,8.567,8.567,0,0,1-1.229.33c-.225.07-.464.1-.691.159s-.449.152-.672.233c-.047.017-.12.03-.1.1.017.056.131.079.183.042s.066-.075.108-.1a.31.31,0,0,1,.119-.009c-.005.031-.009.063-.017.093s-.023.052-.028.079c-.012.068.063.237.106.231a.156.156,0,0,0,.124-.171c0-.292.192-.354.416-.387.1-.015.194-.011.288-.03.057-.011.107-.058.164-.075a.5.5,0,0,1,.14,0c-.01.038-.017.077-.03.115-.03.086-.068.17-.091.258-.011.041-.006.121.014.129.075.031.089-.049.107-.095a2.484,2.484,0,0,0,.072-.242c.046-.153.119-.181.266-.114s.078-.128.109.021a1.136,1.136,0,0,0,.033.185c.055.147.153.164.268.057a.738.738,0,0,1,.164-.128c.148-.071.209-.03.207.132,0,.041-.012.083-.015.125a.276.276,0,0,0,.173.3.254.254,0,0,0,.34-.126,2.359,2.359,0,0,1,.6-.723.552.552,0,0,0,.136-.184.457.457,0,0,1,.172-.227.245.245,0,0,0,.081-.156c.032-.213.117-.09.038-.286Z"/>
      <path id="パス_289" data-name="パス 289" d="M593.474,1540.948c0,.136-.15.326-.2.292a.376.376,0,0,1-.123-.225c-.013-.093.032-.209.146-.2C593.373,1540.826,593.434,1540.915,593.474,1540.948Z"/>
      <g id="グループ_98" data-name="グループ 98">
        <path id="パス_290" data-name="パス 290" d="M540.906,1519.665c-.256-.277.013-.353.023-.731s-.053-.379-.043-.757.03-.379.04-.758,0-.379.009-.758.067-.377.077-.756-.062-.382-.052-.762.058-.378.068-.757.039-.379.049-.758-.064-.38-.054-.759.008-.38.018-.761.047-.38.057-.761.043-.381.053-.763.023-.382.028-.764-.048-.371-.048-.741-.034-.371-.034-.741.09-.372.09-.744-.187-.4-.071-.751c.245,0,.511-.023.762-.024.233,0,.474.034.734.035.23,0,.475-.021.74-.02.231,0,.477.028.744.028.2,0,.448-.051.734-.051.222,0,.468.012.733.013.229,0,.473.047.73.047.235,0,.479.021.733.021.237,0,.482-.053.733-.052s.485.028.734.029.483.024.73.025.486-.012.733-.011.488-.04.734-.039.492.021.738.023.495.042.741.043.493-.059.736-.058.494.046.737.047.5-.04.741-.038.5.011.736.012.5-.024.737-.022c.255,0,.5.058.732.06.26,0,.548-.011.773-.008.109.386-.053.413-.053.814s0,.4,0,.806.021.4.021.807-.055.405-.055.81.342.537.064.832c-.257.273-.4-.076-.774-.082s-.378.06-.755.054l-.753-.011c-.376-.005-.375-.073-.752-.079s-.379.083-.756.078-.377-.026-.754-.032l-.753-.01c-.376-.006-.376-.013-.752-.019s-.379.026-.757.02-.378-.06-.756-.066-.381.038-.76.032-.379-.056-.759-.057c-.345,0-.345.039-.689.043s-.346.015-.691.019-.347-.06-.694-.055-.345.058-.692.062c-.136,0-.272-.022-.4-.02a3,3,0,0,0-.011.751c.01.376,0,.377.012.753s.011.375.022.75.066.374.076.749.036.376.046.753.018.376.028.752-.062.377-.051.753.039.374.049.749.047.376.057.753.005.378.015.755.025.378.035.757.217.468-.05.736-.348-.013-.718-.029-.373.042-.743.025-.369-.1-.741-.114-.374.01-.746-.006-.386-.121-.756-.064S541.16,1519.94,540.906,1519.665Z"/>
      </g>
      <g id="グループ_99" data-name="グループ 99">
        <path id="パス_291" data-name="パス 291" d="M701.675,1561.995c.353,0,.353.026.705.023s.352.014.7.011.351-.076.7-.079.351.042.7.039.353-.026.706-.028.354.056.707.054.354-.023.709-.026.354,0,.709,0c.141,0,.325-.009.457-.012.054-.372-.068-.382-.079-.758s.036-.377.024-.752-.094-.372-.106-.747.048-.378.036-.754-.074-.374-.085-.749.06-.378.048-.753-.065-.373-.077-.748,0-.376-.011-.753-.02-.377-.031-.754.04-.38.028-.758-.325-.5-.068-.774c.238-.256.371-.011.72,0s.346.1.695.117.351-.026.7-.012.35.04.7.055.351.023.7.038.353-.02.705-.005.444-.213.681.048.012.34,0,.7.026.363.016.725-.036.363-.046.727-.046.362-.056.725-.037.362-.048.725.077.367.066.731-.069.362-.079.726-.037.362-.048.726.056.364.046.727-.057.363-.068.728-.029.365-.039.73.023.367.012.733.05.368.044.734-.03.376-.03.753-.017.378-.017.755-.014.379-.014.757.132.4.011.758c-.259,0-.515.024-.781.024-.246,0-.5-.069-.774-.07-.244,0-.5.046-.783.045-.244,0-.5-.038-.786-.038-.2,0-.448.064-.732.063-.222,0-.466-.037-.731-.037-.229,0-.474-.012-.73-.013-.234,0-.479.037-.732.036-.237,0-.482-.005-.733-.006s-.484.013-.733.013-.485-.036-.733-.037-.485-.008-.731-.008-.487-.015-.732-.016-.49-.025-.735-.026-.493.045-.739.044-.491.045-.735.044-.492-.067-.734-.069-.494.053-.736.051-.5.005-.741,0-.5-.06-.734-.062-.5.018-.735.016c-.255,0-.5.028-.732.026-.259,0-.522-.042-.749-.045-.125-.348.014-.377-.006-.747s-.039-.367-.059-.736.02-.373,0-.744,0-.372-.024-.743-.091-.368-.111-.741-.293-.489-.031-.754.389.052.769.06.382.005.763.014.381.015.762.023.381-.047.762-.039.38,0,.76.012.383-.023.765-.015.381.044.764.052.383.011.767.014S701.292,1561.992,701.675,1561.995Z"/>
      </g>
    </g>
    <path id="パス_801" data-name="パス 801" d="M10.882-24.066a1,1,0,0,0,.419.879c1.423.963,8.58,1.172,10.547,1.172a42.009,42.009,0,0,0,7.575-.586c1-.167,1.3-.251,1.3-1.214,0-.712-.084-2.218-.126-2.93-.084-1.465-.293-2.511-1.256-2.511a3.663,3.663,0,0,0-.67.084,34.886,34.886,0,0,1-7.492.879,31.475,31.475,0,0,1-6.906-.8,6.733,6.733,0,0,0-1.549-.293c-.879,0-1.088.628-1.172,1.13C11.384-27.33,10.882-24.484,10.882-24.066ZM6.571-10.756a10.765,10.765,0,0,0,1.883,4.6c2.8,3.892,7.659,4.436,12.137,4.436a70.191,70.191,0,0,0,12.6-1.172c1-.251,1.465-.5,1.465-1.256,0-.544-.126-2.679-.167-3.39-.084-1.381-.251-2.26-1.046-2.26a3.874,3.874,0,0,0-.963.167A44.867,44.867,0,0,1,20.424-8.161c-2.176,0-4.813-.084-6.4-1.716a5.019,5.019,0,0,1-1.088-2.72c-.084-.628-.209-1.046-.753-1.046A26.266,26.266,0,0,0,8.2-12.137C7.157-11.677,6.571-11.342,6.571-10.756ZM50.224-24.066a1,1,0,0,0,.419.879c1.423.963,8.58,1.172,10.547,1.172a42.009,42.009,0,0,0,7.575-.586c1-.167,1.3-.251,1.3-1.214,0-.712-.084-2.218-.126-2.93-.084-1.465-.293-2.511-1.256-2.511a3.663,3.663,0,0,0-.67.084,34.886,34.886,0,0,1-7.492.879,31.475,31.475,0,0,1-6.906-.8,6.733,6.733,0,0,0-1.549-.293c-.879,0-1.088.628-1.172,1.13C50.726-27.33,50.224-24.484,50.224-24.066ZM45.913-10.756a10.765,10.765,0,0,0,1.883,4.6c2.8,3.892,7.659,4.436,12.137,4.436a70.191,70.191,0,0,0,12.6-1.172c1-.251,1.465-.5,1.465-1.256,0-.544-.126-2.679-.167-3.39-.084-1.381-.251-2.26-1.046-2.26a3.874,3.874,0,0,0-.963.167A44.867,44.867,0,0,1,59.767-8.161c-2.176,0-4.813-.084-6.4-1.716a5.019,5.019,0,0,1-1.088-2.72c-.084-.628-.209-1.046-.753-1.046a26.266,26.266,0,0,0-3.976,1.507C46.5-11.677,45.913-11.342,45.913-10.756Zm63.994-21.052c-.377,0-2.637,1.423-2.637,2.051,0,.209.251.5.419.67,1.046,1.088,2.135,2.344,2.93,3.348.293.377.46.544.628.544.46,0,2.553-1.507,2.553-2.3,0-.67-2.679-3.306-3.265-3.892C110.409-31.516,110.116-31.809,109.907-31.809ZM95.342-35.2c-.251,0-.293.167-.335.46a47.312,47.312,0,0,1-1.214,7.7c-.335,1.046-1,1.046-3.1,1.046-2.176,0-4.06-.209-4.478-.209-.67,0-.753.419-.753.963a31.25,31.25,0,0,0,.46,4.436c.251.921.8,1.046,1.674,1.046.921,0,1.925-.126,2.762-.126.46,0,.921.126.921.712a2.83,2.83,0,0,1-.293.963,69.326,69.326,0,0,1-6.864,13.77A3.7,3.7,0,0,0,83.288-2.8c0,1.256,4.353,3.139,5.064,3.139s.963-.46,1.3-1c2.679-4.353,6.613-14.188,8.036-18.5.5-1.465.628-1.549,2.427-1.925,1.632-.335,4.478-1,5.985-1.507.586-.209.837-.335.837-1.046,0-1.214,0-5.4-1.13-5.4a3.6,3.6,0,0,0-1.046.293,17.713,17.713,0,0,1-3.39,1.088.715.715,0,0,1-.8-.753,1.222,1.222,0,0,1,.084-.377q.251-.816.377-1.381c.377-1.381.544-2.051,1.13-2.344.167-.084.419-.209.419-.419,0-.167-.167-.377-.879-.628A57.324,57.324,0,0,0,95.342-35.2Zm19.169.335c-.5,0-2.637,1.507-2.637,2.093a.515.515,0,0,0,.209.419c1.172,1.256,2.093,2.218,3.181,3.6.126.167.377.5.628.5.46,0,2.511-1.549,2.511-2.3,0-.67-2.679-3.306-3.265-3.851C114.929-34.613,114.678-34.864,114.511-34.864ZM101.076-15.486c0,.753.293.879,1.256.879h1.507a18.421,18.421,0,0,1,7.2,1.13,3.6,3.6,0,0,0,1.046.293.888.888,0,0,0,.8-.5,14.763,14.763,0,0,0,1.256-4.6c0-.67-.46-.837-1.046-1a35.732,35.732,0,0,0-9.5-1.256C102.122-20.55,101.076-20.55,101.076-15.486ZM98.732-8.413c-.5,0-1.256.837-1.59,1.214-.5.586-2.051,2.469-2.051,3.181,0,.963,1.339,2.135,2.009,2.637C99.569.419,103.629.8,106.6.8a47.261,47.261,0,0,0,7.073-.544c.753-.209.753-.712.753-3.013V-4.018c0-1.339-.084-2.26-.753-2.26a1.5,1.5,0,0,0-.46.084,20.238,20.238,0,0,1-6.32.879c-2.511,0-5.692-.46-7.408-2.511C99.318-8.036,99.025-8.413,98.732-8.413ZM130.75-30.218a37.292,37.292,0,0,0-3.809-1.339c-.419,0-.586.251-.753,1.381a9.421,9.421,0,0,1-.335,1.381,47.956,47.956,0,0,0-2.051,13.56c0,4.729.712,9.626,3.1,13.853.67,1.214,1.088,1.59,1.842,1.59.879,0,4.311-1.13,4.311-2.679a6.244,6.244,0,0,0-.084-.879c-.042-.5-.167-1.423-.167-1.925,0-2.3,1.716-6.7,1.716-7.324s-2.176-1.842-2.72-1.842c-.419,0-.628.544-.963,1.3-.293.628-.377.8-.628.8-.5,0-.5-1.381-.5-2.93a28.211,28.211,0,0,1,2.386-11.3,2.83,2.83,0,0,1,1.59-1.59c.251-.126.377-.167.377-.377,0-.46-.67-.712-1.339-.963l-.377-.126C132.089-29.716,131.5-29.925,130.75-30.218Zm12.3-1.716c-.419,0-.879.084-.879.586a3.663,3.663,0,0,0,.084.67,47.756,47.756,0,0,1,1.172,6.529c0,.712-.46,1-1.088,1.13-1.172.209-5.19.419-6.027.419-1.507,0-1.549.084-1.549,2.344,0,3.558.544,3.809,1.549,3.809.921,0,2.637-.293,3.6-.419.293-.042,2.637-.419,2.972-.419.753,0,1,.5,1,1.13v.753c0,5.315-1.172,8.957-5.441,12.389-.167.126-.209.167-.335.251-.544.419-.712.67-.712,1,0,.879,2.051,2.511,3.306,3.432a2.011,2.011,0,0,0,1.088.46c1.13,0,2.972-2.135,3.641-3.013C148.956-5.315,150-9.543,150-15.109c0-.712-.042-1.423-.042-2.093,0-1.214,1.046-1.339,1.59-1.423,3.1-.419,3.432-.46,3.432-1.716a27.141,27.141,0,0,0-.251-3.223c-.084-.586-.293-1.59-1.046-1.59a2.9,2.9,0,0,0-.67.126,19.676,19.676,0,0,1-2.469.5c-.879,0-1.088-.837-1.088-3.976a3,3,0,0,1,.419-2.009,1.063,1.063,0,0,0,.335-.586c0-.293-.335-.377-.712-.419C146.445-31.809,143.431-31.934,143.055-31.934Zm36.412,1.3A17.733,17.733,0,0,0,161.638-12.6a14.167,14.167,0,0,0,1.381,6.278,7.456,7.456,0,0,0,6.362,4.311c2.511,0,4.52-1.59,6.069-3.474,3.851-4.6,5.525-11.719,5.985-17.537.042-.753.126-1.507.837-1.507,1.256,0,6.278,2.595,6.278,9.166,0,5.357-3.976,8.413-8.831,9.668-1.214.293-1.59.46-1.59.837,0,1.172,2.218,5.022,3.683,5.022,1.172,0,3.934-1.3,4.981-1.883a15.686,15.686,0,0,0,8.413-13.9,14.728,14.728,0,0,0-4.436-10.756A15.519,15.519,0,0,0,179.467-30.637Zm-4.939,7.031c.377,0,.544.293.544.628a37.826,37.826,0,0,1-2.637,10.714c-.419.879-1.842,3.641-2.846,3.641-1.465,0-1.716-3.055-1.716-4.06C167.874-19.755,173.315-23.605,174.528-23.605Z" transform="translate(18272.684 1687)" fill="#221714"/>
  </g>
</svg>
