<svg xmlns="http://www.w3.org/2000/svg" width="30" height="30" viewBox="0 0 30 30">
  <g id="グループ_155" data-name="グループ 155" transform="translate(-916 -2136)">
    <rect id="長方形_19" data-name="長方形 19" width="30" height="30" transform="translate(916 2136)" fill="none" opacity="0.4"/>
    <path id="パス_320" data-name="パス 320" d="M1228.579,2257.65c-.03.046-.055.087-.078.125-.023-.038-.048-.079-.078-.125-4.038-6.366-12.626-1.365-10.84,4.881.986,3.448,4.4,7.6,10.653,10.353a1.552,1.552,0,0,0,.237.1,1.8,1.8,0,0,0,.293-.1c6.257-2.755,9.668-6.905,10.653-10.353C1241.2,2256.285,1232.617,2251.284,1228.579,2257.65Z" transform="translate(-297.66 -112.396)" fill="none" stroke="#1385B7" stroke-linecap="round" stroke-linejoin="round" stroke-width="1.8"/>
  </g>
</svg>
