<svg xmlns="http://www.w3.org/2000/svg" width="10.128" height="9.199" viewBox="0 0 10.128 9.199">
  <g id="グループ_794" data-name="グループ 794" transform="translate(0 0)">
    <path id="パス_552" data-name="パス 552" d="M1496.283,1500.966a.942.942,0,0,0-.726-.2,1.009,1.009,0,0,0-.729.271c-.251.294-.213.326-.464.619s-.323.233-.573.526-.138.391-.39.685-.258.287-.508.578l-.5.588c-.251.294-.268.279-.519.572s-.229.314-.481.609-.273.277-.526.573-.342.22-.595.516-.075.752-.458.683-.04-.431-.161-.795-.171-.349-.293-.715-.12-.368-.242-.734-.223-.334-.346-.7l-.244-.734a.876.876,0,0,0-.473-.549.89.89,0,0,0-.726-.059.912.912,0,0,0-.573.468,1.042,1.042,0,0,0-.151.779c.112.336.159.321.27.656s.054.354.166.69.148.323.26.658.1.34.207.675.215.3.327.638.122.334.233.671.073.351.185.689.083.348.2.686a.994.994,0,0,0,.782.645.983.983,0,0,0,.19-.012,1.059,1.059,0,0,0,.834-.241c.238-.277.238-.277.474-.556s.146-.357.383-.635.22-.3.459-.574.3-.229.536-.508.2-.309.441-.588.318-.206.555-.481.174-.333.413-.611.3-.229.536-.509.2-.31.441-.59.288-.241.527-.521.18-.333.421-.613.188-.327.429-.609.315-.218.556-.5a1.1,1.1,0,0,0,.272-.764A1.059,1.059,0,0,0,1496.283,1500.966Z" transform="translate(-1486.573 -1500.762)"/>
  </g>
</svg>
