<svg xmlns="http://www.w3.org/2000/svg" width="24" height="24" viewBox="0 0 24 24">
  <g id="グループ_468" data-name="グループ 468" transform="translate(-1567.978 -1546.652)">
    <rect id="長方形_45" data-name="長方形 45" width="24" height="24" transform="translate(1567.978 1546.652)" fill="none"/>
    <path id="パス_550" data-name="パス 550" d="M1582.241,1549.422a25.413,25.413,0,0,1-1.551.182,6.754,6.754,0,0,0-.745.232,6.647,6.647,0,0,0-.709.322,6.819,6.819,0,0,0-.687.363,6.707,6.707,0,0,0-.625.461,5.443,5.443,0,0,0-1.1,1.1,6.809,6.809,0,0,0-.495.6,6.941,6.941,0,0,0-.419.665,7.146,7.146,0,0,0-.249.745,7.246,7.246,0,0,0-.177.759,6.6,6.6,0,0,0-.13.766,6.826,6.826,0,0,0-.04.775,7.427,7.427,0,0,0-.056.75,6.944,6.944,0,0,0,.124.739,3.715,3.715,0,0,0,.48,1.417,6.943,6.943,0,0,0,.421.618c.128.214.255.47.4.668-.191.351-.3.283-.581.565s-.3.267-.581.549-.258.308-.542.591-.339.224-.621.505-.24.325-.523.608-.248.317-.531.6-.333.235-.616.519-.294.275-.578.559-.241.33-.526.615-.318.253-.6.538a.986.986,0,0,0-.285.706,1.034,1.034,0,0,0,.254.738,1.015,1.015,0,0,0,.738.233.974.974,0,0,0,.711-.259c.283-.282.288-.278.57-.56s.249-.315.532-.6.326-.241.609-.524.3-.265.579-.547.206-.36.488-.643.35-.215.632-.5.275-.293.558-.577.262-.306.547-.591.339-.231.624-.516.186-.393.539-.587a6.632,6.632,0,0,0,.607.379,7.04,7.04,0,0,0,.629.413,7.2,7.2,0,0,0,.725.2,7.021,7.021,0,0,0,.7.283,7.234,7.234,0,0,0,.754.034,6.774,6.774,0,0,0,.744.077,6.9,6.9,0,0,0,.778-.093,6.683,6.683,0,0,0,.763-.163,7.238,7.238,0,0,0,.79-.089,7.094,7.094,0,0,0,.724-.318,7,7,0,0,0,.658-.434,6.821,6.821,0,0,0,.643-.446,55.261,55.261,0,0,0,1.6-1.721,7.314,7.314,0,0,0,.851-2.187,4.442,4.442,0,0,0,.1-2.332,6.67,6.67,0,0,0-.137-.767,6.8,6.8,0,0,0-.184-.76,84.523,84.523,0,0,1-1.084-2.084,7.13,7.13,0,0,0-.537-.576,7.233,7.233,0,0,0-.658-.436,7.129,7.129,0,0,0-.575-.539,7,7,0,0,0-.674-.411,7.082,7.082,0,0,0-.733-.293,7.228,7.228,0,0,0-.775-.141,6.85,6.85,0,0,0-.761-.205A7.209,7.209,0,0,0,1582.241,1549.422Zm0,11.966a5.225,5.225,0,0,1-.792,0,11.217,11.217,0,0,1-1.488-.521,5.2,5.2,0,0,1-.685-.393,4.6,4.6,0,0,1-1.98-4.079,4.981,4.981,0,0,1,.005-.783,3.762,3.762,0,0,1,.449-1.505,2.812,2.812,0,0,1,.994-1.209,4.814,4.814,0,0,1,.589-.506,11.644,11.644,0,0,1,1.377-.709,4.955,4.955,0,0,1,.742-.265,5.133,5.133,0,0,1,.789-.047,5.078,5.078,0,0,1,.784.075,4.944,4.944,0,0,1,.758.205,5.12,5.12,0,0,1,.739.27,5.033,5.033,0,0,1,.622.479,5.1,5.1,0,0,1,.631.462,4.971,4.971,0,0,1,.549.567,5.168,5.168,0,0,1,.353.707,4.847,4.847,0,0,1,.287.725,4.919,4.919,0,0,1,.244.748,5.124,5.124,0,0,1,.016.786,3.336,3.336,0,0,1-.286,1.528,2.67,2.67,0,0,1-.674,1.4,8.838,8.838,0,0,1-1.077,1.133,5.032,5.032,0,0,1-.7.358,4.864,4.864,0,0,1-.725.277,2.219,2.219,0,0,1-1.524.3Z" fill="#fff"/>
  </g>
</svg>
