<svg xmlns="http://www.w3.org/2000/svg" width="41.526" height="33.741" viewBox="0 0 41.526 33.741">
  <path id="パス_338" data-name="パス 338" d="M506.268,5125.887c15.67,0,24.241-12.982,24.241-24.241,0-.368,0-.735-.025-1.1a17.359,17.359,0,0,0,4.251-4.41,17.018,17.018,0,0,1-4.894,1.34,8.549,8.549,0,0,0,3.746-4.712,17.071,17.071,0,0,1-5.41,2.068,8.527,8.527,0,0,0-14.519,7.77,24.19,24.19,0,0,1-17.559-8.9,8.526,8.526,0,0,0,2.638,11.373,8.446,8.446,0,0,1-3.867-1.066v.108a8.523,8.523,0,0,0,6.835,8.352,8.5,8.5,0,0,1-3.847.146,8.53,8.53,0,0,0,7.96,5.916,17.1,17.1,0,0,1-10.581,3.655,17.28,17.28,0,0,1-2.029-.124,24.114,24.114,0,0,0,13.059,3.82" transform="translate(-493.209 -5092.146)" fill="#00a3fa"/>
</svg>
