<svg xmlns="http://www.w3.org/2000/svg" width="176.537" height="176.444" viewBox="0 0 176.537 176.444">
  <path id="パス_339" data-name="パス 339" d="M192.527,5474.766c-.2,0-.408.153-.61.152s-.4-.521-.6-.524-.4-.056-.606-.06-.416.445-.619.44-.38-.813-.582-.82-.41.185-.612.176-.41.126-.612.116-.423.342-.626.331-.383-.38-.585-.393-.418.174-.619.161-.438.412-.64.4-.336-.9-.537-.915-.465.677-.666.659-.374-.368-.575-.388-.452.431-.653.41-.406-.049-.607-.072-.377-.291-.577-.315-.323-.7-.524-.721-.479.563-.68.537-.383-.2-.583-.232-.37-.274-.57-.3-.413.035-.614,0-.446.231-.646.2-.294-.707-.494-.741-.514.606-.713.571-.316-.54-.515-.576-.36-.269-.56-.307-.551.721-.75.683-.344-.355-.542-.4-.469.253-.666.212-.363-.256-.56-.3-.425.033-.622-.011-.309-.475-.506-.521-.339-.327-.536-.374-.407-.035-.6-.084-.366-.2-.562-.249-.487.27-.684.218-.333-.322-.529-.375-.517.353-.712.3-.262-.57-.456-.625-.293-.439-.487-.5-.492.242-.686.184-.493.229-.686.169-.355-.228-.548-.289-.24-.578-.433-.64-.613.573-.806.509-.318-.332-.51-.4-.208-.641-.4-.707-.555.362-.746.293-.353-.22-.543-.289-.249-.495-.439-.564-.58.4-.77.324-.362-.192-.551-.266-.374-.16-.562-.234-.186-.627-.373-.7-.56.3-.747.226-.4-.1-.584-.18-.385-.136-.571-.215-.082-.831-.268-.911-.706.6-.891.52-.087-.8-.272-.881-.646.44-.829.355-.1-.745-.285-.831-.568.256-.751.17-.188-.542-.371-.63-.5.092-.676,0-.367-.173-.547-.264-.454,0-.634-.095-.063-.762-.242-.855-.617.3-.8.21-.4-.106-.582-.2-.4-.12-.576-.217,0-.834-.179-.933-.333-.228-.509-.328-.421-.075-.6-.175-.3-.289-.473-.391-.31-.267-.484-.369-.8.548-.973.444.078-.91-.095-1.016-.568.153-.74.046-.436-.068-.608-.176-.4-.133-.567-.242-.191-.454-.36-.564-.443-.064-.613-.175-.238-.375-.406-.488-.251-.352-.418-.466-.394-.142-.56-.256-.408-.122-.575-.238-.13-.518-.3-.635-.376-.167-.54-.286-.277-.307-.44-.426-.54.05-.7-.07-.457-.067-.619-.189.075-.769-.087-.891-.239-.35-.4-.474-.519.011-.679-.114-.187-.414-.345-.54-.185-.412-.342-.539-.841.395-1,.267.176-.849.019-.978-.5-.027-.658-.157-.674.167-.828.036.23-.888.077-1.021-.754.25-.906.116-.016-.593-.168-.728-.479-.071-.63-.206-.22-.36-.369-.5-.583.032-.731-.105-.052-.539-.2-.678-.429-.136-.576-.275.082-.67-.063-.811-.416-.151-.561-.292-.393-.178-.536-.321,0-.574-.14-.717-.325-.245-.466-.39-.407-.167-.548-.312-.355-.219-.494-.366-.085-.474-.224-.622-.585-.007-.722-.156.115-.655-.021-.8-.441-.144-.577-.294-.171-.388-.306-.54-.206-.354-.339-.506-.3-.273-.431-.427-.143-.407-.274-.561-.722.083-.852-.072-.431-.168-.561-.325.1-.609-.026-.766-.465-.144-.592-.3-.222-.342-.348-.5-.077-.455-.2-.614-.236-.328-.36-.488-.611-.042-.734-.2-.075-.453-.2-.615-.561-.089-.681-.251-.1-.434-.216-.6-.178-.374-.3-.538.349-.745.232-.911-.282-.292-.4-.458-.6-.072-.719-.239-.176-.37-.289-.537.03-.507-.082-.676-.861.087-.973-.083-.3-.294-.406-.464.5-.806.395-.977-.248-.319-.355-.491-.358-.252-.464-.423-.019-.462-.124-.635-.941.1-1.045-.077.157-.567.054-.742-.337-.272-.438-.447.163-.561.062-.736-.013-.456-.112-.632-.613-.12-.711-.3-.169-.368-.267-.546-.56-.158-.656-.337.588-.771.493-.95-.3-.295-.4-.475-.871-.007-.963-.187-.11-.4-.2-.582.369-.636.279-.817-.426-.241-.514-.423.075-.484-.013-.667-.219-.342-.3-.526-.713-.116-.8-.3.618-.725.535-.91-.628-.161-.71-.346-.234-.34-.315-.526-.269-.326-.348-.512-.29-.319-.368-.506.34-.58.264-.767-.1-.4-.174-.583-.493-.239-.567-.428-.376-.289-.449-.478.4-.585.324-.774-.442-.267-.512-.457.438-.59.37-.78-.941-.093-1.009-.284-.117-.39-.183-.582.676-.658.61-.85-.517-.251-.581-.443-.327-.319-.389-.512.444-.564.384-.757-.441-.285-.5-.478.007-.424-.051-.617-.844-.173-.9-.367.807-.654.752-.849-.894-.169-.948-.364.489-.553.436-.749.1-.441.045-.637-.236-.354-.286-.55-.112-.387-.16-.583-.2-.367-.244-.564-.187-.371-.233-.567.158-.449.113-.647-.143-.381-.186-.579-.9-.221-.946-.419.509-.52.469-.719.1-.431.061-.63-.81-.257-.848-.456.652-.533.615-.732-.646-.3-.681-.5.557-.5.524-.705-.845-.272-.877-.472.092-.426.062-.627.486-.481.456-.682-.628-.319-.656-.52.064-.419.037-.62.633-.488.608-.689-.319-.367-.342-.568.135-.42.113-.622-.476-.355-.5-.557.34-.439.321-.641-.292-.378-.31-.58.226-.424.209-.626-.474-.368-.489-.57-.349-.381-.363-.583.527-.441.515-.644.31-.422.3-.624-.469-.38-.478-.583-.277-.394-.285-.6-.285-.4-.292-.6.525-.423.519-.625-.342-.4-.347-.6.527-.414.524-.617-.746-.4-.747-.6.685-.41.685-.613-.5-.407-.494-.61.42-.4.423-.6-.152-.408-.148-.61-.073-.408-.067-.61.078-.4.085-.606-.009-.407,0-.609-.3-.42-.292-.623.686-.372.7-.573-.535-.437-.522-.639.269-.39.282-.592.009-.406.024-.608-.257-.428-.241-.63.3-.382.316-.584.2-.388.219-.589.491-.356.512-.558-.353-.443-.331-.645-.331-.446-.307-.647.336-.368.361-.569-.234-.439-.207-.64.107-.4.135-.6.531-.334.56-.534-.254-.447-.224-.647-.32-.461-.288-.662.562-.32.595-.52-.426-.485-.39-.685.4-.341.441-.541.069-.4.106-.6-.18-.449-.141-.647.919-.23.959-.429-.088-.429-.047-.627-.155-.447-.112-.644-.3-.482-.255-.68.459-.312.5-.509.237-.359.284-.556.254-.354.3-.55-.186-.463-.137-.659.268-.348.32-.543-.093-.444-.041-.639.128-.385.181-.58-.261-.5-.206-.69.264-.348.322-.542.3-.333.36-.527-.207-.487-.148-.68.853-.159.914-.352-.567-.606-.505-.8-.047-.444.016-.636.314-.325.378-.517.436-.279.5-.471.323-.315.39-.506-.067-.453,0-.643.413-.279.483-.469-.112-.473-.04-.662-.059-.457.014-.646.671-.172.746-.36.2-.352.277-.54-.592-.677-.515-.863.23-.346.308-.532.057-.418.136-.6.694-.142.775-.328-.063-.469.019-.654.3-.311.381-.494.115-.393.2-.576.474-.226.559-.409.088-.4.176-.586-.568-.722-.479-.9.373-.271.462-.453.3-.306.388-.486.329-.288.421-.468-.149-.533-.056-.713.1-.407.2-.586.135-.391.231-.569.445-.222.542-.4.063-.43.161-.607.14-.389.239-.565.456-.209.556-.385.617-.11.719-.285-.135-.548-.032-.722.25-.324.354-.5.264-.313.37-.485.027-.46.133-.632.736-.017.844-.188.214-.34.323-.51-.572-.851-.462-1.021.858.077.969-.092.4-.216.514-.384-.444-.787-.33-.954.562-.107.676-.274.293-.289.408-.454.54-.112.657-.277-.017-.506.1-.671.359-.237.479-.4-.306-.727-.186-.89.71.024.831-.138-.155-.625-.033-.787.3-.282.424-.441.164-.387.289-.547.262-.311.388-.469.232-.334.36-.492.677.029.8-.128-.2-.694-.075-.849.8.143.932-.012-.047-.569.085-.724.346-.236.479-.389.13-.424.263-.576.484-.111.619-.263.287-.284.423-.435-.061-.6.076-.751.674.07.811-.078,0-.55.143-.7.133-.433.272-.579.461-.12.6-.266.49-.087.632-.231-.249-.815-.106-.958.724.15.868.007.311-.259.455-.4.293-.277.438-.418-.126-.717.02-.857.618.063.766-.076.529-.024.678-.162.352-.21.5-.347.028-.568.178-.7.029-.575.181-.709.736.222.888.088.268-.3.421-.437.357-.2.51-.334.224-.359.378-.49.476-.058.633-.186.032-.6.188-.724.165-.439.322-.567.62.127.778,0,.455-.072.614-.2-.081-.76.08-.884.671.212.833.09.259-.325.421-.446-.125-.844.037-.965.463-.057.626-.176.464-.05.629-.168.1-.564.26-.681.62.177.786.061.423-.1.59-.212.3-.268.471-.382.181-.455.349-.567.35-.2.519-.315.093-.6.263-.71.853.577,1.023.468.273-.319.444-.427.343-.209.515-.316-.075-.894.1-1,.519.073.693-.032.591.2.765.1.2-.456.375-.557.34-.218.516-.319.473.017.649-.083.4-.111.575-.209.332-.229.51-.326.152-.566.33-.662.28-.336.459-.432.331-.243.51-.335.476.039.657-.053.172-.56.353-.65.673.443.855.354.042-.836.225-.924.47.04.653-.047.577.274.76.188.231-.459.416-.544.523.175.707.092.107-.753.292-.834.36-.191.546-.272.636.453.822.374.172-.631.359-.709.387-.125.574-.2.466.07.653,0,.471.1.66.022.4-.069.593-.142.317-.3.507-.367.422-.019.612-.089.067-.995.258-1.063.679.7.869.629.411-.041.6-.107.277-.434.469-.5.336-.269.528-.333.436.033.628-.029.238-.588.431-.648.428.01.622-.049.3-.412.494-.47.466.143.661.086.468.16.663.1.381-.136.576-.19.424.021.62-.032.464.178.659.127.267-.577.464-.626.443.108.64.06.382-.139.579-.186.337-.332.534-.377.323-.409.521-.454.57.705.769.662.32-.432.518-.473.436.118.635.078.28-.664.479-.7.449.188.648.15.318-.515.518-.551.424.058.623.023.471.345.67.312.438.177.638.145.3-.723.5-.753.51.672.71.643.292-.827.492-.854.4-.058.6-.084.514.829.715.8.4-.017.6-.041.34-.575.542-.6.432.239.633.218.418.135.62.115.408.055.61.037.387-.189.589-.206.36-.561.562-.576.38-.382.582-.4.461.848.663.835.389-.265.591-.276.423.382.625.373.371-.741.574-.75.408.054.611.048.4-.282.6-.288.414.275.617.271.407.065.61.063.4-.282.607-.284.408-.149.612-.149.408,0,.611,0,.406.133.609.135.4.275.6.279.418-.44.62-.435.378.912.58.918.435-.792.638-.784.382.546.585.556.411-.115.613-.1.386.318.588.331.456-.757.658-.743.4.146.6.161.411-.017.612,0,.324.965.525.983.4.027.6.046.438-.322.639-.3.456-.451.658-.429.346.55.547.573.47-.5.671-.474.35.464.551.491.419-.069.619-.041.451-.276.651-.247.268.949.468.979.534-.793.734-.762.261.916.461.949.441-.189.641-.154.412-.008.612.027.374.2.573.237.474-.319.673-.28.334.4.532.44.5-.406.7-.364.236.829.434.872.6-.815.794-.77.284.583.481.629.426-.039.623.009.393.1.59.148.374.178.57.228.345.285.541.335.412.024.608.078.3.423.5.477.427-.029.622.025.355.222.55.28.388.11.581.168.565-.465.759-.406.159.849.352.91.671-.772.864-.71.166.8.358.863.538-.332.729-.267.163.773.354.84.564-.388.754-.321.33.28.521.349.431,0,.62.072.394.1.583.176.416.052.6.125.32.3.509.371.269.418.456.494.418.044.605.121.522-.2.709-.125.128.737.315.816.423.038.608.119.36.182.546.264.606-.364.791-.281.375.159.559.243.429.044.613.13.376.159.559.246.286.346.468.435.444.021.626.11.113.685.294.776.193.509.374.6.714-.5.893-.409.321.264.5.359.434.05.613.146.4.115.579.213.315.275.491.373-.055.928.121,1.028.673-.366.848-.265.082.666.257.767.56-.155.734-.051.289.307.462.411.272.332.445.437.671-.315.843-.208.332.238.5.346-.03.8.14.914.4.117.574.227.6-.169.764-.057.327.242.5.354,0,.716.172.831.494-.007.661.108.581-.125.747-.008.211.408.375.524.268.323.432.441.088.567.251.686.358.194.52.314.674-.226.836-.1.173.445.333.567.366.19.526.314.268.316.427.441.53-.016.689.11.283.3.44.426-.058.714.1.842.37.185.527.314.462.078.617.208.123.48.277.612.285.287.438.419.519.021.671.154.166.423.317.558.317.252.466.387.039.558.188.694.756-.225.9-.086.338.233.486.372-.176.773-.029.912.646-.089.791.051-.1.679.047.821.64-.075.784.068.562.012.7.156-.09.658.052.8.092.473.233.618.663-.076.8.07.12.445.258.593.451.133.588.282-.223.753-.086.9.849-.225.984-.075.014.533.148.684,0,.541.13.693.651-.032.784.121.524.086.656.239.117.434.248.588.016.516.145.671.119.425.247.582.106.431.234.588.492.122.618.28.727-.057.852.1-.095.588.029.749.252.317.375.478.088.44.21.6.748-.052.869.11.257.317.376.48.191.365.309.529.236.333.353.5-.086.558.03.724-.162.6-.047.77.822-.073.936.095.444.193.556.361-.108.56,0,.729.389.231.5.4.229.336.337.507-.489.789-.381.96.79-.018.9.154.433.212.538.385-.181.584-.077.757-.1.531,0,.705.873-.043.975.131.3.3.4.475-.013.476.087.652-.071.5.027.681.148.38.245.557.224.338.32.517.054.428.149.607.328.284.421.463.191.356.283.537.055.424.146.605.63.139.719.32.09.408.178.59.088.408.176.59.524.2.61.386-.626.736-.542.92.519.207.6.391.04.425.122.609.449.246.53.431.249.335.329.521-.272.555-.195.742.137.379.214.567.052.414.127.6.6.2.671.386.124.386.2.575.09.4.161.588-.067.456,0,.646.065.4.134.6.128.382.2.572.4.288.468.479.221.352.285.544-.43.569-.366.761.787.167.85.36-.56.6-.5.795.782.179.842.373-.059.442,0,.636-.024.429.032.623.673.229.728.423-.57.581-.516.776.628.248.681.443-.3.5-.252.7.466.3.516.494.112.391.161.587-.072.436-.024.633.47.307.515.5-.065.433-.021.631-.389.5-.346.7.261.357.3.555.542.3.582.5.069.4.108.6-.848.575-.81.774.476.321.512.521.063.4.1.6.532.32.566.52-.7.524-.666.724,0,.407.028.607.916.272.946.473-.456.474-.428.675.266.373.292.573.007.407.032.608-.223.434-.2.635.538.346.56.547-.663.478-.643.679.862.32.881.522-.7.471-.679.673-.1.412-.085.614,1.007.327,1.023.528-.773.462-.759.665-.11.41-.1.612.981.349.992.551-.105.414-.1.617.068.4.077.607-.11.412-.1.614-.525.422-.519.625.16.4.164.6-.188.407-.186.609.137.4.138.606.188.4.188.608.068.407.067.609-.153.4-.156.606-.02.4-.024.607.556.421.55.623-.768.383-.775.585.345.417.337.621-.57.379-.58.581.138.41.127.612.075.409.062.611.033.407.019.609-.092.4-.107.6-.31.379-.327.582.21.422.192.624.18.423.16.624.317.44.3.641-.337.374-.359.575-.191.386-.214.587-.447.352-.472.552.939.529.914.73-.416.355-.443.556-.384.354-.413.554-.369.352-.4.552.292.454.259.653-.236.371-.269.57,0,.41-.034.609.527.506.491.7-.5.322-.534.521.453.5.415.7-.087.4-.127.6-.387.337-.428.534-.589.288-.632.486-.029.406-.073.6-.287.348-.333.545.36.5.312.7-.3.344-.345.54.381.514.332.71-.579.269-.63.465-.267.345-.32.541-.053.4-.107.6.494.56.439.755-.414.3-.471.5.007.424-.052.619.244.5.185.692-.7.208-.759.4.438.566.376.759-.972.109-1.036.3.431.57.367.763-.268.337-.334.528.352.555.284.745-.784.151-.853.341-.282.327-.352.517.172.5.1.685-.561.217-.633.406.143.489.069.677-.389.279-.464.467.356.581.279.768-.014.434-.092.621-.55.208-.628.395.03.454-.051.639-.244.335-.326.521.011.449-.073.634,0,.446-.086.63-.436.246-.522.429-.153.376-.24.559-.662.129-.75.311.3.6.214.781-.574.166-.665.346-.07.416-.163.6.229.573.135.753-.059.429-.153.608-.522.182-.618.36-.507.185-.6.363.068.5-.03.675-.37.256-.469.432-.212.343-.312.519-.424.22-.526.4.462.74.36.914-.52.162-.624.335-.178.365-.284.538-.1.412-.208.584-.33.271-.438.442-.442.2-.551.368-.09.421-.2.591-.327.267-.439.436-.116.407-.229.575.178.609.064.776-.686.021-.8.188.227.65.111.816-.879-.125-1,.04.6.927.483,1.091-1.057-.266-1.176-.1.236.674.115.837-.073.453-.194.614-.863-.146-.986.015.454.859.33,1.019-.269.308-.394.466-.5.125-.623.284-.232.334-.359.492-.352.236-.48.392-.1.44-.233.6-.686-.046-.816.108-.356.225-.487.379-.224.337-.357.49.21.718.077.87-.339.242-.474.394-.121.437-.257.587-.585.017-.721.166-.062.493-.2.642-.133.433-.271.58-.328.25-.467.4-.826-.232-.967-.087-.206.36-.348.5.124.69-.019.833-.312.262-.456.4-.425.146-.57.287-.487.079-.633.219.233.828.086.967-.275.3-.423.441-.493.068-.641.206-.439.121-.588.258-.029.573-.178.709-.33.241-.481.376-.764-.255-.917-.121.168.808.014.94-.708-.2-.862-.071-.043.575-.2.705-.438.108-.593.237-.171.429-.328.558-.358.2-.514.331-.1.526-.258.652-.878-.458-1.037-.333.176.883.016,1.007-.35.213-.511.335-.279.305-.441.427-.37.186-.532.306-.305.272-.469.391-.621-.167-.785-.048-.518-.032-.683.085.188.97.023,1.086-.391.151-.558.266-.8-.447-.963-.333.023.756-.145.868-.519-.05-.687.062-.478.005-.648.116.185,1.035.014,1.144-.606-.2-.777-.088-.486-.016-.658.09.008.788-.165.893-.541-.11-.714-.005-.246.38-.42.484-.548-.133-.723-.031-.529-.113-.705-.012-.125.6-.3.7-.264.356-.441.455-.262.367-.439.464-.409.1-.588.194-.325.253-.5.347-.678-.422-.857-.329-.133.625-.313.717-.181.542-.363.633-.583-.261-.765-.171-.3.309-.482.4-.514-.135-.7-.048-.232.456-.416.542-.32.273-.5.358-.327.262-.512.345-.438.015-.623.1-.381.142-.567.222-.394.11-.58.19-.327.267-.514.344-.262.434-.449.51-.4.1-.585.181-.372.169-.56.243-.516-.2-.7-.131-.557-.327-.746-.255-.214.581-.4.65-.276.428-.466.5-.61-.506-.8-.438-.148.8-.34.869-.468-.113-.66-.048-.37.171-.562.234-.54-.353-.733-.291-.333.279-.527.34-.453-.1-.646-.041-.338.271-.532.329-.208.726-.4.782-.522-.345-.716-.289-.335.3-.53.357-.317.381-.513.435-.58-.609-.777-.558-.256.625-.452.675-.514-.391-.711-.342-.215.83-.412.877-.507-.383-.705-.337-.472-.258-.67-.213-.254.726-.451.769-.4.094-.594.136-.456-.206-.655-.165-.355.29-.555.328-.437-.129-.636-.092-.422-.059-.621-.022-.461-.3-.661-.263-.344.372-.544.4-.384.151-.584.184-.458-.324-.658-.293-.336.474-.537.5-.411-.026-.612,0-.415-.062-.615-.035-.423-.139-.624-.114-.313.775-.514.8-.376.291-.577.313-.451-.387-.652-.366-.41-.027-.612-.008-.406.008-.607.026-.388.216-.59.232-.385.285-.587.3-.466-.838-.668-.825-.36.686-.562.7-.39.307-.592.318-.412-.058-.614-.048-.406.038-.609.046-.415-.205-.618-.2-.42-.492-.622-.487-.4.054-.605.058-.394.631-.6.634-.408-.009-.611-.007S192.73,5474.766,192.527,5474.766Zm0-171.956c-.2,0-.4.155-.6.157s-.409-.515-.611-.512-.406-.043-.608-.039-.393.463-.6.469-.431-.789-.633-.782-.4.215-.6.224-.4.161-.6.171-.385.382-.587.394-.426-.333-.627-.32-.39.226-.593.241-.368.471-.57.486-.474-.834-.676-.817-.34.745-.541.764-.434-.292-.635-.272-.352.512-.553.534-.4.036-.6.06-.428-.2-.629-.176-.484-.6-.684-.572-.32.668-.521.695-.421-.1-.621-.066-.433-.159-.633-.129-.387.156-.586.188-.352.356-.552.39-.509-.575-.709-.541-.28.743-.479.78-.485-.4-.684-.359-.438-.12-.636-.081-.238.875-.436.916-.452-.194-.65-.152-.322.419-.519.462-.431-.084-.628-.04-.365.209-.562.256-.484-.292-.681-.243-.452-.138-.648-.088-.378.159-.575.209-.42,0-.615.053-.292.474-.487.528-.451-.111-.646-.057-.258.568-.452.625-.522-.347-.716-.289-.488-.211-.681-.152-.279.474-.472.534-.277.467-.469.528-.418.016-.61.079-.536-.325-.727-.261-.146.825-.337.891-.451-.07-.641,0-.564-.373-.754-.3-.2.631-.39.7-.409.057-.6.128-.514-.21-.7-.138-.169.681-.357.755-.394.1-.582.175-.378.139-.565.216-.572-.321-.758-.242-.181.609-.368.689-.347.21-.533.291-.359.185-.543.267-.67-.5-.854-.417-.02.927-.2,1.012-.661-.457-.843-.37-.079.775-.261.863-.641-.394-.823-.306-.153.6-.334.694-.545-.183-.725-.091-.224.451-.4.543-.355.193-.534.288-.262.367-.44.462-.665-.38-.843-.283-.087.681-.264.779-.305.279-.481.379-.308.271-.484.372-.716-.431-.891-.329-.37.174-.544.277-.276.331-.449.435-.4.124-.572.23-.385.15-.557.257.125.96-.046,1.068-.782-.474-.951-.365-.108.579-.277.69-.243.365-.411.477-.279.306-.447.418-.491-.005-.658.109-.226.383-.392.5-.434.083-.6.2-.418.109-.583.227-.267.321-.431.439-.248.345-.411.464-.533-.039-.695.083-.275.309-.436.432-.375.178-.535.3-.1.532-.259.656-.181.42-.339.547-.727-.262-.885-.135-.4.153-.556.281-.105.51-.262.639-.445.1-.6.23-.445.1-.6.236.238.9.085,1.029-.81-.311-.962-.178-.1.5-.255.63.076.688-.075.823-.854-.337-1-.2.165.775.018.914-.593-.042-.739.1-.11.472-.256.611-.374.194-.519.334,0,.58-.14.722-.539.028-.682.171-.145.423-.287.567-.67-.09-.81.055-.152.417-.292.564-.171.395-.31.542-.576.016-.714.164-.234.337-.37.487-.145.417-.28.567-.194.369-.329.52-.468.127-.6.279.052.583-.081.735-.666-.038-.8.115-.088.458-.219.612-.362.227-.491.383-.322.261-.45.418-.222.344-.349.5-.378.219-.5.377.222.691.1.851-.072.454-.195.615-.617.036-.739.2-.028.485-.149.647-.274.3-.394.461-.419.194-.538.358-.25.319-.368.483.14.594.024.76-.407.207-.522.373.1.555-.016.722-.375.231-.488.4-.287.292-.4.461-.823-.057-.934.113-.171.375-.279.545.165.586.057.757-.27.308-.377.479-.477.182-.583.354.444.742.34.915-.133.388-.236.562-.947-.088-1.049.086-.172.37-.272.546-.054.436-.153.613-.4.243-.494.419.552.765.456.942-.566.151-.661.33-.056.427-.15.6-.562.164-.655.343-.377.264-.469.444.242.575.152.756-.206.348-.3.53.2.544.11.726-.971-.015-1.057.168-.054.424-.139.608.531.688.448.871-.241.332-.324.517-.726.121-.807.306.093.482.014.667-.415.264-.493.45-.11.395-.186.581.4.6.325.786-.952.056-1.027.244.324.562.251.75-.072.4-.144.593-.031.418-.1.608-.005.426-.074.616-.641.2-.709.39-.188.363-.254.555.218.5.153.693.105.458.042.65-.676.205-.737.4.182.482.122.675-.708.206-.767.4.7.633.643.828-.133.379-.188.573-.932.155-.987.35.287.5.233.7.1.444.047.64-.68.241-.73.437.224.476.175.672-.224.362-.272.559.645.569.6.765-1.025.178-1.069.375.706.572.662.77-.69.264-.732.462-.287.355-.327.554.056.426.016.625-.064.4-.1.6.028.418-.009.618.024.416-.011.614-.32.357-.353.556-.01.411-.042.61.764.527.734.727-.658.31-.687.51-.239.376-.266.576.686.5.66.7-.784.307-.809.509.532.47.509.67-.676.332-.7.532.743.484.722.685-.2.384-.215.585-.588.354-.6.556.54.449.524.65-.15.392-.165.594-.717.357-.73.559.245.423.234.625-.2.4-.215.6.416.426.407.627-.4.39-.407.592.241.415.235.617-.273.4-.277.6.435.412.432.615.315.407.313.61-.558.4-.558.6-.334.409-.332.611.451.4.454.6.265.4.269.6.278.4.284.6-.526.419-.519.622.347.39.356.592-.516.428-.506.63.762.363.773.565-.663.444-.65.647.522.37.537.571-.386.434-.37.636.19.39.207.591.118.4.136.6-.028.409-.008.61.065.4.087.6.36.365.384.566-.615.479-.59.68.6.332.631.532-.188.432-.161.632.075.4.1.6.345.356.375.557-.2.439-.169.638-.1.426-.062.625-.38.478-.345.677.463.331.5.53.446.328.483.527-.209.451-.17.649.36.34.4.539.029.405.07.6-.383.5-.34.695.4.326.442.524.466.3.513.5-.4.509-.349.706.582.272.631.468-.231.475-.181.67.107.39.158.585.356.321.41.517-.718.619-.663.814.277.344.333.539.348.321.406.515.494.273.554.466-.243.5-.183.69-.02.432.042.625-.03.438.033.63.406.293.47.484-.033.44.033.631.325.316.393.506.115.389.183.58.5.247.569.437-.008.433.064.622-.04.448.033.636.462.253.537.44-.564.661-.488.849.823.1.9.29.322.3.4.488-.023.446.057.633-.136.5-.055.684-.021.453.061.638.363.282.446.466-.1.492-.012.675.416.253.5.436.37.272.457.455-.331.611-.242.792.128.392.218.573.9,0,.99.181.11.4.2.575.283.306.377.485-.325.63-.23.808.408.241.5.418.067.426.164.6.246.327.346.5-.091.519.009.694.282.307.385.482.914-.07,1.017.1.02.456.124.629.1.413.2.585.072.43.179.6.532.142.64.313.3.287.408.457.27.3.38.472-.019.493.093.662.348.25.461.418.28.294.395.461-.014.5.1.664-.161.607-.044.772.555.1.673.267.195.358.314.521.187.364.307.526.415.2.536.357-.249.695-.126.855.247.324.371.484.991-.259,1.116-.1-.348.788-.222.946.085.453.211.611.881-.194,1.01-.037-.056.568.073.723.2.36.331.515-.025.555.106.708.5.108.631.261.153.406.287.558.774-.146.908,0-.165.692-.029.842.643-.039.779.11.224.342.362.49.353.22.492.367.268.3.408.447.3.271.439.416-.106.669.036.813.708-.134.851.008-.212.788-.068.93.572,0,.716.137.215.36.36.5.417.148.564.287.1.489.244.626.281.295.43.431.6-.06.751.076-.063.676.088.81.549-.009.7.125.435.115.588.247.142.454.3.585.12.484.275.615.789-.315.944-.187-.082.734.074.862.293.283.451.41.312.258.471.383.691-.224.85-.1.029.62.189.744.112.521.273.643.274.313.436.434.565-.079.727.041.566-.09.73.029-.055.767.109.885.362.192.527.31.287.3.454.413.407.125.574.239.189.446.357.559.581-.139.749-.028.467.024.637.135.075.629.245.738.221.41.393.518.687-.333.859-.227.041.706.214.812.4.125.573.229.732-.437.906-.334.231.4.406.5.232.4.408.505.549-.151.725-.052.107.636.284.734.277.337.455.434.38.151.559.246.487-.053.666.041.347.208.527.3.563-.216.744-.125-.065,1.029.116,1.119.418.072.6.161.363.183.546.271.709-.549.891-.462.224.472.407.557.168.605.353.688.489-.1.673-.014.378.147.563.229.273.39.459.469.336.25.522.328.391.121.578.2.535-.24.722-.165.436,0,.623.071.4.09.585.164.286.382.475.453.524-.253.714-.183.139.795.329.864.626-.553.817-.486.3.361.491.427.223.6.414.663.485-.174.677-.111.269.483.461.545.579-.49.772-.43.392.092.585.15.194.757.388.814.532-.379.727-.323.378.142.572.2.325.341.52.394.322.361.518.413.373.184.568.234.434-.057.631-.007.363.224.56.272.6-.791.8-.745.194.953.392,1,.375.185.573.229.465-.226.663-.185.426-.062.625-.021.364.244.562.283.489-.4.687-.363.37.21.57.246.449-.23.648-.2.35.334.55.368.353.346.552.377.4.036.6.066.381.191.581.22.362.346.562.374.467-.432.668-.406.375.263.575.287.408.006.609.03.429-.2.63-.176.434-.283.636-.262.324.848.526.867.436-.316.638-.3.387.237.588.253.447-.562.649-.548.383.3.585.311.428-.422.631-.411.393.154.6.164.383.439.585.448.4.262.6.27.426-.653.628-.648.386.752.589.757.418-.769.62-.766.4,0,.6,0,.4.89.606.89.408.032.61.03.4-.536.6-.539.411.278.613.274.412.167.614.161.411.081.613.074.4-.17.6-.179.38-.546.583-.557.383-.373.585-.385.456.851.658.838.389-.267.591-.281.436.373.638.357.345-.753.546-.771.408.035.61.017.375-.305.576-.325.431.243.631.221.41.029.611.006.368-.323.568-.348.38-.195.581-.221.4-.055.6-.083.416.073.615.044.439.207.639.176.329-.506.529-.538.544.825.744.792.263-.863.463-.9.49.453.689.416.374-.206.572-.243.454.213.653.175.242-.848.441-.889.417.034.615-.008.383-.132.58-.175.6.824.8.779.4-.1.593-.147.312-.446.508-.494.274-.577.47-.626.517.394.712.343.251-.635.446-.687.5.3.694.245.356-.227.551-.282.3-.432.489-.488.642.75.835.692.138-.944.332-1,.641.705.834.645.31-.37.5-.431.361-.2.553-.264.426-.007.618-.071.253-.51.444-.576.49.176.681.108.213-.6.4-.673.643.578.832.508.055-1.007.244-1.079.557.33.746.257.327-.272.515-.347.377-.145.565-.22.4-.076.592-.153.447.021.633-.058.341-.233.527-.312.5.141.689.061.315-.295.5-.377.419-.061.6-.145.369-.172.552-.257.109-.722.292-.808.695.516.877.429-.046-1.021.136-1.11.676.457.858.367.143-.614.324-.706.671.42.85.327.105-.675.284-.77.43-.053.608-.148.287-.32.464-.417.335-.228.512-.326.3-.283.48-.382.431-.059.605-.16.5.05.671-.052.292-.3.465-.408.15-.538.322-.642.673.329.845.223.277-.324.449-.431.356-.2.527-.3.03-.7.2-.814.332-.228.5-.337.259-.336.428-.448.325-.235.492-.348.439-.068.606-.183.231-.373.4-.487.653.231.819.114.545.066.709-.052-.123-.863.04-.981.375-.168.538-.288.229-.367.39-.488.267-.312.428-.435.373-.172.534-.295.833.413.992.289-.083-.76.075-.886.651.166.808.039.052-.579.209-.706.386-.167.542-.3.4-.149.557-.28-.092-.732.062-.864.322-.241.474-.374.762.26.914.126.224-.359.375-.493-.011-.617.139-.753.312-.255.46-.392.7.161.848.023.1-.484.249-.623-.007-.592.139-.731.438-.125.582-.267.364-.2.508-.347.575,0,.718-.139.247-.326.389-.47-.134-.7.006-.842.461-.114.6-.261.226-.341.365-.488.338-.235.476-.384.024-.526.16-.675.313-.258.449-.408.711.1.845-.056.2-.365.334-.516.088-.46.221-.613.482-.119.613-.272.287-.289.418-.443.011-.518.14-.673.418-.18.546-.337.238-.328.365-.486.557-.074.682-.233-.28-.737-.156-.9.2-.354.324-.514.788.093.911-.067-.163-.631-.042-.793.688.006.808-.157-.165-.623-.047-.787-.079-.553.039-.717.663-.024.78-.189.449-.182.565-.347-.206-.634-.092-.8.409-.211.522-.378.027-.467.139-.636.787.032.9-.137-.434-.763-.325-.933.509-.154.618-.325.522-.151.629-.323-.222-.612-.117-.785-.082-.521.022-.694.37-.247.473-.42.481-.186.583-.361.358-.26.459-.436.368-.259.466-.436-.069-.5.029-.681-.335-.644-.239-.822.577-.146.672-.324.185-.36.279-.538.361-.268.454-.448-.377-.646-.286-.826.165-.366.255-.547.233-.333.322-.514.178-.36.265-.542.527-.195.614-.377.6-.165.69-.349-.484-.667-.4-.852-.071-.472.011-.656.529-.205.61-.391-.021-.448.058-.634.149-.373.227-.56.929-.052,1.005-.239-.475-.631-.4-.818-.089-.468-.015-.656.575-.208.647-.4.482-.25.553-.439-.583-.649-.514-.839.039-.413.107-.6.368-.295.435-.485.426-.278.491-.47.183-.366.247-.557.095-.4.158-.587.273-.337.335-.53-.028-.434.032-.627.115-.388.173-.581.254-.347.312-.54-.367-.529-.311-.723.206-.36.261-.554.2-.363.256-.558-.269-.489-.216-.684.953-.167,1-.363-.273-.488-.224-.684.231-.36.279-.557-.21-.465-.164-.662,0-.414.042-.611.545-.292.588-.49.105-.392.147-.59.189-.375.23-.573-.392-.492-.353-.69.1-.391.14-.589.133-.386.168-.586.291-.359.325-.558.146-.386.18-.585.075-.4.106-.6-.216-.443-.186-.643-.033-.414,0-.614.641-.318.668-.519-.636-.494-.61-.694.763-.312.787-.513-.64-.484-.617-.685.23-.38.252-.582.187-.387.208-.588-.54-.458-.521-.659.74-.339.757-.541-.5-.447-.489-.648.453-.371.467-.573-.348-.428-.335-.63.012-.4.024-.6.2-.394.206-.6-.366-.42-.358-.622.177-.395.185-.6.5-.388.508-.59-.168-.409-.164-.612-.461-.412-.458-.614.017-.4.019-.6.943-.4.943-.606-.409-.4-.411-.606.005-.405,0-.608-.476-.4-.481-.6.765-.424.759-.626.054-.409.047-.611-.881-.371-.889-.573.5-.427.491-.629-.234-.393-.246-.595.022-.406.009-.608.246-.422.232-.625-.523-.366-.539-.567.677-.462.66-.663-.857-.33-.876-.531.7-.474.676-.675.1-.42.074-.621-1.017-.293-1.04-.495.752-.5.728-.7.085-.421.059-.622-1-.275-1.03-.475.07-.416.041-.615-.107-.391-.137-.591.062-.417.031-.617.467-.486.433-.686-.215-.375-.249-.575.123-.435.086-.633-.2-.375-.241-.574-.259-.363-.3-.561-.146-.384-.187-.582.066-.426.024-.625-.071-.4-.115-.6-.638-.271-.684-.468.648-.564.6-.761-.444-.311-.492-.507.441-.526.392-.723-.253-.356-.3-.552-.2-.369-.249-.564-.161-.376-.214-.572-.047-.408-.1-.6.158-.469.1-.663-.349-.322-.406-.516-.324-.326-.383-.519-.461-.28-.522-.473.16-.474.1-.667.014-.431-.049-.623.254-.513.189-.7-1.075-.061-1.141-.252.212-.5.145-.69.177-.493.108-.683.155-.491.085-.68-.477-.257-.549-.446.018-.441-.055-.629-.211-.354-.286-.543-.713-.15-.788-.338.247-.536.171-.723-.652-.166-.731-.352-.149-.373-.229-.558.126-.493.045-.679.31-.58.227-.764-.221-.347-.3-.53.015-.456-.069-.639-.592-.172-.679-.355.014-.456-.074-.637-.62-.148-.709-.33.264-.582.173-.763-.031-.44-.122-.621-.234-.337-.327-.518-.742-.068-.837-.248.09-.5-.006-.683-.3-.3-.4-.474-.525-.17-.623-.347.332-.647.233-.824-.71-.061-.811-.235.57-.8.468-.971-.713-.052-.815-.225-.082-.421-.187-.595-.648-.077-.754-.25.375-.705.268-.877-.085-.425-.193-.6-.5-.163-.608-.333.155-.584.044-.754-.482-.169-.594-.337-.009-.482-.123-.649-.68-.029-.794-.2-.353-.246-.469-.412.117-.575,0-.741-.4-.21-.519-.375-.163-.38-.282-.544-.393-.212-.512-.375-.386-.215-.507-.377-.008-.5-.13-.659-.262-.308-.385-.468.178-.653.054-.812-.671.012-.8-.146.092-.592-.035-.75-.352-.237-.48-.395-.615-.016-.744-.171-.37-.215-.5-.37.026-.55-.105-.7.007-.542-.125-.694-.492-.109-.625-.261-.12-.435-.254-.585-.26-.313-.4-.463-.083-.475-.22-.624-.842.227-.98.079-.01-.543-.149-.69-.3-.269-.444-.415-.374-.2-.514-.346-.185-.386-.327-.53-.1-.477-.238-.62-.395-.179-.539-.321-.2-.376-.345-.517-.38-.191-.526-.331-.628.074-.775-.064.086-.682-.062-.82-.674.133-.823,0,.234-.859.084-.994-.987.494-1.138.36.369-1.027.217-1.16-.692.177-.845.044-.443-.1-.6-.234.194-.854.039-.984-.876.418-1.032.289-.294-.274-.45-.4-.116-.5-.273-.623-.332-.232-.49-.357-.24-.349-.4-.473-.441-.091-.6-.214.017-.688-.144-.811-.249-.348-.411-.469-.356-.2-.519-.324-.7.268-.861.149-.272-.313-.436-.43-.444-.07-.61-.187-.089-.578-.254-.692-.5.007-.663-.107-.444-.062-.611-.176-.3-.279-.466-.39.078-.856-.091-.967-.4-.136-.567-.246-.648.265-.82.157-.322-.246-.493-.352-.241-.378-.413-.483-.2-.455-.372-.559-.734.443-.908.34-.36-.178-.535-.28-.2-.45-.379-.551-.247-.381-.423-.48-.549.155-.726.058-.332-.229-.509-.327-.024-.807-.2-.9-.694.445-.872.35-.073-.733-.253-.826-.547.18-.727.089-.272-.36-.452-.45-.46.02-.641-.069-.332-.239-.515-.326-.512.141-.695.055.017-.99-.166-1.076-.7.562-.887.478-.348-.207-.532-.289-.4-.1-.583-.176-.34-.227-.525-.307-.385-.123-.571-.2-.18-.617-.367-.694-.252-.458-.44-.533-.709.687-.9.613-.337-.24-.525-.313-.086-.909-.275-.981-.6.456-.792.386-.266-.449-.456-.518-.3-.379-.486-.447-.7.782-.892.716-.221-.6-.413-.66-.3-.387-.49-.45-.592.516-.784.454-.27-.479-.464-.54-.443.072-.637.014-.273-.493-.467-.551-.287-.463-.481-.519-.515.326-.71.271-.437.066-.632.013-.439.083-.635.03-.361-.208-.557-.258-.407-.032-.6-.081-.228-.767-.424-.814-.509.385-.706.34-.481.3-.678.254-.284-.57-.482-.614-.425.056-.623.014-.325-.42-.524-.461-.458.226-.656.186-.417.035-.615,0-.414.026-.613-.01-.366-.234-.565-.27-.393-.091-.593-.125-.389-.12-.588-.152-.416.054-.616.023-.441.238-.641.208-.389-.109-.59-.137-.4-.035-.6-.061-.352-.425-.552-.45-.343-.55-.544-.573-.455.421-.656.4-.432.263-.633.242-.337-.719-.538-.738-.466.669-.667.652-.38-.292-.581-.309-.406.013-.607,0-.37-.531-.572-.543-.415.138-.618.126-.393-.254-.6-.265-.413.141-.616.132-.428.62-.631.612-.388-.49-.59-.5-.41.19-.612.186-.408.277-.61.274-.4-.744-.6-.745S192.729,5302.81,192.527,5302.81Z" transform="translate(-104.243 -5298.473)" fill="#00a3fa"/>
</svg>
